<svg xmlns="http://www.w3.org/2000/svg" xmlns:xlink="http://www.w3.org/1999/xlink" version="1.2" width="210.00mm" height="297.00mm" viewBox="0 0 70.2950 99.4173">
<style text="style/css">
<![CDATA[
tspan { white-space: pre; }
]]>
</style>
<!-- Page: 1/1 -->
<text transform="translate(3.3474, 1.6737)" font-family="serif" font-size="2.2000" text-anchor="start" fill="currentColor">
<tspan/>
</text>
<line transform="translate(8.3685, 8.4417)" stroke-linejoin="round" stroke-linecap="round" stroke-width="0.0729" stroke="currentColor" x1="0.0365" y1="-0.0000" x2="58.5427" y2="-0.0000"/>
<line transform="translate(8.3685, 7.4417)" stroke-linejoin="round" stroke-linecap="round" stroke-width="0.0729" stroke="currentColor" x1="0.0365" y1="-0.0000" x2="58.5427" y2="-0.0000"/>
<line transform="translate(8.3685, 6.4417)" stroke-linejoin="round" stroke-linecap="round" stroke-width="0.0729" stroke="currentColor" x1="0.0365" y1="-0.0000" x2="58.5427" y2="-0.0000"/>
<line transform="translate(8.3685, 5.4417)" stroke-linejoin="round" stroke-linecap="round" stroke-width="0.0729" stroke="currentColor" x1="0.0365" y1="-0.0000" x2="58.5427" y2="-0.0000"/>
<line transform="translate(8.3685, 4.4417)" stroke-linejoin="round" stroke-linecap="round" stroke-width="0.0729" stroke="currentColor" x1="0.0365" y1="-0.0000" x2="58.5427" y2="-0.0000"/>
<rect transform="translate(3.3474, 9.4417)" x="54.8268" y="-0.0865" width="1.6094" height="0.1729" ry="0.0865" fill="currentColor"/>
<rect transform="translate(3.3474, 9.4417)" x="13.3194" y="-0.0865" width="1.6094" height="0.1729" ry="0.0865" fill="currentColor"/>
<rect transform="translate(52.3112, 6.4417)" x="0.0000" y="-2.0000" width="0.1386" height="4.0000" ry="0.0000" fill="currentColor"/>
<path transform="translate(65.4770, 5.9417) scale(0.0040, -0.0040)" d="M0 0c0 32 25 57 57 57s57 -25 57 -57s-25 -57 -57 -57s-57 25 -57 57z" fill="currentColor"/>
<path transform="translate(65.4770, 6.9417) scale(0.0040, -0.0040)" d="M0 0c0 32 25 57 57 57s57 -25 57 -57s-25 -57 -57 -57s-57 25 -57 57z" fill="currentColor"/>
<rect transform="translate(66.5100, 6.4417)" x="0.0000" y="-2.0000" width="0.4376" height="4.0000" ry="0.0000" fill="currentColor"/>
<rect transform="translate(66.1526, 6.4417)" x="0.0000" y="-2.0000" width="0.1386" height="4.0000" ry="0.0000" fill="currentColor"/>
<rect transform="translate(33.6082, 6.4417)" x="0.0000" y="-2.0000" width="0.1386" height="4.0000" ry="0.0000" fill="currentColor"/>
<text transform="translate(46.3447, 11.9417)" font-family="serif" font-size="1.7463" text-anchor="start" fill="currentColor">
<tspan>šla</tspan>
</text>
<rect transform="translate(48.0890, 6.4417)" x="-0.0474" y="-2.5000" width="0.0948" height="3.3042" ry="0.0235" fill="currentColor"/>
<circle transform="translate(54.1815, 8.4417)" stroke-linejoin="round" stroke-linecap="round" fill="currentColor" stroke="currentColor" stroke-width="0" r="0.5365"/>
<g color="rgb(100.0000%, 100.0000%, 100.0000%)">
<text transform="translate(53.8802, 8.7599)" font-family="sans-serif" font-weight="bold" font-size="0.8731" text-anchor="start" fill="currentColor">
<tspan>E</tspan>
</text>
</g>
<text transform="translate(53.0969, 11.9417)" font-family="serif" font-size="1.7463" text-anchor="start" fill="currentColor">
<tspan>pa</tspan>
</text>
<rect transform="translate(54.6705, 6.4417)" x="-0.0474" y="-1.5000" width="0.0948" height="3.3042" ry="0.0235" fill="currentColor"/>
<circle transform="translate(47.6000, 7.4417)" stroke-linejoin="round" stroke-linecap="round" fill="currentColor" stroke="currentColor" stroke-width="0" r="0.5365"/>
<g color="rgb(100.0000%, 100.0000%, 100.0000%)">
<text transform="translate(47.2384, 7.7595)" font-family="sans-serif" font-weight="bold" font-size="0.8731" text-anchor="start" fill="currentColor">
<tspan>G</tspan>
</text>
</g>
<rect transform="translate(43.0416, 6.4417)" x="-0.0474" y="-2.0000" width="0.0948" height="3.3042" ry="0.0235" fill="currentColor"/>
<text transform="translate(41.9902, 11.9417)" font-family="serif" font-size="1.7463" text-anchor="start" fill="currentColor">
<tspan>u</tspan>
</text>
<circle transform="translate(42.5526, 7.9417)" stroke-linejoin="round" stroke-linecap="round" fill="currentColor" stroke="currentColor" stroke-width="0" r="0.5365"/>
<g color="rgb(100.0000%, 100.0000%, 100.0000%)">
<text transform="translate(42.2513, 8.2599)" font-family="sans-serif" font-weight="bold" font-size="0.8731" text-anchor="start" fill="currentColor">
<tspan>F</tspan>
</text>
</g>
<rect transform="translate(39.9814, 6.4417)" x="-0.0474" y="-2.0031" width="0.0948" height="2.8072" ry="0.0235" fill="currentColor"/>
<text transform="translate(38.6890, 11.9417)" font-family="serif" font-size="1.7463" text-anchor="start" fill="currentColor">
<tspan>la</tspan>
</text>
<circle transform="translate(39.4924, 7.4417)" stroke-linejoin="round" stroke-linecap="round" fill="currentColor" stroke="currentColor" stroke-width="0" r="0.5365"/>
<g color="rgb(100.0000%, 100.0000%, 100.0000%)">
<text transform="translate(39.1309, 7.7595)" font-family="sans-serif" font-weight="bold" font-size="0.8731" text-anchor="start" fill="currentColor">
<tspan>G</tspan>
</text>
</g>
<rect transform="translate(18.9623, 11.9417)" x="0.0000" y="-0.5148" width="0.6600" height="0.0948" ry="0.0292" fill="currentColor"/>
<polygon transform="translate(36.8739, 4.2382)" stroke-linejoin="round" stroke-linecap="round" stroke-width="0.0471" fill="currentColor" stroke="currentColor" points="3.1315 -0.0129 3.1315 0.4200 0.0235 0.2165 0.0235 -0.2165"/>
<rect transform="translate(56.1096, 11.9417)" x="0.0000" y="-0.5148" width="0.6600" height="0.0948" ry="0.0292" fill="currentColor"/>
<rect transform="translate(50.6461, 11.9417)" x="0.0000" y="-0.5148" width="0.6600" height="0.0948" ry="0.0292" fill="currentColor"/>
<rect transform="translate(44.3998, 11.9417)" x="0.0000" y="-0.5148" width="0.6600" height="0.0948" ry="0.0292" fill="currentColor"/>
<rect transform="translate(37.7578, 11.9417)" x="0.0000" y="-0.5148" width="0.6600" height="0.0948" ry="0.0292" fill="currentColor"/>
<polygon transform="translate(17.9132, 6.2382)" stroke-linejoin="round" stroke-linecap="round" stroke-width="0.0471" fill="currentColor" stroke="currentColor" points="3.3815 -0.8094 3.3815 -0.3765 0.0235 0.2165 0.0235 -0.2165"/>
<rect transform="translate(26.4796, 11.9417)" x="0.0000" y="-0.5148" width="0.6600" height="0.0948" ry="0.0292" fill="currentColor"/>
<rect transform="translate(59.4679, 6.4417)" x="-0.0474" y="-0.5000" width="0.0948" height="3.2328" ry="0.0235" fill="currentColor"/>
<text transform="translate(57.6131, 11.9417)" font-family="serif" font-size="1.7463" text-anchor="start" fill="currentColor">
<tspan>ná,</tspan>
</text>
<circle transform="translate(58.9788, 9.4417)" stroke-linejoin="round" stroke-linecap="round" fill="currentColor" stroke="currentColor" stroke-width="0" r="0.5365"/>
<g color="rgb(100.0000%, 100.0000%, 100.0000%)">
<circle transform="translate(58.9788, 9.4417)" stroke-linejoin="round" stroke-linecap="round" fill="currentColor" stroke="currentColor" stroke-width="0" r="0.4416"/>
</g>
<text transform="translate(58.6575, 9.7595)" font-family="sans-serif" font-weight="bold" font-size="0.8731" text-anchor="start" fill="currentColor">
<tspan>C</tspan>
</text>
<circle transform="translate(20.7817, 8.4417)" stroke-linejoin="round" stroke-linecap="round" fill="currentColor" stroke="currentColor" stroke-width="0" r="0.5365"/>
<g color="rgb(100.0000%, 100.0000%, 100.0000%)">
<text transform="translate(20.4804, 8.7599)" font-family="sans-serif" font-weight="bold" font-size="0.8731" text-anchor="start" fill="currentColor">
<tspan>E</tspan>
</text>
</g>
<text transform="translate(19.9783, 11.9417)" font-family="serif" font-size="1.7463" text-anchor="start" fill="currentColor">
<tspan>la</tspan>
</text>
<rect transform="translate(21.2707, 6.4417)" x="-0.0474" y="-0.7882" width="0.0948" height="2.5924" ry="0.0235" fill="currentColor"/>
<circle transform="translate(24.0918, 7.4417)" stroke-linejoin="round" stroke-linecap="round" fill="currentColor" stroke="currentColor" stroke-width="0" r="0.5365"/>
<g color="rgb(100.0000%, 100.0000%, 100.0000%)">
<text transform="translate(23.7303, 7.7595)" font-family="sans-serif" font-weight="bold" font-size="0.8731" text-anchor="start" fill="currentColor">
<tspan>G</tspan>
</text>
</g>
<text transform="translate(22.6357, 11.9417)" font-family="serif" font-size="1.7463" text-anchor="start" fill="currentColor">
<tspan>ces</tspan>
</text>
<path transform="translate(13.4990, 6.4417) scale(0.0040, -0.0040)" d="M147 479c-28 0 -58 -9 -58 -33c0 -22 36 -25 36 -47c0 -32 -25 -57 -57 -57s-57 25 -57 57c0 63 66 101 136 101c90 0 165 -35 165 -115c0 -44 -3 -83 -41 -101c-8 -4 -13 -12 -13 -20s5 -16 13 -20c41 -19 55 -58 55 -104c0 -91 -77 -140 -175 -140
c-77 0 -151 41 -151 111c0 36 29 65 65 65s65 -29 65 -65c0 -25 -40 -28 -40 -53c0 -26 31 -37 61 -37c50 0 66 61 66 119c0 62 -1 110 -54 110h-82c-9 0 -13 7 -13 14s4 13 13 13h82c52 0 54 47 54 108c0 56 -18 94 -70 94z" fill="currentColor"/>
<path transform="translate(13.3685, 8.4576) scale(0.0040, -0.0040)" d="M208 319c21 13 42 27 57 47c11 15 18 32 25 49c4 9 20 7 20 -7v-256h68c9 0 13 -7 13 -14s-4 -13 -13 -13h-68v-16c0 -45 26 -88 68 -88c7 0 10 -5 10 -10s-3 -11 -10 -11c-41 0 -82 13 -123 13s-82 -13 -123 -13c-7 0 -10 6 -10 11s3 10 10 10c42 0 68 43 68 88v16h-173
c-21 0 -29 13 -29 21c0 2 1 5 2 6c81 96 146 208 146 333c0 10 7 18 15 15c22 -7 44 -13 67 -13s45 6 67 13c12 4 21 -8 15 -15l-283 -333h173v147c0 8 2 16 8 20z" fill="currentColor"/>
<circle transform="translate(17.4715, 9.4417)" stroke-linejoin="round" stroke-linecap="round" fill="currentColor" stroke="currentColor" stroke-width="0" r="0.5365"/>
<g color="rgb(100.0000%, 100.0000%, 100.0000%)">
<text transform="translate(17.1502, 9.7595)" font-family="sans-serif" font-weight="bold" font-size="0.8731" text-anchor="start" fill="currentColor">
<tspan>C</tspan>
</text>
</g>
<path transform="translate(9.1685, 7.4417) scale(0.0040, -0.0040)" d="M374 260c5 0 10 1 15 1c154 0 254 -127 254 -259c0 -76 -33 -153 -107 -208c-22 -17 -47 -29 -73 -37c3 -36 5 -72 5 -108c0 -19 0 -37 -1 -56c-7 -120 -88 -226 -206 -226c-108 0 -195 87 -195 195c0 58 53 104 112 104c54 0 95 -48 95 -104c0 -52 -43 -95 -95 -95
c-12 0 -24 4 -35 9c26 -41 70 -70 121 -70c1 0 2 1 3 1c93 2 154 93 160 192c1 18 2 35 2 53c0 32 -2 64 -5 96c-29 -5 -58 -8 -89 -8c-188 0 -333 171 -333 372c0 178 133 306 251 440c-18 63 -35 126 -42 191c-6 51 -7 102 -7 154c0 116 55 226 150 295c5 4 11 4 16 0
c70 -84 132 -246 132 -359c0 -144 -87 -256 -183 -365c20 -69 39 -138 55 -208zM459 -205c69 24 117 96 117 166c0 92 -69 184 -179 193c25 -117 48 -235 62 -359zM71 31c0 -136 131 -251 267 -251c28 0 55 2 82 6c-15 128 -38 247 -64 367c-79 -9 -125 -62 -125 -121
c0 -44 26 -92 82 -124c4 -4 7 -9 7 -14c0 -11 -9 -21 -20 -21c-3 0 -6 1 -9 2c-80 43 -116 114 -116 184c0 88 57 173 158 196c-14 60 -30 119 -46 178c-108 -121 -216 -242 -216 -402zM411 1050c-99 -50 -161 -151 -161 -262c0 -76 15 -137 33 -200c82 97 149 198 149 325
c0 58 -4 84 -21 137z" fill="currentColor"/>
<rect transform="translate(24.5809, 6.4417)" x="-0.0474" y="-2.5000" width="0.0948" height="3.3042" ry="0.0235" fill="currentColor"/>
<text transform="translate(16.3367, 11.9417)" font-family="serif" font-size="1.7463" text-anchor="start" fill="currentColor">
<tspan>By</tspan>
</text>
<rect transform="translate(17.9606, 6.4417)" x="-0.0474" y="-0.2118" width="0.0948" height="3.0159" ry="0.0235" fill="currentColor"/>
<circle transform="translate(36.4322, 6.9417)" stroke-linejoin="round" stroke-linecap="round" fill="currentColor" stroke="currentColor" stroke-width="0" r="0.5365"/>
<g color="rgb(100.0000%, 100.0000%, 100.0000%)">
<text transform="translate(36.0908, 7.2599)" font-family="sans-serif" font-weight="bold" font-size="0.8731" text-anchor="start" fill="currentColor">
<tspan>A</tspan>
</text>
</g>
<rect transform="translate(36.9213, 6.4417)" x="-0.0474" y="-2.2005" width="0.0948" height="2.5046" ry="0.0235" fill="currentColor"/>
<text transform="translate(35.3778, 11.9417)" font-family="serif" font-size="1.7463" text-anchor="start" fill="currentColor">
<tspan>by</tspan>
</text>
<path transform="translate(34.7457, 6.9417) scale(0.0040, -0.0040)" d="M25 44l-1 -69c0 -4 -1 -7 -1 -11c0 -22 2 -44 4 -66c46 38 96 80 96 139c0 34 -14 69 -44 69c-31 0 -53 -29 -54 -62zM-25 463c8 4 16 7 25 7s17 -3 25 -7l-6 -349c26 19 56 30 88 30c53 0 93 -46 93 -100c0 -82 -90 -118 -153 -169c-14 -11 -22 -32 -40 -32
c-12 0 -21 9 -21 21z" fill="currentColor"/>
<circle transform="translate(29.2261, 6.4417)" stroke-linejoin="round" stroke-linecap="round" fill="currentColor" stroke="currentColor" stroke-width="0" r="0.5365"/>
<g color="rgb(100.0000%, 100.0000%, 100.0000%)">
<text transform="translate(28.8948, 6.7599)" font-family="sans-serif" font-weight="bold" font-size="0.8731" text-anchor="start" fill="currentColor">
<tspan>B</tspan>
</text>
</g>
<text transform="translate(28.0713, 11.9417)" font-family="serif" font-size="1.7463" text-anchor="start" fill="currentColor">
<tspan>ta,</tspan>
</text>
<path transform="translate(27.5397, 6.4417) scale(0.0040, -0.0040)" d="M25 44l-1 -69c0 -4 -1 -7 -1 -11c0 -22 2 -44 4 -66c46 38 96 80 96 139c0 34 -14 69 -44 69c-31 0 -53 -29 -54 -62zM-25 463c8 4 16 7 25 7s17 -3 25 -7l-6 -349c26 19 56 30 88 30c53 0 93 -46 93 -100c0 -82 -90 -118 -153 -169c-14 -11 -22 -32 -40 -32
c-12 0 -21 9 -21 21z" fill="currentColor"/>
<rect transform="translate(28.7371, 6.4417)" x="-0.0474" y="0.1958" width="0.0948" height="3.1375" ry="0.0235" fill="currentColor"/>
<line transform="translate(3.3474, 20.4417)" stroke-linejoin="round" stroke-linecap="round" stroke-width="0.0729" stroke="currentColor" x1="0.0365" y1="-0.0000" x2="63.5638" y2="-0.0000"/>
<line transform="translate(3.3474, 19.4417)" stroke-linejoin="round" stroke-linecap="round" stroke-width="0.0729" stroke="currentColor" x1="0.0365" y1="-0.0000" x2="63.5638" y2="-0.0000"/>
<line transform="translate(3.3474, 18.4417)" stroke-linejoin="round" stroke-linecap="round" stroke-width="0.0729" stroke="currentColor" x1="0.0365" y1="-0.0000" x2="63.5638" y2="-0.0000"/>
<line transform="translate(3.3474, 17.4417)" stroke-linejoin="round" stroke-linecap="round" stroke-width="0.0729" stroke="currentColor" x1="0.0365" y1="-0.0000" x2="63.5638" y2="-0.0000"/>
<line transform="translate(3.3474, 16.4417)" stroke-linejoin="round" stroke-linecap="round" stroke-width="0.0729" stroke="currentColor" x1="0.0365" y1="-0.0000" x2="63.5638" y2="-0.0000"/>
<rect transform="translate(53.4010, 18.4417)" x="0.0000" y="-2.0000" width="0.1386" height="4.0000" ry="0.0000" fill="currentColor"/>
<rect transform="translate(23.6762, 18.4417)" x="0.0000" y="-2.0000" width="0.1386" height="4.0000" ry="0.0000" fill="currentColor"/>
<path transform="translate(65.4770, 17.9417) scale(0.0040, -0.0040)" d="M0 0c0 32 25 57 57 57s57 -25 57 -57s-25 -57 -57 -57s-57 25 -57 57z" fill="currentColor"/>
<path transform="translate(65.4770, 18.9417) scale(0.0040, -0.0040)" d="M0 0c0 32 25 57 57 57s57 -25 57 -57s-25 -57 -57 -57s-57 25 -57 57z" fill="currentColor"/>
<rect transform="translate(66.5100, 18.4417)" x="0.0000" y="-2.0000" width="0.4376" height="4.0000" ry="0.0000" fill="currentColor"/>
<rect transform="translate(66.1526, 18.4417)" x="0.0000" y="-2.0000" width="0.1386" height="4.0000" ry="0.0000" fill="currentColor"/>
<rect transform="translate(38.2662, 18.4417)" x="0.0000" y="-2.0000" width="0.1386" height="4.0000" ry="0.0000" fill="currentColor"/>
<path transform="translate(8.4263, 17.9417) scale(0.0040, -0.0040)" d="M0 0c0 32 25 57 57 57s57 -25 57 -57s-25 -57 -57 -57s-57 25 -57 57z" fill="currentColor"/>
<path transform="translate(8.4263, 18.9417) scale(0.0040, -0.0040)" d="M0 0c0 32 25 57 57 57s57 -25 57 -57s-25 -57 -57 -57s-57 25 -57 57z" fill="currentColor"/>
<rect transform="translate(8.0689, 18.4417)" x="0.0000" y="-2.0000" width="0.1386" height="4.0000" ry="0.0000" fill="currentColor"/>
<rect transform="translate(7.4124, 18.4417)" x="0.0000" y="-2.0000" width="0.4376" height="4.0000" ry="0.0000" fill="currentColor"/>
<rect transform="translate(3.3474, 21.4417)" x="54.4163" y="-0.0865" width="1.6094" height="0.1729" ry="0.0865" fill="currentColor"/>
<rect transform="translate(3.3474, 21.4417)" x="26.5965" y="-0.0865" width="1.6094" height="0.1729" ry="0.0865" fill="currentColor"/>
<rect transform="translate(3.3474, 21.4417)" x="12.0065" y="-0.0865" width="1.6094" height="0.1729" ry="0.0865" fill="currentColor"/>
<circle transform="translate(46.1334, 19.4417)" stroke-linejoin="round" stroke-linecap="round" fill="currentColor" stroke="currentColor" stroke-width="0" r="0.5365"/>
<g color="rgb(100.0000%, 100.0000%, 100.0000%)">
<text transform="translate(45.7719, 19.7595)" font-family="sans-serif" font-weight="bold" font-size="0.8731" text-anchor="start" fill="currentColor">
<tspan>G</tspan>
</text>
</g>
<text transform="translate(44.3258, 23.9417)" font-family="serif" font-size="1.7463" text-anchor="start" fill="currentColor">
<tspan>Kris</tspan>
</text>
<rect transform="translate(46.6225, 18.4417)" x="-0.0474" y="-2.5000" width="0.0948" height="3.3042" ry="0.0235" fill="currentColor"/>
<circle transform="translate(49.9174, 19.9417)" stroke-linejoin="round" stroke-linecap="round" fill="currentColor" stroke="currentColor" stroke-width="0" r="0.5365"/>
<g color="rgb(100.0000%, 100.0000%, 100.0000%)">
<text transform="translate(49.6162, 20.2599)" font-family="sans-serif" font-weight="bold" font-size="0.8731" text-anchor="start" fill="currentColor">
<tspan>F</tspan>
</text>
</g>
<text transform="translate(49.0438, 23.9417)" font-family="serif" font-size="1.7463" text-anchor="start" fill="currentColor">
<tspan>ta</tspan>
</text>
<rect transform="translate(50.4065, 18.4417)" x="-0.0474" y="-2.0000" width="0.0948" height="3.3042" ry="0.0235" fill="currentColor"/>
<circle transform="translate(55.0344, 20.4417)" stroke-linejoin="round" stroke-linecap="round" fill="currentColor" stroke="currentColor" stroke-width="0" r="0.5365"/>
<g color="rgb(100.0000%, 100.0000%, 100.0000%)">
<text transform="translate(54.7331, 20.7599)" font-family="sans-serif" font-weight="bold" font-size="0.8731" text-anchor="start" fill="currentColor">
<tspan>E</tspan>
</text>
</g>
<text transform="translate(53.9599, 23.9417)" font-family="serif" font-size="1.7463" text-anchor="start" fill="currentColor">
<tspan>Pá</tspan>
</text>
<rect transform="translate(55.5234, 18.4417)" x="-0.0474" y="-1.5000" width="0.0948" height="3.3042" ry="0.0235" fill="currentColor"/>
<text transform="translate(38.1321, 23.9417)" font-family="serif" font-size="1.7463" text-anchor="start" fill="currentColor">
<tspan>Mat</tspan>
</text>
<rect transform="translate(40.3886, 18.4417)" x="-0.0474" y="-1.7965" width="0.0948" height="3.1006" ry="0.0235" fill="currentColor"/>
<circle transform="translate(42.8214, 19.9417)" stroke-linejoin="round" stroke-linecap="round" fill="currentColor" stroke="currentColor" stroke-width="0" r="0.5365"/>
<g color="rgb(100.0000%, 100.0000%, 100.0000%)">
<text transform="translate(42.5201, 20.2599)" font-family="sans-serif" font-weight="bold" font-size="0.8731" text-anchor="start" fill="currentColor">
<tspan>F</tspan>
</text>
</g>
<text transform="translate(41.7670, 23.9417)" font-family="serif" font-size="1.7463" text-anchor="start" fill="currentColor">
<tspan>ka</tspan>
</text>
<rect transform="translate(43.3105, 18.4417)" x="-0.0474" y="-1.7965" width="0.0948" height="3.1006" ry="0.0235" fill="currentColor"/>
<rect transform="translate(56.3258, 23.9417)" x="0.0000" y="-0.5148" width="0.6600" height="0.0948" ry="0.0292" fill="currentColor"/>
<polygon transform="translate(40.3412, 16.6452)" stroke-linejoin="round" stroke-linecap="round" stroke-width="0.0471" fill="currentColor" stroke="currentColor" points="2.9931 -0.2165 2.9931 0.2165 0.0235 0.2165 0.0235 -0.2165"/>
<rect transform="translate(48.1624, 23.9417)" x="0.0000" y="-0.5148" width="0.6600" height="0.0948" ry="0.0292" fill="currentColor"/>
<polygon transform="translate(25.7512, 17.4417)" stroke-linejoin="round" stroke-linecap="round" stroke-width="0.0471" fill="currentColor" stroke="currentColor" points="2.9716 -0.2165 2.9716 0.2165 0.0235 0.2165 0.0235 -0.2165"/>
<rect transform="translate(32.1444, 23.9417)" x="0.0000" y="-0.5148" width="0.6600" height="0.0948" ry="0.0292" fill="currentColor"/>
<polygon transform="translate(11.1612, 17.4417)" stroke-linejoin="round" stroke-linecap="round" stroke-width="0.0471" fill="currentColor" stroke="currentColor" points="2.9716 -0.2165 2.9716 0.2165 0.0235 0.2165 0.0235 -0.2165"/>
<rect transform="translate(17.6498, 23.9417)" x="0.0000" y="-0.5148" width="0.6600" height="0.0948" ry="0.0292" fill="currentColor"/>
<rect transform="translate(59.0574, 18.4417)" x="-0.0474" y="-0.5000" width="0.0948" height="3.3042" ry="0.0235" fill="currentColor"/>
<circle transform="translate(58.5684, 21.4417)" stroke-linejoin="round" stroke-linecap="round" fill="currentColor" stroke="currentColor" stroke-width="0" r="0.5365"/>
<g color="rgb(100.0000%, 100.0000%, 100.0000%)">
<text transform="translate(58.2470, 21.7595)" font-family="sans-serif" font-weight="bold" font-size="0.8731" text-anchor="start" fill="currentColor">
<tspan>C</tspan>
</text>
</g>
<text transform="translate(57.2027, 23.9417)" font-family="serif" font-size="1.7463" text-anchor="start" fill="currentColor">
<tspan>na.</tspan>
</text>
<path transform="translate(61.8159, 18.4417) scale(0.0040, -0.0040)" d="M-23 -113c0 26 10 40 36 40c34 0 85 -15 130 -37l-137 164c-7 8 -10 17 -10 25c0 33 49 64 86 96c26 22 39 54 39 85c0 24 -8 47 -24 67l-39 46c-2 3 -3 6 -3 9c0 7 7 14 14 14c3 0 7 -1 10 -5l152 -182c7 -8 10 -17 10 -25c0 -33 -49 -64 -86 -96
c-26 -22 -39 -54 -39 -85c0 -24 8 -47 24 -67l87 -104c2 -3 3 -5 3 -8c0 -7 -7 -14 -14 -14c-3 0 -7 1 -10 5c-19 22 -66 43 -102 43c-40 0 -52 -29 -52 -70c0 -35 11 -75 28 -96c6 -7 -4 -16 -10 -9c-46 55 -93 150 -93 204z" fill="currentColor"/>
<circle transform="translate(13.6198, 20.4417)" stroke-linejoin="round" stroke-linecap="round" fill="currentColor" stroke="currentColor" stroke-width="0" r="0.5365"/>
<g color="rgb(100.0000%, 100.0000%, 100.0000%)">
<text transform="translate(13.3185, 20.7599)" font-family="sans-serif" font-weight="bold" font-size="0.8731" text-anchor="start" fill="currentColor">
<tspan>E</tspan>
</text>
</g>
<text transform="translate(12.7863, 23.9417)" font-family="serif" font-size="1.7463" text-anchor="start" fill="currentColor">
<tspan>ju</tspan>
</text>
<rect transform="translate(14.1089, 18.4417)" x="-0.0474" y="-1.0000" width="0.0948" height="2.8042" ry="0.0235" fill="currentColor"/>
<circle transform="translate(16.1586, 21.4417)" stroke-linejoin="round" stroke-linecap="round" fill="currentColor" stroke="currentColor" stroke-width="0" r="0.5365"/>
<g color="rgb(100.0000%, 100.0000%, 100.0000%)">
<text transform="translate(15.8372, 21.7595)" font-family="sans-serif" font-weight="bold" font-size="0.8731" text-anchor="start" fill="currentColor">
<tspan>C</tspan>
</text>
</g>
<text transform="translate(14.9033, 23.9417)" font-family="serif" font-size="1.7463" text-anchor="start" fill="currentColor">
<tspan>šla</tspan>
</text>
<rect transform="translate(16.6476, 18.4417)" x="-0.0474" y="-0.5000" width="0.0948" height="3.3042" ry="0.0235" fill="currentColor"/>
<circle transform="translate(20.1926, 19.9417)" stroke-linejoin="round" stroke-linecap="round" fill="currentColor" stroke="currentColor" stroke-width="0" r="0.5365"/>
<g color="rgb(100.0000%, 100.0000%, 100.0000%)">
<text transform="translate(19.8913, 20.2599)" font-family="sans-serif" font-weight="bold" font-size="0.8731" text-anchor="start" fill="currentColor">
<tspan>F</tspan>
</text>
</g>
<text transform="translate(18.5457, 23.9417)" font-family="serif" font-size="1.7463" text-anchor="start" fill="currentColor">
<tspan>pal,</tspan>
</text>
<rect transform="translate(20.6817, 18.4417)" x="-0.0474" y="-2.0000" width="0.0948" height="3.3042" ry="0.0235" fill="currentColor"/>
<circle transform="translate(39.8996, 19.9417)" stroke-linejoin="round" stroke-linecap="round" fill="currentColor" stroke="currentColor" stroke-width="0" r="0.5365"/>
<g color="rgb(100.0000%, 100.0000%, 100.0000%)">
<text transform="translate(39.5983, 20.2599)" font-family="sans-serif" font-weight="bold" font-size="0.8731" text-anchor="start" fill="currentColor">
<tspan>F</tspan>
</text>
</g>
<circle transform="translate(25.3095, 20.4417)" stroke-linejoin="round" stroke-linecap="round" fill="currentColor" stroke="currentColor" stroke-width="0" r="0.5365"/>
<g color="rgb(100.0000%, 100.0000%, 100.0000%)">
<text transform="translate(25.0083, 20.7599)" font-family="sans-serif" font-weight="bold" font-size="0.8731" text-anchor="start" fill="currentColor">
<tspan>E</tspan>
</text>
</g>
<text transform="translate(23.6928, 23.9417)" font-family="serif" font-size="1.7463" text-anchor="start" fill="currentColor">
<tspan>kdo</tspan>
</text>
<text transform="translate(2.2427, 15.4052)" font-family="serif" font-size="1.7463" text-anchor="start" fill="currentColor">
<tspan>4</tspan>
</text>
<path transform="translate(4.1474, 19.4417) scale(0.0040, -0.0040)" d="M374 260c5 0 10 1 15 1c154 0 254 -127 254 -259c0 -76 -33 -153 -107 -208c-22 -17 -47 -29 -73 -37c3 -36 5 -72 5 -108c0 -19 0 -37 -1 -56c-7 -120 -88 -226 -206 -226c-108 0 -195 87 -195 195c0 58 53 104 112 104c54 0 95 -48 95 -104c0 -52 -43 -95 -95 -95
c-12 0 -24 4 -35 9c26 -41 70 -70 121 -70c1 0 2 1 3 1c93 2 154 93 160 192c1 18 2 35 2 53c0 32 -2 64 -5 96c-29 -5 -58 -8 -89 -8c-188 0 -333 171 -333 372c0 178 133 306 251 440c-18 63 -35 126 -42 191c-6 51 -7 102 -7 154c0 116 55 226 150 295c5 4 11 4 16 0
c70 -84 132 -246 132 -359c0 -144 -87 -256 -183 -365c20 -69 39 -138 55 -208zM459 -205c69 24 117 96 117 166c0 92 -69 184 -179 193c25 -117 48 -235 62 -359zM71 31c0 -136 131 -251 267 -251c28 0 55 2 82 6c-15 128 -38 247 -64 367c-79 -9 -125 -62 -125 -121
c0 -44 26 -92 82 -124c4 -4 7 -9 7 -14c0 -11 -9 -21 -20 -21c-3 0 -6 1 -9 2c-80 43 -116 114 -116 184c0 88 57 173 158 196c-14 60 -30 119 -46 178c-108 -121 -216 -242 -216 -402zM411 1050c-99 -50 -161 -151 -161 -262c0 -76 15 -137 33 -200c82 97 149 198 149 325
c0 58 -4 84 -21 137z" fill="currentColor"/>
<circle transform="translate(10.7195, 20.4417)" stroke-linejoin="round" stroke-linecap="round" fill="currentColor" stroke="currentColor" stroke-width="0" r="0.5365"/>
<g color="rgb(100.0000%, 100.0000%, 100.0000%)">
<text transform="translate(10.4183, 20.7599)" font-family="sans-serif" font-weight="bold" font-size="0.8731" text-anchor="start" fill="currentColor">
<tspan>E</tspan>
</text>
</g>
<text transform="translate(9.1027, 23.9417)" font-family="serif" font-size="1.7463" text-anchor="start" fill="currentColor">
<tspan>kdo</tspan>
</text>
<rect transform="translate(11.2086, 18.4417)" x="-0.0474" y="-1.0000" width="0.0948" height="2.8042" ry="0.0235" fill="currentColor"/>
<text transform="translate(29.4933, 23.9417)" font-family="serif" font-size="1.7463" text-anchor="start" fill="currentColor">
<tspan>šla</tspan>
</text>
<circle transform="translate(28.2098, 20.4417)" stroke-linejoin="round" stroke-linecap="round" fill="currentColor" stroke="currentColor" stroke-width="0" r="0.5365"/>
<g color="rgb(100.0000%, 100.0000%, 100.0000%)">
<text transform="translate(27.9086, 20.7599)" font-family="sans-serif" font-weight="bold" font-size="0.8731" text-anchor="start" fill="currentColor">
<tspan>E</tspan>
</text>
</g>
<text transform="translate(27.3763, 23.9417)" font-family="serif" font-size="1.7463" text-anchor="start" fill="currentColor">
<tspan>ju</tspan>
</text>
<rect transform="translate(28.6989, 18.4417)" x="-0.0474" y="-1.0000" width="0.0948" height="2.8042" ry="0.0235" fill="currentColor"/>
<circle transform="translate(30.7486, 21.4417)" stroke-linejoin="round" stroke-linecap="round" fill="currentColor" stroke="currentColor" stroke-width="0" r="0.5365"/>
<g color="rgb(100.0000%, 100.0000%, 100.0000%)">
<text transform="translate(30.4272, 21.7595)" font-family="sans-serif" font-weight="bold" font-size="0.8731" text-anchor="start" fill="currentColor">
<tspan>C</tspan>
</text>
</g>
<rect transform="translate(25.7986, 18.4417)" x="-0.0474" y="-1.0000" width="0.0948" height="2.8042" ry="0.0235" fill="currentColor"/>
<rect transform="translate(31.2376, 18.4417)" x="-0.0474" y="-0.5000" width="0.0948" height="3.3042" ry="0.0235" fill="currentColor"/>
<circle transform="translate(34.7826, 19.9417)" stroke-linejoin="round" stroke-linecap="round" fill="currentColor" stroke="currentColor" stroke-width="0" r="0.5365"/>
<g color="rgb(100.0000%, 100.0000%, 100.0000%)">
<text transform="translate(34.4813, 20.2599)" font-family="sans-serif" font-weight="bold" font-size="0.8731" text-anchor="start" fill="currentColor">
<tspan>F</tspan>
</text>
</g>
<text transform="translate(32.9449, 23.9417)" font-family="serif" font-size="1.7463" text-anchor="start" fill="currentColor">
<tspan>pal?</tspan>
</text>
<rect transform="translate(35.2717, 18.4417)" x="-0.0474" y="-2.0000" width="0.0948" height="3.3042" ry="0.0235" fill="currentColor"/>
<a transform="translate(4.2177, 96.9201)" xlink:href="http://lilypond.org/">
<rect x="0.0000" y="-0.4888" width="61.8596" height="2.1603" fill="none" stroke="none" stroke-width="0.0"/>
</a>
<text transform="translate(4.2177, 96.9201)" font-family="serif" font-size="2.2000" text-anchor="start" fill="currentColor">
<tspan>Music engraving by LilyPond 2.20.0—www.lilypond.org</tspan>
</text>
</svg>
