<svg xmlns="http://www.w3.org/2000/svg" xmlns:xlink="http://www.w3.org/1999/xlink" version="1.2" width="210.00mm" height="297.00mm" viewBox="0 0 70.2950 99.4173">
<style text="style/css">
<![CDATA[
tspan { white-space: pre; }
]]>
</style>
<!-- Page: 1/1 -->
<text transform="translate(3.3474, 1.6737)" font-family="serif" font-size="2.2000" text-anchor="start" fill="currentColor">
<tspan/>
</text>
<line transform="translate(8.3685, 9.3052)" stroke-linejoin="round" stroke-linecap="round" stroke-width="0.0729" stroke="currentColor" x1="0.0365" y1="-0.0000" x2="58.5427" y2="-0.0000"/>
<line transform="translate(8.3685, 8.3052)" stroke-linejoin="round" stroke-linecap="round" stroke-width="0.0729" stroke="currentColor" x1="0.0365" y1="-0.0000" x2="58.5427" y2="-0.0000"/>
<line transform="translate(8.3685, 7.3052)" stroke-linejoin="round" stroke-linecap="round" stroke-width="0.0729" stroke="currentColor" x1="0.0365" y1="-0.0000" x2="58.5427" y2="-0.0000"/>
<line transform="translate(8.3685, 6.3052)" stroke-linejoin="round" stroke-linecap="round" stroke-width="0.0729" stroke="currentColor" x1="0.0365" y1="-0.0000" x2="58.5427" y2="-0.0000"/>
<line transform="translate(8.3685, 5.3052)" stroke-linejoin="round" stroke-linecap="round" stroke-width="0.0729" stroke="currentColor" x1="0.0365" y1="-0.0000" x2="58.5427" y2="-0.0000"/>
<rect transform="translate(3.3474, 10.3052)" x="16.5876" y="-0.0865" width="1.6094" height="0.1729" ry="0.0865" fill="currentColor"/>
<rect transform="translate(3.3474, 10.3052)" x="13.4664" y="-0.0865" width="1.6094" height="0.1729" ry="0.0865" fill="currentColor"/>
<rect transform="translate(66.8091, 7.3052)" x="0.0000" y="-2.0000" width="0.1386" height="4.0000" ry="0.0000" fill="currentColor"/>
<rect transform="translate(31.1095, 7.3052)" x="0.0000" y="-2.0000" width="0.1386" height="4.0000" ry="0.0000" fill="currentColor"/>
<rect transform="translate(57.2639, 7.3052)" x="0.0000" y="-2.0000" width="0.1386" height="4.0000" ry="0.0000" fill="currentColor"/>
<rect transform="translate(44.0119, 7.3052)" x="0.0000" y="-2.0000" width="0.1386" height="4.0000" ry="0.0000" fill="currentColor"/>
<a style="color:inherit;" xlink:href="textedit:///home/mojzis/pers/noty/lilywork/score_only/narodil_se_kristus_pan.ly:7:69:70">
<path transform="translate(58.5603, 4.7687) scale(0.0022, -0.0022)" d="M150 477c-29 0 -59 -8 -59 -33c0 -22 36 -25 36 -47c0 -32 -26 -58 -58 -58s-57 26 -57 58c0 65 67 103 138 103c91 0 169 -33 169 -114c0 -43 -4 -82 -42 -100c-9 -4 -14 -12 -14 -21s5 -18 14 -22c41 -19 56 -57 56 -103c0 -92 -79 -140 -179 -140
c-79 0 -154 42 -154 113c0 36 30 66 66 66s65 -30 65 -66c0 -25 -40 -28 -40 -53c0 -27 32 -37 63 -37c49 0 63 61 63 117v16c0 54 -2 94 -50 94h-80c-10 0 -14 8 -14 15s4 14 14 14h80c49 0 50 43 50 99v8c0 54 -18 91 -67 91z" fill="currentColor"/>
</a>
<a style="color:inherit;" xlink:href="textedit:///home/mojzis/pers/noty/lilywork/score_only/narodil_se_kristus_pan.ly:7:55:56">
<circle transform="translate(49.9510, 8.3052)" stroke-linejoin="round" stroke-linecap="round" fill="currentColor" stroke="currentColor" stroke-width="0" r="0.5365"/>
<g color="rgb(100.0000%, 100.0000%, 100.0000%)">
<text transform="translate(49.5895, 8.6230)" font-family="sans-serif" font-weight="bold" font-size="0.8731" text-anchor="start" fill="currentColor">
<tspan>G</tspan>
</text>
</g>
</a>
<a style="color:inherit;" xlink:href="textedit:///home/mojzis/pers/noty/lilywork/score_only/narodil_se_kristus_pan.ly:7:56:57">
<path transform="translate(49.5794, 4.7687) scale(0.0022, -0.0022)" d="M150 477c-29 0 -59 -8 -59 -33c0 -22 36 -25 36 -47c0 -32 -26 -58 -58 -58s-57 26 -57 58c0 65 67 103 138 103c91 0 169 -33 169 -114c0 -43 -4 -82 -42 -100c-9 -4 -14 -12 -14 -21s5 -18 14 -22c41 -19 56 -57 56 -103c0 -92 -79 -140 -179 -140
c-79 0 -154 42 -154 113c0 36 30 66 66 66s65 -30 65 -66c0 -25 -40 -28 -40 -53c0 -27 32 -37 63 -37c49 0 63 61 63 117v16c0 54 -2 94 -50 94h-80c-10 0 -14 8 -14 15s4 14 14 14h80c49 0 50 43 50 99v8c0 54 -18 91 -67 91z" fill="currentColor"/>
</a>
<a style="color:inherit;" xlink:href="textedit:///home/mojzis/pers/noty/lilywork/score_only/narodil_se_kristus_pan.ly:17:44:45">
<text transform="translate(48.7058, 12.9345)" font-family="serif" font-size="1.7463" text-anchor="start" fill="currentColor">
<tspan>sel</tspan>
</text>
</a>
<rect transform="translate(50.4401, 7.3052)" x="-0.0474" y="-2.5000" width="0.0948" height="3.3042" ry="0.0235" fill="currentColor"/>
<a style="color:inherit;" xlink:href="textedit:///home/mojzis/pers/noty/lilywork/score_only/narodil_se_kristus_pan.ly:7:59:60">
<circle transform="translate(53.0722, 7.8052)" stroke-linejoin="round" stroke-linecap="round" fill="currentColor" stroke="currentColor" stroke-width="0" r="0.5365"/>
<g color="rgb(100.0000%, 100.0000%, 100.0000%)">
<circle transform="translate(53.0722, 7.8052)" stroke-linejoin="round" stroke-linecap="round" fill="currentColor" stroke="currentColor" stroke-width="0" r="0.4416"/>
</g>
<text transform="translate(52.7308, 8.1235)" font-family="sans-serif" font-weight="bold" font-size="0.8731" text-anchor="start" fill="currentColor">
<tspan>A</tspan>
</text>
</a>
<a style="color:inherit;" xlink:href="textedit:///home/mojzis/pers/noty/lilywork/score_only/narodil_se_kristus_pan.ly:7:61:62">
<path transform="translate(52.6203, 3.8052) scale(0.0022, -0.0022)" d="M196 117h117c0 -48 27 -94 72 -94c8 0 12 -5 12 -11s-4 -12 -12 -12c-44 0 -87 13 -131 13s-87 -13 -131 -13c-8 0 -12 6 -12 12s4 11 12 11c45 0 73 46 73 94zM204 307c22 14 44 29 60 50c11 15 19 33 27 50c2 4 5 6 9 6c6 0 13 -5 13 -14v-245h72c10 0 15 -7 15 -14
s-5 -15 -15 -15h-72v-8h-117v8h-167c-23 0 -31 14 -31 23c0 3 1 5 2 6c80 93 138 207 138 330c0 10 7 19 16 16c23 -7 47 -13 71 -13s48 6 71 13c14 4 23 -9 17 -16l-284 -330h167v131c0 8 1 17 8 22z" fill="currentColor"/>
</a>
<a style="color:inherit;" xlink:href="textedit:///home/mojzis/pers/noty/lilywork/score_only/narodil_se_kristus_pan.ly:17:51:52">
<text transform="translate(51.7366, 12.9345)" font-family="serif" font-size="1.7463" text-anchor="start" fill="currentColor">
<tspan>me</tspan>
</text>
</a>
<rect transform="translate(53.5613, 7.3052)" x="-0.0474" y="-3.0000" width="0.0948" height="3.2328" ry="0.0235" fill="currentColor"/>
<a style="color:inherit;" xlink:href="textedit:///home/mojzis/pers/noty/lilywork/score_only/narodil_se_kristus_pan.ly:7:66:67">
<circle transform="translate(58.9318, 8.3052)" stroke-linejoin="round" stroke-linecap="round" fill="currentColor" stroke="currentColor" stroke-width="0" r="0.5365"/>
<g color="rgb(100.0000%, 100.0000%, 100.0000%)">
<circle transform="translate(58.9318, 8.3052)" stroke-linejoin="round" stroke-linecap="round" fill="currentColor" stroke="currentColor" stroke-width="0" r="0.4416"/>
</g>
<text transform="translate(58.5703, 8.6230)" font-family="sans-serif" font-weight="bold" font-size="0.8731" text-anchor="start" fill="currentColor">
<tspan>G</tspan>
</text>
</a>
<a style="color:inherit;" xlink:href="textedit:///home/mojzis/pers/noty/lilywork/score_only/narodil_se_kristus_pan.ly:17:33:34">
<text transform="translate(37.8664, 12.9345)" font-family="serif" font-size="1.7463" text-anchor="start" fill="currentColor">
<tspan>Pán,</tspan>
</text>
</a>
<a style="color:inherit;" xlink:href="textedit:///home/mojzis/pers/noty/lilywork/score_only/narodil_se_kristus_pan.ly:17:5:6">
<rect transform="translate(19.2235, 12.9345)" x="0.0000" y="-0.5148" width="0.6600" height="0.0948" ry="0.0292" fill="currentColor"/>
</a>
<rect transform="translate(40.2735, 7.3052)" x="-0.0474" y="-2.5000" width="0.0948" height="3.2328" ry="0.0235" fill="currentColor"/>
<a style="color:inherit;" xlink:href="textedit:///home/mojzis/pers/noty/lilywork/score_only/narodil_se_kristus_pan.ly:7:48:49">
<circle transform="translate(46.8298, 8.8052)" stroke-linejoin="round" stroke-linecap="round" fill="currentColor" stroke="currentColor" stroke-width="0" r="0.5365"/>
<g color="rgb(100.0000%, 100.0000%, 100.0000%)">
<text transform="translate(46.5285, 9.1235)" font-family="sans-serif" font-weight="bold" font-size="0.8731" text-anchor="start" fill="currentColor">
<tspan>F</tspan>
</text>
</g>
</a>
<a style="color:inherit;" xlink:href="textedit:///home/mojzis/pers/noty/lilywork/score_only/narodil_se_kristus_pan.ly:7:52:53">
<path transform="translate(46.4181, 4.7687) scale(0.0022, -0.0022)" d="M235 355c0 60 -18 122 -70 122c-26 0 -51 -14 -51 -37c0 -27 35 -41 35 -68c0 -38 -30 -69 -68 -69s-69 31 -69 69c0 76 72 128 153 128c96 0 187 -56 187 -145c0 -153 -151 -159 -249 -220c9 2 17 3 26 3c33 0 70 -11 105 -36c21 -15 46 -23 66 -23c21 0 39 9 44 29
c2 6 6 9 11 9c6 0 12 -5 12 -12c0 -1 -1 -2 -1 -3c-17 -65 -78 -102 -137 -102c-36 0 -71 14 -96 44c-13 16 -31 22 -48 22c-30 0 -59 -20 -62 -55c-1 -7 -6 -11 -11 -11c-6 0 -12 4 -12 11c0 175 235 165 235 344z" fill="currentColor"/>
</a>
<a style="color:inherit;" xlink:href="textedit:///home/mojzis/pers/noty/lilywork/score_only/narodil_se_kristus_pan.ly:17:38:39">
<text transform="translate(45.8256, 12.9345)" font-family="serif" font-size="1.7463" text-anchor="start" fill="currentColor">
<tspan>ve</tspan>
</text>
</a>
<rect transform="translate(47.3189, 7.3052)" x="-0.0474" y="-2.0000" width="0.0948" height="3.3042" ry="0.0235" fill="currentColor"/>
<path transform="translate(44.8433, 8.8052) scale(0.0040, -0.0040)" d="M215 -316c0 -9 -8 -17 -17 -17s-17 8 -17 17v151l-87 -31v-162c0 -9 -8 -17 -17 -17s-17 8 -17 17v150l-39 -13c-10 -4 -21 4 -21 15v64c0 7 5 13 11 15l49 18v164l-39 -14c-10 -4 -21 4 -21 15v65c0 7 5 13 11 15l49 17v163c0 9 8 17 17 17s17 -8 17 -17v-151l87 31v162
c0 9 8 17 17 17s17 -8 17 -17v-150l39 13c10 4 21 -4 21 -15v-64c0 -7 -5 -13 -11 -15l-49 -18v-164l39 14c10 4 21 -4 21 -15v-65c0 -7 -5 -13 -11 -15l-49 -17v-163zM94 67v-164l87 30v164z" fill="currentColor"/>
<a style="color:inherit;" xlink:href="textedit:///home/mojzis/pers/noty/lilywork/score_only/narodil_se_kristus_pan.ly:17:48:49">
<rect transform="translate(51.2662, 12.9345)" x="0.0000" y="-0.5148" width="0.4004" height="0.0948" ry="0.0292" fill="currentColor"/>
</a>
<a style="color:inherit;" xlink:href="textedit:///home/mojzis/pers/noty/lilywork/score_only/narodil_se_kristus_pan.ly:17:41:42">
<rect transform="translate(47.9399, 12.9345)" x="0.0000" y="-0.5148" width="0.6600" height="0.0948" ry="0.0292" fill="currentColor"/>
</a>
<polygon transform="translate(21.1813, 7.3052)" stroke-linejoin="round" stroke-linecap="round" stroke-width="0.0471" fill="currentColor" stroke="currentColor" points="2.1092 -0.4200 2.1092 0.0129 0.0235 0.2165 0.0235 -0.2165"/>
<a style="color:inherit;" xlink:href="textedit:///home/mojzis/pers/noty/lilywork/score_only/narodil_se_kristus_pan.ly:17:11:12">
<rect transform="translate(22.5610, 12.9345)" x="0.0000" y="-0.5148" width="0.6600" height="0.0948" ry="0.0292" fill="currentColor"/>
</a>
<a style="color:inherit;" xlink:href="textedit:///home/mojzis/pers/noty/lilywork/score_only/narodil_se_kristus_pan.ly:7:13:14">
<path transform="translate(20.2032, 7.3052)" stroke-width="0.0584" stroke-linejoin="round" stroke-linecap="round" stroke="currentColor" fill="currentColor" d="M0.6217 4.0365C1.3129 4.4243 2.2264 4.2002 2.6596 3.5365L2.6596 3.5365C2.2055 4.1152 1.2921 4.3393 0.6217 4.0365z"/>
</a>
<path transform="translate(59.9251, 7.8052) scale(0.0040, -0.0040)" d="M0 0c0 32 25 57 57 57s57 -25 57 -57s-25 -57 -57 -57s-57 25 -57 57z" fill="currentColor"/>
<rect transform="translate(59.4209, 7.3052)" x="-0.0474" y="-2.5000" width="0.0948" height="3.2328" ry="0.0235" fill="currentColor"/>
<a style="color:inherit;" xlink:href="textedit:///home/mojzis/pers/noty/lilywork/score_only/narodil_se_kristus_pan.ly:17:54:55">
<text transform="translate(57.6866, 12.9345)" font-family="serif" font-size="1.7463" text-anchor="start" fill="currentColor">
<tspan>se.</tspan>
</text>
</a>
<a style="color:inherit;" xlink:href="textedit:///home/mojzis/pers/noty/lilywork/score_only/narodil_se_kristus_pan.ly:7:72:73">
<path transform="translate(63.8108, 7.3052) scale(0.0040, -0.0040)" d="M-23 -113c0 26 10 40 36 40c34 0 85 -15 130 -37l-137 164c-7 8 -10 17 -10 25c0 33 49 64 86 96c26 22 39 54 39 85c0 24 -8 47 -24 67l-39 46c-2 3 -3 6 -3 9c0 7 7 14 14 14c3 0 7 -1 10 -5l152 -182c7 -8 10 -17 10 -25c0 -33 -49 -64 -86 -96
c-26 -22 -39 -54 -39 -85c0 -24 8 -47 24 -67l87 -104c2 -3 3 -5 3 -8c0 -7 -7 -14 -14 -14c-3 0 -7 1 -10 5c-19 22 -66 43 -102 43c-40 0 -52 -29 -52 -70c0 -35 11 -75 28 -96c6 -7 -4 -16 -10 -9c-46 55 -93 150 -93 204z" fill="currentColor"/>
</a>
<a style="color:inherit;" xlink:href="textedit:///home/mojzis/pers/noty/lilywork/score_only/narodil_se_kristus_pan.ly:7:11:12">
<path transform="translate(20.3882, 4.7687) scale(0.0022, -0.0022)" d="M175 487c18 0 58 31 58 -3v-367c0 -48 28 -94 73 -94c8 0 12 -5 12 -11s-4 -12 -12 -12c-44 0 -87 13 -131 13s-87 -13 -131 -13c-8 0 -12 6 -12 12s4 11 12 11c45 0 73 46 73 94v245c0 12 -9 19 -17 19c-4 0 -8 -3 -10 -7l-64 -136c-3 -6 -7 -9 -12 -9
c-8 0 -16 6 -16 14c0 2 1 5 2 7l117 250c3 6 10 3 16 0c13 -6 27 -13 42 -13z" fill="currentColor"/>
</a>
<a style="color:inherit;" xlink:href="textedit:///home/mojzis/pers/noty/lilywork/score_only/narodil_se_kristus_pan.ly:17:8:9">
<text transform="translate(20.2032, 12.9345)" font-family="serif" font-size="1.7463" text-anchor="start" fill="currentColor">
<tspan>ro</tspan>
</text>
</a>
<rect transform="translate(21.2287, 7.3052)" x="-0.0474" y="-0.0045" width="0.0948" height="2.8087" ry="0.0235" fill="currentColor"/>
<a style="color:inherit;" xlink:href="textedit:///home/mojzis/pers/noty/lilywork/score_only/narodil_se_kristus_pan.ly:7:15:16">
<circle transform="translate(22.7776, 9.8052)" stroke-linejoin="round" stroke-linecap="round" fill="currentColor" stroke="currentColor" stroke-width="0" r="0.5365"/>
<g color="rgb(100.0000%, 100.0000%, 100.0000%)">
<text transform="translate(22.4161, 10.1235)" font-family="sans-serif" font-weight="bold" font-size="0.8731" text-anchor="start" fill="currentColor">
<tspan>D</tspan>
</text>
</g>
</a>
<a style="color:inherit;" xlink:href="textedit:///home/mojzis/pers/noty/lilywork/score_only/narodil_se_kristus_pan.ly:7:16:17">
<path transform="translate(22.3659, 4.7687) scale(0.0022, -0.0022)" d="M235 355c0 60 -18 122 -70 122c-26 0 -51 -14 -51 -37c0 -27 35 -41 35 -68c0 -38 -30 -69 -68 -69s-69 31 -69 69c0 76 72 128 153 128c96 0 187 -56 187 -145c0 -153 -151 -159 -249 -220c9 2 17 3 26 3c33 0 70 -11 105 -36c21 -15 46 -23 66 -23c21 0 39 9 44 29
c2 6 6 9 11 9c6 0 12 -5 12 -12c0 -1 -1 -2 -1 -3c-17 -65 -78 -102 -137 -102c-36 0 -71 14 -96 44c-13 16 -31 22 -48 22c-30 0 -59 -20 -62 -55c-1 -7 -6 -11 -11 -11c-6 0 -12 4 -12 11c0 175 235 165 235 344z" fill="currentColor"/>
</a>
<rect transform="translate(23.2667, 7.3052)" x="-0.0474" y="-0.1990" width="0.0948" height="2.5032" ry="0.0235" fill="currentColor"/>
<a style="color:inherit;" xlink:href="textedit:///home/mojzis/pers/noty/lilywork/score_only/narodil_se_kristus_pan.ly:7:9:10">
<circle transform="translate(20.7397, 10.3052)" stroke-linejoin="round" stroke-linecap="round" fill="currentColor" stroke="currentColor" stroke-width="0" r="0.5365"/>
<g color="rgb(100.0000%, 100.0000%, 100.0000%)">
<text transform="translate(20.4183, 10.6230)" font-family="sans-serif" font-weight="bold" font-size="0.8731" text-anchor="start" fill="currentColor">
<tspan>C</tspan>
</text>
</g>
</a>
<a style="color:inherit;" xlink:href="textedit:///home/mojzis/pers/noty/lilywork/score_only/narodil_se_kristus_pan.ly:7:20:21">
<circle transform="translate(24.8156, 9.3052)" stroke-linejoin="round" stroke-linecap="round" fill="currentColor" stroke="currentColor" stroke-width="0" r="0.5365"/>
<g color="rgb(100.0000%, 100.0000%, 100.0000%)">
<text transform="translate(24.5143, 9.6235)" font-family="sans-serif" font-weight="bold" font-size="0.8731" text-anchor="start" fill="currentColor">
<tspan>E</tspan>
</text>
</g>
</a>
<a style="color:inherit;" xlink:href="textedit:///home/mojzis/pers/noty/lilywork/score_only/narodil_se_kristus_pan.ly:7:22:23">
<path transform="translate(24.4440, 4.7687) scale(0.0022, -0.0022)" d="M150 477c-29 0 -59 -8 -59 -33c0 -22 36 -25 36 -47c0 -32 -26 -58 -58 -58s-57 26 -57 58c0 65 67 103 138 103c91 0 169 -33 169 -114c0 -43 -4 -82 -42 -100c-9 -4 -14 -12 -14 -21s5 -18 14 -22c41 -19 56 -57 56 -103c0 -92 -79 -140 -179 -140
c-79 0 -154 42 -154 113c0 36 30 66 66 66s65 -30 65 -66c0 -25 -40 -28 -40 -53c0 -27 32 -37 63 -37c49 0 63 61 63 117v16c0 54 -2 94 -50 94h-80c-10 0 -14 8 -14 15s4 14 14 14h80c49 0 50 43 50 99v8c0 54 -18 91 -67 91z" fill="currentColor"/>
</a>
<a style="color:inherit;" xlink:href="textedit:///home/mojzis/pers/noty/lilywork/score_only/narodil_se_kristus_pan.ly:17:14:15">
<text transform="translate(23.6909, 12.9345)" font-family="serif" font-size="1.7463" text-anchor="start" fill="currentColor">
<tspan>dil</tspan>
</text>
</a>
<rect transform="translate(25.3046, 7.3052)" x="-0.0474" y="-1.5000" width="0.0948" height="3.3042" ry="0.0235" fill="currentColor"/>
<a style="color:inherit;" xlink:href="textedit:///home/mojzis/pers/noty/lilywork/score_only/narodil_se_kristus_pan.ly:7:43:44">
<path transform="translate(39.4129, 4.7687) scale(0.0022, -0.0022)" d="M150 477c-29 0 -59 -8 -59 -33c0 -22 36 -25 36 -47c0 -32 -26 -58 -58 -58s-57 26 -57 58c0 65 67 103 138 103c91 0 169 -33 169 -114c0 -43 -4 -82 -42 -100c-9 -4 -14 -12 -14 -21s5 -18 14 -22c41 -19 56 -57 56 -103c0 -92 -79 -140 -179 -140
c-79 0 -154 42 -154 113c0 36 30 66 66 66s65 -30 65 -66c0 -25 -40 -28 -40 -53c0 -27 32 -37 63 -37c49 0 63 61 63 117v16c0 54 -2 94 -50 94h-80c-10 0 -14 8 -14 15s4 14 14 14h80c49 0 50 43 50 99v8c0 54 -18 91 -67 91z" fill="currentColor"/>
</a>
<a style="color:inherit;" xlink:href="textedit:///home/mojzis/pers/noty/lilywork/score_only/narodil_se_kristus_pan.ly:17:2:3">
<text transform="translate(16.3331, 12.9345)" font-family="serif" font-size="1.7463" text-anchor="start" fill="currentColor">
<tspan>Na</tspan>
</text>
</a>
<a style="color:inherit;" xlink:href="textedit:///home/mojzis/pers/noty/lilywork/score_only/narodil_se_kristus_pan.ly:7:4:5">
<circle transform="translate(17.6185, 10.3052)" stroke-linejoin="round" stroke-linecap="round" fill="currentColor" stroke="currentColor" stroke-width="0" r="0.5365"/>
<g color="rgb(100.0000%, 100.0000%, 100.0000%)">
<text transform="translate(17.2971, 10.6230)" font-family="sans-serif" font-weight="bold" font-size="0.8731" text-anchor="start" fill="currentColor">
<tspan>C</tspan>
</text>
</g>
</a>
<a style="color:inherit;" xlink:href="textedit:///home/mojzis/pers/noty/lilywork/score_only/narodil_se_kristus_pan.ly:7:6:7">
<path transform="translate(17.2670, 4.7687) scale(0.0022, -0.0022)" d="M175 487c18 0 58 31 58 -3v-367c0 -48 28 -94 73 -94c8 0 12 -5 12 -11s-4 -12 -12 -12c-44 0 -87 13 -131 13s-87 -13 -131 -13c-8 0 -12 6 -12 12s4 11 12 11c45 0 73 46 73 94v245c0 12 -9 19 -17 19c-4 0 -8 -3 -10 -7l-64 -136c-3 -6 -7 -9 -12 -9
c-8 0 -16 6 -16 14c0 2 1 5 2 7l117 250c3 6 10 3 16 0c13 -6 27 -13 42 -13z" fill="currentColor"/>
</a>
<path transform="translate(9.1685, 8.3052) scale(0.0040, -0.0040)" d="M374 260c5 0 10 1 15 1c154 0 254 -127 254 -259c0 -76 -33 -153 -107 -208c-22 -17 -47 -29 -73 -37c3 -36 5 -72 5 -108c0 -19 0 -37 -1 -56c-7 -120 -88 -226 -206 -226c-108 0 -195 87 -195 195c0 58 53 104 112 104c54 0 95 -48 95 -104c0 -52 -43 -95 -95 -95
c-12 0 -24 4 -35 9c26 -41 70 -70 121 -70c1 0 2 1 3 1c93 2 154 93 160 192c1 18 2 35 2 53c0 32 -2 64 -5 96c-29 -5 -58 -8 -89 -8c-188 0 -333 171 -333 372c0 178 133 306 251 440c-18 63 -35 126 -42 191c-6 51 -7 102 -7 154c0 116 55 226 150 295c5 4 11 4 16 0
c70 -84 132 -246 132 -359c0 -144 -87 -256 -183 -365c20 -69 39 -138 55 -208zM459 -205c69 24 117 96 117 166c0 92 -69 184 -179 193c25 -117 48 -235 62 -359zM71 31c0 -136 131 -251 267 -251c28 0 55 2 82 6c-15 128 -38 247 -64 367c-79 -9 -125 -62 -125 -121
c0 -44 26 -92 82 -124c4 -4 7 -9 7 -14c0 -11 -9 -21 -20 -21c-3 0 -6 1 -9 2c-80 43 -116 114 -116 184c0 88 57 173 158 196c-14 60 -30 119 -46 178c-108 -121 -216 -242 -216 -402zM411 1050c-99 -50 -161 -151 -161 -262c0 -76 15 -137 33 -200c82 97 149 198 149 325
c0 58 -4 84 -21 137z" fill="currentColor"/>
<a style="color:inherit;" xlink:href="textedit:///home/mojzis/pers/noty/lilywork/score_only/narodil_se_kristus_pan.ly:6:4:5">
<path transform="translate(13.3685, 7.3052) scale(0.0040, -0.0040)" d="M360 25c-51 0 -76 43 -76 77c0 39 28 78 74 78c6 0 13 0 18 -1c-29 37 -76 60 -126 60c-106 0 -113 -73 -113 -185c0 -17 1 -35 1 -54s-1 -37 -1 -54c0 -112 7 -185 113 -185c82 0 145 68 164 151c1 6 6 9 10 9c6 0 11 -4 11 -11c0 -94 -107 -171 -185 -171
c-68 0 -137 20 -184 69c-49 51 -66 122 -66 192s17 141 66 192c47 49 116 69 184 69c88 0 163 -62 178 -148c1 -5 2 -9 2 -14c0 -40 -32 -74 -70 -74z" fill="currentColor"/>
</a>
<rect transform="translate(18.1075, 7.3052)" x="-0.0474" y="-0.5000" width="0.0948" height="3.3042" ry="0.0235" fill="currentColor"/>
<rect transform="translate(33.2664, 7.3052)" x="-0.0474" y="-2.5000" width="0.0948" height="3.3042" ry="0.0235" fill="currentColor"/>
<a style="color:inherit;" xlink:href="textedit:///home/mojzis/pers/noty/lilywork/score_only/narodil_se_kristus_pan.ly:7:37:38">
<circle transform="translate(36.0507, 8.3052)" stroke-linejoin="round" stroke-linecap="round" fill="currentColor" stroke="currentColor" stroke-width="0" r="0.5365"/>
<g color="rgb(100.0000%, 100.0000%, 100.0000%)">
<text transform="translate(35.6892, 8.6230)" font-family="sans-serif" font-weight="bold" font-size="0.8731" text-anchor="start" fill="currentColor">
<tspan>G</tspan>
</text>
</g>
</a>
<a style="color:inherit;" xlink:href="textedit:///home/mojzis/pers/noty/lilywork/score_only/narodil_se_kristus_pan.ly:7:38:39">
<path transform="translate(35.5988, 4.3052) scale(0.0022, -0.0022)" d="M196 117h117c0 -48 27 -94 72 -94c8 0 12 -5 12 -11s-4 -12 -12 -12c-44 0 -87 13 -131 13s-87 -13 -131 -13c-8 0 -12 6 -12 12s4 11 12 11c45 0 73 46 73 94zM204 307c22 14 44 29 60 50c11 15 19 33 27 50c2 4 5 6 9 6c6 0 13 -5 13 -14v-245h72c10 0 15 -7 15 -14
s-5 -15 -15 -15h-72v-8h-117v8h-167c-23 0 -31 14 -31 23c0 3 1 5 2 6c80 93 138 207 138 330c0 10 7 19 16 16c23 -7 47 -13 71 -13s48 6 71 13c14 4 23 -9 17 -16l-284 -330h167v131c0 8 1 17 8 22z" fill="currentColor"/>
</a>
<a style="color:inherit;" xlink:href="textedit:///home/mojzis/pers/noty/lilywork/score_only/narodil_se_kristus_pan.ly:17:29:30">
<text transform="translate(34.6850, 12.9345)" font-family="serif" font-size="1.7463" text-anchor="start" fill="currentColor">
<tspan>tus</tspan>
</text>
</a>
<rect transform="translate(36.5397, 7.3052)" x="-0.0474" y="-2.5000" width="0.0948" height="3.3042" ry="0.0235" fill="currentColor"/>
<a style="color:inherit;" xlink:href="textedit:///home/mojzis/pers/noty/lilywork/score_only/narodil_se_kristus_pan.ly:7:41:42">
<circle transform="translate(39.7845, 8.3052)" stroke-linejoin="round" stroke-linecap="round" fill="currentColor" stroke="currentColor" stroke-width="0" r="0.5365"/>
<g color="rgb(100.0000%, 100.0000%, 100.0000%)">
<circle transform="translate(39.7845, 8.3052)" stroke-linejoin="round" stroke-linecap="round" fill="currentColor" stroke="currentColor" stroke-width="0" r="0.4416"/>
</g>
<text transform="translate(39.4230, 8.6230)" font-family="sans-serif" font-weight="bold" font-size="0.8731" text-anchor="start" fill="currentColor">
<tspan>G</tspan>
</text>
</a>
<rect transform="translate(28.7778, 7.3052)" x="-0.0474" y="-2.0000" width="0.0948" height="3.3042" ry="0.0235" fill="currentColor"/>
<a style="color:inherit;" xlink:href="textedit:///home/mojzis/pers/noty/lilywork/score_only/narodil_se_kristus_pan.ly:7:34:35">
<path transform="translate(32.3958, 4.7687) scale(0.0022, -0.0022)" d="M46 500c46 -8 91 -13 137 -13s92 5 138 13c15 2 23 -10 17 -16c-68 -68 -166 -93 -263 -93c-9 0 -17 -8 -17 -17v-96c28 28 66 43 105 43c116 0 186 -51 186 -161c0 -94 -87 -160 -186 -160c-82 0 -163 39 -163 113c0 36 30 66 66 66s65 -30 65 -66
c0 -25 -40 -28 -40 -53c0 -30 37 -37 72 -37c57 0 70 71 70 137c0 63 -15 132 -70 132c-42 0 -83 -12 -107 -45c-3 -4 -8 -6 -12 -6c-8 0 -15 6 -15 15v228c0 10 8 18 17 16z" fill="currentColor"/>
</a>
<a style="color:inherit;" xlink:href="textedit:///home/mojzis/pers/noty/lilywork/score_only/narodil_se_kristus_pan.ly:7:25:26">
<circle transform="translate(28.2887, 8.8052)" stroke-linejoin="round" stroke-linecap="round" fill="currentColor" stroke="currentColor" stroke-width="0" r="0.5365"/>
<g color="rgb(100.0000%, 100.0000%, 100.0000%)">
<text transform="translate(27.9875, 9.1235)" font-family="sans-serif" font-weight="bold" font-size="0.8731" text-anchor="start" fill="currentColor">
<tspan>F</tspan>
</text>
</g>
</a>
<a style="color:inherit;" xlink:href="textedit:///home/mojzis/pers/noty/lilywork/score_only/narodil_se_kristus_pan.ly:7:28:29">
<path transform="translate(27.8368, 4.7687) scale(0.0022, -0.0022)" d="M196 117h117c0 -48 27 -94 72 -94c8 0 12 -5 12 -11s-4 -12 -12 -12c-44 0 -87 13 -131 13s-87 -13 -131 -13c-8 0 -12 6 -12 12s4 11 12 11c45 0 73 46 73 94zM204 307c22 14 44 29 60 50c11 15 19 33 27 50c2 4 5 6 9 6c6 0 13 -5 13 -14v-245h72c10 0 15 -7 15 -14
s-5 -15 -15 -15h-72v-8h-117v8h-167c-23 0 -31 14 -31 23c0 3 1 5 2 6c80 93 138 207 138 330c0 10 7 19 16 16c23 -7 47 -13 71 -13s48 6 71 13c14 4 23 -9 17 -16l-284 -330h167v131c0 8 1 17 8 22z" fill="currentColor"/>
</a>
<a style="color:inherit;" xlink:href="textedit:///home/mojzis/pers/noty/lilywork/score_only/narodil_se_kristus_pan.ly:17:18:19">
<text transform="translate(27.3247, 12.9345)" font-family="serif" font-size="1.7463" text-anchor="start" fill="currentColor">
<tspan>se</tspan>
</text>
</a>
<a style="color:inherit;" xlink:href="textedit:///home/mojzis/pers/noty/lilywork/score_only/narodil_se_kristus_pan.ly:7:33:34">
<circle transform="translate(32.7774, 8.3052)" stroke-linejoin="round" stroke-linecap="round" fill="currentColor" stroke="currentColor" stroke-width="0" r="0.5365"/>
<g color="rgb(100.0000%, 100.0000%, 100.0000%)">
<text transform="translate(32.4159, 8.6230)" font-family="sans-serif" font-weight="bold" font-size="0.8731" text-anchor="start" fill="currentColor">
<tspan>G</tspan>
</text>
</g>
</a>
<a style="color:inherit;" xlink:href="textedit:///home/mojzis/pers/noty/lilywork/score_only/narodil_se_kristus_pan.ly:17:21:22">
<text transform="translate(30.9698, 12.9345)" font-family="serif" font-size="1.7463" text-anchor="start" fill="currentColor">
<tspan>Kris</tspan>
</text>
</a>
<path transform="translate(26.3023, 8.8052) scale(0.0040, -0.0040)" d="M215 -316c0 -9 -8 -17 -17 -17s-17 8 -17 17v151l-87 -31v-162c0 -9 -8 -17 -17 -17s-17 8 -17 17v150l-39 -13c-10 -4 -21 4 -21 15v64c0 7 5 13 11 15l49 18v164l-39 -14c-10 -4 -21 4 -21 15v65c0 7 5 13 11 15l49 17v163c0 9 8 17 17 17s17 -8 17 -17v-151l87 31v162
c0 9 8 17 17 17s17 -8 17 -17v-150l39 13c10 4 21 -4 21 -15v-64c0 -7 -5 -13 -11 -15l-49 -18v-164l39 14c10 4 21 -4 21 -15v-65c0 -7 -5 -13 -11 -15l-49 -17v-163zM94 67v-164l87 30v164z" fill="currentColor"/>
<line transform="translate(3.3474, 21.3052)" stroke-linejoin="round" stroke-linecap="round" stroke-width="0.0729" stroke="currentColor" x1="0.0365" y1="-0.0000" x2="63.5638" y2="-0.0000"/>
<line transform="translate(3.3474, 20.3052)" stroke-linejoin="round" stroke-linecap="round" stroke-width="0.0729" stroke="currentColor" x1="0.0365" y1="-0.0000" x2="63.5638" y2="-0.0000"/>
<line transform="translate(3.3474, 19.3052)" stroke-linejoin="round" stroke-linecap="round" stroke-width="0.0729" stroke="currentColor" x1="0.0365" y1="-0.0000" x2="63.5638" y2="-0.0000"/>
<line transform="translate(3.3474, 18.3052)" stroke-linejoin="round" stroke-linecap="round" stroke-width="0.0729" stroke="currentColor" x1="0.0365" y1="-0.0000" x2="63.5638" y2="-0.0000"/>
<line transform="translate(3.3474, 17.3052)" stroke-linejoin="round" stroke-linecap="round" stroke-width="0.0729" stroke="currentColor" x1="0.0365" y1="-0.0000" x2="63.5638" y2="-0.0000"/>
<rect transform="translate(3.3474, 22.3052)" x="54.6300" y="-0.0865" width="1.6094" height="0.1729" ry="0.0865" fill="currentColor"/>
<rect transform="translate(35.7656, 19.3052)" x="0.0000" y="-2.0000" width="0.1386" height="4.0000" ry="0.0000" fill="currentColor"/>
<rect transform="translate(66.8091, 19.3052)" x="0.0000" y="-2.0000" width="0.1386" height="4.0000" ry="0.0000" fill="currentColor"/>
<rect transform="translate(46.4418, 19.3052)" x="0.0000" y="-2.0000" width="0.1386" height="4.0000" ry="0.0000" fill="currentColor"/>
<rect transform="translate(22.0602, 19.3052)" x="0.0000" y="-2.0000" width="0.1386" height="4.0000" ry="0.0000" fill="currentColor"/>
<rect transform="translate(57.1015, 19.3052)" x="0.0000" y="-2.0000" width="0.1386" height="4.0000" ry="0.0000" fill="currentColor"/>
<rect transform="translate(48.6115, 19.3052)" x="-0.0474" y="-1.5000" width="0.0948" height="3.2328" ry="0.0235" fill="currentColor"/>
<a style="color:inherit;" xlink:href="textedit:///home/mojzis/pers/noty/lilywork/score_only/narodil_se_kristus_pan.ly:8:50:51">
<circle transform="translate(52.7731, 21.8052)" stroke-linejoin="round" stroke-linecap="round" fill="currentColor" stroke="currentColor" stroke-width="0" r="0.5365"/>
<g color="rgb(100.0000%, 100.0000%, 100.0000%)">
<circle transform="translate(52.7731, 21.8052)" stroke-linejoin="round" stroke-linecap="round" fill="currentColor" stroke="currentColor" stroke-width="0" r="0.4416"/>
</g>
<text transform="translate(52.4115, 22.1235)" font-family="sans-serif" font-weight="bold" font-size="0.8731" text-anchor="start" fill="currentColor">
<tspan>D</tspan>
</text>
</a>
<a style="color:inherit;" xlink:href="textedit:///home/mojzis/pers/noty/lilywork/score_only/narodil_se_kristus_pan.ly:8:51:52">
<path transform="translate(52.3613, 16.7687) scale(0.0022, -0.0022)" d="M235 355c0 60 -18 122 -70 122c-26 0 -51 -14 -51 -37c0 -27 35 -41 35 -68c0 -38 -30 -69 -68 -69s-69 31 -69 69c0 76 72 128 153 128c96 0 187 -56 187 -145c0 -153 -151 -159 -249 -220c9 2 17 3 26 3c33 0 70 -11 105 -36c21 -15 46 -23 66 -23c21 0 39 9 44 29
c2 6 6 9 11 9c6 0 12 -5 12 -12c0 -1 -1 -2 -1 -3c-17 -65 -78 -102 -137 -102c-36 0 -71 14 -96 44c-13 16 -31 22 -48 22c-30 0 -59 -20 -62 -55c-1 -7 -6 -11 -11 -11c-6 0 -12 4 -12 11c0 175 235 165 235 344z" fill="currentColor"/>
</a>
<rect transform="translate(53.2621, 19.3052)" x="-0.0474" y="-1.0000" width="0.0948" height="3.2328" ry="0.0235" fill="currentColor"/>
<rect transform="translate(37.9352, 19.3052)" x="-0.0474" y="-1.5000" width="0.0948" height="3.2328" ry="0.0235" fill="currentColor"/>
<a style="color:inherit;" xlink:href="textedit:///home/mojzis/pers/noty/lilywork/score_only/narodil_se_kristus_pan.ly:18:7:8">
<rect transform="translate(11.5653, 24.8052)" x="0.0000" y="-0.5148" width="0.3000" height="0.0948" ry="0.0292" fill="currentColor"/>
</a>
<a style="color:inherit;" xlink:href="textedit:///home/mojzis/pers/noty/lilywork/score_only/narodil_se_kristus_pan.ly:18:53:54">
<text transform="translate(47.5860, 24.8052)" font-family="serif" font-size="1.7463" text-anchor="start" fill="currentColor">
<tspan>me</tspan>
</text>
</a>
<a style="color:inherit;" xlink:href="textedit:///home/mojzis/pers/noty/lilywork/score_only/narodil_se_kristus_pan.ly:8:41:42">
<circle transform="translate(42.0968, 20.8052)" stroke-linejoin="round" stroke-linecap="round" fill="currentColor" stroke="currentColor" stroke-width="0" r="0.5365"/>
<g color="rgb(100.0000%, 100.0000%, 100.0000%)">
<circle transform="translate(42.0968, 20.8052)" stroke-linejoin="round" stroke-linecap="round" fill="currentColor" stroke="currentColor" stroke-width="0" r="0.4416"/>
</g>
<text transform="translate(41.7955, 21.1235)" font-family="sans-serif" font-weight="bold" font-size="0.8731" text-anchor="start" fill="currentColor">
<tspan>F</tspan>
</text>
</a>
<a style="color:inherit;" xlink:href="textedit:///home/mojzis/pers/noty/lilywork/score_only/narodil_se_kristus_pan.ly:8:42:43">
<path transform="translate(41.6449, 16.7687) scale(0.0022, -0.0022)" d="M196 117h117c0 -48 27 -94 72 -94c8 0 12 -5 12 -11s-4 -12 -12 -12c-44 0 -87 13 -131 13s-87 -13 -131 -13c-8 0 -12 6 -12 12s4 11 12 11c45 0 73 46 73 94zM204 307c22 14 44 29 60 50c11 15 19 33 27 50c2 4 5 6 9 6c6 0 13 -5 13 -14v-245h72c10 0 15 -7 15 -14
s-5 -15 -15 -15h-72v-8h-117v8h-167c-23 0 -31 14 -31 23c0 3 1 5 2 6c80 93 138 207 138 330c0 10 7 19 16 16c23 -7 47 -13 71 -13s48 6 71 13c14 4 23 -9 17 -16l-284 -330h167v131c0 8 1 17 8 22z" fill="currentColor"/>
</a>
<a style="color:inherit;" xlink:href="textedit:///home/mojzis/pers/noty/lilywork/score_only/narodil_se_kristus_pan.ly:18:46:47">
<text transform="translate(40.7009, 24.8052)" font-family="serif" font-size="1.7463" text-anchor="start" fill="currentColor">
<tspan>duj</tspan>
</text>
</a>
<rect transform="translate(42.5858, 19.3052)" x="-0.0474" y="-2.0000" width="0.0948" height="3.2328" ry="0.0235" fill="currentColor"/>
<a style="color:inherit;" xlink:href="textedit:///home/mojzis/pers/noty/lilywork/score_only/narodil_se_kristus_pan.ly:8:45:46">
<circle transform="translate(48.1224, 21.3052)" stroke-linejoin="round" stroke-linecap="round" fill="currentColor" stroke="currentColor" stroke-width="0" r="0.5365"/>
<g color="rgb(100.0000%, 100.0000%, 100.0000%)">
<circle transform="translate(48.1224, 21.3052)" stroke-linejoin="round" stroke-linecap="round" fill="currentColor" stroke="currentColor" stroke-width="0" r="0.4416"/>
</g>
<text transform="translate(47.8212, 21.6235)" font-family="sans-serif" font-weight="bold" font-size="0.8731" text-anchor="start" fill="currentColor">
<tspan>E</tspan>
</text>
</a>
<a style="color:inherit;" xlink:href="textedit:///home/mojzis/pers/noty/lilywork/score_only/narodil_se_kristus_pan.ly:8:46:47">
<path transform="translate(47.7509, 16.7687) scale(0.0022, -0.0022)" d="M150 477c-29 0 -59 -8 -59 -33c0 -22 36 -25 36 -47c0 -32 -26 -58 -58 -58s-57 26 -57 58c0 65 67 103 138 103c91 0 169 -33 169 -114c0 -43 -4 -82 -42 -100c-9 -4 -14 -12 -14 -21s5 -18 14 -22c41 -19 56 -57 56 -103c0 -92 -79 -140 -179 -140
c-79 0 -154 42 -154 113c0 36 30 66 66 66s65 -30 65 -66c0 -25 -40 -28 -40 -53c0 -27 32 -37 63 -37c49 0 63 61 63 117v16c0 54 -2 94 -50 94h-80c-10 0 -14 8 -14 15s4 14 14 14h80c49 0 50 43 50 99v8c0 54 -18 91 -67 91z" fill="currentColor"/>
</a>
<a style="color:inherit;" xlink:href="textedit:///home/mojzis/pers/noty/lilywork/score_only/narodil_se_kristus_pan.ly:8:48:49">
<path transform="translate(47.5860, 19.3052)" stroke-width="0.0584" stroke-linejoin="round" stroke-linecap="round" stroke="currentColor" fill="currentColor" d="M0.4982 3.0365C1.4818 4.1376 3.9538 4.4033 5.1489 3.5365L5.1489 3.5365C3.9631 4.3163 1.4911 4.0505 0.4982 3.0365z"/>
</a>
<a style="color:inherit;" xlink:href="textedit:///home/mojzis/pers/noty/lilywork/score_only/narodil_se_kristus_pan.ly:18:50:51">
<rect transform="translate(45.2093, 24.8052)" x="0.0000" y="-0.5148" width="0.6600" height="0.0948" ry="0.0292" fill="currentColor"/>
</a>
<a style="color:inherit;" xlink:href="textedit:///home/mojzis/pers/noty/lilywork/score_only/narodil_se_kristus_pan.ly:18:43:44">
<rect transform="translate(39.2155, 24.8052)" x="0.0000" y="-0.5148" width="0.6600" height="0.0948" ry="0.0292" fill="currentColor"/>
</a>
<a style="color:inherit;" xlink:href="textedit:///home/mojzis/pers/noty/lilywork/score_only/narodil_se_kristus_pan.ly:18:17:18">
<rect transform="translate(17.3977, 24.8052)" x="0.0000" y="-0.5148" width="0.3279" height="0.0948" ry="0.0292" fill="currentColor"/>
</a>
<a style="color:inherit;" xlink:href="textedit:///home/mojzis/pers/noty/lilywork/score_only/narodil_se_kristus_pan.ly:8:57:58">
<circle transform="translate(58.7821, 22.3052)" stroke-linejoin="round" stroke-linecap="round" fill="currentColor" stroke="currentColor" stroke-width="0" r="0.5365"/>
<g color="rgb(100.0000%, 100.0000%, 100.0000%)">
<circle transform="translate(58.7821, 22.3052)" stroke-linejoin="round" stroke-linecap="round" fill="currentColor" stroke="currentColor" stroke-width="0" r="0.4416"/>
</g>
<text transform="translate(58.4607, 22.6230)" font-family="sans-serif" font-weight="bold" font-size="0.8731" text-anchor="start" fill="currentColor">
<tspan>C</tspan>
</text>
</a>
<a style="color:inherit;" xlink:href="textedit:///home/mojzis/pers/noty/lilywork/score_only/narodil_se_kristus_pan.ly:8:60:61">
<path transform="translate(58.4306, 16.7687) scale(0.0022, -0.0022)" d="M175 487c18 0 58 31 58 -3v-367c0 -48 28 -94 73 -94c8 0 12 -5 12 -11s-4 -12 -12 -12c-44 0 -87 13 -131 13s-87 -13 -131 -13c-8 0 -12 6 -12 12s4 11 12 11c45 0 73 46 73 94v245c0 12 -9 19 -17 19c-4 0 -8 -3 -10 -7l-64 -136c-3 -6 -7 -9 -12 -9
c-8 0 -16 6 -16 14c0 2 1 5 2 7l117 250c3 6 10 3 16 0c13 -6 27 -13 42 -13z" fill="currentColor"/>
</a>
<a style="color:inherit;" xlink:href="textedit:///home/mojzis/pers/noty/lilywork/score_only/narodil_se_kristus_pan.ly:18:56:57">
<text transform="translate(57.5369, 24.8052)" font-family="serif" font-size="1.7463" text-anchor="start" fill="currentColor">
<tspan>se.</tspan>
</text>
</a>
<path transform="translate(59.7753, 21.8052) scale(0.0040, -0.0040)" d="M0 0c0 32 25 57 57 57s57 -25 57 -57s-25 -57 -57 -57s-57 25 -57 57z" fill="currentColor"/>
<rect transform="translate(59.2711, 19.3052)" x="-0.0474" y="-0.5000" width="0.0948" height="3.2328" ry="0.0235" fill="currentColor"/>
<a style="color:inherit;" xlink:href="textedit:///home/mojzis/pers/noty/lilywork/score_only/narodil_se_kristus_pan.ly:8:63:64">
<path transform="translate(63.7628, 19.3052) scale(0.0040, -0.0040)" d="M-23 -113c0 26 10 40 36 40c34 0 85 -15 130 -37l-137 164c-7 8 -10 17 -10 25c0 33 49 64 86 96c26 22 39 54 39 85c0 24 -8 47 -24 67l-39 46c-2 3 -3 6 -3 9c0 7 7 14 14 14c3 0 7 -1 10 -5l152 -182c7 -8 10 -17 10 -25c0 -33 -49 -64 -86 -96
c-26 -22 -39 -54 -39 -85c0 -24 8 -47 24 -67l87 -104c2 -3 3 -5 3 -8c0 -7 -7 -14 -14 -14c-3 0 -7 1 -10 5c-19 22 -66 43 -102 43c-40 0 -52 -29 -52 -70c0 -35 11 -75 28 -96c6 -7 -4 -16 -10 -9c-46 55 -93 150 -93 204z" fill="currentColor"/>
</a>
<a style="color:inherit;" xlink:href="textedit:///home/mojzis/pers/noty/lilywork/score_only/narodil_se_kristus_pan.ly:18:13:14">
<text transform="translate(14.7168, 24.8052)" font-family="serif" font-size="1.7463" text-anchor="start" fill="currentColor">
<tspan>kví</tspan>
</text>
</a>
<a style="color:inherit;" xlink:href="textedit:///home/mojzis/pers/noty/lilywork/score_only/narodil_se_kristus_pan.ly:8:8:9">
<circle transform="translate(12.8531, 20.3052)" stroke-linejoin="round" stroke-linecap="round" fill="currentColor" stroke="currentColor" stroke-width="0" r="0.5365"/>
<g color="rgb(100.0000%, 100.0000%, 100.0000%)">
<text transform="translate(12.4915, 20.6230)" font-family="sans-serif" font-weight="bold" font-size="0.8731" text-anchor="start" fill="currentColor">
<tspan>G</tspan>
</text>
</g>
</a>
<a style="color:inherit;" xlink:href="textedit:///home/mojzis/pers/noty/lilywork/score_only/narodil_se_kristus_pan.ly:8:9:10">
<path transform="translate(12.4715, 16.7687) scale(0.0022, -0.0022)" d="M46 500c46 -8 91 -13 137 -13s92 5 138 13c15 2 23 -10 17 -16c-68 -68 -166 -93 -263 -93c-9 0 -17 -8 -17 -17v-96c28 28 66 43 105 43c116 0 186 -51 186 -161c0 -94 -87 -160 -186 -160c-82 0 -163 39 -163 113c0 36 30 66 66 66s65 -30 65 -66
c0 -25 -40 -28 -40 -53c0 -30 37 -37 72 -37c57 0 70 71 70 137c0 63 -15 132 -70 132c-42 0 -83 -12 -107 -45c-3 -4 -8 -6 -12 -6c-8 0 -15 6 -15 15v228c0 10 8 18 17 16z" fill="currentColor"/>
</a>
<a style="color:inherit;" xlink:href="textedit:///home/mojzis/pers/noty/lilywork/score_only/narodil_se_kristus_pan.ly:18:10:11">
<text transform="translate(11.8790, 24.8052)" font-family="serif" font-size="1.7463" text-anchor="start" fill="currentColor">
<tspan>že</tspan>
</text>
</a>
<rect transform="translate(13.3421, 19.3052)" x="-0.0474" y="-2.5000" width="0.0948" height="3.3042" ry="0.0235" fill="currentColor"/>
<a style="color:inherit;" xlink:href="textedit:///home/mojzis/pers/noty/lilywork/score_only/narodil_se_kristus_pan.ly:8:12:13">
<circle transform="translate(16.0223, 20.8052)" stroke-linejoin="round" stroke-linecap="round" fill="currentColor" stroke="currentColor" stroke-width="0" r="0.5365"/>
<g color="rgb(100.0000%, 100.0000%, 100.0000%)">
<text transform="translate(15.7210, 21.1235)" font-family="sans-serif" font-weight="bold" font-size="0.8731" text-anchor="start" fill="currentColor">
<tspan>F</tspan>
</text>
</g>
</a>
<a style="color:inherit;" xlink:href="textedit:///home/mojzis/pers/noty/lilywork/score_only/narodil_se_kristus_pan.ly:8:13:14">
<path transform="translate(15.5704, 16.7687) scale(0.0022, -0.0022)" d="M196 117h117c0 -48 27 -94 72 -94c8 0 12 -5 12 -11s-4 -12 -12 -12c-44 0 -87 13 -131 13s-87 -13 -131 -13c-8 0 -12 6 -12 12s4 11 12 11c45 0 73 46 73 94zM204 307c22 14 44 29 60 50c11 15 19 33 27 50c2 4 5 6 9 6c6 0 13 -5 13 -14v-245h72c10 0 15 -7 15 -14
s-5 -15 -15 -15h-72v-8h-117v8h-167c-23 0 -31 14 -31 23c0 3 1 5 2 6c80 93 138 207 138 330c0 10 7 19 16 16c23 -7 47 -13 71 -13s48 6 71 13c14 4 23 -9 17 -16l-284 -330h167v131c0 8 1 17 8 22z" fill="currentColor"/>
</a>
<rect transform="translate(16.5113, 19.3052)" x="-0.0474" y="-2.0000" width="0.0948" height="3.3042" ry="0.0235" fill="currentColor"/>
<a style="color:inherit;" xlink:href="textedit:///home/mojzis/pers/noty/lilywork/score_only/narodil_se_kristus_pan.ly:8:16:17">
<circle transform="translate(19.1915, 20.8052)" stroke-linejoin="round" stroke-linecap="round" fill="currentColor" stroke="currentColor" stroke-width="0" r="0.5365"/>
<g color="rgb(100.0000%, 100.0000%, 100.0000%)">
<text transform="translate(18.8902, 21.1235)" font-family="sans-serif" font-weight="bold" font-size="0.8731" text-anchor="start" fill="currentColor">
<tspan>F</tspan>
</text>
</g>
</a>
<a style="color:inherit;" xlink:href="textedit:///home/mojzis/pers/noty/lilywork/score_only/narodil_se_kristus_pan.ly:8:17:18">
<path transform="translate(18.7396, 16.7687) scale(0.0022, -0.0022)" d="M196 117h117c0 -48 27 -94 72 -94c8 0 12 -5 12 -11s-4 -12 -12 -12c-44 0 -87 13 -131 13s-87 -13 -131 -13c-8 0 -12 6 -12 12s4 11 12 11c45 0 73 46 73 94zM204 307c22 14 44 29 60 50c11 15 19 33 27 50c2 4 5 6 9 6c6 0 13 -5 13 -14v-245h72c10 0 15 -7 15 -14
s-5 -15 -15 -15h-72v-8h-117v8h-167c-23 0 -31 14 -31 23c0 3 1 5 2 6c80 93 138 207 138 330c0 10 7 19 16 16c23 -7 47 -13 71 -13s48 6 71 13c14 4 23 -9 17 -16l-284 -330h167v131c0 8 1 17 8 22z" fill="currentColor"/>
</a>
<a style="color:inherit;" xlink:href="textedit:///home/mojzis/pers/noty/lilywork/score_only/narodil_se_kristus_pan.ly:18:20:21">
<text transform="translate(17.7956, 24.8052)" font-family="serif" font-size="1.7463" text-anchor="start" fill="currentColor">
<tspan>tek</tspan>
</text>
</a>
<rect transform="translate(19.6805, 19.3052)" x="-0.0474" y="-2.0000" width="0.0948" height="3.3042" ry="0.0235" fill="currentColor"/>
<text transform="translate(2.2427, 16.2440)" font-family="serif" font-size="1.7463" text-anchor="start" fill="currentColor">
<tspan>5</tspan>
</text>
<path transform="translate(4.1474, 20.3052) scale(0.0040, -0.0040)" d="M374 260c5 0 10 1 15 1c154 0 254 -127 254 -259c0 -76 -33 -153 -107 -208c-22 -17 -47 -29 -73 -37c3 -36 5 -72 5 -108c0 -19 0 -37 -1 -56c-7 -120 -88 -226 -206 -226c-108 0 -195 87 -195 195c0 58 53 104 112 104c54 0 95 -48 95 -104c0 -52 -43 -95 -95 -95
c-12 0 -24 4 -35 9c26 -41 70 -70 121 -70c1 0 2 1 3 1c93 2 154 93 160 192c1 18 2 35 2 53c0 32 -2 64 -5 96c-29 -5 -58 -8 -89 -8c-188 0 -333 171 -333 372c0 178 133 306 251 440c-18 63 -35 126 -42 191c-6 51 -7 102 -7 154c0 116 55 226 150 295c5 4 11 4 16 0
c70 -84 132 -246 132 -359c0 -144 -87 -256 -183 -365c20 -69 39 -138 55 -208zM459 -205c69 24 117 96 117 166c0 92 -69 184 -179 193c25 -117 48 -235 62 -359zM71 31c0 -136 131 -251 267 -251c28 0 55 2 82 6c-15 128 -38 247 -64 367c-79 -9 -125 -62 -125 -121
c0 -44 26 -92 82 -124c4 -4 7 -9 7 -14c0 -11 -9 -21 -20 -21c-3 0 -6 1 -9 2c-80 43 -116 114 -116 184c0 88 57 173 158 196c-14 60 -30 119 -46 178c-108 -121 -216 -242 -216 -402zM411 1050c-99 -50 -161 -151 -161 -262c0 -76 15 -137 33 -200c82 97 149 198 149 325
c0 58 -4 84 -21 137z" fill="currentColor"/>
<a style="color:inherit;" xlink:href="textedit:///home/mojzis/pers/noty/lilywork/score_only/narodil_se_kristus_pan.ly:18:40:41">
<text transform="translate(36.5022, 24.8052)" font-family="serif" font-size="1.7463" text-anchor="start" fill="currentColor">
<tspan>ra</tspan>
</text>
</a>
<a style="color:inherit;" xlink:href="textedit:///home/mojzis/pers/noty/lilywork/score_only/narodil_se_kristus_pan.ly:8:4:5">
<circle transform="translate(9.6839, 20.3052)" stroke-linejoin="round" stroke-linecap="round" fill="currentColor" stroke="currentColor" stroke-width="0" r="0.5365"/>
<g color="rgb(100.0000%, 100.0000%, 100.0000%)">
<text transform="translate(9.3223, 20.6230)" font-family="sans-serif" font-weight="bold" font-size="0.8731" text-anchor="start" fill="currentColor">
<tspan>G</tspan>
</text>
</g>
</a>
<a style="color:inherit;" xlink:href="textedit:///home/mojzis/pers/noty/lilywork/score_only/narodil_se_kristus_pan.ly:8:5:6">
<path transform="translate(9.3023, 16.7687) scale(0.0022, -0.0022)" d="M46 500c46 -8 91 -13 137 -13s92 5 138 13c15 2 23 -10 17 -16c-68 -68 -166 -93 -263 -93c-9 0 -17 -8 -17 -17v-96c28 28 66 43 105 43c116 0 186 -51 186 -161c0 -94 -87 -160 -186 -160c-82 0 -163 39 -163 113c0 36 30 66 66 66s65 -30 65 -66
c0 -25 -40 -28 -40 -53c0 -30 37 -37 72 -37c57 0 70 71 70 137c0 63 -15 132 -70 132c-42 0 -83 -12 -107 -45c-3 -4 -8 -6 -12 -6c-8 0 -15 6 -15 15v228c0 10 8 18 17 16z" fill="currentColor"/>
</a>
<a style="color:inherit;" xlink:href="textedit:///home/mojzis/pers/noty/lilywork/score_only/narodil_se_kristus_pan.ly:18:2:3">
<text transform="translate(7.8160, 24.8052)" font-family="serif" font-size="1.7463" text-anchor="start" fill="currentColor">
<tspan>Z rů</tspan>
</text>
</a>
<rect transform="translate(10.1729, 19.3052)" x="-0.0474" y="-2.5000" width="0.0948" height="3.3042" ry="0.0235" fill="currentColor"/>
<a style="color:inherit;" xlink:href="textedit:///home/mojzis/pers/noty/lilywork/score_only/narodil_se_kristus_pan.ly:8:26:27">
<circle transform="translate(26.9100, 21.3052)" stroke-linejoin="round" stroke-linecap="round" fill="currentColor" stroke="currentColor" stroke-width="0" r="0.5365"/>
<g color="rgb(100.0000%, 100.0000%, 100.0000%)">
<text transform="translate(26.6087, 21.6235)" font-family="sans-serif" font-weight="bold" font-size="0.8731" text-anchor="start" fill="currentColor">
<tspan>E</tspan>
</text>
</g>
</a>
<rect transform="translate(31.9262, 19.3052)" x="-0.0474" y="-1.0000" width="0.0948" height="3.2328" ry="0.0235" fill="currentColor"/>
<a style="color:inherit;" xlink:href="textedit:///home/mojzis/pers/noty/lilywork/score_only/narodil_se_kristus_pan.ly:18:35:36">
<text transform="translate(29.2479, 24.8052)" font-family="serif" font-size="1.7463" text-anchor="start" fill="currentColor">
<tspan>nám,</tspan>
</text>
</a>
<a style="color:inherit;" xlink:href="textedit:///home/mojzis/pers/noty/lilywork/score_only/narodil_se_kristus_pan.ly:8:32:33">
<path transform="translate(31.0254, 16.7687) scale(0.0022, -0.0022)" d="M235 355c0 60 -18 122 -70 122c-26 0 -51 -14 -51 -37c0 -27 35 -41 35 -68c0 -38 -30 -69 -68 -69s-69 31 -69 69c0 76 72 128 153 128c96 0 187 -56 187 -145c0 -153 -151 -159 -249 -220c9 2 17 3 26 3c33 0 70 -11 105 -36c21 -15 46 -23 66 -23c21 0 39 9 44 29
c2 6 6 9 11 9c6 0 12 -5 12 -12c0 -1 -1 -2 -1 -3c-17 -65 -78 -102 -137 -102c-36 0 -71 14 -96 44c-13 16 -31 22 -48 22c-30 0 -59 -20 -62 -55c-1 -7 -6 -11 -11 -11c-6 0 -12 4 -12 11c0 175 235 165 235 344z" fill="currentColor"/>
</a>
<a style="color:inherit;" xlink:href="textedit:///home/mojzis/pers/noty/lilywork/score_only/narodil_se_kristus_pan.ly:8:27:28">
<path transform="translate(26.5384, 16.7687) scale(0.0022, -0.0022)" d="M150 477c-29 0 -59 -8 -59 -33c0 -22 36 -25 36 -47c0 -32 -26 -58 -58 -58s-57 26 -57 58c0 65 67 103 138 103c91 0 169 -33 169 -114c0 -43 -4 -82 -42 -100c-9 -4 -14 -12 -14 -21s5 -18 14 -22c41 -19 56 -57 56 -103c0 -92 -79 -140 -179 -140
c-79 0 -154 42 -154 113c0 36 30 66 66 66s65 -30 65 -66c0 -25 -40 -28 -40 -53c0 -27 32 -37 63 -37c49 0 63 61 63 117v16c0 54 -2 94 -50 94h-80c-10 0 -14 8 -14 15s4 14 14 14h80c49 0 50 43 50 99v8c0 54 -18 91 -67 91z" fill="currentColor"/>
</a>
<a style="color:inherit;" xlink:href="textedit:///home/mojzis/pers/noty/lilywork/score_only/narodil_se_kristus_pan.ly:18:30:31">
<text transform="translate(25.0221, 24.8052)" font-family="serif" font-size="1.7463" text-anchor="start" fill="currentColor">
<tspan>kvet</tspan>
</text>
</a>
<a style="color:inherit;" xlink:href="textedit:///home/mojzis/pers/noty/lilywork/score_only/narodil_se_kristus_pan.ly:8:30:31">
<circle transform="translate(31.4371, 21.8052)" stroke-linejoin="round" stroke-linecap="round" fill="currentColor" stroke="currentColor" stroke-width="0" r="0.5365"/>
<g color="rgb(100.0000%, 100.0000%, 100.0000%)">
<circle transform="translate(31.4371, 21.8052)" stroke-linejoin="round" stroke-linecap="round" fill="currentColor" stroke="currentColor" stroke-width="0" r="0.4416"/>
</g>
<text transform="translate(31.0756, 22.1235)" font-family="sans-serif" font-weight="bold" font-size="0.8731" text-anchor="start" fill="currentColor">
<tspan>D</tspan>
</text>
</a>
<rect transform="translate(27.3991, 19.3052)" x="-0.0474" y="-1.5000" width="0.0948" height="3.3042" ry="0.0235" fill="currentColor"/>
<a style="color:inherit;" xlink:href="textedit:///home/mojzis/pers/noty/lilywork/score_only/narodil_se_kristus_pan.ly:8:38:39">
<path transform="translate(37.0746, 16.7687) scale(0.0022, -0.0022)" d="M150 477c-29 0 -59 -8 -59 -33c0 -22 36 -25 36 -47c0 -32 -26 -58 -58 -58s-57 26 -57 58c0 65 67 103 138 103c91 0 169 -33 169 -114c0 -43 -4 -82 -42 -100c-9 -4 -14 -12 -14 -21s5 -18 14 -22c41 -19 56 -57 56 -103c0 -92 -79 -140 -179 -140
c-79 0 -154 42 -154 113c0 36 30 66 66 66s65 -30 65 -66c0 -25 -40 -28 -40 -53c0 -27 32 -37 63 -37c49 0 63 61 63 117v16c0 54 -2 94 -50 94h-80c-10 0 -14 8 -14 15s4 14 14 14h80c49 0 50 43 50 99v8c0 54 -18 91 -67 91z" fill="currentColor"/>
</a>
<a style="color:inherit;" xlink:href="textedit:///home/mojzis/pers/noty/lilywork/score_only/narodil_se_kristus_pan.ly:8:37:38">
<circle transform="translate(37.4461, 21.3052)" stroke-linejoin="round" stroke-linecap="round" fill="currentColor" stroke="currentColor" stroke-width="0" r="0.5365"/>
<g color="rgb(100.0000%, 100.0000%, 100.0000%)">
<circle transform="translate(37.4461, 21.3052)" stroke-linejoin="round" stroke-linecap="round" fill="currentColor" stroke="currentColor" stroke-width="0" r="0.4416"/>
</g>
<text transform="translate(37.1449, 21.6235)" font-family="sans-serif" font-weight="bold" font-size="0.8731" text-anchor="start" fill="currentColor">
<tspan>E</tspan>
</text>
</a>
<a style="color:inherit;" xlink:href="textedit:///home/mojzis/pers/noty/lilywork/score_only/narodil_se_kristus_pan.ly:8:22:23">
<circle transform="translate(23.7408, 21.3052)" stroke-linejoin="round" stroke-linecap="round" fill="currentColor" stroke="currentColor" stroke-width="0" r="0.5365"/>
<g color="rgb(100.0000%, 100.0000%, 100.0000%)">
<text transform="translate(23.4395, 21.6235)" font-family="sans-serif" font-weight="bold" font-size="0.8731" text-anchor="start" fill="currentColor">
<tspan>E</tspan>
</text>
</g>
</a>
<a style="color:inherit;" xlink:href="textedit:///home/mojzis/pers/noty/lilywork/score_only/narodil_se_kristus_pan.ly:8:23:24">
<path transform="translate(23.3692, 16.7687) scale(0.0022, -0.0022)" d="M150 477c-29 0 -59 -8 -59 -33c0 -22 36 -25 36 -47c0 -32 -26 -58 -58 -58s-57 26 -57 58c0 65 67 103 138 103c91 0 169 -33 169 -114c0 -43 -4 -82 -42 -100c-9 -4 -14 -12 -14 -21s5 -18 14 -22c41 -19 56 -57 56 -103c0 -92 -79 -140 -179 -140
c-79 0 -154 42 -154 113c0 36 30 66 66 66s65 -30 65 -66c0 -25 -40 -28 -40 -53c0 -27 32 -37 63 -37c49 0 63 61 63 117v16c0 54 -2 94 -50 94h-80c-10 0 -14 8 -14 15s4 14 14 14h80c49 0 50 43 50 99v8c0 54 -18 91 -67 91z" fill="currentColor"/>
</a>
<a style="color:inherit;" xlink:href="textedit:///home/mojzis/pers/noty/lilywork/score_only/narodil_se_kristus_pan.ly:18:24:25">
<text transform="translate(22.7567, 24.8052)" font-family="serif" font-size="1.7463" text-anchor="start" fill="currentColor">
<tspan>vy</tspan>
</text>
</a>
<rect transform="translate(24.2299, 19.3052)" x="-0.0474" y="-1.5000" width="0.0948" height="3.3042" ry="0.0235" fill="currentColor"/>
<line transform="translate(3.3474, 33.3052)" stroke-linejoin="round" stroke-linecap="round" stroke-width="0.0729" stroke="currentColor" x1="0.0365" y1="-0.0000" x2="63.5638" y2="-0.0000"/>
<line transform="translate(3.3474, 32.3052)" stroke-linejoin="round" stroke-linecap="round" stroke-width="0.0729" stroke="currentColor" x1="0.0365" y1="-0.0000" x2="63.5638" y2="-0.0000"/>
<line transform="translate(3.3474, 31.3052)" stroke-linejoin="round" stroke-linecap="round" stroke-width="0.0729" stroke="currentColor" x1="0.0365" y1="-0.0000" x2="63.5638" y2="-0.0000"/>
<line transform="translate(3.3474, 30.3052)" stroke-linejoin="round" stroke-linecap="round" stroke-width="0.0729" stroke="currentColor" x1="0.0365" y1="-0.0000" x2="63.5638" y2="-0.0000"/>
<line transform="translate(3.3474, 29.3052)" stroke-linejoin="round" stroke-linecap="round" stroke-width="0.0729" stroke="currentColor" x1="0.0365" y1="-0.0000" x2="63.5638" y2="-0.0000"/>
<rect transform="translate(3.3474, 34.3052)" x="57.2569" y="-0.0865" width="1.6094" height="0.1729" ry="0.0865" fill="currentColor"/>
<rect transform="translate(3.3474, 34.3052)" x="40.6355" y="-0.0865" width="1.6094" height="0.1729" ry="0.0865" fill="currentColor"/>
<rect transform="translate(3.3474, 34.3052)" x="37.1384" y="-0.0865" width="1.6094" height="0.1729" ry="0.0865" fill="currentColor"/>
<rect transform="translate(3.3474, 34.3052)" x="19.1445" y="-0.0865" width="1.6094" height="0.1729" ry="0.0865" fill="currentColor"/>
<rect transform="translate(51.1617, 31.3052)" x="0.0000" y="-2.0000" width="0.1386" height="4.0000" ry="0.0000" fill="currentColor"/>
<rect transform="translate(37.6855, 31.3052)" x="0.0000" y="-2.0000" width="0.1386" height="4.0000" ry="0.0000" fill="currentColor"/>
<rect transform="translate(25.4287, 31.3052)" x="0.0000" y="-2.0000" width="0.1386" height="4.0000" ry="0.0000" fill="currentColor"/>
<rect transform="translate(43.4177, 31.3052)" x="0.0000" y="-2.0000" width="0.1386" height="4.0000" ry="0.0000" fill="currentColor"/>
<path transform="translate(8.4263, 30.8052) scale(0.0040, -0.0040)" d="M0 0c0 32 25 57 57 57s57 -25 57 -57s-25 -57 -57 -57s-57 25 -57 57z" fill="currentColor"/>
<path transform="translate(8.4263, 31.8052) scale(0.0040, -0.0040)" d="M0 0c0 32 25 57 57 57s57 -25 57 -57s-25 -57 -57 -57s-57 25 -57 57z" fill="currentColor"/>
<rect transform="translate(8.0689, 31.3052)" x="0.0000" y="-2.0000" width="0.1386" height="4.0000" ry="0.0000" fill="currentColor"/>
<rect transform="translate(7.4124, 31.3052)" x="0.0000" y="-2.0000" width="0.4376" height="4.0000" ry="0.0000" fill="currentColor"/>
<rect transform="translate(60.0390, 31.3052)" x="0.0000" y="-2.0000" width="0.1386" height="4.0000" ry="0.0000" fill="currentColor"/>
<path transform="translate(65.4770, 30.8052) scale(0.0040, -0.0040)" d="M0 0c0 32 25 57 57 57s57 -25 57 -57s-25 -57 -57 -57s-57 25 -57 57z" fill="currentColor"/>
<path transform="translate(65.4770, 31.8052) scale(0.0040, -0.0040)" d="M0 0c0 32 25 57 57 57s57 -25 57 -57s-25 -57 -57 -57s-57 25 -57 57z" fill="currentColor"/>
<rect transform="translate(66.5100, 31.3052)" x="0.0000" y="-2.0000" width="0.4376" height="4.0000" ry="0.0000" fill="currentColor"/>
<rect transform="translate(66.1526, 31.3052)" x="0.0000" y="-2.0000" width="0.1386" height="4.0000" ry="0.0000" fill="currentColor"/>
<rect transform="translate(19.5972, 31.3052)" x="0.0000" y="-2.0000" width="0.1386" height="4.0000" ry="0.0000" fill="currentColor"/>
<a style="color:inherit;" xlink:href="textedit:///home/mojzis/pers/noty/lilywork/score_only/narodil_se_kristus_pan.ly:21:6:7">
<text transform="translate(47.1456, 36.8110)" font-family="serif" font-size="1.7463" text-anchor="start" fill="currentColor">
<tspan>nám</tspan>
</text>
</a>
<rect transform="translate(53.0207, 31.3052)" x="-0.0474" y="-2.5000" width="0.0948" height="3.3042" ry="0.0235" fill="currentColor"/>
<a style="color:inherit;" xlink:href="textedit:///home/mojzis/pers/noty/lilywork/score_only/narodil_se_kristus_pan.ly:21:10:11">
<text transform="translate(51.4471, 36.8110)" font-family="serif" font-size="1.7463" text-anchor="start" fill="currentColor">
<tspan>na</tspan>
</text>
</a>
<a style="color:inherit;" xlink:href="textedit:///home/mojzis/pers/noty/lilywork/score_only/narodil_se_kristus_pan.ly:10:80:81">
<path transform="translate(52.0798, 28.3052) scale(0.0022, -0.0022)" d="M196 117h117c0 -48 27 -94 72 -94c8 0 12 -5 12 -11s-4 -12 -12 -12c-44 0 -87 13 -131 13s-87 -13 -131 -13c-8 0 -12 6 -12 12s4 11 12 11c45 0 73 46 73 94zM204 307c22 14 44 29 60 50c11 15 19 33 27 50c2 4 5 6 9 6c6 0 13 -5 13 -14v-245h72c10 0 15 -7 15 -14
s-5 -15 -15 -15h-72v-8h-117v8h-167c-23 0 -31 14 -31 23c0 3 1 5 2 6c80 93 138 207 138 330c0 10 7 19 16 16c23 -7 47 -13 71 -13s48 6 71 13c14 4 23 -9 17 -16l-284 -330h167v131c0 8 1 17 8 22z" fill="currentColor"/>
</a>
<a style="color:inherit;" xlink:href="textedit:///home/mojzis/pers/noty/lilywork/score_only/narodil_se_kristus_pan.ly:10:78:79">
<circle transform="translate(52.5317, 32.3052)" stroke-linejoin="round" stroke-linecap="round" fill="currentColor" stroke="currentColor" stroke-width="0" r="0.5365"/>
<g color="rgb(100.0000%, 100.0000%, 100.0000%)">
<text transform="translate(52.1702, 32.6230)" font-family="sans-serif" font-weight="bold" font-size="0.8731" text-anchor="start" fill="currentColor">
<tspan>G</tspan>
</text>
</g>
</a>
<rect transform="translate(49.5427, 31.3052)" x="-0.0474" y="-3.0000" width="0.0948" height="3.2328" ry="0.0235" fill="currentColor"/>
<a style="color:inherit;" xlink:href="textedit:///home/mojzis/pers/noty/lilywork/score_only/narodil_se_kristus_pan.ly:10:83:84">
<circle transform="translate(54.6602, 32.8052)" stroke-linejoin="round" stroke-linecap="round" fill="currentColor" stroke="currentColor" stroke-width="0" r="0.5365"/>
<g color="rgb(100.0000%, 100.0000%, 100.0000%)">
<text transform="translate(54.3589, 33.1235)" font-family="sans-serif" font-weight="bold" font-size="0.8731" text-anchor="start" fill="currentColor">
<tspan>F</tspan>
</text>
</g>
</a>
<a style="color:inherit;" xlink:href="textedit:///home/mojzis/pers/noty/lilywork/score_only/narodil_se_kristus_pan.ly:10:84:85">
<path transform="translate(54.2886, 28.7687) scale(0.0022, -0.0022)" d="M150 477c-29 0 -59 -8 -59 -33c0 -22 36 -25 36 -47c0 -32 -26 -58 -58 -58s-57 26 -57 58c0 65 67 103 138 103c91 0 169 -33 169 -114c0 -43 -4 -82 -42 -100c-9 -4 -14 -12 -14 -21s5 -18 14 -22c41 -19 56 -57 56 -103c0 -92 -79 -140 -179 -140
c-79 0 -154 42 -154 113c0 36 30 66 66 66s65 -30 65 -66c0 -25 -40 -28 -40 -53c0 -27 32 -37 63 -37c49 0 63 61 63 117v16c0 54 -2 94 -50 94h-80c-10 0 -14 8 -14 15s4 14 14 14h80c49 0 50 43 50 99v8c0 54 -18 91 -67 91z" fill="currentColor"/>
</a>
<a style="color:inherit;" xlink:href="textedit:///home/mojzis/pers/noty/lilywork/score_only/narodil_se_kristus_pan.ly:21:16:17">
<text transform="translate(53.7162, 36.8110)" font-family="serif" font-size="1.7463" text-anchor="start" fill="currentColor">
<tspan>ro</tspan>
</text>
</a>
<rect transform="translate(55.1493, 31.3052)" x="-0.0474" y="-2.0000" width="0.0948" height="3.3042" ry="0.0235" fill="currentColor"/>
<a style="color:inherit;" xlink:href="textedit:///home/mojzis/pers/noty/lilywork/score_only/narodil_se_kristus_pan.ly:10:60:61">
<circle transform="translate(41.2905, 34.3052)" stroke-linejoin="round" stroke-linecap="round" fill="currentColor" stroke="currentColor" stroke-width="0" r="0.5365"/>
<g color="rgb(100.0000%, 100.0000%, 100.0000%)">
<circle transform="translate(41.2905, 34.3052)" stroke-linejoin="round" stroke-linecap="round" fill="currentColor" stroke="currentColor" stroke-width="0" r="0.4416"/>
</g>
<text transform="translate(40.9692, 34.6230)" font-family="sans-serif" font-weight="bold" font-size="0.8731" text-anchor="start" fill="currentColor">
<tspan>C</tspan>
</text>
</a>
<a style="color:inherit;" xlink:href="textedit:///home/mojzis/pers/noty/lilywork/score_only/narodil_se_kristus_pan.ly:10:68:69">
<path transform="translate(44.4362, 28.7687) scale(0.0022, -0.0022)" d="M175 487c18 0 58 31 58 -3v-367c0 -48 28 -94 73 -94c8 0 12 -5 12 -11s-4 -12 -12 -12c-44 0 -87 13 -131 13s-87 -13 -131 -13c-8 0 -12 6 -12 12s4 11 12 11c45 0 73 46 73 94v245c0 12 -9 19 -17 19c-4 0 -8 -3 -10 -7l-64 -136c-3 -6 -7 -9 -12 -9
c-8 0 -16 6 -16 14c0 2 1 5 2 7l117 250c3 6 10 3 16 0c13 -6 27 -13 42 -13z" fill="currentColor"/>
</a>
<a style="color:inherit;" xlink:href="textedit:///home/mojzis/pers/noty/lilywork/score_only/narodil_se_kristus_pan.ly:10:67:68">
<circle transform="translate(44.7876, 34.3052)" stroke-linejoin="round" stroke-linecap="round" fill="currentColor" stroke="currentColor" stroke-width="0" r="0.5365"/>
<g color="rgb(100.0000%, 100.0000%, 100.0000%)">
<circle transform="translate(44.7876, 34.3052)" stroke-linejoin="round" stroke-linecap="round" fill="currentColor" stroke="currentColor" stroke-width="0" r="0.4416"/>
</g>
<text transform="translate(44.4663, 34.6230)" font-family="sans-serif" font-weight="bold" font-size="0.8731" text-anchor="start" fill="currentColor">
<tspan>C</tspan>
</text>
</a>
<rect transform="translate(41.7796, 31.3052)" x="-0.0474" y="-0.5000" width="0.0948" height="3.2328" ry="0.0235" fill="currentColor"/>
<a style="color:inherit;" xlink:href="textedit:///home/mojzis/pers/noty/lilywork/score_only/narodil_se_kristus_pan.ly:20:34:35">
<text transform="translate(40.2060, 36.8110)" font-family="serif" font-size="1.7463" text-anchor="start" fill="currentColor">
<tspan>ho</tspan>
</text>
</a>
<a style="color:inherit;" xlink:href="textedit:///home/mojzis/pers/noty/lilywork/score_only/narodil_se_kristus_pan.ly:10:62:63">
<path transform="translate(40.9390, 28.7687) scale(0.0022, -0.0022)" d="M175 487c18 0 58 31 58 -3v-367c0 -48 28 -94 73 -94c8 0 12 -5 12 -11s-4 -12 -12 -12c-44 0 -87 13 -131 13s-87 -13 -131 -13c-8 0 -12 6 -12 12s4 11 12 11c45 0 73 46 73 94v245c0 12 -9 19 -17 19c-4 0 -8 -3 -10 -7l-64 -136c-3 -6 -7 -9 -12 -9
c-8 0 -16 6 -16 14c0 2 1 5 2 7l117 250c3 6 10 3 16 0c13 -6 27 -13 42 -13z" fill="currentColor"/>
</a>
<a style="color:inherit;" xlink:href="textedit:///home/mojzis/pers/noty/lilywork/score_only/narodil_se_kristus_pan.ly:21:2:3">
<text transform="translate(42.8796, 36.8110)" font-family="serif" font-size="1.7463" text-anchor="start" fill="currentColor">
<tspan>nám</tspan>
</text>
</a>
<a style="color:inherit;" xlink:href="textedit:///home/mojzis/pers/noty/lilywork/score_only/narodil_se_kristus_pan.ly:10:73:74">
<path transform="translate(48.6720, 28.7687) scale(0.0022, -0.0022)" d="M46 500c46 -8 91 -13 137 -13s92 5 138 13c15 2 23 -10 17 -16c-68 -68 -166 -93 -263 -93c-9 0 -17 -8 -17 -17v-96c28 28 66 43 105 43c116 0 186 -51 186 -161c0 -94 -87 -160 -186 -160c-82 0 -163 39 -163 113c0 36 30 66 66 66s65 -30 65 -66
c0 -25 -40 -28 -40 -53c0 -30 37 -37 72 -37c57 0 70 71 70 137c0 63 -15 132 -70 132c-42 0 -83 -12 -107 -45c-3 -4 -8 -6 -12 -6c-8 0 -15 6 -15 15v228c0 10 8 18 17 16z" fill="currentColor"/>
</a>
<rect transform="translate(45.2767, 31.3052)" x="-0.0474" y="-0.5000" width="0.0948" height="3.2328" ry="0.0235" fill="currentColor"/>
<a style="color:inherit;" xlink:href="textedit:///home/mojzis/pers/noty/lilywork/score_only/narodil_se_kristus_pan.ly:10:71:72">
<circle transform="translate(49.0536, 31.8052)" stroke-linejoin="round" stroke-linecap="round" fill="currentColor" stroke="currentColor" stroke-width="0" r="0.5365"/>
<g color="rgb(100.0000%, 100.0000%, 100.0000%)">
<circle transform="translate(49.0536, 31.8052)" stroke-linejoin="round" stroke-linecap="round" fill="currentColor" stroke="currentColor" stroke-width="0" r="0.4416"/>
</g>
<text transform="translate(48.7122, 32.1235)" font-family="sans-serif" font-weight="bold" font-size="0.8731" text-anchor="start" fill="currentColor">
<tspan>A</tspan>
</text>
</a>
<a style="color:inherit;" xlink:href="textedit:///home/mojzis/pers/noty/lilywork/score_only/narodil_se_kristus_pan.ly:10:90:91">
<path transform="translate(56.0241, 31.3052)" stroke-width="0.0584" stroke-linejoin="round" stroke-linecap="round" stroke="currentColor" fill="currentColor" d="M0.4455 3.0365C0.8442 3.6714 1.6862 3.8930 2.3458 3.5365L2.3458 3.5365C1.7085 3.8083 0.8665 3.5868 0.4455 3.0365z"/>
</a>
<a style="color:inherit;" xlink:href="textedit:///home/mojzis/pers/noty/lilywork/score_only/narodil_se_kristus_pan.ly:10:106:107">
<path transform="translate(63.6996, 31.3052) scale(0.0040, -0.0040)" d="M-23 -113c0 26 10 40 36 40c34 0 85 -15 130 -37l-137 164c-7 8 -10 17 -10 25c0 33 49 64 86 96c26 22 39 54 39 85c0 24 -8 47 -24 67l-39 46c-2 3 -3 6 -3 9c0 7 7 14 14 14c3 0 7 -1 10 -5l152 -182c7 -8 10 -17 10 -25c0 -33 -49 -64 -86 -96
c-26 -22 -39 -54 -39 -85c0 -24 8 -47 24 -67l87 -104c2 -3 3 -5 3 -8c0 -7 -7 -14 -14 -14c-3 0 -7 1 -10 5c-19 22 -66 43 -102 43c-40 0 -52 -29 -52 -70c0 -35 11 -75 28 -96c6 -7 -4 -16 -10 -9c-46 55 -93 150 -93 204z" fill="currentColor"/>
</a>
<a style="color:inherit;" xlink:href="textedit:///home/mojzis/pers/noty/lilywork/score_only/narodil_se_kristus_pan.ly:21:19:20">
<rect transform="translate(55.6641, 36.8110)" x="0.0000" y="-0.5148" width="0.3000" height="0.0948" ry="0.0292" fill="currentColor"/>
</a>
<a style="color:inherit;" xlink:href="textedit:///home/mojzis/pers/noty/lilywork/score_only/narodil_se_kristus_pan.ly:19:23:24">
<rect transform="translate(19.3330, 36.8110)" x="0.0000" y="-0.5148" width="0.6600" height="0.0948" ry="0.0292" fill="currentColor"/>
</a>
<a style="color:inherit;" xlink:href="textedit:///home/mojzis/pers/noty/lilywork/score_only/narodil_se_kristus_pan.ly:21:26:27">
<text transform="translate(60.1638, 36.8110)" font-family="serif" font-size="1.7463" text-anchor="start" fill="currentColor">
<tspan>se.</tspan>
</text>
</a>
<a style="color:inherit;" xlink:href="textedit:///home/mojzis/pers/noty/lilywork/score_only/narodil_se_kristus_pan.ly:10:87:88">
<circle transform="translate(56.5605, 33.3052)" stroke-linejoin="round" stroke-linecap="round" fill="currentColor" stroke="currentColor" stroke-width="0" r="0.5365"/>
<g color="rgb(100.0000%, 100.0000%, 100.0000%)">
<text transform="translate(56.2593, 33.6235)" font-family="sans-serif" font-weight="bold" font-size="0.8731" text-anchor="start" fill="currentColor">
<tspan>E</tspan>
</text>
</g>
</a>
<a style="color:inherit;" xlink:href="textedit:///home/mojzis/pers/noty/lilywork/score_only/narodil_se_kristus_pan.ly:10:88:89">
<path transform="translate(56.1488, 28.7687) scale(0.0022, -0.0022)" d="M235 355c0 60 -18 122 -70 122c-26 0 -51 -14 -51 -37c0 -27 35 -41 35 -68c0 -38 -30 -69 -68 -69s-69 31 -69 69c0 76 72 128 153 128c96 0 187 -56 187 -145c0 -153 -151 -159 -249 -220c9 2 17 3 26 3c33 0 70 -11 105 -36c21 -15 46 -23 66 -23c21 0 39 9 44 29
c2 6 6 9 11 9c6 0 12 -5 12 -12c0 -1 -1 -2 -1 -3c-17 -65 -78 -102 -137 -102c-36 0 -71 14 -96 44c-13 16 -31 22 -48 22c-30 0 -59 -20 -62 -55c-1 -7 -6 -11 -11 -11c-6 0 -12 4 -12 11c0 175 235 165 235 344z" fill="currentColor"/>
</a>
<a style="color:inherit;" xlink:href="textedit:///home/mojzis/pers/noty/lilywork/score_only/narodil_se_kristus_pan.ly:21:22:23">
<text transform="translate(56.0241, 36.8110)" font-family="serif" font-size="1.7463" text-anchor="start" fill="currentColor">
<tspan>dil</tspan>
</text>
</a>
<rect transform="translate(57.0496, 31.3052)" x="-0.0474" y="-1.5000" width="0.0948" height="3.3042" ry="0.0235" fill="currentColor"/>
<a style="color:inherit;" xlink:href="textedit:///home/mojzis/pers/noty/lilywork/score_only/narodil_se_kristus_pan.ly:10:92:93">
<circle transform="translate(58.4609, 33.8052)" stroke-linejoin="round" stroke-linecap="round" fill="currentColor" stroke="currentColor" stroke-width="0" r="0.5365"/>
<g color="rgb(100.0000%, 100.0000%, 100.0000%)">
<text transform="translate(58.0994, 34.1235)" font-family="sans-serif" font-weight="bold" font-size="0.8731" text-anchor="start" fill="currentColor">
<tspan>D</tspan>
</text>
</g>
</a>
<a style="color:inherit;" xlink:href="textedit:///home/mojzis/pers/noty/lilywork/score_only/narodil_se_kristus_pan.ly:10:93:94">
<path transform="translate(58.1094, 28.7687) scale(0.0022, -0.0022)" d="M175 487c18 0 58 31 58 -3v-367c0 -48 28 -94 73 -94c8 0 12 -5 12 -11s-4 -12 -12 -12c-44 0 -87 13 -131 13s-87 -13 -131 -13c-8 0 -12 6 -12 12s4 11 12 11c45 0 73 46 73 94v245c0 12 -9 19 -17 19c-4 0 -8 -3 -10 -7l-64 -136c-3 -6 -7 -9 -12 -9
c-8 0 -16 6 -16 14c0 2 1 5 2 7l117 250c3 6 10 3 16 0c13 -6 27 -13 42 -13z" fill="currentColor"/>
</a>
<rect transform="translate(58.9499, 31.3052)" x="-0.0474" y="-1.0000" width="0.0948" height="3.3042" ry="0.0235" fill="currentColor"/>
<a style="color:inherit;" xlink:href="textedit:///home/mojzis/pers/noty/lilywork/score_only/narodil_se_kristus_pan.ly:10:100:101">
<circle transform="translate(61.4090, 34.3052)" stroke-linejoin="round" stroke-linecap="round" fill="currentColor" stroke="currentColor" stroke-width="0" r="0.5365"/>
<g color="rgb(100.0000%, 100.0000%, 100.0000%)">
<circle transform="translate(61.4090, 34.3052)" stroke-linejoin="round" stroke-linecap="round" fill="currentColor" stroke="currentColor" stroke-width="0" r="0.4416"/>
</g>
<text transform="translate(61.0876, 34.6230)" font-family="sans-serif" font-weight="bold" font-size="0.8731" text-anchor="start" fill="currentColor">
<tspan>C</tspan>
</text>
</a>
<a style="color:inherit;" xlink:href="textedit:///home/mojzis/pers/noty/lilywork/score_only/narodil_se_kristus_pan.ly:10:103:104">
<path transform="translate(60.9973, 28.7687) scale(0.0022, -0.0022)" d="M235 355c0 60 -18 122 -70 122c-26 0 -51 -14 -51 -37c0 -27 35 -41 35 -68c0 -38 -30 -69 -68 -69s-69 31 -69 69c0 76 72 128 153 128c96 0 187 -56 187 -145c0 -153 -151 -159 -249 -220c9 2 17 3 26 3c33 0 70 -11 105 -36c21 -15 46 -23 66 -23c21 0 39 9 44 29
c2 6 6 9 11 9c6 0 12 -5 12 -12c0 -1 -1 -2 -1 -3c-17 -65 -78 -102 -137 -102c-36 0 -71 14 -96 44c-13 16 -31 22 -48 22c-30 0 -59 -20 -62 -55c-1 -7 -6 -11 -11 -11c-6 0 -12 4 -12 11c0 175 235 165 235 344z" fill="currentColor"/>
</a>
<path transform="translate(62.4022, 33.8052) scale(0.0040, -0.0040)" d="M0 0c0 32 25 57 57 57s57 -25 57 -57s-25 -57 -57 -57s-57 25 -57 57z" fill="currentColor"/>
<rect transform="translate(61.8980, 31.3052)" x="-0.0474" y="-0.5000" width="0.0948" height="3.2328" ry="0.0235" fill="currentColor"/>
<a style="color:inherit;" xlink:href="textedit:///home/mojzis/pers/noty/lilywork/score_only/narodil_se_kristus_pan.ly:19:19:20">
<text transform="translate(16.7722, 36.8110)" font-family="serif" font-size="1.7463" text-anchor="start" fill="currentColor">
<tspan>čis</tspan>
</text>
</a>
<a style="color:inherit;" xlink:href="textedit:///home/mojzis/pers/noty/lilywork/score_only/narodil_se_kristus_pan.ly:19:26:27">
<text transform="translate(20.1036, 36.8110)" font-family="serif" font-size="1.7463" text-anchor="start" fill="currentColor">
<tspan>té</tspan>
</text>
</a>
<a style="color:inherit;" xlink:href="textedit:///home/mojzis/pers/noty/lilywork/score_only/narodil_se_kristus_pan.ly:10:26:27">
<path transform="translate(20.5856, 28.7687) scale(0.0022, -0.0022)" d="M46 500c46 -8 91 -13 137 -13s92 5 138 13c15 2 23 -10 17 -16c-68 -68 -166 -93 -263 -93c-9 0 -17 -8 -17 -17v-96c28 28 66 43 105 43c116 0 186 -51 186 -161c0 -94 -87 -160 -186 -160c-82 0 -163 39 -163 113c0 36 30 66 66 66s65 -30 65 -66
c0 -25 -40 -28 -40 -53c0 -30 37 -37 72 -37c57 0 70 71 70 137c0 63 -15 132 -70 132c-42 0 -83 -12 -107 -45c-3 -4 -8 -6 -12 -6c-8 0 -15 6 -15 15v228c0 10 8 18 17 16z" fill="currentColor"/>
</a>
<a style="color:inherit;" xlink:href="textedit:///home/mojzis/pers/noty/lilywork/score_only/narodil_se_kristus_pan.ly:10:24:25">
<circle transform="translate(20.9672, 32.3052)" stroke-linejoin="round" stroke-linecap="round" fill="currentColor" stroke="currentColor" stroke-width="0" r="0.5365"/>
<g color="rgb(100.0000%, 100.0000%, 100.0000%)">
<circle transform="translate(20.9672, 32.3052)" stroke-linejoin="round" stroke-linecap="round" fill="currentColor" stroke="currentColor" stroke-width="0" r="0.4416"/>
</g>
<text transform="translate(20.6057, 32.6230)" font-family="sans-serif" font-weight="bold" font-size="0.8731" text-anchor="start" fill="currentColor">
<tspan>G</tspan>
</text>
</a>
<rect transform="translate(18.4864, 31.3052)" x="-0.0474" y="-2.0000" width="0.0948" height="3.3042" ry="0.0235" fill="currentColor"/>
<rect transform="translate(21.4562, 31.3052)" x="-0.0474" y="-2.5000" width="0.0948" height="3.2328" ry="0.0235" fill="currentColor"/>
<a style="color:inherit;" xlink:href="textedit:///home/mojzis/pers/noty/lilywork/score_only/narodil_se_kristus_pan.ly:10:19:20">
<path transform="translate(17.5454, 28.7687) scale(0.0022, -0.0022)" d="M196 117h117c0 -48 27 -94 72 -94c8 0 12 -5 12 -11s-4 -12 -12 -12c-44 0 -87 13 -131 13s-87 -13 -131 -13c-8 0 -12 6 -12 12s4 11 12 11c45 0 73 46 73 94zM204 307c22 14 44 29 60 50c11 15 19 33 27 50c2 4 5 6 9 6c6 0 13 -5 13 -14v-245h72c10 0 15 -7 15 -14
s-5 -15 -15 -15h-72v-8h-117v8h-167c-23 0 -31 14 -31 23c0 3 1 5 2 6c80 93 138 207 138 330c0 10 7 19 16 16c23 -7 47 -13 71 -13s48 6 71 13c14 4 23 -9 17 -16l-284 -330h167v131c0 8 1 17 8 22z" fill="currentColor"/>
</a>
<a style="color:inherit;" xlink:href="textedit:///home/mojzis/pers/noty/lilywork/score_only/narodil_se_kristus_pan.ly:10:18:19">
<circle transform="translate(17.9973, 32.8052)" stroke-linejoin="round" stroke-linecap="round" fill="currentColor" stroke="currentColor" stroke-width="0" r="0.5365"/>
<g color="rgb(100.0000%, 100.0000%, 100.0000%)">
<text transform="translate(17.6961, 33.1235)" font-family="sans-serif" font-weight="bold" font-size="0.8731" text-anchor="start" fill="currentColor">
<tspan>F</tspan>
</text>
</g>
</a>
<rect transform="translate(15.9376, 31.3052)" x="-0.0474" y="-1.5000" width="0.0948" height="3.3042" ry="0.0235" fill="currentColor"/>
<a style="color:inherit;" xlink:href="textedit:///home/mojzis/pers/noty/lilywork/score_only/narodil_se_kristus_pan.ly:19:16:17">
<text transform="translate(14.5749, 36.8110)" font-family="serif" font-size="1.7463" text-anchor="start" fill="currentColor">
<tspan>ta</tspan>
</text>
</a>
<a style="color:inherit;" xlink:href="textedit:///home/mojzis/pers/noty/lilywork/score_only/narodil_se_kristus_pan.ly:10:15:16">
<path transform="translate(15.0770, 28.7687) scale(0.0022, -0.0022)" d="M150 477c-29 0 -59 -8 -59 -33c0 -22 36 -25 36 -47c0 -32 -26 -58 -58 -58s-57 26 -57 58c0 65 67 103 138 103c91 0 169 -33 169 -114c0 -43 -4 -82 -42 -100c-9 -4 -14 -12 -14 -21s5 -18 14 -22c41 -19 56 -57 56 -103c0 -92 -79 -140 -179 -140
c-79 0 -154 42 -154 113c0 36 30 66 66 66s65 -30 65 -66c0 -25 -40 -28 -40 -53c0 -27 32 -37 63 -37c49 0 63 61 63 117v16c0 54 -2 94 -50 94h-80c-10 0 -14 8 -14 15s4 14 14 14h80c49 0 50 43 50 99v8c0 54 -18 91 -67 91z" fill="currentColor"/>
</a>
<a style="color:inherit;" xlink:href="textedit:///home/mojzis/pers/noty/lilywork/score_only/narodil_se_kristus_pan.ly:10:29:30">
<circle transform="translate(23.2965, 34.3052)" stroke-linejoin="round" stroke-linecap="round" fill="currentColor" stroke="currentColor" stroke-width="0" r="0.5365"/>
<g color="rgb(100.0000%, 100.0000%, 100.0000%)">
<circle transform="translate(23.2965, 34.3052)" stroke-linejoin="round" stroke-linecap="round" fill="currentColor" stroke="currentColor" stroke-width="0" r="0.4416"/>
</g>
<text transform="translate(22.9752, 34.6230)" font-family="sans-serif" font-weight="bold" font-size="0.8731" text-anchor="start" fill="currentColor">
<tspan>C</tspan>
</text>
</a>
<a style="color:inherit;" xlink:href="textedit:///home/mojzis/pers/noty/lilywork/score_only/narodil_se_kristus_pan.ly:10:31:32">
<path transform="translate(22.9451, 28.7687) scale(0.0022, -0.0022)" d="M175 487c18 0 58 31 58 -3v-367c0 -48 28 -94 73 -94c8 0 12 -5 12 -11s-4 -12 -12 -12c-44 0 -87 13 -131 13s-87 -13 -131 -13c-8 0 -12 6 -12 12s4 11 12 11c45 0 73 46 73 94v245c0 12 -9 19 -17 19c-4 0 -8 -3 -10 -7l-64 -136c-3 -6 -7 -9 -12 -9
c-8 0 -16 6 -16 14c0 2 1 5 2 7l117 250c3 6 10 3 16 0c13 -6 27 -13 42 -13z" fill="currentColor"/>
</a>
<a style="color:inherit;" xlink:href="textedit:///home/mojzis/pers/noty/lilywork/score_only/narodil_se_kristus_pan.ly:19:32:33">
<text transform="translate(21.9308, 36.8110)" font-family="serif" font-size="1.7463" text-anchor="start" fill="currentColor">
<tspan>ho,</tspan>
</text>
</a>
<text transform="translate(1.1381, 28.2440)" font-family="serif" font-size="1.7463" text-anchor="start" fill="currentColor">
<tspan>10</tspan>
</text>
<path transform="translate(4.1474, 32.3052) scale(0.0040, -0.0040)" d="M374 260c5 0 10 1 15 1c154 0 254 -127 254 -259c0 -76 -33 -153 -107 -208c-22 -17 -47 -29 -73 -37c3 -36 5 -72 5 -108c0 -19 0 -37 -1 -56c-7 -120 -88 -226 -206 -226c-108 0 -195 87 -195 195c0 58 53 104 112 104c54 0 95 -48 95 -104c0 -52 -43 -95 -95 -95
c-12 0 -24 4 -35 9c26 -41 70 -70 121 -70c1 0 2 1 3 1c93 2 154 93 160 192c1 18 2 35 2 53c0 32 -2 64 -5 96c-29 -5 -58 -8 -89 -8c-188 0 -333 171 -333 372c0 178 133 306 251 440c-18 63 -35 126 -42 191c-6 51 -7 102 -7 154c0 116 55 226 150 295c5 4 11 4 16 0
c70 -84 132 -246 132 -359c0 -144 -87 -256 -183 -365c20 -69 39 -138 55 -208zM459 -205c69 24 117 96 117 166c0 92 -69 184 -179 193c25 -117 48 -235 62 -359zM71 31c0 -136 131 -251 267 -251c28 0 55 2 82 6c-15 128 -38 247 -64 367c-79 -9 -125 -62 -125 -121
c0 -44 26 -92 82 -124c4 -4 7 -9 7 -14c0 -11 -9 -21 -20 -21c-3 0 -6 1 -9 2c-80 43 -116 114 -116 184c0 88 57 173 158 196c-14 60 -30 119 -46 178c-108 -121 -216 -242 -216 -402zM411 1050c-99 -50 -161 -151 -161 -262c0 -76 15 -137 33 -200c82 97 149 198 149 325
c0 58 -4 84 -21 137z" fill="currentColor"/>
<a style="color:inherit;" xlink:href="textedit:///home/mojzis/pers/noty/lilywork/score_only/narodil_se_kristus_pan.ly:10:6:7">
<circle transform="translate(10.7195, 33.3052)" stroke-linejoin="round" stroke-linecap="round" fill="currentColor" stroke="currentColor" stroke-width="0" r="0.5365"/>
<g color="rgb(100.0000%, 100.0000%, 100.0000%)">
<text transform="translate(10.4183, 33.6235)" font-family="sans-serif" font-weight="bold" font-size="0.8731" text-anchor="start" fill="currentColor">
<tspan>E</tspan>
</text>
</g>
</a>
<a style="color:inherit;" xlink:href="textedit:///home/mojzis/pers/noty/lilywork/score_only/narodil_se_kristus_pan.ly:10:7:8">
<path transform="translate(10.3480, 28.7687) scale(0.0022, -0.0022)" d="M150 477c-29 0 -59 -8 -59 -33c0 -22 36 -25 36 -47c0 -32 -26 -58 -58 -58s-57 26 -57 58c0 65 67 103 138 103c91 0 169 -33 169 -114c0 -43 -4 -82 -42 -100c-9 -4 -14 -12 -14 -21s5 -18 14 -22c41 -19 56 -57 56 -103c0 -92 -79 -140 -179 -140
c-79 0 -154 42 -154 113c0 36 30 66 66 66s65 -30 65 -66c0 -25 -40 -28 -40 -53c0 -27 32 -37 63 -37c49 0 63 61 63 117v16c0 54 -2 94 -50 94h-80c-10 0 -14 8 -14 15s4 14 14 14h80c49 0 50 43 50 99v8c0 54 -18 91 -67 91z" fill="currentColor"/>
</a>
<a style="color:inherit;" xlink:href="textedit:///home/mojzis/pers/noty/lilywork/score_only/narodil_se_kristus_pan.ly:19:2:3">
<text transform="translate(9.0927, 36.8110)" font-family="serif" font-size="1.7463" text-anchor="start" fill="currentColor">
<tspan>Z ži</tspan>
</text>
</a>
<rect transform="translate(11.2086, 31.3052)" x="-0.0474" y="-1.5000" width="0.0948" height="3.3042" ry="0.0235" fill="currentColor"/>
<a style="color:inherit;" xlink:href="textedit:///home/mojzis/pers/noty/lilywork/score_only/narodil_se_kristus_pan.ly:10:10:11">
<circle transform="translate(13.4606, 33.8052)" stroke-linejoin="round" stroke-linecap="round" fill="currentColor" stroke="currentColor" stroke-width="0" r="0.5365"/>
<g color="rgb(100.0000%, 100.0000%, 100.0000%)">
<text transform="translate(13.0991, 34.1235)" font-family="sans-serif" font-weight="bold" font-size="0.8731" text-anchor="start" fill="currentColor">
<tspan>D</tspan>
</text>
</g>
</a>
<a style="color:inherit;" xlink:href="textedit:///home/mojzis/pers/noty/lilywork/score_only/narodil_se_kristus_pan.ly:10:11:12">
<path transform="translate(13.0489, 28.7687) scale(0.0022, -0.0022)" d="M235 355c0 60 -18 122 -70 122c-26 0 -51 -14 -51 -37c0 -27 35 -41 35 -68c0 -38 -30 -69 -68 -69s-69 31 -69 69c0 76 72 128 153 128c96 0 187 -56 187 -145c0 -153 -151 -159 -249 -220c9 2 17 3 26 3c33 0 70 -11 105 -36c21 -15 46 -23 66 -23c21 0 39 9 44 29
c2 6 6 9 11 9c6 0 12 -5 12 -12c0 -1 -1 -2 -1 -3c-17 -65 -78 -102 -137 -102c-36 0 -71 14 -96 44c-13 16 -31 22 -48 22c-30 0 -59 -20 -62 -55c-1 -7 -6 -11 -11 -11c-6 0 -12 4 -12 11c0 175 235 165 235 344z" fill="currentColor"/>
</a>
<a style="color:inherit;" xlink:href="textedit:///home/mojzis/pers/noty/lilywork/score_only/narodil_se_kristus_pan.ly:19:10:11">
<text transform="translate(12.4464, 36.8110)" font-family="serif" font-size="1.7463" text-anchor="start" fill="currentColor">
<tspan>vo</tspan>
</text>
</a>
<rect transform="translate(13.9497, 31.3052)" x="-0.0474" y="-1.0000" width="0.0948" height="3.3042" ry="0.0235" fill="currentColor"/>
<a style="color:inherit;" xlink:href="textedit:///home/mojzis/pers/noty/lilywork/score_only/narodil_se_kristus_pan.ly:10:14:15">
<circle transform="translate(15.4485, 33.3052)" stroke-linejoin="round" stroke-linecap="round" fill="currentColor" stroke="currentColor" stroke-width="0" r="0.5365"/>
<g color="rgb(100.0000%, 100.0000%, 100.0000%)">
<text transform="translate(15.1473, 33.6235)" font-family="sans-serif" font-weight="bold" font-size="0.8731" text-anchor="start" fill="currentColor">
<tspan>E</tspan>
</text>
</g>
</a>
<a style="color:inherit;" xlink:href="textedit:///home/mojzis/pers/noty/lilywork/score_only/narodil_se_kristus_pan.ly:10:49:50">
<circle transform="translate(36.0856, 32.8052)" stroke-linejoin="round" stroke-linecap="round" fill="currentColor" stroke="currentColor" stroke-width="0" r="0.5365"/>
<g color="rgb(100.0000%, 100.0000%, 100.0000%)">
<text transform="translate(35.7843, 33.1235)" font-family="sans-serif" font-weight="bold" font-size="0.8731" text-anchor="start" fill="currentColor">
<tspan>F</tspan>
</text>
</g>
</a>
<a style="color:inherit;" xlink:href="textedit:///home/mojzis/pers/noty/lilywork/score_only/narodil_se_kristus_pan.ly:10:41:42">
<circle transform="translate(29.7112, 33.8052)" stroke-linejoin="round" stroke-linecap="round" fill="currentColor" stroke="currentColor" stroke-width="0" r="0.5365"/>
<g color="rgb(100.0000%, 100.0000%, 100.0000%)">
<text transform="translate(29.3496, 34.1235)" font-family="sans-serif" font-weight="bold" font-size="0.8731" text-anchor="start" fill="currentColor">
<tspan>D</tspan>
</text>
</g>
</a>
<a style="color:inherit;" xlink:href="textedit:///home/mojzis/pers/noty/lilywork/score_only/narodil_se_kristus_pan.ly:10:42:43">
<path transform="translate(29.2994, 28.7687) scale(0.0022, -0.0022)" d="M235 355c0 60 -18 122 -70 122c-26 0 -51 -14 -51 -37c0 -27 35 -41 35 -68c0 -38 -30 -69 -68 -69s-69 31 -69 69c0 76 72 128 153 128c96 0 187 -56 187 -145c0 -153 -151 -159 -249 -220c9 2 17 3 26 3c33 0 70 -11 105 -36c21 -15 46 -23 66 -23c21 0 39 9 44 29
c2 6 6 9 11 9c6 0 12 -5 12 -12c0 -1 -1 -2 -1 -3c-17 -65 -78 -102 -137 -102c-36 0 -71 14 -96 44c-13 16 -31 22 -48 22c-30 0 -59 -20 -62 -55c-1 -7 -6 -11 -11 -11c-6 0 -12 4 -12 11c0 175 235 165 235 344z" fill="currentColor"/>
</a>
<a style="color:inherit;" xlink:href="textedit:///home/mojzis/pers/noty/lilywork/score_only/narodil_se_kristus_pan.ly:20:10:11">
<text transform="translate(28.5864, 36.8110)" font-family="serif" font-size="1.7463" text-anchor="start" fill="currentColor">
<tspan>du</tspan>
</text>
</a>
<rect transform="translate(23.7856, 31.3052)" x="-0.0474" y="-0.5000" width="0.0948" height="3.2328" ry="0.0235" fill="currentColor"/>
<a style="color:inherit;" xlink:href="textedit:///home/mojzis/pers/noty/lilywork/score_only/narodil_se_kristus_pan.ly:10:45:46">
<circle transform="translate(32.7621, 33.3052)" stroke-linejoin="round" stroke-linecap="round" fill="currentColor" stroke="currentColor" stroke-width="0" r="0.5365"/>
<g color="rgb(100.0000%, 100.0000%, 100.0000%)">
<text transform="translate(32.4608, 33.6235)" font-family="sans-serif" font-weight="bold" font-size="0.8731" text-anchor="start" fill="currentColor">
<tspan>E</tspan>
</text>
</g>
</a>
<a style="color:inherit;" xlink:href="textedit:///home/mojzis/pers/noty/lilywork/score_only/narodil_se_kristus_pan.ly:10:46:47">
<path transform="translate(32.3905, 28.7687) scale(0.0022, -0.0022)" d="M150 477c-29 0 -59 -8 -59 -33c0 -22 36 -25 36 -47c0 -32 -26 -58 -58 -58s-57 26 -57 58c0 65 67 103 138 103c91 0 169 -33 169 -114c0 -43 -4 -82 -42 -100c-9 -4 -14 -12 -14 -21s5 -18 14 -22c41 -19 56 -57 56 -103c0 -92 -79 -140 -179 -140
c-79 0 -154 42 -154 113c0 36 30 66 66 66s65 -30 65 -66c0 -25 -40 -28 -40 -53c0 -27 32 -37 63 -37c49 0 63 61 63 117v16c0 54 -2 94 -50 94h-80c-10 0 -14 8 -14 15s4 14 14 14h80c49 0 50 43 50 99v8c0 54 -18 91 -67 91z" fill="currentColor"/>
</a>
<a style="color:inherit;" xlink:href="textedit:///home/mojzis/pers/noty/lilywork/score_only/narodil_se_kristus_pan.ly:20:13:14">
<text transform="translate(31.2859, 36.8110)" font-family="serif" font-size="1.7463" text-anchor="start" fill="currentColor">
<tspan>krá</tspan>
</text>
</a>
<rect transform="translate(33.2511, 31.3052)" x="-0.0474" y="-1.5000" width="0.0948" height="3.3042" ry="0.0235" fill="currentColor"/>
<rect transform="translate(30.2002, 31.3052)" x="-0.0474" y="-1.0000" width="0.0948" height="3.3042" ry="0.0235" fill="currentColor"/>
<a style="color:inherit;" xlink:href="textedit:///home/mojzis/pers/noty/lilywork/score_only/narodil_se_kristus_pan.ly:10:50:51">
<path transform="translate(35.6337, 28.7687) scale(0.0022, -0.0022)" d="M196 117h117c0 -48 27 -94 72 -94c8 0 12 -5 12 -11s-4 -12 -12 -12c-44 0 -87 13 -131 13s-87 -13 -131 -13c-8 0 -12 6 -12 12s4 11 12 11c45 0 73 46 73 94zM204 307c22 14 44 29 60 50c11 15 19 33 27 50c2 4 5 6 9 6c6 0 13 -5 13 -14v-245h72c10 0 15 -7 15 -14
s-5 -15 -15 -15h-72v-8h-117v8h-167c-23 0 -31 14 -31 23c0 3 1 5 2 6c80 93 138 207 138 330c0 10 7 19 16 16c23 -7 47 -13 71 -13s48 6 71 13c14 4 23 -9 17 -16l-284 -330h167v131c0 8 1 17 8 22z" fill="currentColor"/>
</a>
<a style="color:inherit;" xlink:href="textedit:///home/mojzis/pers/noty/lilywork/score_only/narodil_se_kristus_pan.ly:20:20:21">
<text transform="translate(34.3383, 36.8110)" font-family="serif" font-size="1.7463" text-anchor="start" fill="currentColor">
<tspan>lovs</tspan>
</text>
</a>
<rect transform="translate(36.5747, 31.3052)" x="-0.0474" y="-2.0000" width="0.0948" height="3.3042" ry="0.0235" fill="currentColor"/>
<a style="color:inherit;" xlink:href="textedit:///home/mojzis/pers/noty/lilywork/score_only/narodil_se_kristus_pan.ly:10:55:56">
<circle transform="translate(39.0555, 32.3052)" stroke-linejoin="round" stroke-linecap="round" fill="currentColor" stroke="currentColor" stroke-width="0" r="0.5365"/>
<g color="rgb(100.0000%, 100.0000%, 100.0000%)">
<circle transform="translate(39.0555, 32.3052)" stroke-linejoin="round" stroke-linecap="round" fill="currentColor" stroke="currentColor" stroke-width="0" r="0.4416"/>
</g>
<text transform="translate(38.6939, 32.6230)" font-family="sans-serif" font-weight="bold" font-size="0.8731" text-anchor="start" fill="currentColor">
<tspan>G</tspan>
</text>
</a>
<a style="color:inherit;" xlink:href="textedit:///home/mojzis/pers/noty/lilywork/score_only/narodil_se_kristus_pan.ly:10:57:58">
<path transform="translate(38.6739, 28.7687) scale(0.0022, -0.0022)" d="M46 500c46 -8 91 -13 137 -13s92 5 138 13c15 2 23 -10 17 -16c-68 -68 -166 -93 -263 -93c-9 0 -17 -8 -17 -17v-96c28 28 66 43 105 43c116 0 186 -51 186 -161c0 -94 -87 -160 -186 -160c-82 0 -163 39 -163 113c0 36 30 66 66 66s65 -30 65 -66
c0 -25 -40 -28 -40 -53c0 -30 37 -37 72 -37c57 0 70 71 70 137c0 63 -15 132 -70 132c-42 0 -83 -12 -107 -45c-3 -4 -8 -6 -12 -6c-8 0 -15 6 -15 15v228c0 10 8 18 17 16z" fill="currentColor"/>
</a>
<a style="color:inherit;" xlink:href="textedit:///home/mojzis/pers/noty/lilywork/score_only/narodil_se_kristus_pan.ly:20:28:29">
<text transform="translate(38.0111, 36.8110)" font-family="serif" font-size="1.7463" text-anchor="start" fill="currentColor">
<tspan>ké</tspan>
</text>
</a>
<rect transform="translate(39.5445, 31.3052)" x="-0.0474" y="-2.5000" width="0.0948" height="3.2328" ry="0.0235" fill="currentColor"/>
<rect transform="translate(27.2884, 31.3052)" x="-0.0474" y="-1.5000" width="0.0948" height="3.3042" ry="0.0235" fill="currentColor"/>
<a style="color:inherit;" xlink:href="textedit:///home/mojzis/pers/noty/lilywork/score_only/narodil_se_kristus_pan.ly:20:2:3">
<text transform="translate(25.1123, 36.8110)" font-family="serif" font-size="1.7463" text-anchor="start" fill="currentColor">
<tspan>z ro</tspan>
</text>
</a>
<a style="color:inherit;" xlink:href="textedit:///home/mojzis/pers/noty/lilywork/score_only/narodil_se_kristus_pan.ly:10:38:39">
<path transform="translate(26.4278, 28.7687) scale(0.0022, -0.0022)" d="M150 477c-29 0 -59 -8 -59 -33c0 -22 36 -25 36 -47c0 -32 -26 -58 -58 -58s-57 26 -57 58c0 65 67 103 138 103c91 0 169 -33 169 -114c0 -43 -4 -82 -42 -100c-9 -4 -14 -12 -14 -21s5 -18 14 -22c41 -19 56 -57 56 -103c0 -92 -79 -140 -179 -140
c-79 0 -154 42 -154 113c0 36 30 66 66 66s65 -30 65 -66c0 -25 -40 -28 -40 -53c0 -27 32 -37 63 -37c49 0 63 61 63 117v16c0 54 -2 94 -50 94h-80c-10 0 -14 8 -14 15s4 14 14 14h80c49 0 50 43 50 99v8c0 54 -18 91 -67 91z" fill="currentColor"/>
</a>
<a style="color:inherit;" xlink:href="textedit:///home/mojzis/pers/noty/lilywork/score_only/narodil_se_kristus_pan.ly:10:36:37">
<circle transform="translate(26.7994, 33.3052)" stroke-linejoin="round" stroke-linecap="round" fill="currentColor" stroke="currentColor" stroke-width="0" r="0.5365"/>
<g color="rgb(100.0000%, 100.0000%, 100.0000%)">
<text transform="translate(26.4981, 33.6235)" font-family="sans-serif" font-weight="bold" font-size="0.8731" text-anchor="start" fill="currentColor">
<tspan>E</tspan>
</text>
</g>
</a>
<a transform="translate(4.2177, 96.9201)" xlink:href="http://lilypond.org/">
<rect x="0.0000" y="-0.4888" width="61.8596" height="2.1603" fill="none" stroke="none" stroke-width="0.0"/>
</a>
<text transform="translate(4.2177, 96.9201)" font-family="serif" font-size="2.2000" text-anchor="start" fill="currentColor">
<tspan>Music engraving by LilyPond 2.20.0—www.lilypond.org</tspan>
</text>
</svg>
