<svg xmlns="http://www.w3.org/2000/svg" xmlns:xlink="http://www.w3.org/1999/xlink" version="1.2" width="210.00mm" height="297.00mm" viewBox="0 0 39.8339 56.3365">
<style text="style/css">
<![CDATA[
tspan { white-space: pre; }
]]>
</style>
<!-- Page: 2/2 -->
<text transform="translate(1.8969, 2.5813)" font-family="serif" font-size="2.2001" text-anchor="start" fill="currentColor">
<tspan>2</tspan>
</text>
<text transform="translate(37.9370, 2.5813)" font-family="serif" font-size="2.2001" text-anchor="start" fill="currentColor">
<tspan/>
</text>
<path transform="translate(6.7429, 7.4302) scale(0.0040, -0.0040)" d="M0 0c0 32 25 57 57 57s57 -25 57 -57s-25 -57 -57 -57s-57 25 -57 57z" fill="currentColor"/>
<path transform="translate(6.7429, 8.4302) scale(0.0040, -0.0040)" d="M0 0c0 32 25 57 57 57s57 -25 57 -57s-25 -57 -57 -57s-57 25 -57 57z" fill="currentColor"/>
<rect transform="translate(6.4676, 7.9302)" x="0.0000" y="-2.0000" width="0.1068" height="4.0000" ry="0.0000" fill="currentColor"/>
<rect transform="translate(5.9619, 7.9302)" x="0.0000" y="-2.0000" width="0.3371" height="4.0000" ry="0.0000" fill="currentColor"/>
<rect transform="translate(37.8302, 7.9302)" x="0.0000" y="-2.0000" width="0.1068" height="4.0000" ry="0.0000" fill="currentColor"/>
<rect transform="translate(25.2691, 7.9302)" x="0.0000" y="-2.0000" width="0.1068" height="4.0000" ry="0.0000" fill="currentColor"/>
<rect transform="translate(18.4301, 7.9302)" x="0.0000" y="-2.0000" width="0.1068" height="4.0000" ry="0.0000" fill="currentColor"/>
<line transform="translate(1.8969, 9.9302)" stroke-linejoin="round" stroke-linecap="round" stroke-width="0.0562" stroke="currentColor" x1="0.0281" y1="-0.0000" x2="36.0121" y2="-0.0000"/>
<line transform="translate(1.8969, 8.9302)" stroke-linejoin="round" stroke-linecap="round" stroke-width="0.0562" stroke="currentColor" x1="0.0281" y1="-0.0000" x2="36.0121" y2="-0.0000"/>
<line transform="translate(1.8969, 7.9302)" stroke-linejoin="round" stroke-linecap="round" stroke-width="0.0562" stroke="currentColor" x1="0.0281" y1="-0.0000" x2="36.0121" y2="-0.0000"/>
<line transform="translate(1.8969, 6.9302)" stroke-linejoin="round" stroke-linecap="round" stroke-width="0.0562" stroke="currentColor" x1="0.0281" y1="-0.0000" x2="36.0121" y2="-0.0000"/>
<line transform="translate(1.8969, 5.9302)" stroke-linejoin="round" stroke-linecap="round" stroke-width="0.0562" stroke="currentColor" x1="0.0281" y1="-0.0000" x2="36.0121" y2="-0.0000"/>
<rect transform="translate(1.8969, 10.9302)" x="19.9131" y="-0.0781" width="1.5843" height="0.1562" ry="0.0781" fill="currentColor"/>
<a style="color:inherit;" xlink:href="textedit:///home/mojzis/pers/noty/lilywork/score_only/narodil_se_kristus_pan.ly:10:41:42">
<circle transform="translate(29.5743, 10.4302)" stroke-linejoin="round" stroke-linecap="round" fill="currentColor" stroke="currentColor" stroke-width="0" r="0.5281"/>
<g color="rgb(100.0000%, 100.0000%, 100.0000%)">
<text transform="translate(29.2101, 10.7484)" font-family="sans-serif" font-weight="bold" font-size="0.8730" text-anchor="start" fill="currentColor">
<tspan>D</tspan>
</text>
</g>
</a>
<a style="color:inherit;" xlink:href="textedit:///home/mojzis/pers/noty/lilywork/score_only/narodil_se_kristus_pan.ly:10:42:43">
<path transform="translate(29.1703, 5.4021) scale(0.0022, -0.0022)" d="M236 355c0 61 -22 124 -75 124c-25 0 -48 -14 -48 -37c0 -27 35 -41 35 -68c0 -38 -31 -69 -69 -69s-68 31 -68 69c0 75 71 126 150 126c95 0 184 -57 184 -145c0 -158 -162 -160 -257 -229c12 3 24 5 37 5c32 0 67 -10 101 -33c23 -16 49 -25 70 -25c20 0 37 8 42 28
c1 6 6 8 10 8c5 0 11 -4 11 -10c0 -63 -85 -99 -132 -99c-35 0 -69 14 -94 42c-14 16 -32 23 -50 23c-30 0 -59 -21 -62 -55c-1 -7 -5 -10 -10 -10c-6 0 -12 4 -11 12c15 174 236 164 236 343z" fill="currentColor"/>
</a>
<a style="color:inherit;" xlink:href="textedit:///home/mojzis/pers/noty/lilywork/score_only/narodil_se_kristus_pan.ly:20:10:11">
<text transform="translate(28.4533, 13.4302)" font-family="serif" font-size="1.7463" text-anchor="start" fill="currentColor">
<tspan>du</tspan>
</text>
</a>
<rect transform="translate(30.0659, 7.9302)" x="-0.0365" y="-1.0000" width="0.0730" height="3.3072" ry="0.0133" fill="currentColor"/>
<rect transform="translate(27.1661, 7.9302)" x="-0.0365" y="-1.5000" width="0.0730" height="3.3072" ry="0.0133" fill="currentColor"/>
<a style="color:inherit;" xlink:href="textedit:///home/mojzis/pers/noty/lilywork/score_only/narodil_se_kristus_pan.ly:20:2:3">
<text transform="translate(24.9958, 13.4302)" font-family="serif" font-size="1.7463" text-anchor="start" fill="currentColor">
<tspan>z ro</tspan>
</text>
</a>
<a style="color:inherit;" xlink:href="textedit:///home/mojzis/pers/noty/lilywork/score_only/narodil_se_kristus_pan.ly:10:38:39">
<path transform="translate(26.3104, 5.4021) scale(0.0022, -0.0022)" d="M147 479c-28 0 -58 -9 -58 -33c0 -22 36 -25 36 -47c0 -32 -25 -57 -57 -57s-57 25 -57 57c0 63 66 101 136 101c90 0 165 -35 165 -115c0 -44 -3 -83 -41 -101c-8 -4 -13 -12 -13 -20s5 -16 13 -20c41 -19 55 -58 55 -104c0 -91 -77 -140 -175 -140
c-77 0 -151 41 -151 111c0 36 29 65 65 65s65 -29 65 -65c0 -25 -40 -28 -40 -53c0 -26 31 -37 61 -37c50 0 66 61 66 119c0 62 -1 110 -54 110h-82c-9 0 -13 7 -13 14s4 13 13 13h82c52 0 54 47 54 108c0 56 -18 94 -70 94z" fill="currentColor"/>
</a>
<a style="color:inherit;" xlink:href="textedit:///home/mojzis/pers/noty/lilywork/score_only/narodil_se_kristus_pan.ly:10:36:37">
<circle transform="translate(26.6746, 9.9302)" stroke-linejoin="round" stroke-linecap="round" fill="currentColor" stroke="currentColor" stroke-width="0" r="0.5281"/>
<g color="rgb(100.0000%, 100.0000%, 100.0000%)">
<text transform="translate(26.3786, 10.2484)" font-family="sans-serif" font-weight="bold" font-size="0.8730" text-anchor="start" fill="currentColor">
<tspan>E</tspan>
</text>
</g>
</a>
<rect transform="translate(23.0937, 7.9302)" x="-0.0365" y="-0.5000" width="0.0730" height="3.2370" ry="0.0133" fill="currentColor"/>
<a style="color:inherit;" xlink:href="textedit:///home/mojzis/pers/noty/lilywork/score_only/narodil_se_kristus_pan.ly:19:32:33">
<text transform="translate(21.2364, 13.4302)" font-family="serif" font-size="1.7463" text-anchor="start" fill="currentColor">
<tspan>ho,</tspan>
</text>
</a>
<a style="color:inherit;" xlink:href="textedit:///home/mojzis/pers/noty/lilywork/score_only/narodil_se_kristus_pan.ly:10:31:32">
<path transform="translate(22.2720, 5.4021) scale(0.0022, -0.0022)" d="M164 487c17 0 54 29 54 -2v-376c0 -45 26 -88 68 -88c7 0 11 -5 11 -10s-4 -11 -11 -11c-41 0 -81 13 -122 13s-82 -13 -123 -13c-7 0 -11 6 -11 11s4 10 11 10c42 0 68 43 68 88v258c0 11 -8 17 -15 17c-4 0 -7 -2 -9 -6l-61 -139c-2 -6 -6 -8 -11 -8c-7 0 -14 5 -14 13
c0 2 0 4 1 6l109 250c2 5 9 3 15 0c13 -6 26 -13 40 -13z" fill="currentColor"/>
</a>
<a style="color:inherit;" xlink:href="textedit:///home/mojzis/pers/noty/lilywork/score_only/narodil_se_kristus_pan.ly:10:29:30">
<circle transform="translate(22.6021, 10.9302)" stroke-linejoin="round" stroke-linecap="round" fill="currentColor" stroke="currentColor" stroke-width="0" r="0.5281"/>
<g color="rgb(100.0000%, 100.0000%, 100.0000%)">
<circle transform="translate(22.6021, 10.9302)" stroke-linejoin="round" stroke-linecap="round" fill="currentColor" stroke="currentColor" stroke-width="0" r="0.4550"/>
</g>
<text transform="translate(22.2834, 11.2480)" font-family="sans-serif" font-weight="bold" font-size="0.8730" text-anchor="start" fill="currentColor">
<tspan>C</tspan>
</text>
</a>
<a style="color:inherit;" xlink:href="textedit:///home/mojzis/pers/noty/lilywork/score_only/narodil_se_kristus_pan.ly:19:29:30">
<rect transform="translate(20.7762, 13.4302)" x="0.0000" y="-0.4930" width="0.3902" height="0.0730" ry="0.0225" fill="currentColor"/>
</a>
<a style="color:inherit;" xlink:href="textedit:///home/mojzis/pers/noty/lilywork/score_only/narodil_se_kristus_pan.ly:19:23:24">
<rect transform="translate(18.0199, 13.4302)" x="0.0000" y="-0.4930" width="0.6600" height="0.0730" ry="0.0225" fill="currentColor"/>
</a>
<a style="color:inherit;" xlink:href="textedit:///home/mojzis/pers/noty/lilywork/score_only/narodil_se_kristus_pan.ly:19:13:14">
<rect transform="translate(12.8003, 13.4302)" x="0.0000" y="-0.4930" width="0.3000" height="0.0730" ry="0.0225" fill="currentColor"/>
</a>
<rect transform="translate(36.4089, 7.9302)" x="-0.0365" y="-2.0000" width="0.0730" height="3.3072" ry="0.0133" fill="currentColor"/>
<a style="color:inherit;" xlink:href="textedit:///home/mojzis/pers/noty/lilywork/score_only/narodil_se_kristus_pan.ly:20:20:21">
<text transform="translate(34.1703, 13.4302)" font-family="serif" font-size="1.7463" text-anchor="start" fill="currentColor">
<tspan>lovs</tspan>
</text>
</a>
<a style="color:inherit;" xlink:href="textedit:///home/mojzis/pers/noty/lilywork/score_only/narodil_se_kristus_pan.ly:10:50:51">
<path transform="translate(35.4791, 5.4021) scale(0.0022, -0.0022)" d="M208 319c21 13 42 27 57 47c11 15 18 32 25 49c4 9 20 7 20 -7v-256h68c9 0 13 -7 13 -14s-4 -13 -13 -13h-68v-16c0 -45 26 -88 68 -88c7 0 10 -5 10 -10s-3 -11 -10 -11c-41 0 -82 13 -123 13s-82 -13 -123 -13c-7 0 -10 6 -10 11s3 10 10 10c42 0 68 43 68 88v16h-173
c-21 0 -29 13 -29 21c0 2 1 5 2 6c81 96 146 208 146 333c0 10 7 18 15 15c22 -7 44 -13 67 -13s45 6 67 13c12 4 21 -8 15 -15l-283 -333h173v147c0 8 2 16 8 20z" fill="currentColor"/>
</a>
<a style="color:inherit;" xlink:href="textedit:///home/mojzis/pers/noty/lilywork/score_only/narodil_se_kristus_pan.ly:10:49:50">
<circle transform="translate(35.9173, 9.4302)" stroke-linejoin="round" stroke-linecap="round" fill="currentColor" stroke="currentColor" stroke-width="0" r="0.5281"/>
<g color="rgb(100.0000%, 100.0000%, 100.0000%)">
<text transform="translate(35.6214, 9.7484)" font-family="sans-serif" font-weight="bold" font-size="0.8730" text-anchor="start" fill="currentColor">
<tspan>F</tspan>
</text>
</g>
</a>
<rect transform="translate(33.0994, 7.9302)" x="-0.0365" y="-1.5000" width="0.0730" height="3.3072" ry="0.0133" fill="currentColor"/>
<a style="color:inherit;" xlink:href="textedit:///home/mojzis/pers/noty/lilywork/score_only/narodil_se_kristus_pan.ly:20:13:14">
<text transform="translate(31.1453, 13.4302)" font-family="serif" font-size="1.7463" text-anchor="start" fill="currentColor">
<tspan>krá</tspan>
</text>
</a>
<a style="color:inherit;" xlink:href="textedit:///home/mojzis/pers/noty/lilywork/score_only/narodil_se_kristus_pan.ly:10:46:47">
<path transform="translate(32.2436, 5.4021) scale(0.0022, -0.0022)" d="M147 479c-28 0 -58 -9 -58 -33c0 -22 36 -25 36 -47c0 -32 -25 -57 -57 -57s-57 25 -57 57c0 63 66 101 136 101c90 0 165 -35 165 -115c0 -44 -3 -83 -41 -101c-8 -4 -13 -12 -13 -20s5 -16 13 -20c41 -19 55 -58 55 -104c0 -91 -77 -140 -175 -140
c-77 0 -151 41 -151 111c0 36 29 65 65 65s65 -29 65 -65c0 -25 -40 -28 -40 -53c0 -26 31 -37 61 -37c50 0 66 61 66 119c0 62 -1 110 -54 110h-82c-9 0 -13 7 -13 14s4 13 13 13h82c52 0 54 47 54 108c0 56 -18 94 -70 94z" fill="currentColor"/>
</a>
<a style="color:inherit;" xlink:href="textedit:///home/mojzis/pers/noty/lilywork/score_only/narodil_se_kristus_pan.ly:10:45:46">
<circle transform="translate(32.6078, 9.9302)" stroke-linejoin="round" stroke-linecap="round" fill="currentColor" stroke="currentColor" stroke-width="0" r="0.5281"/>
<g color="rgb(100.0000%, 100.0000%, 100.0000%)">
<text transform="translate(32.3119, 10.2484)" font-family="sans-serif" font-weight="bold" font-size="0.8730" text-anchor="start" fill="currentColor">
<tspan>E</tspan>
</text>
</g>
</a>
<a style="color:inherit;" xlink:href="textedit:///home/mojzis/pers/noty/lilywork/score_only/narodil_se_kristus_pan.ly:10:11:12">
<path transform="translate(11.3699, 5.4021) scale(0.0022, -0.0022)" d="M236 355c0 61 -22 124 -75 124c-25 0 -48 -14 -48 -37c0 -27 35 -41 35 -68c0 -38 -31 -69 -69 -69s-68 31 -68 69c0 75 71 126 150 126c95 0 184 -57 184 -145c0 -158 -162 -160 -257 -229c12 3 24 5 37 5c32 0 67 -10 101 -33c23 -16 49 -25 70 -25c20 0 37 8 42 28
c1 6 6 8 10 8c5 0 11 -4 11 -10c0 -63 -85 -99 -132 -99c-35 0 -69 14 -94 42c-14 16 -32 23 -50 23c-30 0 -59 -21 -62 -55c-1 -7 -5 -10 -10 -10c-6 0 -12 4 -11 12c15 174 236 164 236 343z" fill="currentColor"/>
</a>
<a style="color:inherit;" xlink:href="textedit:///home/mojzis/pers/noty/lilywork/score_only/narodil_se_kristus_pan.ly:10:6:7">
<circle transform="translate(9.0278, 9.9302)" stroke-linejoin="round" stroke-linecap="round" fill="currentColor" stroke="currentColor" stroke-width="0" r="0.5281"/>
<g color="rgb(100.0000%, 100.0000%, 100.0000%)">
<text transform="translate(8.7319, 10.2484)" font-family="sans-serif" font-weight="bold" font-size="0.8730" text-anchor="start" fill="currentColor">
<tspan>E</tspan>
</text>
</g>
</a>
<a style="color:inherit;" xlink:href="textedit:///home/mojzis/pers/noty/lilywork/score_only/narodil_se_kristus_pan.ly:10:7:8">
<path transform="translate(8.6636, 5.4021) scale(0.0022, -0.0022)" d="M147 479c-28 0 -58 -9 -58 -33c0 -22 36 -25 36 -47c0 -32 -25 -57 -57 -57s-57 25 -57 57c0 63 66 101 136 101c90 0 165 -35 165 -115c0 -44 -3 -83 -41 -101c-8 -4 -13 -12 -13 -20s5 -16 13 -20c41 -19 55 -58 55 -104c0 -91 -77 -140 -175 -140
c-77 0 -151 41 -151 111c0 36 29 65 65 65s65 -29 65 -65c0 -25 -40 -28 -40 -53c0 -26 31 -37 61 -37c50 0 66 61 66 119c0 62 -1 110 -54 110h-82c-9 0 -13 7 -13 14s4 13 13 13h82c52 0 54 47 54 108c0 56 -18 94 -70 94z" fill="currentColor"/>
</a>
<a style="color:inherit;" xlink:href="textedit:///home/mojzis/pers/noty/lilywork/score_only/narodil_se_kristus_pan.ly:19:2:3">
<text transform="translate(7.4003, 13.4302)" font-family="serif" font-size="1.7463" text-anchor="start" fill="currentColor">
<tspan>Z ži</tspan>
</text>
</a>
<rect transform="translate(9.5194, 7.9302)" x="-0.0365" y="-1.5000" width="0.0730" height="3.3072" ry="0.0133" fill="currentColor"/>
<a style="color:inherit;" xlink:href="textedit:///home/mojzis/pers/noty/lilywork/score_only/narodil_se_kristus_pan.ly:10:10:11">
<circle transform="translate(11.7739, 10.4302)" stroke-linejoin="round" stroke-linecap="round" fill="currentColor" stroke="currentColor" stroke-width="0" r="0.5281"/>
<g color="rgb(100.0000%, 100.0000%, 100.0000%)">
<text transform="translate(11.4097, 10.7484)" font-family="sans-serif" font-weight="bold" font-size="0.8730" text-anchor="start" fill="currentColor">
<tspan>D</tspan>
</text>
</g>
</a>
<a style="color:inherit;" xlink:href="textedit:///home/mojzis/pers/noty/lilywork/score_only/narodil_se_kristus_pan.ly:19:10:11">
<text transform="translate(10.7553, 13.4302)" font-family="serif" font-size="1.7463" text-anchor="start" fill="currentColor">
<tspan>vo</tspan>
</text>
</a>
<rect transform="translate(12.2655, 7.9302)" x="-0.0365" y="-1.0000" width="0.0730" height="3.3072" ry="0.0133" fill="currentColor"/>
<a style="color:inherit;" xlink:href="textedit:///home/mojzis/pers/noty/lilywork/score_only/narodil_se_kristus_pan.ly:10:14:15">
<circle transform="translate(13.9787, 9.9302)" stroke-linejoin="round" stroke-linecap="round" fill="currentColor" stroke="currentColor" stroke-width="0" r="0.5281"/>
<g color="rgb(100.0000%, 100.0000%, 100.0000%)">
<text transform="translate(13.6828, 10.2484)" font-family="sans-serif" font-weight="bold" font-size="0.8730" text-anchor="start" fill="currentColor">
<tspan>E</tspan>
</text>
</g>
</a>
<a style="color:inherit;" xlink:href="textedit:///home/mojzis/pers/noty/lilywork/score_only/narodil_se_kristus_pan.ly:10:15:16">
<path transform="translate(13.6145, 5.4021) scale(0.0022, -0.0022)" d="M147 479c-28 0 -58 -9 -58 -33c0 -22 36 -25 36 -47c0 -32 -25 -57 -57 -57s-57 25 -57 57c0 63 66 101 136 101c90 0 165 -35 165 -115c0 -44 -3 -83 -41 -101c-8 -4 -13 -12 -13 -20s5 -16 13 -20c41 -19 55 -58 55 -104c0 -91 -77 -140 -175 -140
c-77 0 -151 41 -151 111c0 36 29 65 65 65s65 -29 65 -65c0 -25 -40 -28 -40 -53c0 -26 31 -37 61 -37c50 0 66 61 66 119c0 62 -1 110 -54 110h-82c-9 0 -13 7 -13 14s4 13 13 13h82c52 0 54 47 54 108c0 56 -18 94 -70 94z" fill="currentColor"/>
</a>
<a style="color:inherit;" xlink:href="textedit:///home/mojzis/pers/noty/lilywork/score_only/narodil_se_kristus_pan.ly:20:25:26">
<rect transform="translate(37.6643, 13.4302)" x="0.0000" y="-0.4930" width="0.6600" height="0.0730" ry="0.0225" fill="currentColor"/>
</a>
<text transform="translate(-0.3338, 4.8774)" font-family="serif" font-size="1.7463" text-anchor="start" fill="currentColor">
<tspan>10</tspan>
</text>
<path transform="translate(2.6969, 8.9302) scale(0.0040, -0.0040)" d="M374 260c5 0 10 1 15 1c154 0 254 -127 254 -259c0 -76 -33 -153 -107 -208c-22 -17 -47 -29 -73 -37c3 -36 5 -72 5 -108c0 -19 0 -37 -1 -56c-7 -120 -88 -226 -206 -226c-108 0 -195 87 -195 195c0 58 53 104 112 104c54 0 95 -48 95 -104c0 -52 -43 -95 -95 -95
c-12 0 -24 4 -35 9c26 -41 70 -70 121 -70c1 0 2 1 3 1c93 2 154 93 160 192c1 18 2 35 2 53c0 32 -2 64 -5 96c-29 -5 -58 -8 -89 -8c-188 0 -333 171 -333 372c0 178 133 306 251 440c-18 63 -35 126 -42 191c-6 51 -7 102 -7 154c0 116 55 226 150 295c5 4 11 4 16 0
c70 -84 132 -246 132 -359c0 -144 -87 -256 -183 -365c20 -69 39 -138 55 -208zM459 -205c69 24 117 96 117 166c0 92 -69 184 -179 193c25 -117 48 -235 62 -359zM71 31c0 -136 131 -251 267 -251c28 0 55 2 82 6c-15 128 -38 247 -64 367c-79 -9 -125 -62 -125 -121
c0 -44 26 -92 82 -124c4 -4 7 -9 7 -14c0 -11 -9 -21 -20 -21c-3 0 -6 1 -9 2c-80 43 -116 114 -116 184c0 88 57 173 158 196c-14 60 -30 119 -46 178c-108 -121 -216 -242 -216 -402zM411 1050c-99 -50 -161 -151 -161 -262c0 -76 15 -137 33 -200c82 97 149 198 149 325
c0 58 -4 84 -21 137z" fill="currentColor"/>
<a style="color:inherit;" xlink:href="textedit:///home/mojzis/pers/noty/lilywork/score_only/narodil_se_kristus_pan.ly:10:24:25">
<circle transform="translate(19.8355, 8.9302)" stroke-linejoin="round" stroke-linecap="round" fill="currentColor" stroke="currentColor" stroke-width="0" r="0.5281"/>
<g color="rgb(100.0000%, 100.0000%, 100.0000%)">
<circle transform="translate(19.8355, 8.9302)" stroke-linejoin="round" stroke-linecap="round" fill="currentColor" stroke="currentColor" stroke-width="0" r="0.4550"/>
</g>
<text transform="translate(19.4770, 9.2480)" font-family="sans-serif" font-weight="bold" font-size="0.8730" text-anchor="start" fill="currentColor">
<tspan>G</tspan>
</text>
</a>
<a style="color:inherit;" xlink:href="textedit:///home/mojzis/pers/noty/lilywork/score_only/narodil_se_kristus_pan.ly:10:26:27">
<path transform="translate(19.4657, 5.4021) scale(0.0022, -0.0022)" d="M42 500c45 -8 91 -13 137 -13s92 5 137 13c13 2 21 -9 15 -15c-68 -68 -167 -87 -263 -87c-8 0 -15 -7 -15 -15v-108c28 28 65 47 104 47c115 0 184 -51 184 -161c0 -92 -83 -161 -179 -161c-82 0 -162 38 -162 111c0 36 29 65 65 65s65 -29 65 -65
c0 -25 -40 -28 -40 -53c0 -30 37 -37 72 -37c57 0 70 73 70 140c0 65 -18 134 -75 134c-42 0 -82 -15 -106 -48c-3 -4 -7 -5 -11 -5c-7 0 -13 5 -13 13v230c0 9 7 16 15 15z" fill="currentColor"/>
</a>
<a style="color:inherit;" xlink:href="textedit:///home/mojzis/pers/noty/lilywork/score_only/narodil_se_kristus_pan.ly:19:26:27">
<text transform="translate(18.9649, 13.4302)" font-family="serif" font-size="1.7463" text-anchor="start" fill="currentColor">
<tspan>té</tspan>
</text>
</a>
<rect transform="translate(20.3271, 7.9302)" x="-0.0365" y="-2.5000" width="0.0730" height="3.2370" ry="0.0133" fill="currentColor"/>
<rect transform="translate(14.4703, 7.9302)" x="-0.0365" y="-1.5000" width="0.0730" height="3.3072" ry="0.0133" fill="currentColor"/>
<a style="color:inherit;" xlink:href="textedit:///home/mojzis/pers/noty/lilywork/score_only/narodil_se_kristus_pan.ly:19:16:17">
<text transform="translate(13.1081, 13.4302)" font-family="serif" font-size="1.7463" text-anchor="start" fill="currentColor">
<tspan>ta</tspan>
</text>
</a>
<rect transform="translate(17.0087, 7.9302)" x="-0.0365" y="-2.0000" width="0.0730" height="3.3072" ry="0.0133" fill="currentColor"/>
<a style="color:inherit;" xlink:href="textedit:///home/mojzis/pers/noty/lilywork/score_only/narodil_se_kristus_pan.ly:19:19:20">
<text transform="translate(15.2994, 13.4302)" font-family="serif" font-size="1.7463" text-anchor="start" fill="currentColor">
<tspan>čis</tspan>
</text>
</a>
<a style="color:inherit;" xlink:href="textedit:///home/mojzis/pers/noty/lilywork/score_only/narodil_se_kristus_pan.ly:10:19:20">
<path transform="translate(16.0790, 5.4021) scale(0.0022, -0.0022)" d="M208 319c21 13 42 27 57 47c11 15 18 32 25 49c4 9 20 7 20 -7v-256h68c9 0 13 -7 13 -14s-4 -13 -13 -13h-68v-16c0 -45 26 -88 68 -88c7 0 10 -5 10 -10s-3 -11 -10 -11c-41 0 -82 13 -123 13s-82 -13 -123 -13c-7 0 -10 6 -10 11s3 10 10 10c42 0 68 43 68 88v16h-173
c-21 0 -29 13 -29 21c0 2 1 5 2 6c81 96 146 208 146 333c0 10 7 18 15 15c22 -7 44 -13 67 -13s45 6 67 13c12 4 21 -8 15 -15l-283 -333h173v147c0 8 2 16 8 20z" fill="currentColor"/>
</a>
<a style="color:inherit;" xlink:href="textedit:///home/mojzis/pers/noty/lilywork/score_only/narodil_se_kristus_pan.ly:10:18:19">
<circle transform="translate(16.5171, 9.4302)" stroke-linejoin="round" stroke-linecap="round" fill="currentColor" stroke="currentColor" stroke-width="0" r="0.5281"/>
<g color="rgb(100.0000%, 100.0000%, 100.0000%)">
<text transform="translate(16.2212, 9.7484)" font-family="sans-serif" font-weight="bold" font-size="0.8730" text-anchor="start" fill="currentColor">
<tspan>F</tspan>
</text>
</g>
</a>
<line transform="translate(1.8969, 24.1455)" stroke-linejoin="round" stroke-linecap="round" stroke-width="0.0562" stroke="currentColor" x1="0.0281" y1="-0.0000" x2="36.0121" y2="-0.0000"/>
<line transform="translate(1.8969, 23.1455)" stroke-linejoin="round" stroke-linecap="round" stroke-width="0.0562" stroke="currentColor" x1="0.0281" y1="-0.0000" x2="36.0121" y2="-0.0000"/>
<line transform="translate(1.8969, 22.1455)" stroke-linejoin="round" stroke-linecap="round" stroke-width="0.0562" stroke="currentColor" x1="0.0281" y1="-0.0000" x2="36.0121" y2="-0.0000"/>
<line transform="translate(1.8969, 21.1455)" stroke-linejoin="round" stroke-linecap="round" stroke-width="0.0562" stroke="currentColor" x1="0.0281" y1="-0.0000" x2="36.0121" y2="-0.0000"/>
<line transform="translate(1.8969, 20.1455)" stroke-linejoin="round" stroke-linecap="round" stroke-width="0.0562" stroke="currentColor" x1="0.0281" y1="-0.0000" x2="36.0121" y2="-0.0000"/>
<rect transform="translate(1.8969, 25.1455)" x="29.3581" y="-0.0781" width="1.5843" height="0.1562" ry="0.0781" fill="currentColor"/>
<rect transform="translate(1.8969, 25.1455)" x="11.8957" y="-0.0781" width="1.5843" height="0.1562" ry="0.0781" fill="currentColor"/>
<rect transform="translate(1.8969, 25.1455)" x="8.0783" y="-0.0781" width="1.5843" height="0.1562" ry="0.0781" fill="currentColor"/>
<rect transform="translate(21.2714, 22.1455)" x="0.0000" y="-2.0000" width="0.1068" height="4.0000" ry="0.0000" fill="currentColor"/>
<path transform="translate(36.6992, 21.6455) scale(0.0040, -0.0040)" d="M0 0c0 32 25 57 57 57s57 -25 57 -57s-25 -57 -57 -57s-57 25 -57 57z" fill="currentColor"/>
<path transform="translate(36.6992, 22.6455) scale(0.0040, -0.0040)" d="M0 0c0 32 25 57 57 57s57 -25 57 -57s-25 -57 -57 -57s-57 25 -57 57z" fill="currentColor"/>
<rect transform="translate(37.5999, 22.1455)" x="0.0000" y="-2.0000" width="0.3371" height="4.0000" ry="0.0000" fill="currentColor"/>
<rect transform="translate(37.3245, 22.1455)" x="0.0000" y="-2.0000" width="0.1068" height="4.0000" ry="0.0000" fill="currentColor"/>
<rect transform="translate(30.6726, 22.1455)" x="0.0000" y="-2.0000" width="0.1068" height="4.0000" ry="0.0000" fill="currentColor"/>
<rect transform="translate(13.2102, 22.1455)" x="0.0000" y="-2.0000" width="0.1068" height="4.0000" ry="0.0000" fill="currentColor"/>
<rect transform="translate(27.3311, 22.1455)" x="-0.0365" y="-1.5000" width="0.0730" height="3.3072" ry="0.0133" fill="currentColor"/>
<path transform="translate(33.0320, 24.6455) scale(0.0040, -0.0040)" d="M0 0c0 32 25 57 57 57s57 -25 57 -57s-25 -57 -57 -57s-57 25 -57 57z" fill="currentColor"/>
<a style="color:inherit;" xlink:href="textedit:///home/mojzis/pers/noty/lilywork/score_only/narodil_se_kristus_pan.ly:10:92:93">
<circle transform="translate(28.9130, 24.6455)" stroke-linejoin="round" stroke-linecap="round" fill="currentColor" stroke="currentColor" stroke-width="0" r="0.5281"/>
<g color="rgb(100.0000%, 100.0000%, 100.0000%)">
<text transform="translate(28.5488, 24.9637)" font-family="sans-serif" font-weight="bold" font-size="0.8730" text-anchor="start" fill="currentColor">
<tspan>D</tspan>
</text>
</g>
</a>
<a style="color:inherit;" xlink:href="textedit:///home/mojzis/pers/noty/lilywork/score_only/narodil_se_kristus_pan.ly:10:93:94">
<path transform="translate(28.5829, 19.6174) scale(0.0022, -0.0022)" d="M164 487c17 0 54 29 54 -2v-376c0 -45 26 -88 68 -88c7 0 11 -5 11 -10s-4 -11 -11 -11c-41 0 -81 13 -122 13s-82 -13 -123 -13c-7 0 -11 6 -11 11s4 10 11 10c42 0 68 43 68 88v258c0 11 -8 17 -15 17c-4 0 -7 -2 -9 -6l-61 -139c-2 -6 -6 -8 -11 -8c-7 0 -14 5 -14 13
c0 2 0 4 1 6l109 250c2 5 9 3 15 0c13 -6 26 -13 40 -13z" fill="currentColor"/>
</a>
<rect transform="translate(29.4045, 22.1455)" x="-0.0365" y="-1.0000" width="0.0730" height="3.3072" ry="0.0133" fill="currentColor"/>
<a style="color:inherit;" xlink:href="textedit:///home/mojzis/pers/noty/lilywork/score_only/narodil_se_kristus_pan.ly:10:100:101">
<circle transform="translate(32.0471, 25.1455)" stroke-linejoin="round" stroke-linecap="round" fill="currentColor" stroke="currentColor" stroke-width="0" r="0.5281"/>
<g color="rgb(100.0000%, 100.0000%, 100.0000%)">
<circle transform="translate(32.0471, 25.1455)" stroke-linejoin="round" stroke-linecap="round" fill="currentColor" stroke="currentColor" stroke-width="0" r="0.4550"/>
</g>
<text transform="translate(31.7284, 25.4633)" font-family="sans-serif" font-weight="bold" font-size="0.8730" text-anchor="start" fill="currentColor">
<tspan>C</tspan>
</text>
</a>
<a style="color:inherit;" xlink:href="textedit:///home/mojzis/pers/noty/lilywork/score_only/narodil_se_kristus_pan.ly:10:103:104">
<path transform="translate(31.6431, 19.6174) scale(0.0022, -0.0022)" d="M236 355c0 61 -22 124 -75 124c-25 0 -48 -14 -48 -37c0 -27 35 -41 35 -68c0 -38 -31 -69 -69 -69s-68 31 -68 69c0 75 71 126 150 126c95 0 184 -57 184 -145c0 -158 -162 -160 -257 -229c12 3 24 5 37 5c32 0 67 -10 101 -33c23 -16 49 -25 70 -25c20 0 37 8 42 28
c1 6 6 8 10 8c5 0 11 -4 11 -10c0 -63 -85 -99 -132 -99c-35 0 -69 14 -94 42c-14 16 -32 23 -50 23c-30 0 -59 -21 -62 -55c-1 -7 -5 -10 -10 -10c-6 0 -12 4 -11 12c15 174 236 164 236 343z" fill="currentColor"/>
</a>
<a style="color:inherit;" xlink:href="textedit:///home/mojzis/pers/noty/lilywork/score_only/narodil_se_kristus_pan.ly:21:26:27">
<text transform="translate(30.8009, 27.6670)" font-family="serif" font-size="1.7463" text-anchor="start" fill="currentColor">
<tspan>se.</tspan>
</text>
</a>
<a style="color:inherit;" xlink:href="textedit:///home/mojzis/pers/noty/lilywork/score_only/narodil_se_kristus_pan.ly:10:83:84">
<circle transform="translate(24.7660, 23.6455)" stroke-linejoin="round" stroke-linecap="round" fill="currentColor" stroke="currentColor" stroke-width="0" r="0.5281"/>
<g color="rgb(100.0000%, 100.0000%, 100.0000%)">
<text transform="translate(24.4701, 23.9637)" font-family="sans-serif" font-weight="bold" font-size="0.8730" text-anchor="start" fill="currentColor">
<tspan>F</tspan>
</text>
</g>
</a>
<a style="color:inherit;" xlink:href="textedit:///home/mojzis/pers/noty/lilywork/score_only/narodil_se_kristus_pan.ly:20:31:32">
<rect transform="translate(9.3262, 27.6670)" x="0.0000" y="-0.4930" width="0.3000" height="0.0730" ry="0.0225" fill="currentColor"/>
</a>
<a style="color:inherit;" xlink:href="textedit:///home/mojzis/pers/noty/lilywork/score_only/narodil_se_kristus_pan.ly:21:22:23">
<text transform="translate(26.3114, 27.6670)" font-family="serif" font-size="1.7463" text-anchor="start" fill="currentColor">
<tspan>dil</tspan>
</text>
</a>
<a style="color:inherit;" xlink:href="textedit:///home/mojzis/pers/noty/lilywork/score_only/narodil_se_kristus_pan.ly:10:84:85">
<path transform="translate(24.4018, 19.6174) scale(0.0022, -0.0022)" d="M147 479c-28 0 -58 -9 -58 -33c0 -22 36 -25 36 -47c0 -32 -25 -57 -57 -57s-57 25 -57 57c0 63 66 101 136 101c90 0 165 -35 165 -115c0 -44 -3 -83 -41 -101c-8 -4 -13 -12 -13 -20s5 -16 13 -20c41 -19 55 -58 55 -104c0 -91 -77 -140 -175 -140
c-77 0 -151 41 -151 111c0 36 29 65 65 65s65 -29 65 -65c0 -25 -40 -28 -40 -53c0 -26 31 -37 61 -37c50 0 66 61 66 119c0 62 -1 110 -54 110h-82c-9 0 -13 7 -13 14s4 13 13 13h82c52 0 54 47 54 108c0 56 -18 94 -70 94z" fill="currentColor"/>
</a>
<a style="color:inherit;" xlink:href="textedit:///home/mojzis/pers/noty/lilywork/score_only/narodil_se_kristus_pan.ly:21:16:17">
<text transform="translate(23.8271, 27.6670)" font-family="serif" font-size="1.7463" text-anchor="start" fill="currentColor">
<tspan>ro</tspan>
</text>
</a>
<rect transform="translate(25.2576, 22.1455)" x="-0.0365" y="-2.0000" width="0.0730" height="3.3072" ry="0.0133" fill="currentColor"/>
<a style="color:inherit;" xlink:href="textedit:///home/mojzis/pers/noty/lilywork/score_only/narodil_se_kristus_pan.ly:10:87:88">
<circle transform="translate(26.8395, 24.1455)" stroke-linejoin="round" stroke-linecap="round" fill="currentColor" stroke="currentColor" stroke-width="0" r="0.5281"/>
<g color="rgb(100.0000%, 100.0000%, 100.0000%)">
<text transform="translate(26.5436, 24.4637)" font-family="sans-serif" font-weight="bold" font-size="0.8730" text-anchor="start" fill="currentColor">
<tspan>E</tspan>
</text>
</g>
</a>
<a style="color:inherit;" xlink:href="textedit:///home/mojzis/pers/noty/lilywork/score_only/narodil_se_kristus_pan.ly:10:88:89">
<path transform="translate(26.4355, 19.6174) scale(0.0022, -0.0022)" d="M236 355c0 61 -22 124 -75 124c-25 0 -48 -14 -48 -37c0 -27 35 -41 35 -68c0 -38 -31 -69 -69 -69s-68 31 -68 69c0 75 71 126 150 126c95 0 184 -57 184 -145c0 -158 -162 -160 -257 -229c12 3 24 5 37 5c32 0 67 -10 101 -33c23 -16 49 -25 70 -25c20 0 37 8 42 28
c1 6 6 8 10 8c5 0 11 -4 11 -10c0 -63 -85 -99 -132 -99c-35 0 -69 14 -94 42c-14 16 -32 23 -50 23c-30 0 -59 -21 -62 -55c-1 -7 -5 -10 -10 -10c-6 0 -12 4 -11 12c15 174 236 164 236 343z" fill="currentColor"/>
</a>
<a style="color:inherit;" xlink:href="textedit:///home/mojzis/pers/noty/lilywork/score_only/narodil_se_kristus_pan.ly:10:90:91">
<path transform="translate(26.3114, 22.1455)" stroke-width="0.0450" stroke-linejoin="round" stroke-linecap="round" stroke="currentColor" fill="currentColor" d="M0.4456 3.0281C0.8900 3.6894 1.8221 3.9142 2.5190 3.5281L2.5190 3.5281C1.8379 3.8486 0.9058 3.6238 0.4456 3.0281z"/>
</a>
<a style="color:inherit;" xlink:href="textedit:///home/mojzis/pers/noty/lilywork/score_only/narodil_se_kristus_pan.ly:21:19:20">
<rect transform="translate(25.7750, 27.6670)" x="0.0000" y="-0.4930" width="0.4664" height="0.0730" ry="0.0225" fill="currentColor"/>
</a>
<rect transform="translate(32.5387, 22.1455)" x="-0.0365" y="-0.5000" width="0.0730" height="3.2370" ry="0.0133" fill="currentColor"/>
<a style="color:inherit;" xlink:href="textedit:///home/mojzis/pers/noty/lilywork/score_only/narodil_se_kristus_pan.ly:10:106:107">
<path transform="translate(34.7319, 22.1455) scale(0.0040, -0.0040)" d="M-23 -113c0 26 10 40 36 40c34 0 85 -15 130 -37l-137 164c-7 8 -10 17 -10 25c0 33 49 64 86 96c26 22 39 54 39 85c0 24 -8 47 -24 67l-39 46c-2 3 -3 6 -3 9c0 7 7 14 14 14c3 0 7 -1 10 -5l152 -182c7 -8 10 -17 10 -25c0 -33 -49 -64 -86 -96
c-26 -22 -39 -54 -39 -85c0 -24 8 -47 24 -67l87 -104c2 -3 3 -5 3 -8c0 -7 -7 -14 -14 -14c-3 0 -7 1 -10 5c-19 22 -66 43 -102 43c-40 0 -52 -29 -52 -70c0 -35 11 -75 28 -96c6 -7 -4 -16 -10 -9c-46 55 -93 150 -93 204z" fill="currentColor"/>
</a>
<a style="color:inherit;" xlink:href="textedit:///home/mojzis/pers/noty/lilywork/score_only/narodil_se_kristus_pan.ly:20:34:35">
<text transform="translate(9.6804, 27.6670)" font-family="serif" font-size="1.7463" text-anchor="start" fill="currentColor">
<tspan>ho</tspan>
</text>
</a>
<a style="color:inherit;" xlink:href="textedit:///home/mojzis/pers/noty/lilywork/score_only/narodil_se_kristus_pan.ly:10:57:58">
<path transform="translate(7.8551, 19.6174) scale(0.0022, -0.0022)" d="M42 500c45 -8 91 -13 137 -13s92 5 137 13c13 2 21 -9 15 -15c-68 -68 -167 -87 -263 -87c-8 0 -15 -7 -15 -15v-108c28 28 65 47 104 47c115 0 184 -51 184 -161c0 -92 -83 -161 -179 -161c-82 0 -162 38 -162 111c0 36 29 65 65 65s65 -29 65 -65
c0 -25 -40 -28 -40 -53c0 -30 37 -37 72 -37c57 0 70 73 70 140c0 65 -18 134 -75 134c-42 0 -82 -15 -106 -48c-3 -4 -7 -5 -11 -5c-7 0 -13 5 -13 13v230c0 9 7 16 15 15z" fill="currentColor"/>
</a>
<a style="color:inherit;" xlink:href="textedit:///home/mojzis/pers/noty/lilywork/score_only/narodil_se_kristus_pan.ly:20:28:29">
<text transform="translate(7.1779, 27.6670)" font-family="serif" font-size="1.7463" text-anchor="start" fill="currentColor">
<tspan>ké</tspan>
</text>
</a>
<rect transform="translate(8.7165, 22.1455)" x="-0.0365" y="-2.5000" width="0.0730" height="3.2370" ry="0.0133" fill="currentColor"/>
<a style="color:inherit;" xlink:href="textedit:///home/mojzis/pers/noty/lilywork/score_only/narodil_se_kristus_pan.ly:10:60:61">
<circle transform="translate(10.7673, 25.1455)" stroke-linejoin="round" stroke-linecap="round" fill="currentColor" stroke="currentColor" stroke-width="0" r="0.5281"/>
<g color="rgb(100.0000%, 100.0000%, 100.0000%)">
<circle transform="translate(10.7673, 25.1455)" stroke-linejoin="round" stroke-linecap="round" fill="currentColor" stroke="currentColor" stroke-width="0" r="0.4550"/>
</g>
<text transform="translate(10.4486, 25.4633)" font-family="sans-serif" font-weight="bold" font-size="0.8730" text-anchor="start" fill="currentColor">
<tspan>C</tspan>
</text>
</a>
<a style="color:inherit;" xlink:href="textedit:///home/mojzis/pers/noty/lilywork/score_only/narodil_se_kristus_pan.ly:10:62:63">
<path transform="translate(10.4373, 19.6174) scale(0.0022, -0.0022)" d="M164 487c17 0 54 29 54 -2v-376c0 -45 26 -88 68 -88c7 0 11 -5 11 -10s-4 -11 -11 -11c-41 0 -81 13 -122 13s-82 -13 -123 -13c-7 0 -11 6 -11 11s4 10 11 10c42 0 68 43 68 88v258c0 11 -8 17 -15 17c-4 0 -7 -2 -9 -6l-61 -139c-2 -6 -6 -8 -11 -8c-7 0 -14 5 -14 13
c0 2 0 4 1 6l109 250c2 5 9 3 15 0c13 -6 26 -13 40 -13z" fill="currentColor"/>
</a>
<a style="color:inherit;" xlink:href="textedit:///home/mojzis/pers/noty/lilywork/score_only/narodil_se_kristus_pan.ly:10:55:56">
<circle transform="translate(8.2249, 23.1455)" stroke-linejoin="round" stroke-linecap="round" fill="currentColor" stroke="currentColor" stroke-width="0" r="0.5281"/>
<g color="rgb(100.0000%, 100.0000%, 100.0000%)">
<circle transform="translate(8.2249, 23.1455)" stroke-linejoin="round" stroke-linecap="round" fill="currentColor" stroke="currentColor" stroke-width="0" r="0.4550"/>
</g>
<text transform="translate(7.8664, 23.4633)" font-family="sans-serif" font-weight="bold" font-size="0.8730" text-anchor="start" fill="currentColor">
<tspan>G</tspan>
</text>
</a>
<rect transform="translate(11.2589, 22.1455)" x="-0.0365" y="-0.5000" width="0.0730" height="3.2370" ry="0.0133" fill="currentColor"/>
<a style="color:inherit;" xlink:href="textedit:///home/mojzis/pers/noty/lilywork/score_only/narodil_se_kristus_pan.ly:10:67:68">
<circle transform="translate(14.5847, 25.1455)" stroke-linejoin="round" stroke-linecap="round" fill="currentColor" stroke="currentColor" stroke-width="0" r="0.5281"/>
<g color="rgb(100.0000%, 100.0000%, 100.0000%)">
<circle transform="translate(14.5847, 25.1455)" stroke-linejoin="round" stroke-linecap="round" fill="currentColor" stroke="currentColor" stroke-width="0" r="0.4550"/>
</g>
<text transform="translate(14.2660, 25.4633)" font-family="sans-serif" font-weight="bold" font-size="0.8730" text-anchor="start" fill="currentColor">
<tspan>C</tspan>
</text>
</a>
<a style="color:inherit;" xlink:href="textedit:///home/mojzis/pers/noty/lilywork/score_only/narodil_se_kristus_pan.ly:21:2:3">
<text transform="translate(12.6783, 27.6670)" font-family="serif" font-size="1.7463" text-anchor="start" fill="currentColor">
<tspan>nám</tspan>
</text>
</a>
<text transform="translate(-0.3338, 19.0927)" font-family="serif" font-size="1.7463" text-anchor="start" fill="currentColor">
<tspan>13</tspan>
</text>
<a style="color:inherit;" xlink:href="textedit:///home/mojzis/pers/noty/lilywork/score_only/narodil_se_kristus_pan.ly:10:68:69">
<path transform="translate(14.2546, 19.6174) scale(0.0022, -0.0022)" d="M164 487c17 0 54 29 54 -2v-376c0 -45 26 -88 68 -88c7 0 11 -5 11 -10s-4 -11 -11 -11c-41 0 -81 13 -122 13s-82 -13 -123 -13c-7 0 -11 6 -11 11s4 10 11 10c42 0 68 43 68 88v258c0 11 -8 17 -15 17c-4 0 -7 -2 -9 -6l-61 -139c-2 -6 -6 -8 -11 -8c-7 0 -14 5 -14 13
c0 2 0 4 1 6l109 250c2 5 9 3 15 0c13 -6 26 -13 40 -13z" fill="currentColor"/>
</a>
<path transform="translate(2.6969, 23.1455) scale(0.0040, -0.0040)" d="M374 260c5 0 10 1 15 1c154 0 254 -127 254 -259c0 -76 -33 -153 -107 -208c-22 -17 -47 -29 -73 -37c3 -36 5 -72 5 -108c0 -19 0 -37 -1 -56c-7 -120 -88 -226 -206 -226c-108 0 -195 87 -195 195c0 58 53 104 112 104c54 0 95 -48 95 -104c0 -52 -43 -95 -95 -95
c-12 0 -24 4 -35 9c26 -41 70 -70 121 -70c1 0 2 1 3 1c93 2 154 93 160 192c1 18 2 35 2 53c0 32 -2 64 -5 96c-29 -5 -58 -8 -89 -8c-188 0 -333 171 -333 372c0 178 133 306 251 440c-18 63 -35 126 -42 191c-6 51 -7 102 -7 154c0 116 55 226 150 295c5 4 11 4 16 0
c70 -84 132 -246 132 -359c0 -144 -87 -256 -183 -365c20 -69 39 -138 55 -208zM459 -205c69 24 117 96 117 166c0 92 -69 184 -179 193c25 -117 48 -235 62 -359zM71 31c0 -136 131 -251 267 -251c28 0 55 2 82 6c-15 128 -38 247 -64 367c-79 -9 -125 -62 -125 -121
c0 -44 26 -92 82 -124c4 -4 7 -9 7 -14c0 -11 -9 -21 -20 -21c-3 0 -6 1 -9 2c-80 43 -116 114 -116 184c0 88 57 173 158 196c-14 60 -30 119 -46 178c-108 -121 -216 -242 -216 -402zM411 1050c-99 -50 -161 -151 -161 -262c0 -76 15 -137 33 -200c82 97 149 198 149 325
c0 58 -4 84 -21 137z" fill="currentColor"/>
<rect transform="translate(15.0762, 22.1455)" x="-0.0365" y="-0.5000" width="0.0730" height="3.2370" ry="0.0133" fill="currentColor"/>
<a style="color:inherit;" xlink:href="textedit:///home/mojzis/pers/noty/lilywork/score_only/narodil_se_kristus_pan.ly:10:73:74">
<path transform="translate(18.4774, 19.6174) scale(0.0022, -0.0022)" d="M42 500c45 -8 91 -13 137 -13s92 5 137 13c13 2 21 -9 15 -15c-68 -68 -167 -87 -263 -87c-8 0 -15 -7 -15 -15v-108c28 28 65 47 104 47c115 0 184 -51 184 -161c0 -92 -83 -161 -179 -161c-82 0 -162 38 -162 111c0 36 29 65 65 65s65 -29 65 -65
c0 -25 -40 -28 -40 -53c0 -30 37 -37 72 -37c57 0 70 73 70 140c0 65 -18 134 -75 134c-42 0 -82 -15 -106 -48c-3 -4 -7 -5 -11 -5c-7 0 -13 5 -13 13v230c0 9 7 16 15 15z" fill="currentColor"/>
</a>
<a style="color:inherit;" xlink:href="textedit:///home/mojzis/pers/noty/lilywork/score_only/narodil_se_kristus_pan.ly:21:6:7">
<text transform="translate(16.9410, 27.6670)" font-family="serif" font-size="1.7463" text-anchor="start" fill="currentColor">
<tspan>nám</tspan>
</text>
</a>
<rect transform="translate(19.3389, 22.1455)" x="-0.0365" y="-3.0000" width="0.0730" height="3.2370" ry="0.0133" fill="currentColor"/>
<a style="color:inherit;" xlink:href="textedit:///home/mojzis/pers/noty/lilywork/score_only/narodil_se_kristus_pan.ly:10:71:72">
<circle transform="translate(18.8473, 22.6455)" stroke-linejoin="round" stroke-linecap="round" fill="currentColor" stroke="currentColor" stroke-width="0" r="0.5281"/>
<g color="rgb(100.0000%, 100.0000%, 100.0000%)">
<circle transform="translate(18.8473, 22.6455)" stroke-linejoin="round" stroke-linecap="round" fill="currentColor" stroke="currentColor" stroke-width="0" r="0.4550"/>
</g>
<text transform="translate(18.5116, 22.9637)" font-family="sans-serif" font-weight="bold" font-size="0.8730" text-anchor="start" fill="currentColor">
<tspan>A</tspan>
</text>
</a>
<a style="color:inherit;" xlink:href="textedit:///home/mojzis/pers/noty/lilywork/score_only/narodil_se_kristus_pan.ly:10:78:79">
<circle transform="translate(22.6459, 23.1455)" stroke-linejoin="round" stroke-linecap="round" fill="currentColor" stroke="currentColor" stroke-width="0" r="0.5281"/>
<g color="rgb(100.0000%, 100.0000%, 100.0000%)">
<text transform="translate(22.2874, 23.4633)" font-family="sans-serif" font-weight="bold" font-size="0.8730" text-anchor="start" fill="currentColor">
<tspan>G</tspan>
</text>
</g>
</a>
<a style="color:inherit;" xlink:href="textedit:///home/mojzis/pers/noty/lilywork/score_only/narodil_se_kristus_pan.ly:10:80:81">
<path transform="translate(22.2077, 19.6174) scale(0.0022, -0.0022)" d="M208 319c21 13 42 27 57 47c11 15 18 32 25 49c4 9 20 7 20 -7v-256h68c9 0 13 -7 13 -14s-4 -13 -13 -13h-68v-16c0 -45 26 -88 68 -88c7 0 10 -5 10 -10s-3 -11 -10 -11c-41 0 -82 13 -123 13s-82 -13 -123 -13c-7 0 -10 6 -10 11s3 10 10 10c42 0 68 43 68 88v16h-173
c-21 0 -29 13 -29 21c0 2 1 5 2 6c81 96 146 208 146 333c0 10 7 18 15 15c22 -7 44 -13 67 -13s45 6 67 13c12 4 21 -8 15 -15l-283 -333h173v147c0 8 2 16 8 20z" fill="currentColor"/>
</a>
<a style="color:inherit;" xlink:href="textedit:///home/mojzis/pers/noty/lilywork/score_only/narodil_se_kristus_pan.ly:21:10:11">
<text transform="translate(21.5647, 27.6670)" font-family="serif" font-size="1.7463" text-anchor="start" fill="currentColor">
<tspan>na</tspan>
</text>
</a>
<rect transform="translate(23.1374, 22.1455)" x="-0.0365" y="-2.5000" width="0.0730" height="3.3072" ry="0.0133" fill="currentColor"/>
<a transform="translate(-10.9543, 54.7095)" xlink:href="http://lilypond.org/">
<rect x="0.0000" y="-0.4888" width="61.7425" height="2.1603" fill="none" stroke="none" stroke-width="0.0"/>
</a>
<text transform="translate(-10.9543, 54.7095)" font-family="serif" font-size="2.2001" text-anchor="start" fill="currentColor">
<tspan>Music engraving by LilyPond 2.20.0—www.lilypond.org</tspan>
</text>
</svg>
