<svg xmlns="http://www.w3.org/2000/svg" xmlns:xlink="http://www.w3.org/1999/xlink" version="1.2" width="210.00mm" height="297.00mm" viewBox="0 0 39.8339 56.3365">
<style text="style/css">
<![CDATA[
tspan { white-space: pre; }
]]>
</style>
<!-- Page: 1/2 -->
<text transform="translate(1.8969, 0.9484)" font-family="serif" font-size="2.2001" text-anchor="start" fill="currentColor">
<tspan/>
</text>
<line transform="translate(4.7421, 7.7164)" stroke-linejoin="round" stroke-linecap="round" stroke-width="0.0562" stroke="currentColor" x1="0.0281" y1="-0.0000" x2="33.1668" y2="-0.0000"/>
<line transform="translate(4.7421, 6.7164)" stroke-linejoin="round" stroke-linecap="round" stroke-width="0.0562" stroke="currentColor" x1="0.0281" y1="-0.0000" x2="33.1668" y2="-0.0000"/>
<line transform="translate(4.7421, 5.7164)" stroke-linejoin="round" stroke-linecap="round" stroke-width="0.0562" stroke="currentColor" x1="0.0281" y1="-0.0000" x2="33.1668" y2="-0.0000"/>
<line transform="translate(4.7421, 4.7164)" stroke-linejoin="round" stroke-linecap="round" stroke-width="0.0562" stroke="currentColor" x1="0.0281" y1="-0.0000" x2="33.1668" y2="-0.0000"/>
<line transform="translate(4.7421, 3.7164)" stroke-linejoin="round" stroke-linecap="round" stroke-width="0.0562" stroke="currentColor" x1="0.0281" y1="-0.0000" x2="33.1668" y2="-0.0000"/>
<rect transform="translate(37.8302, 5.7164)" x="0.0000" y="-2.0000" width="0.1068" height="4.0000" ry="0.0000" fill="currentColor"/>
<rect transform="translate(25.7971, 5.7164)" x="0.0000" y="-2.0000" width="0.1068" height="4.0000" ry="0.0000" fill="currentColor"/>
<rect transform="translate(1.8969, 8.7164)" x="13.9927" y="-0.0781" width="1.5843" height="0.1562" ry="0.0781" fill="currentColor"/>
<rect transform="translate(1.8969, 8.7164)" x="11.2948" y="-0.0781" width="1.5843" height="0.1562" ry="0.0781" fill="currentColor"/>
<rect transform="translate(31.0742, 5.7164)" x="-0.0365" y="-2.5000" width="0.0730" height="3.3072" ry="0.0133" fill="currentColor"/>
<a style="color:inherit;" xlink:href="textedit:///home/mojzis/pers/noty/lilywork/score_only/narodil_se_kristus_pan.ly:17:29:30">
<text transform="translate(29.2169, 11.3082)" font-family="serif" font-size="1.7463" text-anchor="start" fill="currentColor">
<tspan>tus</tspan>
</text>
</a>
<a style="color:inherit;" xlink:href="textedit:///home/mojzis/pers/noty/lilywork/score_only/narodil_se_kristus_pan.ly:7:38:39">
<path transform="translate(30.1444, 3.1883) scale(0.0022, -0.0022)" d="M208 319c21 13 42 27 57 47c11 15 18 32 25 49c4 9 20 7 20 -7v-256h68c9 0 13 -7 13 -14s-4 -13 -13 -13h-68v-16c0 -45 26 -88 68 -88c7 0 10 -5 10 -10s-3 -11 -10 -11c-41 0 -82 13 -123 13s-82 -13 -123 -13c-7 0 -10 6 -10 11s3 10 10 10c42 0 68 43 68 88v16h-173
c-21 0 -29 13 -29 21c0 2 1 5 2 6c81 96 146 208 146 333c0 10 7 18 15 15c22 -7 44 -13 67 -13s45 6 67 13c12 4 21 -8 15 -15l-283 -333h173v147c0 8 2 16 8 20z" fill="currentColor"/>
</a>
<a style="color:inherit;" xlink:href="textedit:///home/mojzis/pers/noty/lilywork/score_only/narodil_se_kristus_pan.ly:7:37:38">
<circle transform="translate(30.5826, 6.7164)" stroke-linejoin="round" stroke-linecap="round" fill="currentColor" stroke="currentColor" stroke-width="0" r="0.5281"/>
<g color="rgb(100.0000%, 100.0000%, 100.0000%)">
<text transform="translate(30.2241, 7.0342)" font-family="sans-serif" font-weight="bold" font-size="0.8730" text-anchor="start" fill="currentColor">
<tspan>G</tspan>
</text>
</g>
</a>
<a style="color:inherit;" xlink:href="textedit:///home/mojzis/pers/noty/lilywork/score_only/narodil_se_kristus_pan.ly:17:5:6">
<rect transform="translate(15.3789, 11.3082)" x="0.0000" y="-0.4930" width="0.6600" height="0.0730" ry="0.0225" fill="currentColor"/>
</a>
<rect transform="translate(27.8102, 5.7164)" x="-0.0365" y="-2.5000" width="0.0730" height="3.3072" ry="0.0133" fill="currentColor"/>
<a style="color:inherit;" xlink:href="textedit:///home/mojzis/pers/noty/lilywork/score_only/narodil_se_kristus_pan.ly:17:21:22">
<text transform="translate(25.5204, 11.3082)" font-family="serif" font-size="1.7463" text-anchor="start" fill="currentColor">
<tspan>Kris</tspan>
</text>
</a>
<a style="color:inherit;" xlink:href="textedit:///home/mojzis/pers/noty/lilywork/score_only/narodil_se_kristus_pan.ly:7:34:35">
<path transform="translate(26.9488, 3.1883) scale(0.0022, -0.0022)" d="M42 500c45 -8 91 -13 137 -13s92 5 137 13c13 2 21 -9 15 -15c-68 -68 -167 -87 -263 -87c-8 0 -15 -7 -15 -15v-108c28 28 65 47 104 47c115 0 184 -51 184 -161c0 -92 -83 -161 -179 -161c-82 0 -162 38 -162 111c0 36 29 65 65 65s65 -29 65 -65
c0 -25 -40 -28 -40 -53c0 -30 37 -37 72 -37c57 0 70 73 70 140c0 65 -18 134 -75 134c-42 0 -82 -15 -106 -48c-3 -4 -7 -5 -11 -5c-7 0 -13 5 -13 13v230c0 9 7 16 15 15z" fill="currentColor"/>
</a>
<a style="color:inherit;" xlink:href="textedit:///home/mojzis/pers/noty/lilywork/score_only/narodil_se_kristus_pan.ly:7:33:34">
<circle transform="translate(27.3187, 6.7164)" stroke-linejoin="round" stroke-linecap="round" fill="currentColor" stroke="currentColor" stroke-width="0" r="0.5281"/>
<g color="rgb(100.0000%, 100.0000%, 100.0000%)">
<text transform="translate(26.9602, 7.0342)" font-family="sans-serif" font-weight="bold" font-size="0.8730" text-anchor="start" fill="currentColor">
<tspan>G</tspan>
</text>
</g>
</a>
<path transform="translate(21.4129, 7.2164) scale(0.0040, -0.0040)" d="M215 -316c0 -9 -8 -17 -17 -17s-17 8 -17 17v151l-87 -31v-162c0 -9 -8 -17 -17 -17s-17 8 -17 17v150l-39 -13c-10 -4 -21 4 -21 15v64c0 7 5 13 11 15l49 18v164l-39 -14c-10 -4 -21 4 -21 15v65c0 7 5 13 11 15l49 17v163c0 9 8 17 17 17s17 -8 17 -17v-151l87 31v162
c0 9 8 17 17 17s17 -8 17 -17v-150l39 13c10 4 21 -4 21 -15v-64c0 -7 -5 -13 -11 -15l-49 -18v-164l39 14c10 4 21 -4 21 -15v-65c0 -7 -5 -13 -11 -15l-49 -17v-163zM94 67v-164l87 30v164z" fill="currentColor"/>
<a style="color:inherit;" xlink:href="textedit:///home/mojzis/pers/noty/lilywork/score_only/narodil_se_kristus_pan.ly:7:13:14">
<path transform="translate(16.1536, 5.7164)" stroke-width="0.0450" stroke-linejoin="round" stroke-linecap="round" stroke="currentColor" fill="currentColor" d="M0.6209 4.0281C1.2614 4.3586 2.0672 4.1384 2.4506 3.5281L2.4506 3.5281C2.0494 4.0733 1.2436 4.2936 0.6209 4.0281z"/>
</a>
<a style="color:inherit;" xlink:href="textedit:///home/mojzis/pers/noty/lilywork/score_only/narodil_se_kristus_pan.ly:17:11:12">
<rect transform="translate(18.2986, 11.3082)" x="0.0000" y="-0.4930" width="0.6600" height="0.0730" ry="0.0225" fill="currentColor"/>
</a>
<polygon transform="translate(17.1368, 5.7164)" stroke-linejoin="round" stroke-linecap="round" stroke-width="0.0267" fill="currentColor" stroke="currentColor" points="1.8894 -0.4386 1.8894 0.0148 0.0133 0.2267 0.0133 -0.2267"/>
<rect transform="translate(34.7962, 5.7164)" x="-0.0365" y="-2.5000" width="0.0730" height="3.2370" ry="0.0133" fill="currentColor"/>
<a style="color:inherit;" xlink:href="textedit:///home/mojzis/pers/noty/lilywork/score_only/narodil_se_kristus_pan.ly:17:33:34">
<text transform="translate(32.3983, 11.3082)" font-family="serif" font-size="1.7463" text-anchor="start" fill="currentColor">
<tspan>Pán,</tspan>
</text>
</a>
<a style="color:inherit;" xlink:href="textedit:///home/mojzis/pers/noty/lilywork/score_only/narodil_se_kristus_pan.ly:7:43:44">
<path transform="translate(33.9405, 3.1883) scale(0.0022, -0.0022)" d="M147 479c-28 0 -58 -9 -58 -33c0 -22 36 -25 36 -47c0 -32 -25 -57 -57 -57s-57 25 -57 57c0 63 66 101 136 101c90 0 165 -35 165 -115c0 -44 -3 -83 -41 -101c-8 -4 -13 -12 -13 -20s5 -16 13 -20c41 -19 55 -58 55 -104c0 -91 -77 -140 -175 -140
c-77 0 -151 41 -151 111c0 36 29 65 65 65s65 -29 65 -65c0 -25 -40 -28 -40 -53c0 -26 31 -37 61 -37c50 0 66 61 66 119c0 62 -1 110 -54 110h-82c-9 0 -13 7 -13 14s4 13 13 13h82c52 0 54 47 54 108c0 56 -18 94 -70 94z" fill="currentColor"/>
</a>
<a style="color:inherit;" xlink:href="textedit:///home/mojzis/pers/noty/lilywork/score_only/narodil_se_kristus_pan.ly:7:41:42">
<circle transform="translate(34.3047, 6.7164)" stroke-linejoin="round" stroke-linecap="round" fill="currentColor" stroke="currentColor" stroke-width="0" r="0.5281"/>
<g color="rgb(100.0000%, 100.0000%, 100.0000%)">
<circle transform="translate(34.3047, 6.7164)" stroke-linejoin="round" stroke-linecap="round" fill="currentColor" stroke="currentColor" stroke-width="0" r="0.4550"/>
</g>
<text transform="translate(33.9462, 7.0342)" font-family="sans-serif" font-weight="bold" font-size="0.8730" text-anchor="start" fill="currentColor">
<tspan>G</tspan>
</text>
</a>
<a style="color:inherit;" xlink:href="textedit:///home/mojzis/pers/noty/lilywork/score_only/narodil_se_kristus_pan.ly:17:8:9">
<text transform="translate(16.1536, 11.3082)" font-family="serif" font-size="1.7463" text-anchor="start" fill="currentColor">
<tspan>ro</tspan>
</text>
</a>
<a style="color:inherit;" xlink:href="textedit:///home/mojzis/pers/noty/lilywork/score_only/narodil_se_kristus_pan.ly:7:11:12">
<path transform="translate(16.3517, 3.1883) scale(0.0022, -0.0022)" d="M164 487c17 0 54 29 54 -2v-376c0 -45 26 -88 68 -88c7 0 11 -5 11 -10s-4 -11 -11 -11c-41 0 -81 13 -122 13s-82 -13 -123 -13c-7 0 -11 6 -11 11s4 10 11 10c42 0 68 43 68 88v258c0 11 -8 17 -15 17c-4 0 -7 -2 -9 -6l-61 -139c-2 -6 -6 -8 -11 -8c-7 0 -14 5 -14 13
c0 2 0 4 1 6l109 250c2 5 9 3 15 0c13 -6 26 -13 40 -13z" fill="currentColor"/>
</a>
<a style="color:inherit;" xlink:href="textedit:///home/mojzis/pers/noty/lilywork/score_only/narodil_se_kristus_pan.ly:7:9:10">
<circle transform="translate(16.6817, 8.7164)" stroke-linejoin="round" stroke-linecap="round" fill="currentColor" stroke="currentColor" stroke-width="0" r="0.5281"/>
<g color="rgb(100.0000%, 100.0000%, 100.0000%)">
<text transform="translate(16.3630, 9.0342)" font-family="sans-serif" font-weight="bold" font-size="0.8730" text-anchor="start" fill="currentColor">
<tspan>C</tspan>
</text>
</g>
</a>
<rect transform="translate(17.1733, 5.7164)" x="-0.0365" y="-0.0041" width="0.0730" height="2.8113" ry="0.0133" fill="currentColor"/>
<rect transform="translate(14.4753, 5.7164)" x="-0.0365" y="-0.5000" width="0.0730" height="3.3072" ry="0.0133" fill="currentColor"/>
<a style="color:inherit;" xlink:href="textedit:///home/mojzis/pers/noty/lilywork/score_only/narodil_se_kristus_pan.ly:17:2:3">
<text transform="translate(12.7034, 11.3082)" font-family="serif" font-size="1.7463" text-anchor="start" fill="currentColor">
<tspan>Na</tspan>
</text>
</a>
<a style="color:inherit;" xlink:href="textedit:///home/mojzis/pers/noty/lilywork/score_only/narodil_se_kristus_pan.ly:6:4:5">
<path transform="translate(9.7421, 5.7164) scale(0.0040, -0.0040)" d="M360 25c-51 0 -76 43 -76 77c0 39 28 78 74 78c6 0 13 0 18 -1c-29 37 -76 60 -126 60c-106 0 -113 -73 -113 -185c0 -17 1 -35 1 -54s-1 -37 -1 -54c0 -112 7 -185 113 -185c82 0 145 68 164 151c1 6 6 9 10 9c6 0 11 -4 11 -11c0 -94 -107 -171 -185 -171
c-68 0 -137 20 -184 69c-49 51 -66 122 -66 192s17 141 66 192c47 49 116 69 184 69c88 0 163 -62 178 -148c1 -5 2 -9 2 -14c0 -40 -32 -74 -70 -74z" fill="currentColor"/>
</a>
<path transform="translate(5.5421, 6.7164) scale(0.0040, -0.0040)" d="M374 260c5 0 10 1 15 1c154 0 254 -127 254 -259c0 -76 -33 -153 -107 -208c-22 -17 -47 -29 -73 -37c3 -36 5 -72 5 -108c0 -19 0 -37 -1 -56c-7 -120 -88 -226 -206 -226c-108 0 -195 87 -195 195c0 58 53 104 112 104c54 0 95 -48 95 -104c0 -52 -43 -95 -95 -95
c-12 0 -24 4 -35 9c26 -41 70 -70 121 -70c1 0 2 1 3 1c93 2 154 93 160 192c1 18 2 35 2 53c0 32 -2 64 -5 96c-29 -5 -58 -8 -89 -8c-188 0 -333 171 -333 372c0 178 133 306 251 440c-18 63 -35 126 -42 191c-6 51 -7 102 -7 154c0 116 55 226 150 295c5 4 11 4 16 0
c70 -84 132 -246 132 -359c0 -144 -87 -256 -183 -365c20 -69 39 -138 55 -208zM459 -205c69 24 117 96 117 166c0 92 -69 184 -179 193c25 -117 48 -235 62 -359zM71 31c0 -136 131 -251 267 -251c28 0 55 2 82 6c-15 128 -38 247 -64 367c-79 -9 -125 -62 -125 -121
c0 -44 26 -92 82 -124c4 -4 7 -9 7 -14c0 -11 -9 -21 -20 -21c-3 0 -6 1 -9 2c-80 43 -116 114 -116 184c0 88 57 173 158 196c-14 60 -30 119 -46 178c-108 -121 -216 -242 -216 -402zM411 1050c-99 -50 -161 -151 -161 -262c0 -76 15 -137 33 -200c82 97 149 198 149 325
c0 58 -4 84 -21 137z" fill="currentColor"/>
<a style="color:inherit;" xlink:href="textedit:///home/mojzis/pers/noty/lilywork/score_only/narodil_se_kristus_pan.ly:7:6:7">
<path transform="translate(13.6537, 3.1883) scale(0.0022, -0.0022)" d="M164 487c17 0 54 29 54 -2v-376c0 -45 26 -88 68 -88c7 0 11 -5 11 -10s-4 -11 -11 -11c-41 0 -81 13 -122 13s-82 -13 -123 -13c-7 0 -11 6 -11 11s4 10 11 10c42 0 68 43 68 88v258c0 11 -8 17 -15 17c-4 0 -7 -2 -9 -6l-61 -139c-2 -6 -6 -8 -11 -8c-7 0 -14 5 -14 13
c0 2 0 4 1 6l109 250c2 5 9 3 15 0c13 -6 26 -13 40 -13z" fill="currentColor"/>
</a>
<a style="color:inherit;" xlink:href="textedit:///home/mojzis/pers/noty/lilywork/score_only/narodil_se_kristus_pan.ly:7:4:5">
<circle transform="translate(13.9838, 8.7164)" stroke-linejoin="round" stroke-linecap="round" fill="currentColor" stroke="currentColor" stroke-width="0" r="0.5281"/>
<g color="rgb(100.0000%, 100.0000%, 100.0000%)">
<text transform="translate(13.6651, 9.0342)" font-family="sans-serif" font-weight="bold" font-size="0.8730" text-anchor="start" fill="currentColor">
<tspan>C</tspan>
</text>
</g>
</a>
<a style="color:inherit;" xlink:href="textedit:///home/mojzis/pers/noty/lilywork/score_only/narodil_se_kristus_pan.ly:7:22:23">
<path transform="translate(19.9769, 3.1883) scale(0.0022, -0.0022)" d="M147 479c-28 0 -58 -9 -58 -33c0 -22 36 -25 36 -47c0 -32 -25 -57 -57 -57s-57 25 -57 57c0 63 66 101 136 101c90 0 165 -35 165 -115c0 -44 -3 -83 -41 -101c-8 -4 -13 -12 -13 -20s5 -16 13 -20c41 -19 55 -58 55 -104c0 -91 -77 -140 -175 -140
c-77 0 -151 41 -151 111c0 36 29 65 65 65s65 -29 65 -65c0 -25 -40 -28 -40 -53c0 -26 31 -37 61 -37c50 0 66 61 66 119c0 62 -1 110 -54 110h-82c-9 0 -13 7 -13 14s4 13 13 13h82c52 0 54 47 54 108c0 56 -18 94 -70 94z" fill="currentColor"/>
</a>
<rect transform="translate(23.8825, 5.7164)" x="-0.0365" y="-2.0000" width="0.0730" height="3.3072" ry="0.0133" fill="currentColor"/>
<a style="color:inherit;" xlink:href="textedit:///home/mojzis/pers/noty/lilywork/score_only/narodil_se_kristus_pan.ly:17:18:19">
<text transform="translate(22.4236, 11.3082)" font-family="serif" font-size="1.7463" text-anchor="start" fill="currentColor">
<tspan>se</tspan>
</text>
</a>
<a style="color:inherit;" xlink:href="textedit:///home/mojzis/pers/noty/lilywork/score_only/narodil_se_kristus_pan.ly:7:28:29">
<path transform="translate(22.9528, 3.1883) scale(0.0022, -0.0022)" d="M208 319c21 13 42 27 57 47c11 15 18 32 25 49c4 9 20 7 20 -7v-256h68c9 0 13 -7 13 -14s-4 -13 -13 -13h-68v-16c0 -45 26 -88 68 -88c7 0 10 -5 10 -10s-3 -11 -10 -11c-41 0 -82 13 -123 13s-82 -13 -123 -13c-7 0 -10 6 -10 11s3 10 10 10c42 0 68 43 68 88v16h-173
c-21 0 -29 13 -29 21c0 2 1 5 2 6c81 96 146 208 146 333c0 10 7 18 15 15c22 -7 44 -13 67 -13s45 6 67 13c12 4 21 -8 15 -15l-283 -333h173v147c0 8 2 16 8 20z" fill="currentColor"/>
</a>
<a style="color:inherit;" xlink:href="textedit:///home/mojzis/pers/noty/lilywork/score_only/narodil_se_kristus_pan.ly:7:25:26">
<circle transform="translate(23.3910, 7.2164)" stroke-linejoin="round" stroke-linecap="round" fill="currentColor" stroke="currentColor" stroke-width="0" r="0.5281"/>
<g color="rgb(100.0000%, 100.0000%, 100.0000%)">
<text transform="translate(23.0951, 7.5346)" font-family="sans-serif" font-weight="bold" font-size="0.8730" text-anchor="start" fill="currentColor">
<tspan>F</tspan>
</text>
</g>
</a>
<rect transform="translate(20.8326, 5.7164)" x="-0.0365" y="-1.5000" width="0.0730" height="3.3072" ry="0.0133" fill="currentColor"/>
<a style="color:inherit;" xlink:href="textedit:///home/mojzis/pers/noty/lilywork/score_only/narodil_se_kristus_pan.ly:17:14:15">
<text transform="translate(19.2257, 11.3082)" font-family="serif" font-size="1.7463" text-anchor="start" fill="currentColor">
<tspan>dil</tspan>
</text>
</a>
<a style="color:inherit;" xlink:href="textedit:///home/mojzis/pers/noty/lilywork/score_only/narodil_se_kristus_pan.ly:7:20:21">
<circle transform="translate(20.3411, 7.7164)" stroke-linejoin="round" stroke-linecap="round" fill="currentColor" stroke="currentColor" stroke-width="0" r="0.5281"/>
<g color="rgb(100.0000%, 100.0000%, 100.0000%)">
<text transform="translate(20.0452, 8.0346)" font-family="sans-serif" font-weight="bold" font-size="0.8730" text-anchor="start" fill="currentColor">
<tspan>E</tspan>
</text>
</g>
</a>
<rect transform="translate(19.0030, 5.7164)" x="-0.0365" y="-0.2078" width="0.0730" height="2.5151" ry="0.0133" fill="currentColor"/>
<a style="color:inherit;" xlink:href="textedit:///home/mojzis/pers/noty/lilywork/score_only/narodil_se_kristus_pan.ly:7:16:17">
<path transform="translate(18.1074, 3.1883) scale(0.0022, -0.0022)" d="M236 355c0 61 -22 124 -75 124c-25 0 -48 -14 -48 -37c0 -27 35 -41 35 -68c0 -38 -31 -69 -69 -69s-68 31 -68 69c0 75 71 126 150 126c95 0 184 -57 184 -145c0 -158 -162 -160 -257 -229c12 3 24 5 37 5c32 0 67 -10 101 -33c23 -16 49 -25 70 -25c20 0 37 8 42 28
c1 6 6 8 10 8c5 0 11 -4 11 -10c0 -63 -85 -99 -132 -99c-35 0 -69 14 -94 42c-14 16 -32 23 -50 23c-30 0 -59 -21 -62 -55c-1 -7 -5 -10 -10 -10c-6 0 -12 4 -11 12c15 174 236 164 236 343z" fill="currentColor"/>
</a>
<a style="color:inherit;" xlink:href="textedit:///home/mojzis/pers/noty/lilywork/score_only/narodil_se_kristus_pan.ly:7:15:16">
<circle transform="translate(18.5114, 8.2164)" stroke-linejoin="round" stroke-linecap="round" fill="currentColor" stroke="currentColor" stroke-width="0" r="0.5281"/>
<g color="rgb(100.0000%, 100.0000%, 100.0000%)">
<text transform="translate(18.1472, 8.5346)" font-family="sans-serif" font-weight="bold" font-size="0.8730" text-anchor="start" fill="currentColor">
<tspan>D</tspan>
</text>
</g>
</a>
<line transform="translate(1.8969, 21.9318)" stroke-linejoin="round" stroke-linecap="round" stroke-width="0.0562" stroke="currentColor" x1="0.0281" y1="-0.0000" x2="36.0121" y2="-0.0000"/>
<line transform="translate(1.8969, 20.9318)" stroke-linejoin="round" stroke-linecap="round" stroke-width="0.0562" stroke="currentColor" x1="0.0281" y1="-0.0000" x2="36.0121" y2="-0.0000"/>
<line transform="translate(1.8969, 19.9318)" stroke-linejoin="round" stroke-linecap="round" stroke-width="0.0562" stroke="currentColor" x1="0.0281" y1="-0.0000" x2="36.0121" y2="-0.0000"/>
<line transform="translate(1.8969, 18.9318)" stroke-linejoin="round" stroke-linecap="round" stroke-width="0.0562" stroke="currentColor" x1="0.0281" y1="-0.0000" x2="36.0121" y2="-0.0000"/>
<line transform="translate(1.8969, 17.9318)" stroke-linejoin="round" stroke-linecap="round" stroke-width="0.0562" stroke="currentColor" x1="0.0281" y1="-0.0000" x2="36.0121" y2="-0.0000"/>
<rect transform="translate(23.6959, 19.9318)" x="0.0000" y="-2.0000" width="0.1068" height="4.0000" ry="0.0000" fill="currentColor"/>
<rect transform="translate(37.8302, 19.9318)" x="0.0000" y="-2.0000" width="0.1068" height="4.0000" ry="0.0000" fill="currentColor"/>
<rect transform="translate(26.1782, 19.9318)" x="-0.0365" y="-2.5000" width="0.0730" height="3.2370" ry="0.0133" fill="currentColor"/>
<path transform="translate(26.6715, 20.4318) scale(0.0040, -0.0040)" d="M0 0c0 32 25 57 57 57s57 -25 57 -57s-25 -57 -57 -57s-57 25 -57 57z" fill="currentColor"/>
<a style="color:inherit;" xlink:href="textedit:///home/mojzis/pers/noty/lilywork/score_only/narodil_se_kristus_pan.ly:17:54:55">
<text transform="translate(24.4404, 25.4318)" font-family="serif" font-size="1.7463" text-anchor="start" fill="currentColor">
<tspan>se.</tspan>
</text>
</a>
<a style="color:inherit;" xlink:href="textedit:///home/mojzis/pers/noty/lilywork/score_only/narodil_se_kristus_pan.ly:7:69:70">
<path transform="translate(25.3225, 17.4037) scale(0.0022, -0.0022)" d="M147 479c-28 0 -58 -9 -58 -33c0 -22 36 -25 36 -47c0 -32 -25 -57 -57 -57s-57 25 -57 57c0 63 66 101 136 101c90 0 165 -35 165 -115c0 -44 -3 -83 -41 -101c-8 -4 -13 -12 -13 -20s5 -16 13 -20c41 -19 55 -58 55 -104c0 -91 -77 -140 -175 -140
c-77 0 -151 41 -151 111c0 36 29 65 65 65s65 -29 65 -65c0 -25 -40 -28 -40 -53c0 -26 31 -37 61 -37c50 0 66 61 66 119c0 62 -1 110 -54 110h-82c-9 0 -13 7 -13 14s4 13 13 13h82c52 0 54 47 54 108c0 56 -18 94 -70 94z" fill="currentColor"/>
</a>
<a style="color:inherit;" xlink:href="textedit:///home/mojzis/pers/noty/lilywork/score_only/narodil_se_kristus_pan.ly:7:66:67">
<circle transform="translate(25.6867, 20.9318)" stroke-linejoin="round" stroke-linecap="round" fill="currentColor" stroke="currentColor" stroke-width="0" r="0.5281"/>
<g color="rgb(100.0000%, 100.0000%, 100.0000%)">
<circle transform="translate(25.6867, 20.9318)" stroke-linejoin="round" stroke-linecap="round" fill="currentColor" stroke="currentColor" stroke-width="0" r="0.4550"/>
</g>
<text transform="translate(25.3282, 21.2495)" font-family="sans-serif" font-weight="bold" font-size="0.8730" text-anchor="start" fill="currentColor">
<tspan>G</tspan>
</text>
</a>
<a style="color:inherit;" xlink:href="textedit:///home/mojzis/pers/noty/lilywork/score_only/narodil_se_kristus_pan.ly:17:41:42">
<rect transform="translate(10.0156, 25.4318)" x="0.0000" y="-0.4930" width="0.6600" height="0.0730" ry="0.0225" fill="currentColor"/>
</a>
<a style="color:inherit;" xlink:href="textedit:///home/mojzis/pers/noty/lilywork/score_only/narodil_se_kristus_pan.ly:17:48:49">
<rect transform="translate(14.5584, 25.4318)" x="0.0000" y="-0.4930" width="0.6600" height="0.0730" ry="0.0225" fill="currentColor"/>
</a>
<a style="color:inherit;" xlink:href="textedit:///home/mojzis/pers/noty/lilywork/score_only/narodil_se_kristus_pan.ly:7:72:73">
<path transform="translate(33.4619, 19.9318) scale(0.0040, -0.0040)" d="M-23 -113c0 26 10 40 36 40c34 0 85 -15 130 -37l-137 164c-7 8 -10 17 -10 25c0 33 49 64 86 96c26 22 39 54 39 85c0 24 -8 47 -24 67l-39 46c-2 3 -3 6 -3 9c0 7 7 14 14 14c3 0 7 -1 10 -5l152 -182c7 -8 10 -17 10 -25c0 -33 -49 -64 -86 -96
c-26 -22 -39 -54 -39 -85c0 -24 8 -47 24 -67l87 -104c2 -3 3 -5 3 -8c0 -7 -7 -14 -14 -14c-3 0 -7 1 -10 5c-19 22 -66 43 -102 43c-40 0 -52 -29 -52 -70c0 -35 11 -75 28 -96c6 -7 -4 -16 -10 -9c-46 55 -93 150 -93 204z" fill="currentColor"/>
</a>
<path transform="translate(2.6969, 20.9318) scale(0.0040, -0.0040)" d="M374 260c5 0 10 1 15 1c154 0 254 -127 254 -259c0 -76 -33 -153 -107 -208c-22 -17 -47 -29 -73 -37c3 -36 5 -72 5 -108c0 -19 0 -37 -1 -56c-7 -120 -88 -226 -206 -226c-108 0 -195 87 -195 195c0 58 53 104 112 104c54 0 95 -48 95 -104c0 -52 -43 -95 -95 -95
c-12 0 -24 4 -35 9c26 -41 70 -70 121 -70c1 0 2 1 3 1c93 2 154 93 160 192c1 18 2 35 2 53c0 32 -2 64 -5 96c-29 -5 -58 -8 -89 -8c-188 0 -333 171 -333 372c0 178 133 306 251 440c-18 63 -35 126 -42 191c-6 51 -7 102 -7 154c0 116 55 226 150 295c5 4 11 4 16 0
c70 -84 132 -246 132 -359c0 -144 -87 -256 -183 -365c20 -69 39 -138 55 -208zM459 -205c69 24 117 96 117 166c0 92 -69 184 -179 193c25 -117 48 -235 62 -359zM71 31c0 -136 131 -251 267 -251c28 0 55 2 82 6c-15 128 -38 247 -64 367c-79 -9 -125 -62 -125 -121
c0 -44 26 -92 82 -124c4 -4 7 -9 7 -14c0 -11 -9 -21 -20 -21c-3 0 -6 1 -9 2c-80 43 -116 114 -116 184c0 88 57 173 158 196c-14 60 -30 119 -46 178c-108 -121 -216 -242 -216 -402zM411 1050c-99 -50 -161 -151 -161 -262c0 -76 15 -137 33 -200c82 97 149 198 149 325
c0 58 -4 84 -21 137z" fill="currentColor"/>
<a style="color:inherit;" xlink:href="textedit:///home/mojzis/pers/noty/lilywork/score_only/narodil_se_kristus_pan.ly:17:38:39">
<text transform="translate(7.2120, 25.4318)" font-family="serif" font-size="1.7463" text-anchor="start" fill="currentColor">
<tspan>ve</tspan>
</text>
</a>
<rect transform="translate(17.6656, 19.9318)" x="-0.0365" y="-3.0000" width="0.0730" height="3.2370" ry="0.0133" fill="currentColor"/>
<a style="color:inherit;" xlink:href="textedit:///home/mojzis/pers/noty/lilywork/score_only/narodil_se_kristus_pan.ly:7:48:49">
<circle transform="translate(8.2249, 21.4318)" stroke-linejoin="round" stroke-linecap="round" fill="currentColor" stroke="currentColor" stroke-width="0" r="0.5281"/>
<g color="rgb(100.0000%, 100.0000%, 100.0000%)">
<text transform="translate(7.9290, 21.7500)" font-family="sans-serif" font-weight="bold" font-size="0.8730" text-anchor="start" fill="currentColor">
<tspan>F</tspan>
</text>
</g>
</a>
<a style="color:inherit;" xlink:href="textedit:///home/mojzis/pers/noty/lilywork/score_only/narodil_se_kristus_pan.ly:7:52:53">
<path transform="translate(7.8209, 17.4037) scale(0.0022, -0.0022)" d="M236 355c0 61 -22 124 -75 124c-25 0 -48 -14 -48 -37c0 -27 35 -41 35 -68c0 -38 -31 -69 -69 -69s-68 31 -68 69c0 75 71 126 150 126c95 0 184 -57 184 -145c0 -158 -162 -160 -257 -229c12 3 24 5 37 5c32 0 67 -10 101 -33c23 -16 49 -25 70 -25c20 0 37 8 42 28
c1 6 6 8 10 8c5 0 11 -4 11 -10c0 -63 -85 -99 -132 -99c-35 0 -69 14 -94 42c-14 16 -32 23 -50 23c-30 0 -59 -21 -62 -55c-1 -7 -5 -10 -10 -10c-6 0 -12 4 -11 12c15 174 236 164 236 343z" fill="currentColor"/>
</a>
<text transform="translate(0.7815, 16.8789)" font-family="serif" font-size="1.7463" text-anchor="start" fill="currentColor">
<tspan>3</tspan>
</text>
<a style="color:inherit;" xlink:href="textedit:///home/mojzis/pers/noty/lilywork/score_only/narodil_se_kristus_pan.ly:7:56:57">
<path transform="translate(12.3353, 17.4037) scale(0.0022, -0.0022)" d="M147 479c-28 0 -58 -9 -58 -33c0 -22 36 -25 36 -47c0 -32 -25 -57 -57 -57s-57 25 -57 57c0 63 66 101 136 101c90 0 165 -35 165 -115c0 -44 -3 -83 -41 -101c-8 -4 -13 -12 -13 -20s5 -16 13 -20c41 -19 55 -58 55 -104c0 -91 -77 -140 -175 -140
c-77 0 -151 41 -151 111c0 36 29 65 65 65s65 -29 65 -65c0 -25 -40 -28 -40 -53c0 -26 31 -37 61 -37c50 0 66 61 66 119c0 62 -1 110 -54 110h-82c-9 0 -13 7 -13 14s4 13 13 13h82c52 0 54 47 54 108c0 56 -18 94 -70 94z" fill="currentColor"/>
</a>
<a style="color:inherit;" xlink:href="textedit:///home/mojzis/pers/noty/lilywork/score_only/narodil_se_kristus_pan.ly:17:51:52">
<text transform="translate(15.8310, 25.4318)" font-family="serif" font-size="1.7463" text-anchor="start" fill="currentColor">
<tspan>me</tspan>
</text>
</a>
<a style="color:inherit;" xlink:href="textedit:///home/mojzis/pers/noty/lilywork/score_only/narodil_se_kristus_pan.ly:7:61:62">
<path transform="translate(16.7358, 17.4037) scale(0.0022, -0.0022)" d="M208 319c21 13 42 27 57 47c11 15 18 32 25 49c4 9 20 7 20 -7v-256h68c9 0 13 -7 13 -14s-4 -13 -13 -13h-68v-16c0 -45 26 -88 68 -88c7 0 10 -5 10 -10s-3 -11 -10 -11c-41 0 -82 13 -123 13s-82 -13 -123 -13c-7 0 -10 6 -10 11s3 10 10 10c42 0 68 43 68 88v16h-173
c-21 0 -29 13 -29 21c0 2 1 5 2 6c81 96 146 208 146 333c0 10 7 18 15 15c22 -7 44 -13 67 -13s45 6 67 13c12 4 21 -8 15 -15l-283 -333h173v147c0 8 2 16 8 20z" fill="currentColor"/>
</a>
<a style="color:inherit;" xlink:href="textedit:///home/mojzis/pers/noty/lilywork/score_only/narodil_se_kristus_pan.ly:7:59:60">
<circle transform="translate(17.1740, 20.4318)" stroke-linejoin="round" stroke-linecap="round" fill="currentColor" stroke="currentColor" stroke-width="0" r="0.5281"/>
<g color="rgb(100.0000%, 100.0000%, 100.0000%)">
<circle transform="translate(17.1740, 20.4318)" stroke-linejoin="round" stroke-linecap="round" fill="currentColor" stroke="currentColor" stroke-width="0" r="0.4550"/>
</g>
<text transform="translate(16.8382, 20.7500)" font-family="sans-serif" font-weight="bold" font-size="0.8730" text-anchor="start" fill="currentColor">
<tspan>A</tspan>
</text>
</a>
<rect transform="translate(13.1910, 19.9318)" x="-0.0365" y="-2.5000" width="0.0730" height="3.3072" ry="0.0133" fill="currentColor"/>
<a style="color:inherit;" xlink:href="textedit:///home/mojzis/pers/noty/lilywork/score_only/narodil_se_kristus_pan.ly:17:44:45">
<text transform="translate(11.4532, 25.4318)" font-family="serif" font-size="1.7463" text-anchor="start" fill="currentColor">
<tspan>sel</tspan>
</text>
</a>
<rect transform="translate(8.7165, 19.9318)" x="-0.0365" y="-2.0000" width="0.0730" height="3.3072" ry="0.0133" fill="currentColor"/>
<a style="color:inherit;" xlink:href="textedit:///home/mojzis/pers/noty/lilywork/score_only/narodil_se_kristus_pan.ly:7:55:56">
<circle transform="translate(12.6995, 20.9318)" stroke-linejoin="round" stroke-linecap="round" fill="currentColor" stroke="currentColor" stroke-width="0" r="0.5281"/>
<g color="rgb(100.0000%, 100.0000%, 100.0000%)">
<text transform="translate(12.3410, 21.2495)" font-family="sans-serif" font-weight="bold" font-size="0.8730" text-anchor="start" fill="currentColor">
<tspan>G</tspan>
</text>
</g>
</a>
<path transform="translate(6.2469, 21.4318) scale(0.0040, -0.0040)" d="M215 -316c0 -9 -8 -17 -17 -17s-17 8 -17 17v151l-87 -31v-162c0 -9 -8 -17 -17 -17s-17 8 -17 17v150l-39 -13c-10 -4 -21 4 -21 15v64c0 7 5 13 11 15l49 18v164l-39 -14c-10 -4 -21 4 -21 15v65c0 7 5 13 11 15l49 17v163c0 9 8 17 17 17s17 -8 17 -17v-151l87 31v162
c0 9 8 17 17 17s17 -8 17 -17v-150l39 13c10 4 21 -4 21 -15v-64c0 -7 -5 -13 -11 -15l-49 -18v-164l39 14c10 4 21 -4 21 -15v-65c0 -7 -5 -13 -11 -15l-49 -17v-163zM94 67v-164l87 30v164z" fill="currentColor"/>
<line transform="translate(1.8969, 36.1471)" stroke-linejoin="round" stroke-linecap="round" stroke-width="0.0562" stroke="currentColor" x1="0.0281" y1="-0.0000" x2="36.0121" y2="-0.0000"/>
<line transform="translate(1.8969, 35.1471)" stroke-linejoin="round" stroke-linecap="round" stroke-width="0.0562" stroke="currentColor" x1="0.0281" y1="-0.0000" x2="36.0121" y2="-0.0000"/>
<line transform="translate(1.8969, 34.1471)" stroke-linejoin="round" stroke-linecap="round" stroke-width="0.0562" stroke="currentColor" x1="0.0281" y1="-0.0000" x2="36.0121" y2="-0.0000"/>
<line transform="translate(1.8969, 33.1471)" stroke-linejoin="round" stroke-linecap="round" stroke-width="0.0562" stroke="currentColor" x1="0.0281" y1="-0.0000" x2="36.0121" y2="-0.0000"/>
<line transform="translate(1.8969, 32.1471)" stroke-linejoin="round" stroke-linecap="round" stroke-width="0.0562" stroke="currentColor" x1="0.0281" y1="-0.0000" x2="36.0121" y2="-0.0000"/>
<rect transform="translate(22.6338, 34.1471)" x="0.0000" y="-2.0000" width="0.1068" height="4.0000" ry="0.0000" fill="currentColor"/>
<rect transform="translate(37.8302, 34.1471)" x="0.0000" y="-2.0000" width="0.1068" height="4.0000" ry="0.0000" fill="currentColor"/>
<rect transform="translate(28.5795, 34.1471)" x="-0.0365" y="-1.5000" width="0.0730" height="3.3072" ry="0.0133" fill="currentColor"/>
<a style="color:inherit;" xlink:href="textedit:///home/mojzis/pers/noty/lilywork/score_only/narodil_se_kristus_pan.ly:18:30:31">
<text transform="translate(26.1930, 39.6471)" font-family="serif" font-size="1.7463" text-anchor="start" fill="currentColor">
<tspan>kvet</tspan>
</text>
</a>
<a style="color:inherit;" xlink:href="textedit:///home/mojzis/pers/noty/lilywork/score_only/narodil_se_kristus_pan.ly:8:27:28">
<path transform="translate(27.7237, 31.6190) scale(0.0022, -0.0022)" d="M147 479c-28 0 -58 -9 -58 -33c0 -22 36 -25 36 -47c0 -32 -25 -57 -57 -57s-57 25 -57 57c0 63 66 101 136 101c90 0 165 -35 165 -115c0 -44 -3 -83 -41 -101c-8 -4 -13 -12 -13 -20s5 -16 13 -20c41 -19 55 -58 55 -104c0 -91 -77 -140 -175 -140
c-77 0 -151 41 -151 111c0 36 29 65 65 65s65 -29 65 -65c0 -25 -40 -28 -40 -53c0 -26 31 -37 61 -37c50 0 66 61 66 119c0 62 -1 110 -54 110h-82c-9 0 -13 7 -13 14s4 13 13 13h82c52 0 54 47 54 108c0 56 -18 94 -70 94z" fill="currentColor"/>
</a>
<a style="color:inherit;" xlink:href="textedit:///home/mojzis/pers/noty/lilywork/score_only/narodil_se_kristus_pan.ly:8:26:27">
<circle transform="translate(28.0879, 36.1471)" stroke-linejoin="round" stroke-linecap="round" fill="currentColor" stroke="currentColor" stroke-width="0" r="0.5281"/>
<g color="rgb(100.0000%, 100.0000%, 100.0000%)">
<text transform="translate(27.7920, 36.4653)" font-family="sans-serif" font-weight="bold" font-size="0.8730" text-anchor="start" fill="currentColor">
<tspan>E</tspan>
</text>
</g>
</a>
<rect transform="translate(24.9043, 34.1471)" x="-0.0365" y="-1.5000" width="0.0730" height="3.3072" ry="0.0133" fill="currentColor"/>
<a style="color:inherit;" xlink:href="textedit:///home/mojzis/pers/noty/lilywork/score_only/narodil_se_kristus_pan.ly:18:24:25">
<text transform="translate(23.4226, 39.6471)" font-family="serif" font-size="1.7463" text-anchor="start" fill="currentColor">
<tspan>vy</tspan>
</text>
</a>
<a style="color:inherit;" xlink:href="textedit:///home/mojzis/pers/noty/lilywork/score_only/narodil_se_kristus_pan.ly:8:23:24">
<path transform="translate(24.0485, 31.6190) scale(0.0022, -0.0022)" d="M147 479c-28 0 -58 -9 -58 -33c0 -22 36 -25 36 -47c0 -32 -25 -57 -57 -57s-57 25 -57 57c0 63 66 101 136 101c90 0 165 -35 165 -115c0 -44 -3 -83 -41 -101c-8 -4 -13 -12 -13 -20s5 -16 13 -20c41 -19 55 -58 55 -104c0 -91 -77 -140 -175 -140
c-77 0 -151 41 -151 111c0 36 29 65 65 65s65 -29 65 -65c0 -25 -40 -28 -40 -53c0 -26 31 -37 61 -37c50 0 66 61 66 119c0 62 -1 110 -54 110h-82c-9 0 -13 7 -13 14s4 13 13 13h82c52 0 54 47 54 108c0 56 -18 94 -70 94z" fill="currentColor"/>
</a>
<a style="color:inherit;" xlink:href="textedit:///home/mojzis/pers/noty/lilywork/score_only/narodil_se_kristus_pan.ly:8:22:23">
<circle transform="translate(24.4127, 36.1471)" stroke-linejoin="round" stroke-linecap="round" fill="currentColor" stroke="currentColor" stroke-width="0" r="0.5281"/>
<g color="rgb(100.0000%, 100.0000%, 100.0000%)">
<text transform="translate(24.1168, 36.4653)" font-family="sans-serif" font-weight="bold" font-size="0.8730" text-anchor="start" fill="currentColor">
<tspan>E</tspan>
</text>
</g>
</a>
<a style="color:inherit;" xlink:href="textedit:///home/mojzis/pers/noty/lilywork/score_only/narodil_se_kristus_pan.ly:18:7:8">
<rect transform="translate(10.1764, 39.6471)" x="0.0000" y="-0.4930" width="0.6600" height="0.0730" ry="0.0225" fill="currentColor"/>
</a>
<a style="color:inherit;" xlink:href="textedit:///home/mojzis/pers/noty/lilywork/score_only/narodil_se_kristus_pan.ly:18:17:18">
<rect transform="translate(17.0345, 39.6471)" x="0.0000" y="-0.4930" width="0.6600" height="0.0730" ry="0.0225" fill="currentColor"/>
</a>
<a style="color:inherit;" xlink:href="textedit:///home/mojzis/pers/noty/lilywork/score_only/narodil_se_kristus_pan.ly:18:27:28">
<rect transform="translate(25.4729, 39.6471)" x="0.0000" y="-0.4930" width="0.6501" height="0.0730" ry="0.0225" fill="currentColor"/>
</a>
<rect transform="translate(33.1096, 34.1471)" x="-0.0365" y="-1.0000" width="0.0730" height="3.2370" ry="0.0133" fill="currentColor"/>
<a style="color:inherit;" xlink:href="textedit:///home/mojzis/pers/noty/lilywork/score_only/narodil_se_kristus_pan.ly:18:35:36">
<text transform="translate(30.4329, 39.6471)" font-family="serif" font-size="1.7463" text-anchor="start" fill="currentColor">
<tspan>nám,</tspan>
</text>
</a>
<a style="color:inherit;" xlink:href="textedit:///home/mojzis/pers/noty/lilywork/score_only/narodil_se_kristus_pan.ly:8:32:33">
<path transform="translate(32.2140, 31.6190) scale(0.0022, -0.0022)" d="M236 355c0 61 -22 124 -75 124c-25 0 -48 -14 -48 -37c0 -27 35 -41 35 -68c0 -38 -31 -69 -69 -69s-68 31 -68 69c0 75 71 126 150 126c95 0 184 -57 184 -145c0 -158 -162 -160 -257 -229c12 3 24 5 37 5c32 0 67 -10 101 -33c23 -16 49 -25 70 -25c20 0 37 8 42 28
c1 6 6 8 10 8c5 0 11 -4 11 -10c0 -63 -85 -99 -132 -99c-35 0 -69 14 -94 42c-14 16 -32 23 -50 23c-30 0 -59 -21 -62 -55c-1 -7 -5 -10 -10 -10c-6 0 -12 4 -11 12c15 174 236 164 236 343z" fill="currentColor"/>
</a>
<a style="color:inherit;" xlink:href="textedit:///home/mojzis/pers/noty/lilywork/score_only/narodil_se_kristus_pan.ly:8:30:31">
<circle transform="translate(32.6180, 36.6471)" stroke-linejoin="round" stroke-linecap="round" fill="currentColor" stroke="currentColor" stroke-width="0" r="0.5281"/>
<g color="rgb(100.0000%, 100.0000%, 100.0000%)">
<circle transform="translate(32.6180, 36.6471)" stroke-linejoin="round" stroke-linecap="round" fill="currentColor" stroke="currentColor" stroke-width="0" r="0.4550"/>
</g>
<text transform="translate(32.2538, 36.9653)" font-family="sans-serif" font-weight="bold" font-size="0.8730" text-anchor="start" fill="currentColor">
<tspan>D</tspan>
</text>
</a>
<rect transform="translate(8.7165, 34.1471)" x="-0.0365" y="-2.5000" width="0.0730" height="3.3072" ry="0.0133" fill="currentColor"/>
<a style="color:inherit;" xlink:href="textedit:///home/mojzis/pers/noty/lilywork/score_only/narodil_se_kristus_pan.ly:18:2:3">
<text transform="translate(6.3584, 39.6471)" font-family="serif" font-size="1.7463" text-anchor="start" fill="currentColor">
<tspan>Z rů</tspan>
</text>
</a>
<a style="color:inherit;" xlink:href="textedit:///home/mojzis/pers/noty/lilywork/score_only/narodil_se_kristus_pan.ly:8:5:6">
<path transform="translate(7.8551, 31.6190) scale(0.0022, -0.0022)" d="M42 500c45 -8 91 -13 137 -13s92 5 137 13c13 2 21 -9 15 -15c-68 -68 -167 -87 -263 -87c-8 0 -15 -7 -15 -15v-108c28 28 65 47 104 47c115 0 184 -51 184 -161c0 -92 -83 -161 -179 -161c-82 0 -162 38 -162 111c0 36 29 65 65 65s65 -29 65 -65
c0 -25 -40 -28 -40 -53c0 -30 37 -37 72 -37c57 0 70 73 70 140c0 65 -18 134 -75 134c-42 0 -82 -15 -106 -48c-3 -4 -7 -5 -11 -5c-7 0 -13 5 -13 13v230c0 9 7 16 15 15z" fill="currentColor"/>
</a>
<a style="color:inherit;" xlink:href="textedit:///home/mojzis/pers/noty/lilywork/score_only/narodil_se_kristus_pan.ly:8:4:5">
<circle transform="translate(8.2249, 35.1471)" stroke-linejoin="round" stroke-linecap="round" fill="currentColor" stroke="currentColor" stroke-width="0" r="0.5281"/>
<g color="rgb(100.0000%, 100.0000%, 100.0000%)">
<text transform="translate(7.8664, 35.4649)" font-family="sans-serif" font-weight="bold" font-size="0.8730" text-anchor="start" fill="currentColor">
<tspan>G</tspan>
</text>
</g>
</a>
<path transform="translate(2.6969, 35.1471) scale(0.0040, -0.0040)" d="M374 260c5 0 10 1 15 1c154 0 254 -127 254 -259c0 -76 -33 -153 -107 -208c-22 -17 -47 -29 -73 -37c3 -36 5 -72 5 -108c0 -19 0 -37 -1 -56c-7 -120 -88 -226 -206 -226c-108 0 -195 87 -195 195c0 58 53 104 112 104c54 0 95 -48 95 -104c0 -52 -43 -95 -95 -95
c-12 0 -24 4 -35 9c26 -41 70 -70 121 -70c1 0 2 1 3 1c93 2 154 93 160 192c1 18 2 35 2 53c0 32 -2 64 -5 96c-29 -5 -58 -8 -89 -8c-188 0 -333 171 -333 372c0 178 133 306 251 440c-18 63 -35 126 -42 191c-6 51 -7 102 -7 154c0 116 55 226 150 295c5 4 11 4 16 0
c70 -84 132 -246 132 -359c0 -144 -87 -256 -183 -365c20 -69 39 -138 55 -208zM459 -205c69 24 117 96 117 166c0 92 -69 184 -179 193c25 -117 48 -235 62 -359zM71 31c0 -136 131 -251 267 -251c28 0 55 2 82 6c-15 128 -38 247 -64 367c-79 -9 -125 -62 -125 -121
c0 -44 26 -92 82 -124c4 -4 7 -9 7 -14c0 -11 -9 -21 -20 -21c-3 0 -6 1 -9 2c-80 43 -116 114 -116 184c0 88 57 173 158 196c-14 60 -30 119 -46 178c-108 -121 -216 -242 -216 -402zM411 1050c-99 -50 -161 -151 -161 -262c0 -76 15 -137 33 -200c82 97 149 198 149 325
c0 58 -4 84 -21 137z" fill="currentColor"/>
<text transform="translate(0.7815, 31.0943)" font-family="serif" font-size="1.7463" text-anchor="start" fill="currentColor">
<tspan>5</tspan>
</text>
<a style="color:inherit;" xlink:href="textedit:///home/mojzis/pers/noty/lilywork/score_only/narodil_se_kristus_pan.ly:8:8:9">
<circle transform="translate(11.9001, 35.1471)" stroke-linejoin="round" stroke-linecap="round" fill="currentColor" stroke="currentColor" stroke-width="0" r="0.5281"/>
<g color="rgb(100.0000%, 100.0000%, 100.0000%)">
<text transform="translate(11.5416, 35.4649)" font-family="sans-serif" font-weight="bold" font-size="0.8730" text-anchor="start" fill="currentColor">
<tspan>G</tspan>
</text>
</g>
</a>
<rect transform="translate(19.7421, 34.1471)" x="-0.0365" y="-2.0000" width="0.0730" height="3.3072" ry="0.0133" fill="currentColor"/>
<a style="color:inherit;" xlink:href="textedit:///home/mojzis/pers/noty/lilywork/score_only/narodil_se_kristus_pan.ly:18:20:21">
<text transform="translate(17.8506, 39.6471)" font-family="serif" font-size="1.7463" text-anchor="start" fill="currentColor">
<tspan>tek</tspan>
</text>
</a>
<a style="color:inherit;" xlink:href="textedit:///home/mojzis/pers/noty/lilywork/score_only/narodil_se_kristus_pan.ly:8:17:18">
<path transform="translate(18.8123, 31.6190) scale(0.0022, -0.0022)" d="M208 319c21 13 42 27 57 47c11 15 18 32 25 49c4 9 20 7 20 -7v-256h68c9 0 13 -7 13 -14s-4 -13 -13 -13h-68v-16c0 -45 26 -88 68 -88c7 0 10 -5 10 -10s-3 -11 -10 -11c-41 0 -82 13 -123 13s-82 -13 -123 -13c-7 0 -10 6 -10 11s3 10 10 10c42 0 68 43 68 88v16h-173
c-21 0 -29 13 -29 21c0 2 1 5 2 6c81 96 146 208 146 333c0 10 7 18 15 15c22 -7 44 -13 67 -13s45 6 67 13c12 4 21 -8 15 -15l-283 -333h173v147c0 8 2 16 8 20z" fill="currentColor"/>
</a>
<a style="color:inherit;" xlink:href="textedit:///home/mojzis/pers/noty/lilywork/score_only/narodil_se_kristus_pan.ly:8:16:17">
<circle transform="translate(19.2505, 35.6471)" stroke-linejoin="round" stroke-linecap="round" fill="currentColor" stroke="currentColor" stroke-width="0" r="0.5281"/>
<g color="rgb(100.0000%, 100.0000%, 100.0000%)">
<text transform="translate(18.9546, 35.9653)" font-family="sans-serif" font-weight="bold" font-size="0.8730" text-anchor="start" fill="currentColor">
<tspan>F</tspan>
</text>
</g>
</a>
<rect transform="translate(16.0669, 34.1471)" x="-0.0365" y="-2.0000" width="0.0730" height="3.3072" ry="0.0133" fill="currentColor"/>
<a style="color:inherit;" xlink:href="textedit:///home/mojzis/pers/noty/lilywork/score_only/narodil_se_kristus_pan.ly:18:13:14">
<text transform="translate(14.2722, 39.6471)" font-family="serif" font-size="1.7463" text-anchor="start" fill="currentColor">
<tspan>kví</tspan>
</text>
</a>
<a style="color:inherit;" xlink:href="textedit:///home/mojzis/pers/noty/lilywork/score_only/narodil_se_kristus_pan.ly:8:13:14">
<path transform="translate(15.1371, 31.6190) scale(0.0022, -0.0022)" d="M208 319c21 13 42 27 57 47c11 15 18 32 25 49c4 9 20 7 20 -7v-256h68c9 0 13 -7 13 -14s-4 -13 -13 -13h-68v-16c0 -45 26 -88 68 -88c7 0 10 -5 10 -10s-3 -11 -10 -11c-41 0 -82 13 -123 13s-82 -13 -123 -13c-7 0 -10 6 -10 11s3 10 10 10c42 0 68 43 68 88v16h-173
c-21 0 -29 13 -29 21c0 2 1 5 2 6c81 96 146 208 146 333c0 10 7 18 15 15c22 -7 44 -13 67 -13s45 6 67 13c12 4 21 -8 15 -15l-283 -333h173v147c0 8 2 16 8 20z" fill="currentColor"/>
</a>
<a style="color:inherit;" xlink:href="textedit:///home/mojzis/pers/noty/lilywork/score_only/narodil_se_kristus_pan.ly:8:12:13">
<circle transform="translate(15.5753, 35.6471)" stroke-linejoin="round" stroke-linecap="round" fill="currentColor" stroke="currentColor" stroke-width="0" r="0.5281"/>
<g color="rgb(100.0000%, 100.0000%, 100.0000%)">
<text transform="translate(15.2794, 35.9653)" font-family="sans-serif" font-weight="bold" font-size="0.8730" text-anchor="start" fill="currentColor">
<tspan>F</tspan>
</text>
</g>
</a>
<rect transform="translate(12.3917, 34.1471)" x="-0.0365" y="-2.5000" width="0.0730" height="3.3072" ry="0.0133" fill="currentColor"/>
<a style="color:inherit;" xlink:href="textedit:///home/mojzis/pers/noty/lilywork/score_only/narodil_se_kristus_pan.ly:18:10:11">
<text transform="translate(10.9214, 39.6471)" font-family="serif" font-size="1.7463" text-anchor="start" fill="currentColor">
<tspan>že</tspan>
</text>
</a>
<a style="color:inherit;" xlink:href="textedit:///home/mojzis/pers/noty/lilywork/score_only/narodil_se_kristus_pan.ly:8:9:10">
<path transform="translate(11.5302, 31.6190) scale(0.0022, -0.0022)" d="M42 500c45 -8 91 -13 137 -13s92 5 137 13c13 2 21 -9 15 -15c-68 -68 -167 -87 -263 -87c-8 0 -15 -7 -15 -15v-108c28 28 65 47 104 47c115 0 184 -51 184 -161c0 -92 -83 -161 -179 -161c-82 0 -162 38 -162 111c0 36 29 65 65 65s65 -29 65 -65
c0 -25 -40 -28 -40 -53c0 -30 37 -37 72 -37c57 0 70 73 70 140c0 65 -18 134 -75 134c-42 0 -82 -15 -106 -48c-3 -4 -7 -5 -11 -5c-7 0 -13 5 -13 13v230c0 9 7 16 15 15z" fill="currentColor"/>
</a>
<line transform="translate(1.8969, 50.3624)" stroke-linejoin="round" stroke-linecap="round" stroke-width="0.0562" stroke="currentColor" x1="0.0281" y1="-0.0000" x2="36.0121" y2="-0.0000"/>
<line transform="translate(1.8969, 49.3624)" stroke-linejoin="round" stroke-linecap="round" stroke-width="0.0562" stroke="currentColor" x1="0.0281" y1="-0.0000" x2="36.0121" y2="-0.0000"/>
<line transform="translate(1.8969, 48.3624)" stroke-linejoin="round" stroke-linecap="round" stroke-width="0.0562" stroke="currentColor" x1="0.0281" y1="-0.0000" x2="36.0121" y2="-0.0000"/>
<line transform="translate(1.8969, 47.3624)" stroke-linejoin="round" stroke-linecap="round" stroke-width="0.0562" stroke="currentColor" x1="0.0281" y1="-0.0000" x2="36.0121" y2="-0.0000"/>
<line transform="translate(1.8969, 46.3624)" stroke-linejoin="round" stroke-linecap="round" stroke-width="0.0562" stroke="currentColor" x1="0.0281" y1="-0.0000" x2="36.0121" y2="-0.0000"/>
<rect transform="translate(1.8969, 51.3624)" x="27.0091" y="-0.0781" width="1.5843" height="0.1562" ry="0.0781" fill="currentColor"/>
<rect transform="translate(28.0481, 48.3624)" x="0.0000" y="-2.0000" width="0.1068" height="4.0000" ry="0.0000" fill="currentColor"/>
<rect transform="translate(17.3200, 48.3624)" x="0.0000" y="-2.0000" width="0.1068" height="4.0000" ry="0.0000" fill="currentColor"/>
<rect transform="translate(37.8302, 48.3624)" x="0.0000" y="-2.0000" width="0.1068" height="4.0000" ry="0.0000" fill="currentColor"/>
<rect transform="translate(30.1897, 48.3624)" x="-0.0365" y="-0.5000" width="0.0730" height="3.2370" ry="0.0133" fill="currentColor"/>
<path transform="translate(30.6830, 50.8624) scale(0.0040, -0.0040)" d="M0 0c0 32 25 57 57 57s57 -25 57 -57s-25 -57 -57 -57s-57 25 -57 57z" fill="currentColor"/>
<a style="color:inherit;" xlink:href="textedit:///home/mojzis/pers/noty/lilywork/score_only/narodil_se_kristus_pan.ly:18:56:57">
<text transform="translate(28.4519, 53.8104)" font-family="serif" font-size="1.7463" text-anchor="start" fill="currentColor">
<tspan>se.</tspan>
</text>
</a>
<a style="color:inherit;" xlink:href="textedit:///home/mojzis/pers/noty/lilywork/score_only/narodil_se_kristus_pan.ly:8:60:61">
<path transform="translate(29.3681, 45.8343) scale(0.0022, -0.0022)" d="M164 487c17 0 54 29 54 -2v-376c0 -45 26 -88 68 -88c7 0 11 -5 11 -10s-4 -11 -11 -11c-41 0 -81 13 -122 13s-82 -13 -123 -13c-7 0 -11 6 -11 11s4 10 11 10c42 0 68 43 68 88v258c0 11 -8 17 -15 17c-4 0 -7 -2 -9 -6l-61 -139c-2 -6 -6 -8 -11 -8c-7 0 -14 5 -14 13
c0 2 0 4 1 6l109 250c2 5 9 3 15 0c13 -6 26 -13 40 -13z" fill="currentColor"/>
</a>
<a style="color:inherit;" xlink:href="textedit:///home/mojzis/pers/noty/lilywork/score_only/narodil_se_kristus_pan.ly:8:57:58">
<circle transform="translate(29.6981, 51.3624)" stroke-linejoin="round" stroke-linecap="round" fill="currentColor" stroke="currentColor" stroke-width="0" r="0.5281"/>
<g color="rgb(100.0000%, 100.0000%, 100.0000%)">
<circle transform="translate(29.6981, 51.3624)" stroke-linejoin="round" stroke-linecap="round" fill="currentColor" stroke="currentColor" stroke-width="0" r="0.4550"/>
</g>
<text transform="translate(29.3795, 51.6802)" font-family="sans-serif" font-weight="bold" font-size="0.8730" text-anchor="start" fill="currentColor">
<tspan>C</tspan>
</text>
</a>
<rect transform="translate(24.1575, 48.3624)" x="-0.0365" y="-1.0000" width="0.0730" height="3.2370" ry="0.0133" fill="currentColor"/>
<a style="color:inherit;" xlink:href="textedit:///home/mojzis/pers/noty/lilywork/score_only/narodil_se_kristus_pan.ly:8:51:52">
<path transform="translate(23.2619, 45.8343) scale(0.0022, -0.0022)" d="M236 355c0 61 -22 124 -75 124c-25 0 -48 -14 -48 -37c0 -27 35 -41 35 -68c0 -38 -31 -69 -69 -69s-68 31 -68 69c0 75 71 126 150 126c95 0 184 -57 184 -145c0 -158 -162 -160 -257 -229c12 3 24 5 37 5c32 0 67 -10 101 -33c23 -16 49 -25 70 -25c20 0 37 8 42 28
c1 6 6 8 10 8c5 0 11 -4 11 -10c0 -63 -85 -99 -132 -99c-35 0 -69 14 -94 42c-14 16 -32 23 -50 23c-30 0 -59 -21 -62 -55c-1 -7 -5 -10 -10 -10c-6 0 -12 4 -11 12c15 174 236 164 236 343z" fill="currentColor"/>
</a>
<a style="color:inherit;" xlink:href="textedit:///home/mojzis/pers/noty/lilywork/score_only/narodil_se_kristus_pan.ly:8:50:51">
<circle transform="translate(23.6660, 50.8624)" stroke-linejoin="round" stroke-linecap="round" fill="currentColor" stroke="currentColor" stroke-width="0" r="0.5281"/>
<g color="rgb(100.0000%, 100.0000%, 100.0000%)">
<circle transform="translate(23.6660, 50.8624)" stroke-linejoin="round" stroke-linecap="round" fill="currentColor" stroke="currentColor" stroke-width="0" r="0.4550"/>
</g>
<text transform="translate(23.3018, 51.1806)" font-family="sans-serif" font-weight="bold" font-size="0.8730" text-anchor="start" fill="currentColor">
<tspan>D</tspan>
</text>
</a>
<a style="color:inherit;" xlink:href="textedit:///home/mojzis/pers/noty/lilywork/score_only/narodil_se_kristus_pan.ly:18:43:44">
<rect transform="translate(10.0125, 53.8104)" x="0.0000" y="-0.4930" width="0.6600" height="0.0730" ry="0.0225" fill="currentColor"/>
</a>
<a style="color:inherit;" xlink:href="textedit:///home/mojzis/pers/noty/lilywork/score_only/narodil_se_kristus_pan.ly:18:50:51">
<rect transform="translate(16.0485, 53.8104)" x="0.0000" y="-0.4930" width="0.6600" height="0.0730" ry="0.0225" fill="currentColor"/>
</a>
<a style="color:inherit;" xlink:href="textedit:///home/mojzis/pers/noty/lilywork/score_only/narodil_se_kristus_pan.ly:8:48:49">
<path transform="translate(18.4419, 48.3624)" stroke-width="0.0450" stroke-linejoin="round" stroke-linecap="round" stroke="currentColor" fill="currentColor" d="M0.4908 3.0281C1.4835 4.1250 3.9854 4.3914 5.1868 3.5281L5.1868 3.5281C3.9925 4.3244 1.4906 4.0580 0.4908 3.0281z"/>
</a>
<a style="color:inherit;" xlink:href="textedit:///home/mojzis/pers/noty/lilywork/score_only/narodil_se_kristus_pan.ly:8:63:64">
<path transform="translate(34.7476, 48.3624) scale(0.0040, -0.0040)" d="M-23 -113c0 26 10 40 36 40c34 0 85 -15 130 -37l-137 164c-7 8 -10 17 -10 25c0 33 49 64 86 96c26 22 39 54 39 85c0 24 -8 47 -24 67l-39 46c-2 3 -3 6 -3 9c0 7 7 14 14 14c3 0 7 -1 10 -5l152 -182c7 -8 10 -17 10 -25c0 -33 -49 -64 -86 -96
c-26 -22 -39 -54 -39 -85c0 -24 8 -47 24 -67l87 -104c2 -3 3 -5 3 -8c0 -7 -7 -14 -14 -14c-3 0 -7 1 -10 5c-19 22 -66 43 -102 43c-40 0 -52 -29 -52 -70c0 -35 11 -75 28 -96c6 -7 -4 -16 -10 -9c-46 55 -93 150 -93 204z" fill="currentColor"/>
</a>
<rect transform="translate(8.7165, 48.3624)" x="-0.0365" y="-1.5000" width="0.0730" height="3.2370" ry="0.0133" fill="currentColor"/>
<a style="color:inherit;" xlink:href="textedit:///home/mojzis/pers/noty/lilywork/score_only/narodil_se_kristus_pan.ly:18:40:41">
<text transform="translate(7.2917, 53.8104)" font-family="serif" font-size="1.7463" text-anchor="start" fill="currentColor">
<tspan>ra</tspan>
</text>
</a>
<a style="color:inherit;" xlink:href="textedit:///home/mojzis/pers/noty/lilywork/score_only/narodil_se_kristus_pan.ly:8:38:39">
<path transform="translate(7.8608, 45.8343) scale(0.0022, -0.0022)" d="M147 479c-28 0 -58 -9 -58 -33c0 -22 36 -25 36 -47c0 -32 -25 -57 -57 -57s-57 25 -57 57c0 63 66 101 136 101c90 0 165 -35 165 -115c0 -44 -3 -83 -41 -101c-8 -4 -13 -12 -13 -20s5 -16 13 -20c41 -19 55 -58 55 -104c0 -91 -77 -140 -175 -140
c-77 0 -151 41 -151 111c0 36 29 65 65 65s65 -29 65 -65c0 -25 -40 -28 -40 -53c0 -26 31 -37 61 -37c50 0 66 61 66 119c0 62 -1 110 -54 110h-82c-9 0 -13 7 -13 14s4 13 13 13h82c52 0 54 47 54 108c0 56 -18 94 -70 94z" fill="currentColor"/>
</a>
<a style="color:inherit;" xlink:href="textedit:///home/mojzis/pers/noty/lilywork/score_only/narodil_se_kristus_pan.ly:8:37:38">
<circle transform="translate(8.2249, 50.3624)" stroke-linejoin="round" stroke-linecap="round" fill="currentColor" stroke="currentColor" stroke-width="0" r="0.5281"/>
<g color="rgb(100.0000%, 100.0000%, 100.0000%)">
<circle transform="translate(8.2249, 50.3624)" stroke-linejoin="round" stroke-linecap="round" fill="currentColor" stroke="currentColor" stroke-width="0" r="0.4550"/>
</g>
<text transform="translate(7.9290, 50.6806)" font-family="sans-serif" font-weight="bold" font-size="0.8730" text-anchor="start" fill="currentColor">
<tspan>E</tspan>
</text>
</a>
<path transform="translate(2.6969, 49.3624) scale(0.0040, -0.0040)" d="M374 260c5 0 10 1 15 1c154 0 254 -127 254 -259c0 -76 -33 -153 -107 -208c-22 -17 -47 -29 -73 -37c3 -36 5 -72 5 -108c0 -19 0 -37 -1 -56c-7 -120 -88 -226 -206 -226c-108 0 -195 87 -195 195c0 58 53 104 112 104c54 0 95 -48 95 -104c0 -52 -43 -95 -95 -95
c-12 0 -24 4 -35 9c26 -41 70 -70 121 -70c1 0 2 1 3 1c93 2 154 93 160 192c1 18 2 35 2 53c0 32 -2 64 -5 96c-29 -5 -58 -8 -89 -8c-188 0 -333 171 -333 372c0 178 133 306 251 440c-18 63 -35 126 -42 191c-6 51 -7 102 -7 154c0 116 55 226 150 295c5 4 11 4 16 0
c70 -84 132 -246 132 -359c0 -144 -87 -256 -183 -365c20 -69 39 -138 55 -208zM459 -205c69 24 117 96 117 166c0 92 -69 184 -179 193c25 -117 48 -235 62 -359zM71 31c0 -136 131 -251 267 -251c28 0 55 2 82 6c-15 128 -38 247 -64 367c-79 -9 -125 -62 -125 -121
c0 -44 26 -92 82 -124c4 -4 7 -9 7 -14c0 -11 -9 -21 -20 -21c-3 0 -6 1 -9 2c-80 43 -116 114 -116 184c0 88 57 173 158 196c-14 60 -30 119 -46 178c-108 -121 -216 -242 -216 -402zM411 1050c-99 -50 -161 -151 -161 -262c0 -76 15 -137 33 -200c82 97 149 198 149 325
c0 58 -4 84 -21 137z" fill="currentColor"/>
<text transform="translate(0.7815, 45.3343)" font-family="serif" font-size="1.7463" text-anchor="start" fill="currentColor">
<tspan>7</tspan>
</text>
<a style="color:inherit;" xlink:href="textedit:///home/mojzis/pers/noty/lilywork/score_only/narodil_se_kristus_pan.ly:8:46:47">
<path transform="translate(18.6058, 45.8343) scale(0.0022, -0.0022)" d="M147 479c-28 0 -58 -9 -58 -33c0 -22 36 -25 36 -47c0 -32 -25 -57 -57 -57s-57 25 -57 57c0 63 66 101 136 101c90 0 165 -35 165 -115c0 -44 -3 -83 -41 -101c-8 -4 -13 -12 -13 -20s5 -16 13 -20c41 -19 55 -58 55 -104c0 -91 -77 -140 -175 -140
c-77 0 -151 41 -151 111c0 36 29 65 65 65s65 -29 65 -65c0 -25 -40 -28 -40 -53c0 -26 31 -37 61 -37c50 0 66 61 66 119c0 62 -1 110 -54 110h-82c-9 0 -13 7 -13 14s4 13 13 13h82c52 0 54 47 54 108c0 56 -18 94 -70 94z" fill="currentColor"/>
</a>
<rect transform="translate(19.4616, 48.3624)" x="-0.0365" y="-1.5000" width="0.0730" height="3.2370" ry="0.0133" fill="currentColor"/>
<a style="color:inherit;" xlink:href="textedit:///home/mojzis/pers/noty/lilywork/score_only/narodil_se_kristus_pan.ly:18:53:54">
<text transform="translate(18.4419, 53.8104)" font-family="serif" font-size="1.7463" text-anchor="start" fill="currentColor">
<tspan>me</tspan>
</text>
</a>
<a style="color:inherit;" xlink:href="textedit:///home/mojzis/pers/noty/lilywork/score_only/narodil_se_kristus_pan.ly:8:45:46">
<circle transform="translate(18.9700, 50.3624)" stroke-linejoin="round" stroke-linecap="round" fill="currentColor" stroke="currentColor" stroke-width="0" r="0.5281"/>
<g color="rgb(100.0000%, 100.0000%, 100.0000%)">
<circle transform="translate(18.9700, 50.3624)" stroke-linejoin="round" stroke-linecap="round" fill="currentColor" stroke="currentColor" stroke-width="0" r="0.4550"/>
</g>
<text transform="translate(18.6741, 50.6806)" font-family="sans-serif" font-weight="bold" font-size="0.8730" text-anchor="start" fill="currentColor">
<tspan>E</tspan>
</text>
</a>
<a style="color:inherit;" xlink:href="textedit:///home/mojzis/pers/noty/lilywork/score_only/narodil_se_kristus_pan.ly:8:41:42">
<circle transform="translate(12.9209, 49.8624)" stroke-linejoin="round" stroke-linecap="round" fill="currentColor" stroke="currentColor" stroke-width="0" r="0.5281"/>
<g color="rgb(100.0000%, 100.0000%, 100.0000%)">
<circle transform="translate(12.9209, 49.8624)" stroke-linejoin="round" stroke-linecap="round" fill="currentColor" stroke="currentColor" stroke-width="0" r="0.4550"/>
</g>
<text transform="translate(12.6250, 50.1806)" font-family="sans-serif" font-weight="bold" font-size="0.8730" text-anchor="start" fill="currentColor">
<tspan>F</tspan>
</text>
</a>
<a style="color:inherit;" xlink:href="textedit:///home/mojzis/pers/noty/lilywork/score_only/narodil_se_kristus_pan.ly:8:42:43">
<path transform="translate(12.4827, 45.8343) scale(0.0022, -0.0022)" d="M208 319c21 13 42 27 57 47c11 15 18 32 25 49c4 9 20 7 20 -7v-256h68c9 0 13 -7 13 -14s-4 -13 -13 -13h-68v-16c0 -45 26 -88 68 -88c7 0 10 -5 10 -10s-3 -11 -10 -11c-41 0 -82 13 -123 13s-82 -13 -123 -13c-7 0 -10 6 -10 11s3 10 10 10c42 0 68 43 68 88v16h-173
c-21 0 -29 13 -29 21c0 2 1 5 2 6c81 96 146 208 146 333c0 10 7 18 15 15c22 -7 44 -13 67 -13s45 6 67 13c12 4 21 -8 15 -15l-283 -333h173v147c0 8 2 16 8 20z" fill="currentColor"/>
</a>
<a style="color:inherit;" xlink:href="textedit:///home/mojzis/pers/noty/lilywork/score_only/narodil_se_kristus_pan.ly:18:46:47">
<text transform="translate(11.5267, 53.8104)" font-family="serif" font-size="1.7463" text-anchor="start" fill="currentColor">
<tspan>duj</tspan>
</text>
</a>
<rect transform="translate(13.4125, 48.3624)" x="-0.0365" y="-2.0000" width="0.0730" height="3.2370" ry="0.0133" fill="currentColor"/>
</svg>
