<svg xmlns="http://www.w3.org/2000/svg" xmlns:xlink="http://www.w3.org/1999/xlink" version="1.2" width="210.00mm" height="297.00mm" viewBox="0 0 39.8339 56.3365">
<style text="style/css">
<![CDATA[
tspan { white-space: pre; }
]]>
</style>
<!-- Page: 2/2 -->
<text transform="translate(1.8969, 2.5813)" font-family="serif" font-size="2.2001" text-anchor="start" fill="currentColor">
<tspan>2</tspan>
</text>
<text transform="translate(37.9370, 2.5813)" font-family="serif" font-size="2.2001" text-anchor="start" fill="currentColor">
<tspan/>
</text>
<line transform="translate(1.8969, 9.8824)" stroke-linejoin="round" stroke-linecap="round" stroke-width="0.0562" stroke="currentColor" x1="0.0281" y1="-0.0000" x2="36.0121" y2="-0.0000"/>
<line transform="translate(1.8969, 8.8824)" stroke-linejoin="round" stroke-linecap="round" stroke-width="0.0562" stroke="currentColor" x1="0.0281" y1="-0.0000" x2="36.0121" y2="-0.0000"/>
<line transform="translate(1.8969, 7.8824)" stroke-linejoin="round" stroke-linecap="round" stroke-width="0.0562" stroke="currentColor" x1="0.0281" y1="-0.0000" x2="36.0121" y2="-0.0000"/>
<line transform="translate(1.8969, 6.8824)" stroke-linejoin="round" stroke-linecap="round" stroke-width="0.0562" stroke="currentColor" x1="0.0281" y1="-0.0000" x2="36.0121" y2="-0.0000"/>
<line transform="translate(1.8969, 5.8824)" stroke-linejoin="round" stroke-linecap="round" stroke-width="0.0562" stroke="currentColor" x1="0.0281" y1="-0.0000" x2="36.0121" y2="-0.0000"/>
<rect transform="translate(1.8969, 10.8824)" x="26.1654" y="-0.0781" width="1.5843" height="0.1562" ry="0.0781" fill="currentColor"/>
<rect transform="translate(25.9574, 7.8824)" x="0.0000" y="-2.0000" width="0.1068" height="4.0000" ry="0.0000" fill="currentColor"/>
<rect transform="translate(37.5999, 7.8824)" x="0.0000" y="-2.0000" width="0.3371" height="4.0000" ry="0.0000" fill="currentColor"/>
<rect transform="translate(37.3245, 7.8824)" x="0.0000" y="-2.0000" width="0.1068" height="4.0000" ry="0.0000" fill="currentColor"/>
<rect transform="translate(29.3460, 7.8824)" x="-0.0365" y="-0.5000" width="0.0730" height="3.2370" ry="0.0133" fill="currentColor"/>
<path transform="translate(29.8393, 10.3824) scale(0.0040, -0.0040)" d="M0 0c0 32 25 57 57 57s57 -25 57 -57s-25 -57 -57 -57s-57 25 -57 57z" fill="currentColor"/>
<a style="color:inherit;" xlink:href="textedit:///home/mojzis/pers/noty/lilywork/score_only/nesem_vam_noviny.ly:31:72:73">
<text transform="translate(28.0805, 13.3824)" font-family="serif" font-size="1.5556" text-anchor="start" fill="currentColor">
<tspan>te</tspan>
</text>
</a>
<a style="color:inherit;" xlink:href="textedit:///home/mojzis/pers/noty/lilywork/score_only/nesem_vam_noviny.ly:20:44:45">
<path transform="translate(28.5243, 5.3543) scale(0.0022, -0.0022)" d="M164 487c17 0 54 29 54 -2v-376c0 -45 26 -88 68 -88c7 0 11 -5 11 -10s-4 -11 -11 -11c-41 0 -81 13 -122 13s-82 -13 -123 -13c-7 0 -11 6 -11 11s4 10 11 10c42 0 68 43 68 88v258c0 11 -8 17 -15 17c-4 0 -7 -2 -9 -6l-61 -139c-2 -6 -6 -8 -11 -8c-7 0 -14 5 -14 13
c0 2 0 4 1 6l109 250c2 5 9 3 15 0c13 -6 26 -13 40 -13z" fill="currentColor"/>
</a>
<a style="color:inherit;" xlink:href="textedit:///home/mojzis/pers/noty/lilywork/score_only/nesem_vam_noviny.ly:20:41:42">
<circle transform="translate(28.8544, 10.8824)" stroke-linejoin="round" stroke-linecap="round" fill="currentColor" stroke="currentColor" stroke-width="0" r="0.5281"/>
<g color="rgb(100.0000%, 100.0000%, 100.0000%)">
<circle transform="translate(28.8544, 10.8824)" stroke-linejoin="round" stroke-linecap="round" fill="currentColor" stroke="currentColor" stroke-width="0" r="0.4550"/>
</g>
<text transform="translate(28.5357, 11.2002)" font-family="sans-serif" font-weight="bold" font-size="0.8730" text-anchor="start" fill="currentColor">
<tspan>C</tspan>
</text>
</a>
<rect transform="translate(23.5191, 7.8824)" x="-0.0365" y="-0.9977" width="0.0730" height="2.8049" ry="0.0133" fill="currentColor"/>
<a style="color:inherit;" xlink:href="textedit:///home/mojzis/pers/noty/lilywork/score_only/nesem_vam_noviny.ly:20:35:36">
<path transform="translate(22.6634, 5.3543) scale(0.0022, -0.0022)" d="M147 479c-28 0 -58 -9 -58 -33c0 -22 36 -25 36 -47c0 -32 -25 -57 -57 -57s-57 25 -57 57c0 63 66 101 136 101c90 0 165 -35 165 -115c0 -44 -3 -83 -41 -101c-8 -4 -13 -12 -13 -20s5 -16 13 -20c41 -19 55 -58 55 -104c0 -91 -77 -140 -175 -140
c-77 0 -151 41 -151 111c0 36 29 65 65 65s65 -29 65 -65c0 -25 -40 -28 -40 -53c0 -26 31 -37 61 -37c50 0 66 61 66 119c0 62 -1 110 -54 110h-82c-9 0 -13 7 -13 14s4 13 13 13h82c52 0 54 47 54 108c0 56 -18 94 -70 94z" fill="currentColor"/>
</a>
<a style="color:inherit;" xlink:href="textedit:///home/mojzis/pers/noty/lilywork/score_only/nesem_vam_noviny.ly:20:32:33">
<circle transform="translate(23.0275, 9.8824)" stroke-linejoin="round" stroke-linecap="round" fill="currentColor" stroke="currentColor" stroke-width="0" r="0.5281"/>
<g color="rgb(100.0000%, 100.0000%, 100.0000%)">
<text transform="translate(22.7316, 10.2007)" font-family="sans-serif" font-weight="bold" font-size="0.8730" text-anchor="start" fill="currentColor">
<tspan>E</tspan>
</text>
</g>
</a>
<a style="color:inherit;" xlink:href="textedit:///home/mojzis/pers/noty/lilywork/score_only/nesem_vam_noviny.ly:31:56:57">
<rect transform="translate(10.8227, 13.3824)" x="0.0000" y="-0.4930" width="0.6600" height="0.0730" ry="0.0225" fill="currentColor"/>
</a>
<a style="color:inherit;" xlink:href="textedit:///home/mojzis/pers/noty/lilywork/score_only/nesem_vam_noviny.ly:20:19:20">
<polygon transform="translate(13.8173, 6.6705)" stroke-linejoin="round" stroke-linecap="round" stroke-width="0.0267" fill="currentColor" stroke="currentColor" points="3.5315 -0.8029 3.5315 -0.3495 0.0133 0.2267 0.0133 -0.2267"/>
</a>
<a style="color:inherit;" xlink:href="textedit:///home/mojzis/pers/noty/lilywork/score_only/nesem_vam_noviny.ly:20:18:19">
<path transform="translate(12.8342, 7.8824)" stroke-width="0.0450" stroke-linejoin="round" stroke-linecap="round" stroke="currentColor" fill="currentColor" d="M0.6118 3.0281C1.6745 3.6048 3.4075 3.1805 4.0836 2.1781L4.0836 2.1781C3.3915 3.1150 1.6584 3.5393 0.6118 3.0281z"/>
</a>
<a style="color:inherit;" xlink:href="textedit:///home/mojzis/pers/noty/lilywork/score_only/nesem_vam_noviny.ly:31:62:63">
<rect transform="translate(16.2153, 13.3824)" x="0.0000" y="-0.4930" width="0.6600" height="0.0730" ry="0.0225" fill="currentColor"/>
</a>
<a style="color:inherit;" xlink:href="textedit:///home/mojzis/pers/noty/lilywork/score_only/nesem_vam_noviny.ly:20:30:31">
<path transform="translate(19.2777, 7.8824)" stroke-width="0.0450" stroke-linejoin="round" stroke-linecap="round" stroke="currentColor" fill="currentColor" d="M0.5821 3.5281C1.5214 4.1501 3.0973 3.9056 3.8038 3.0281L3.8038 3.0281C3.0870 3.8389 1.5110 4.0835 0.5821 3.5281z"/>
</a>
<a style="color:inherit;" xlink:href="textedit:///home/mojzis/pers/noty/lilywork/score_only/nesem_vam_noviny.ly:31:69:70">
<rect transform="translate(24.7888, 13.3824)" x="0.0000" y="-0.4930" width="0.6600" height="0.0730" ry="0.0225" fill="currentColor"/>
</a>
<polygon transform="translate(20.2608, 7.0943)" stroke-linejoin="round" stroke-linecap="round" stroke-width="0.0267" fill="currentColor" stroke="currentColor" points="3.2815 -0.4386 3.2815 0.0148 0.0133 0.2267 0.0133 -0.2267"/>
<rect transform="translate(8.7165, 7.8824)" x="-0.0365" y="-2.5000" width="0.0730" height="3.3072" ry="0.0133" fill="currentColor"/>
<a style="color:inherit;" xlink:href="textedit:///home/mojzis/pers/noty/lilywork/score_only/nesem_vam_noviny.ly:31:52:53">
<text transform="translate(6.9787, 13.3824)" font-family="serif" font-size="1.5556" text-anchor="start" fill="currentColor">
<tspan>roz</tspan>
</text>
</a>
<a style="color:inherit;" xlink:href="textedit:///home/mojzis/pers/noty/lilywork/score_only/nesem_vam_noviny.ly:20:9:10">
<path transform="translate(7.8551, 5.3543) scale(0.0022, -0.0022)" d="M42 500c45 -8 91 -13 137 -13s92 5 137 13c13 2 21 -9 15 -15c-68 -68 -167 -87 -263 -87c-8 0 -15 -7 -15 -15v-108c28 28 65 47 104 47c115 0 184 -51 184 -161c0 -92 -83 -161 -179 -161c-82 0 -162 38 -162 111c0 36 29 65 65 65s65 -29 65 -65
c0 -25 -40 -28 -40 -53c0 -30 37 -37 72 -37c57 0 70 73 70 140c0 65 -18 134 -75 134c-42 0 -82 -15 -106 -48c-3 -4 -7 -5 -11 -5c-7 0 -13 5 -13 13v230c0 9 7 16 15 15z" fill="currentColor"/>
</a>
<a style="color:inherit;" xlink:href="textedit:///home/mojzis/pers/noty/lilywork/score_only/nesem_vam_noviny.ly:20:6:7">
<circle transform="translate(8.2249, 8.8824)" stroke-linejoin="round" stroke-linecap="round" fill="currentColor" stroke="currentColor" stroke-width="0" r="0.5281"/>
<g color="rgb(100.0000%, 100.0000%, 100.0000%)">
<text transform="translate(7.8664, 9.2002)" font-family="sans-serif" font-weight="bold" font-size="0.8730" text-anchor="start" fill="currentColor">
<tspan>G</tspan>
</text>
</g>
</a>
<path transform="translate(2.6969, 8.8824) scale(0.0040, -0.0040)" d="M374 260c5 0 10 1 15 1c154 0 254 -127 254 -259c0 -76 -33 -153 -107 -208c-22 -17 -47 -29 -73 -37c3 -36 5 -72 5 -108c0 -19 0 -37 -1 -56c-7 -120 -88 -226 -206 -226c-108 0 -195 87 -195 195c0 58 53 104 112 104c54 0 95 -48 95 -104c0 -52 -43 -95 -95 -95
c-12 0 -24 4 -35 9c26 -41 70 -70 121 -70c1 0 2 1 3 1c93 2 154 93 160 192c1 18 2 35 2 53c0 32 -2 64 -5 96c-29 -5 -58 -8 -89 -8c-188 0 -333 171 -333 372c0 178 133 306 251 440c-18 63 -35 126 -42 191c-6 51 -7 102 -7 154c0 116 55 226 150 295c5 4 11 4 16 0
c70 -84 132 -246 132 -359c0 -144 -87 -256 -183 -365c20 -69 39 -138 55 -208zM459 -205c69 24 117 96 117 166c0 92 -69 184 -179 193c25 -117 48 -235 62 -359zM71 31c0 -136 131 -251 267 -251c28 0 55 2 82 6c-15 128 -38 247 -64 367c-79 -9 -125 -62 -125 -121
c0 -44 26 -92 82 -124c4 -4 7 -9 7 -14c0 -11 -9 -21 -20 -21c-3 0 -6 1 -9 2c-80 43 -116 114 -116 184c0 88 57 173 158 196c-14 60 -30 119 -46 178c-108 -121 -216 -242 -216 -402zM411 1050c-99 -50 -161 -151 -161 -262c0 -76 15 -137 33 -200c82 97 149 198 149 325
c0 58 -4 84 -21 137z" fill="currentColor"/>
<text transform="translate(0.7815, 4.8543)" font-family="serif" font-size="1.7463" text-anchor="start" fill="currentColor">
<tspan>7</tspan>
</text>
<a style="color:inherit;" xlink:href="textedit:///home/mojzis/pers/noty/lilywork/score_only/nesem_vam_noviny.ly:20:12:13">
<circle transform="translate(13.3623, 9.8824)" stroke-linejoin="round" stroke-linecap="round" fill="currentColor" stroke="currentColor" stroke-width="0" r="0.5281"/>
<g color="rgb(100.0000%, 100.0000%, 100.0000%)">
<text transform="translate(13.0664, 10.2007)" font-family="sans-serif" font-weight="bold" font-size="0.8730" text-anchor="start" fill="currentColor">
<tspan>E</tspan>
</text>
</g>
</a>
<rect transform="translate(20.2974, 7.8824)" x="-0.0365" y="-0.7904" width="0.0730" height="3.0977" ry="0.0133" fill="currentColor"/>
<a style="color:inherit;" xlink:href="textedit:///home/mojzis/pers/noty/lilywork/score_only/nesem_vam_noviny.ly:31:65:66">
<text transform="translate(19.2777, 13.3824)" font-family="serif" font-size="1.5556" text-anchor="start" fill="currentColor">
<tspan>mej</tspan>
</text>
</a>
<a style="color:inherit;" xlink:href="textedit:///home/mojzis/pers/noty/lilywork/score_only/nesem_vam_noviny.ly:20:28:29">
<path transform="translate(19.4018, 5.3543) scale(0.0022, -0.0022)" d="M236 355c0 61 -22 124 -75 124c-25 0 -48 -14 -48 -37c0 -27 35 -41 35 -68c0 -38 -31 -69 -69 -69s-68 31 -68 69c0 75 71 126 150 126c95 0 184 -57 184 -145c0 -158 -162 -160 -257 -229c12 3 24 5 37 5c32 0 67 -10 101 -33c23 -16 49 -25 70 -25c20 0 37 8 42 28
c1 6 6 8 10 8c5 0 11 -4 11 -10c0 -63 -85 -99 -132 -99c-35 0 -69 14 -94 42c-14 16 -32 23 -50 23c-30 0 -59 -21 -62 -55c-1 -7 -5 -10 -10 -10c-6 0 -12 4 -11 12c15 174 236 164 236 343z" fill="currentColor"/>
</a>
<a style="color:inherit;" xlink:href="textedit:///home/mojzis/pers/noty/lilywork/score_only/nesem_vam_noviny.ly:20:27:28">
<circle transform="translate(19.8058, 10.3824)" stroke-linejoin="round" stroke-linecap="round" fill="currentColor" stroke="currentColor" stroke-width="0" r="0.5281"/>
<g color="rgb(100.0000%, 100.0000%, 100.0000%)">
<text transform="translate(19.4416, 10.7007)" font-family="sans-serif" font-weight="bold" font-size="0.8730" text-anchor="start" fill="currentColor">
<tspan>D</tspan>
</text>
</g>
</a>
<rect transform="translate(17.3256, 7.8824)" x="-0.0365" y="-1.7822" width="0.0730" height="2.5894" ry="0.0133" fill="currentColor"/>
<a style="color:inherit;" xlink:href="textedit:///home/mojzis/pers/noty/lilywork/score_only/nesem_vam_noviny.ly:20:22:23">
<path transform="translate(16.4641, 5.3543) scale(0.0022, -0.0022)" d="M42 500c45 -8 91 -13 137 -13s92 5 137 13c13 2 21 -9 15 -15c-68 -68 -167 -87 -263 -87c-8 0 -15 -7 -15 -15v-108c28 28 65 47 104 47c115 0 184 -51 184 -161c0 -92 -83 -161 -179 -161c-82 0 -162 38 -162 111c0 36 29 65 65 65s65 -29 65 -65
c0 -25 -40 -28 -40 -53c0 -30 37 -37 72 -37c57 0 70 73 70 140c0 65 -18 134 -75 134c-42 0 -82 -15 -106 -48c-3 -4 -7 -5 -11 -5c-7 0 -13 5 -13 13v230c0 9 7 16 15 15z" fill="currentColor"/>
</a>
<a style="color:inherit;" xlink:href="textedit:///home/mojzis/pers/noty/lilywork/score_only/nesem_vam_noviny.ly:20:21:22">
<circle transform="translate(16.8340, 8.8824)" stroke-linejoin="round" stroke-linecap="round" fill="currentColor" stroke="currentColor" stroke-width="0" r="0.5281"/>
<g color="rgb(100.0000%, 100.0000%, 100.0000%)">
<text transform="translate(16.4755, 9.2002)" font-family="sans-serif" font-weight="bold" font-size="0.8730" text-anchor="start" fill="currentColor">
<tspan>G</tspan>
</text>
</g>
</a>
<rect transform="translate(13.8538, 7.8824)" x="-0.0365" y="-1.2178" width="0.0730" height="3.0251" ry="0.0133" fill="currentColor"/>
<a style="color:inherit;" xlink:href="textedit:///home/mojzis/pers/noty/lilywork/score_only/nesem_vam_noviny.ly:31:59:60">
<text transform="translate(12.8342, 13.3824)" font-family="serif" font-size="1.5556" text-anchor="start" fill="currentColor">
<tspan>jí</tspan>
</text>
</a>
<a style="color:inherit;" xlink:href="textedit:///home/mojzis/pers/noty/lilywork/score_only/nesem_vam_noviny.ly:20:16:17">
<path transform="translate(12.9981, 5.3543) scale(0.0022, -0.0022)" d="M147 479c-28 0 -58 -9 -58 -33c0 -22 36 -25 36 -47c0 -32 -25 -57 -57 -57s-57 25 -57 57c0 63 66 101 136 101c90 0 165 -35 165 -115c0 -44 -3 -83 -41 -101c-8 -4 -13 -12 -13 -20s5 -16 13 -20c41 -19 55 -58 55 -104c0 -91 -77 -140 -175 -140
c-77 0 -151 41 -151 111c0 36 29 65 65 65s65 -29 65 -65c0 -25 -40 -28 -40 -53c0 -26 31 -37 61 -37c50 0 66 61 66 119c0 62 -1 110 -54 110h-82c-9 0 -13 7 -13 14s4 13 13 13h82c52 0 54 47 54 108c0 56 -18 94 -70 94z" fill="currentColor"/>
</a>
<a transform="translate(-10.9543, 54.7095)" xlink:href="http://lilypond.org/">
<rect x="0.0000" y="-0.4888" width="61.7425" height="2.1603" fill="none" stroke="none" stroke-width="0.0"/>
</a>
<text transform="translate(-10.9543, 54.7095)" font-family="serif" font-size="2.2001" text-anchor="start" fill="currentColor">
<tspan>Music engraving by LilyPond 2.20.0—www.lilypond.org</tspan>
</text>
</svg>
