<svg xmlns="http://www.w3.org/2000/svg" xmlns:xlink="http://www.w3.org/1999/xlink" version="1.2" width="193.30mm" height="59.23mm" viewBox="-1.1046 -0.0320 64.7049 19.8265">
<style text="style/css">
<![CDATA[
tspan { white-space: pre; }
]]>
</style>
<line transform="translate(5.0211, 5.7680)" stroke-linejoin="round" stroke-linecap="round" stroke-width="0.0729" stroke="currentColor" x1="0.0365" y1="-0.0000" x2="58.5427" y2="-0.0000"/>
<line transform="translate(5.0211, 4.7680)" stroke-linejoin="round" stroke-linecap="round" stroke-width="0.0729" stroke="currentColor" x1="0.0365" y1="-0.0000" x2="58.5427" y2="-0.0000"/>
<line transform="translate(5.0211, 3.7680)" stroke-linejoin="round" stroke-linecap="round" stroke-width="0.0729" stroke="currentColor" x1="0.0365" y1="-0.0000" x2="58.5427" y2="-0.0000"/>
<line transform="translate(5.0211, 2.7680)" stroke-linejoin="round" stroke-linecap="round" stroke-width="0.0729" stroke="currentColor" x1="0.0365" y1="-0.0000" x2="58.5427" y2="-0.0000"/>
<line transform="translate(5.0211, 1.7680)" stroke-linejoin="round" stroke-linecap="round" stroke-width="0.0729" stroke="currentColor" x1="0.0365" y1="-0.0000" x2="58.5427" y2="-0.0000"/>
<rect transform="translate(63.4617, 3.7680)" x="0.0000" y="-2.0000" width="0.1386" height="4.0000" ry="0.0000" fill="currentColor"/>
<rect transform="translate(57.6547, 3.7680)" x="0.0000" y="-2.0000" width="0.1386" height="4.0000" ry="0.0000" fill="currentColor"/>
<rect transform="translate(51.1964, 3.7680)" x="0.0000" y="-2.0000" width="0.1386" height="4.0000" ry="0.0000" fill="currentColor"/>
<rect transform="translate(44.4552, 3.7680)" x="0.0000" y="-2.0000" width="0.1386" height="4.0000" ry="0.0000" fill="currentColor"/>
<rect transform="translate(37.6540, 3.7680)" x="0.0000" y="-2.0000" width="0.1386" height="4.0000" ry="0.0000" fill="currentColor"/>
<rect transform="translate(31.8304, 3.7680)" x="0.0000" y="-2.0000" width="0.1386" height="4.0000" ry="0.0000" fill="currentColor"/>
<rect transform="translate(25.3504, 3.7680)" x="0.0000" y="-2.0000" width="0.1386" height="4.0000" ry="0.0000" fill="currentColor"/>
<rect transform="translate(18.8705, 3.7680)" x="0.0000" y="-2.0000" width="0.1386" height="4.0000" ry="0.0000" fill="currentColor"/>
<rect transform="translate(0.0000, 6.7680)" x="59.3009" y="-0.0865" width="1.6094" height="0.1729" ry="0.0865" fill="currentColor"/>
<a style="color:inherit;" xlink:href="textedit:///home/mojzis/pers/noty/lilywork/score_only/pasli_ovce_valasi.ly:14:60:61">
<circle transform="translate(48.8765, 5.2680)" stroke-linejoin="round" stroke-linecap="round" fill="currentColor" stroke="currentColor" stroke-width="0" r="0.5365"/>
<g color="rgb(100.0000%, 100.0000%, 100.0000%)">
<text transform="translate(48.5752, 5.5862)" font-family="sans-serif" font-weight="bold" font-size="0.8731" text-anchor="start" fill="currentColor">
<tspan>F</tspan>
</text>
</g>
</a>
<a style="color:inherit;" xlink:href="textedit:///home/mojzis/pers/noty/lilywork/score_only/pasli_ovce_valasi.ly:14:61:62">
<path transform="translate(48.4647, 1.2315) scale(0.0022, -0.0022)" d="M235 355c0 60 -18 122 -70 122c-26 0 -51 -14 -51 -37c0 -27 35 -41 35 -68c0 -38 -30 -69 -68 -69s-69 31 -69 69c0 76 72 128 153 128c96 0 187 -56 187 -145c0 -153 -151 -159 -249 -220c9 2 17 3 26 3c33 0 70 -11 105 -36c21 -15 46 -23 66 -23c21 0 39 9 44 29
c2 6 6 9 11 9c6 0 12 -5 12 -12c0 -1 -1 -2 -1 -3c-17 -65 -78 -102 -137 -102c-36 0 -71 14 -96 44c-13 16 -31 22 -48 22c-30 0 -59 -20 -62 -55c-1 -7 -6 -11 -11 -11c-6 0 -12 4 -12 11c0 175 235 165 235 344z" fill="currentColor"/>
</a>
<a style="color:inherit;" xlink:href="textedit:///home/mojzis/pers/noty/lilywork/score_only/pasli_ovce_valasi.ly:22:54:55">
<text transform="translate(47.5409, 9.2680)" font-family="serif" font-size="1.5557" text-anchor="start" fill="currentColor">
<tspan>ské</tspan>
</text>
</a>
<rect transform="translate(49.3655, 3.7680)" x="-0.0474" y="-2.0000" width="0.0948" height="3.3042" ry="0.0235" fill="currentColor"/>
<a style="color:inherit;" xlink:href="textedit:///home/mojzis/pers/noty/lilywork/score_only/pasli_ovce_valasi.ly:14:66:67">
<circle transform="translate(52.7360, 5.7680)" stroke-linejoin="round" stroke-linecap="round" fill="currentColor" stroke="currentColor" stroke-width="0" r="0.5365"/>
<g color="rgb(100.0000%, 100.0000%, 100.0000%)">
<text transform="translate(52.4347, 6.0862)" font-family="sans-serif" font-weight="bold" font-size="0.8731" text-anchor="start" fill="currentColor">
<tspan>E</tspan>
</text>
</g>
</a>
<a style="color:inherit;" xlink:href="textedit:///home/mojzis/pers/noty/lilywork/score_only/pasli_ovce_valasi.ly:14:67:68">
<path transform="translate(52.3845, 1.2315) scale(0.0022, -0.0022)" d="M175 487c18 0 58 31 58 -3v-367c0 -48 28 -94 73 -94c8 0 12 -5 12 -11s-4 -12 -12 -12c-44 0 -87 13 -131 13s-87 -13 -131 -13c-8 0 -12 6 -12 12s4 11 12 11c45 0 73 46 73 94v245c0 12 -9 19 -17 19c-4 0 -8 -3 -10 -7l-64 -136c-3 -6 -7 -9 -12 -9
c-8 0 -16 6 -16 14c0 2 1 5 2 7l117 250c3 6 10 3 16 0c13 -6 27 -13 42 -13z" fill="currentColor"/>
</a>
<a style="color:inherit;" xlink:href="textedit:///home/mojzis/pers/noty/lilywork/score_only/pasli_ovce_valasi.ly:22:58:59">
<text transform="translate(51.8724, 9.2680)" font-family="serif" font-size="1.5557" text-anchor="start" fill="currentColor">
<tspan>sa</tspan>
</text>
</a>
<rect transform="translate(53.2251, 3.7680)" x="-0.0474" y="-1.5000" width="0.0948" height="3.3042" ry="0.0235" fill="currentColor"/>
<a style="color:inherit;" xlink:href="textedit:///home/mojzis/pers/noty/lilywork/score_only/pasli_ovce_valasi.ly:14:50:51">
<circle transform="translate(42.1709, 4.7680)" stroke-linejoin="round" stroke-linecap="round" fill="currentColor" stroke="currentColor" stroke-width="0" r="0.5365"/>
<g color="rgb(100.0000%, 100.0000%, 100.0000%)">
<text transform="translate(41.8094, 5.0858)" font-family="sans-serif" font-weight="bold" font-size="0.8731" text-anchor="start" fill="currentColor">
<tspan>G</tspan>
</text>
</g>
</a>
<a style="color:inherit;" xlink:href="textedit:///home/mojzis/pers/noty/lilywork/score_only/pasli_ovce_valasi.ly:14:51:52">
<path transform="translate(41.7994, 1.2315) scale(0.0022, -0.0022)" d="M150 477c-29 0 -59 -8 -59 -33c0 -22 36 -25 36 -47c0 -32 -26 -58 -58 -58s-57 26 -57 58c0 65 67 103 138 103c91 0 169 -33 169 -114c0 -43 -4 -82 -42 -100c-9 -4 -14 -12 -14 -21s5 -18 14 -22c41 -19 56 -57 56 -103c0 -92 -79 -140 -179 -140
c-79 0 -154 42 -154 113c0 36 30 66 66 66s65 -30 65 -66c0 -25 -40 -28 -40 -53c0 -27 32 -37 63 -37c49 0 63 61 63 117v16c0 54 -2 94 -50 94h-80c-10 0 -14 8 -14 15s4 14 14 14h80c49 0 50 43 50 99v8c0 54 -18 91 -67 91z" fill="currentColor"/>
</a>
<a style="color:inherit;" xlink:href="textedit:///home/mojzis/pers/noty/lilywork/score_only/pasli_ovce_valasi.ly:22:40:41">
<text transform="translate(40.8956, 9.2680)" font-family="serif" font-size="1.5557" text-anchor="start" fill="currentColor">
<tspan>bet</tspan>
</text>
</a>
<rect transform="translate(42.6600, 3.7680)" x="-0.0474" y="-2.5000" width="0.0948" height="3.3042" ry="0.0235" fill="currentColor"/>
<a style="color:inherit;" xlink:href="textedit:///home/mojzis/pers/noty/lilywork/score_only/pasli_ovce_valasi.ly:14:56:57">
<circle transform="translate(45.9948, 4.7680)" stroke-linejoin="round" stroke-linecap="round" fill="currentColor" stroke="currentColor" stroke-width="0" r="0.5365"/>
<g color="rgb(100.0000%, 100.0000%, 100.0000%)">
<text transform="translate(45.6333, 5.0858)" font-family="sans-serif" font-weight="bold" font-size="0.8731" text-anchor="start" fill="currentColor">
<tspan>G</tspan>
</text>
</g>
</a>
<a style="color:inherit;" xlink:href="textedit:///home/mojzis/pers/noty/lilywork/score_only/pasli_ovce_valasi.ly:14:57:58">
<path transform="translate(45.6232, 1.2315) scale(0.0022, -0.0022)" d="M150 477c-29 0 -59 -8 -59 -33c0 -22 36 -25 36 -47c0 -32 -26 -58 -58 -58s-57 26 -57 58c0 65 67 103 138 103c91 0 169 -33 169 -114c0 -43 -4 -82 -42 -100c-9 -4 -14 -12 -14 -21s5 -18 14 -22c41 -19 56 -57 56 -103c0 -92 -79 -140 -179 -140
c-79 0 -154 42 -154 113c0 36 30 66 66 66s65 -30 65 -66c0 -25 -40 -28 -40 -53c0 -27 32 -37 63 -37c49 0 63 61 63 117v16c0 54 -2 94 -50 94h-80c-10 0 -14 8 -14 15s4 14 14 14h80c49 0 50 43 50 99v8c0 54 -18 91 -67 91z" fill="currentColor"/>
</a>
<a style="color:inherit;" xlink:href="textedit:///home/mojzis/pers/noty/lilywork/score_only/pasli_ovce_valasi.ly:22:47:48">
<text transform="translate(44.5487, 9.2680)" font-family="serif" font-size="1.5557" text-anchor="start" fill="currentColor">
<tspan>lém</tspan>
</text>
</a>
<rect transform="translate(46.4838, 3.7680)" x="-0.0474" y="-2.5000" width="0.0948" height="3.3042" ry="0.0235" fill="currentColor"/>
<a style="color:inherit;" xlink:href="textedit:///home/mojzis/pers/noty/lilywork/score_only/pasli_ovce_valasi.ly:22:67:68">
<rect transform="translate(57.4311, 9.2680)" x="0.0000" y="-0.5148" width="0.6600" height="0.0948" ry="0.0292" fill="currentColor"/>
</a>
<a style="color:inherit;" xlink:href="textedit:///home/mojzis/pers/noty/lilywork/score_only/pasli_ovce_valasi.ly:22:61:62">
<rect transform="translate(53.7915, 9.2680)" x="0.0000" y="-0.5148" width="0.6600" height="0.0948" ry="0.0292" fill="currentColor"/>
</a>
<a style="color:inherit;" xlink:href="textedit:///home/mojzis/pers/noty/lilywork/score_only/pasli_ovce_valasi.ly:22:44:45">
<rect transform="translate(43.6675, 9.2680)" x="0.0000" y="-0.5148" width="0.6600" height="0.0948" ry="0.0292" fill="currentColor"/>
</a>
<a style="color:inherit;" xlink:href="textedit:///home/mojzis/pers/noty/lilywork/score_only/pasli_ovce_valasi.ly:22:30:31">
<rect transform="translate(31.5960, 9.2680)" x="0.0000" y="-0.5148" width="0.6600" height="0.0948" ry="0.0292" fill="currentColor"/>
</a>
<a style="color:inherit;" xlink:href="textedit:///home/mojzis/pers/noty/lilywork/score_only/pasli_ovce_valasi.ly:22:24:25">
<rect transform="translate(27.9656, 9.2680)" x="0.0000" y="-0.5148" width="0.6600" height="0.0948" ry="0.0292" fill="currentColor"/>
</a>
<a style="color:inherit;" xlink:href="textedit:///home/mojzis/pers/noty/lilywork/score_only/pasli_ovce_valasi.ly:22:15:16">
<rect transform="translate(21.4003, 9.2680)" x="0.0000" y="-0.5148" width="0.6600" height="0.0948" ry="0.0292" fill="currentColor"/>
</a>
<a style="color:inherit;" xlink:href="textedit:///home/mojzis/pers/noty/lilywork/score_only/pasli_ovce_valasi.ly:22:5:6">
<rect transform="translate(15.1481, 9.2680)" x="0.0000" y="-0.5148" width="0.4643" height="0.0948" ry="0.0292" fill="currentColor"/>
</a>
<a style="color:inherit;" xlink:href="textedit:///home/mojzis/pers/noty/lilywork/score_only/pasli_ovce_valasi.ly:14:78:79">
<path transform="translate(59.6938, 1.2315) scale(0.0022, -0.0022)" d="M235 355c0 60 -18 122 -70 122c-26 0 -51 -14 -51 -37c0 -27 35 -41 35 -68c0 -38 -30 -69 -68 -69s-69 31 -69 69c0 76 72 128 153 128c96 0 187 -56 187 -145c0 -153 -151 -159 -249 -220c9 2 17 3 26 3c33 0 70 -11 105 -36c21 -15 46 -23 66 -23c21 0 39 9 44 29
c2 6 6 9 11 9c6 0 12 -5 12 -12c0 -1 -1 -2 -1 -3c-17 -65 -78 -102 -137 -102c-36 0 -71 14 -96 44c-13 16 -31 22 -48 22c-30 0 -59 -20 -62 -55c-1 -7 -6 -11 -11 -11c-6 0 -12 4 -12 11c0 175 235 165 235 344z" fill="currentColor"/>
</a>
<a style="color:inherit;" xlink:href="textedit:///home/mojzis/pers/noty/lilywork/score_only/pasli_ovce_valasi.ly:14:70:71">
<circle transform="translate(55.3564, 6.2680)" stroke-linejoin="round" stroke-linecap="round" fill="currentColor" stroke="currentColor" stroke-width="0" r="0.5365"/>
<g color="rgb(100.0000%, 100.0000%, 100.0000%)">
<text transform="translate(54.9949, 6.5862)" font-family="sans-serif" font-weight="bold" font-size="0.8731" text-anchor="start" fill="currentColor">
<tspan>D</tspan>
</text>
</g>
</a>
<a style="color:inherit;" xlink:href="textedit:///home/mojzis/pers/noty/lilywork/score_only/pasli_ovce_valasi.ly:14:71:72">
<path transform="translate(54.9849, 1.2315) scale(0.0022, -0.0022)" d="M150 477c-29 0 -59 -8 -59 -33c0 -22 36 -25 36 -47c0 -32 -26 -58 -58 -58s-57 26 -57 58c0 65 67 103 138 103c91 0 169 -33 169 -114c0 -43 -4 -82 -42 -100c-9 -4 -14 -12 -14 -21s5 -18 14 -22c41 -19 56 -57 56 -103c0 -92 -79 -140 -179 -140
c-79 0 -154 42 -154 113c0 36 30 66 66 66s65 -30 65 -66c0 -25 -40 -28 -40 -53c0 -27 32 -37 63 -37c49 0 63 61 63 117v16c0 54 -2 94 -50 94h-80c-10 0 -14 8 -14 15s4 14 14 14h80c49 0 50 43 50 99v8c0 54 -18 91 -67 91z" fill="currentColor"/>
</a>
<a style="color:inherit;" xlink:href="textedit:///home/mojzis/pers/noty/lilywork/score_only/pasli_ovce_valasi.ly:22:64:65">
<text transform="translate(54.6434, 9.2680)" font-family="serif" font-size="1.5557" text-anchor="start" fill="currentColor">
<tspan>la</tspan>
</text>
</a>
<rect transform="translate(55.8455, 3.7680)" x="-0.0474" y="-1.0000" width="0.0948" height="3.3042" ry="0.0235" fill="currentColor"/>
<a style="color:inherit;" xlink:href="textedit:///home/mojzis/pers/noty/lilywork/score_only/pasli_ovce_valasi.ly:14:76:77">
<circle transform="translate(60.1056, 6.7680)" stroke-linejoin="round" stroke-linecap="round" fill="currentColor" stroke="currentColor" stroke-width="0" r="0.5365"/>
<g color="rgb(100.0000%, 100.0000%, 100.0000%)">
<circle transform="translate(60.1056, 6.7680)" stroke-linejoin="round" stroke-linecap="round" fill="currentColor" stroke="currentColor" stroke-width="0" r="0.4416"/>
</g>
<text transform="translate(59.7842, 7.0858)" font-family="sans-serif" font-weight="bold" font-size="0.8731" text-anchor="start" fill="currentColor">
<tspan>C</tspan>
</text>
</a>
<a style="color:inherit;" xlink:href="textedit:///home/mojzis/pers/noty/lilywork/score_only/pasli_ovce_valasi.ly:22:70:71">
<text transform="translate(59.4528, 9.2680)" font-family="serif" font-size="1.5557" text-anchor="start" fill="currentColor">
<tspan>ši</tspan>
</text>
</a>
<rect transform="translate(60.5946, 3.7680)" x="-0.0474" y="-0.5000" width="0.0948" height="3.2328" ry="0.0235" fill="currentColor"/>
<a style="color:inherit;" xlink:href="textedit:///home/mojzis/pers/noty/lilywork/score_only/pasli_ovce_valasi.ly:14:23:24">
<path transform="translate(22.6187, 1.2315) scale(0.0022, -0.0022)" d="M235 355c0 60 -18 122 -70 122c-26 0 -51 -14 -51 -37c0 -27 35 -41 35 -68c0 -38 -30 -69 -68 -69s-69 31 -69 69c0 76 72 128 153 128c96 0 187 -56 187 -145c0 -153 -151 -159 -249 -220c9 2 17 3 26 3c33 0 70 -11 105 -36c21 -15 46 -23 66 -23c21 0 39 9 44 29
c2 6 6 9 11 9c6 0 12 -5 12 -12c0 -1 -1 -2 -1 -3c-17 -65 -78 -102 -137 -102c-36 0 -71 14 -96 44c-13 16 -31 22 -48 22c-30 0 -59 -20 -62 -55c-1 -7 -6 -11 -11 -11c-6 0 -12 4 -12 11c0 175 235 165 235 344z" fill="currentColor"/>
</a>
<a style="color:inherit;" xlink:href="textedit:///home/mojzis/pers/noty/lilywork/score_only/pasli_ovce_valasi.ly:14:22:23">
<circle transform="translate(23.0305, 5.2680)" stroke-linejoin="round" stroke-linecap="round" fill="currentColor" stroke="currentColor" stroke-width="0" r="0.5365"/>
<g color="rgb(100.0000%, 100.0000%, 100.0000%)">
<text transform="translate(22.7292, 5.5862)" font-family="sans-serif" font-weight="bold" font-size="0.8731" text-anchor="start" fill="currentColor">
<tspan>F</tspan>
</text>
</g>
</a>
<rect transform="translate(20.8991, 3.7680)" x="-0.0474" y="-2.5000" width="0.0948" height="3.3042" ry="0.0235" fill="currentColor"/>
<a style="color:inherit;" xlink:href="textedit:///home/mojzis/pers/noty/lilywork/score_only/pasli_ovce_valasi.ly:22:18:19">
<text transform="translate(22.1367, 9.2680)" font-family="serif" font-size="1.5557" text-anchor="start" fill="currentColor">
<tspan>ce</tspan>
</text>
</a>
<rect transform="translate(23.5195, 3.7680)" x="-0.0474" y="-2.0000" width="0.0948" height="3.3042" ry="0.0235" fill="currentColor"/>
<a style="color:inherit;" xlink:href="textedit:///home/mojzis/pers/noty/lilywork/score_only/pasli_ovce_valasi.ly:14:28:29">
<circle transform="translate(26.8900, 5.7680)" stroke-linejoin="round" stroke-linecap="round" fill="currentColor" stroke="currentColor" stroke-width="0" r="0.5365"/>
<g color="rgb(100.0000%, 100.0000%, 100.0000%)">
<text transform="translate(26.5887, 6.0862)" font-family="sans-serif" font-weight="bold" font-size="0.8731" text-anchor="start" fill="currentColor">
<tspan>E</tspan>
</text>
</g>
</a>
<a style="color:inherit;" xlink:href="textedit:///home/mojzis/pers/noty/lilywork/score_only/pasli_ovce_valasi.ly:14:29:30">
<path transform="translate(26.5385, 1.2315) scale(0.0022, -0.0022)" d="M175 487c18 0 58 31 58 -3v-367c0 -48 28 -94 73 -94c8 0 12 -5 12 -11s-4 -12 -12 -12c-44 0 -87 13 -131 13s-87 -13 -131 -13c-8 0 -12 6 -12 12s4 11 12 11c45 0 73 46 73 94v245c0 12 -9 19 -17 19c-4 0 -8 -3 -10 -7l-64 -136c-3 -6 -7 -9 -12 -9
c-8 0 -16 6 -16 14c0 2 1 5 2 7l117 250c3 6 10 3 16 0c13 -6 27 -13 42 -13z" fill="currentColor"/>
</a>
<rect transform="translate(27.3791, 3.7680)" x="-0.0474" y="-1.5000" width="0.0948" height="3.3042" ry="0.0235" fill="currentColor"/>
<a style="color:inherit;" xlink:href="textedit:///home/mojzis/pers/noty/lilywork/score_only/pasli_ovce_valasi.ly:14:6:7">
<circle transform="translate(14.1241, 3.2680)" stroke-linejoin="round" stroke-linecap="round" fill="currentColor" stroke="currentColor" stroke-width="0" r="0.5365"/>
<g color="rgb(100.0000%, 100.0000%, 100.0000%)">
<text transform="translate(13.8028, 3.5858)" font-family="sans-serif" font-weight="bold" font-size="0.8731" text-anchor="start" fill="currentColor">
<tspan>C</tspan>
</text>
</g>
</a>
<a style="color:inherit;" xlink:href="textedit:///home/mojzis/pers/noty/lilywork/score_only/pasli_ovce_valasi.ly:14:9:10">
<path transform="translate(13.7425, 1.2315) scale(0.0022, -0.0022)" d="M46 500c46 -8 91 -13 137 -13s92 5 138 13c15 2 23 -10 17 -16c-68 -68 -166 -93 -263 -93c-9 0 -17 -8 -17 -17v-96c28 28 66 43 105 43c116 0 186 -51 186 -161c0 -94 -87 -160 -186 -160c-82 0 -163 39 -163 113c0 36 30 66 66 66s65 -30 65 -66
c0 -25 -40 -28 -40 -53c0 -30 37 -37 72 -37c57 0 70 71 70 137c0 63 -15 132 -70 132c-42 0 -83 -12 -107 -45c-3 -4 -8 -6 -12 -6c-8 0 -15 6 -15 15v228c0 10 8 18 17 16z" fill="currentColor"/>
</a>
<path transform="translate(5.8211, 4.7680) scale(0.0040, -0.0040)" d="M374 260c5 0 10 1 15 1c154 0 254 -127 254 -259c0 -76 -33 -153 -107 -208c-22 -17 -47 -29 -73 -37c3 -36 5 -72 5 -108c0 -19 0 -37 -1 -56c-7 -120 -88 -226 -206 -226c-108 0 -195 87 -195 195c0 58 53 104 112 104c54 0 95 -48 95 -104c0 -52 -43 -95 -95 -95
c-12 0 -24 4 -35 9c26 -41 70 -70 121 -70c1 0 2 1 3 1c93 2 154 93 160 192c1 18 2 35 2 53c0 32 -2 64 -5 96c-29 -5 -58 -8 -89 -8c-188 0 -333 171 -333 372c0 178 133 306 251 440c-18 63 -35 126 -42 191c-6 51 -7 102 -7 154c0 116 55 226 150 295c5 4 11 4 16 0
c70 -84 132 -246 132 -359c0 -144 -87 -256 -183 -365c20 -69 39 -138 55 -208zM459 -205c69 24 117 96 117 166c0 92 -69 184 -179 193c25 -117 48 -235 62 -359zM71 31c0 -136 131 -251 267 -251c28 0 55 2 82 6c-15 128 -38 247 -64 367c-79 -9 -125 -62 -125 -121
c0 -44 26 -92 82 -124c4 -4 7 -9 7 -14c0 -11 -9 -21 -20 -21c-3 0 -6 1 -9 2c-80 43 -116 114 -116 184c0 88 57 173 158 196c-14 60 -30 119 -46 178c-108 -121 -216 -242 -216 -402zM411 1050c-99 -50 -161 -151 -161 -262c0 -76 15 -137 33 -200c82 97 149 198 149 325
c0 58 -4 84 -21 137z" fill="currentColor"/>
<a style="color:inherit;" xlink:href="textedit:///home/mojzis/pers/noty/lilywork/score_only/pasli_ovce_valasi.ly:10:6:7">
<path transform="translate(10.0914, 3.7680) scale(0.0040, -0.0040)" d="M236 355c0 61 -22 124 -75 124c-25 0 -48 -14 -48 -37c0 -27 35 -41 35 -68c0 -38 -31 -69 -69 -69s-68 31 -68 69c0 75 71 126 150 126c95 0 184 -57 184 -145c0 -158 -162 -160 -257 -229c12 3 24 5 37 5c32 0 67 -10 101 -33c23 -16 49 -25 70 -25c20 0 37 8 42 28
c1 6 6 8 10 8c5 0 11 -4 11 -10c0 -63 -85 -99 -132 -99c-35 0 -69 14 -94 42c-14 16 -32 23 -50 23c-30 0 -59 -21 -62 -55c-1 -7 -5 -10 -10 -10c-6 0 -12 4 -11 12c15 174 236 164 236 343z" fill="currentColor"/>
<path transform="translate(10.0211, 5.7839) scale(0.0040, -0.0040)" d="M208 319c21 13 42 27 57 47c11 15 18 32 25 49c4 9 20 7 20 -7v-256h68c9 0 13 -7 13 -14s-4 -13 -13 -13h-68v-16c0 -45 26 -88 68 -88c7 0 10 -5 10 -10s-3 -11 -10 -11c-41 0 -82 13 -123 13s-82 -13 -123 -13c-7 0 -10 6 -10 11s3 10 10 10c42 0 68 43 68 88v16h-173
c-21 0 -29 13 -29 21c0 2 1 5 2 6c81 96 146 208 146 333c0 10 7 18 15 15c22 -7 44 -13 67 -13s45 6 67 13c12 4 21 -8 15 -15l-283 -333h173v147c0 8 2 16 8 20z" fill="currentColor"/>
</a>
<a style="color:inherit;" xlink:href="textedit:///home/mojzis/pers/noty/lilywork/score_only/pasli_ovce_valasi.ly:22:2:3">
<text transform="translate(13.1701, 9.2680)" font-family="serif" font-size="1.5557" text-anchor="start" fill="currentColor">
<tspan>Pá</tspan>
</text>
</a>
<rect transform="translate(13.6351, 3.7680)" x="-0.0474" y="-0.3042" width="0.0948" height="3.3042" ry="0.0235" fill="currentColor"/>
<a style="color:inherit;" xlink:href="textedit:///home/mojzis/pers/noty/lilywork/score_only/pasli_ovce_valasi.ly:22:21:22">
<text transform="translate(25.9862, 9.2680)" font-family="serif" font-size="1.5557" text-anchor="start" fill="currentColor">
<tspan>va</tspan>
</text>
</a>
<a style="color:inherit;" xlink:href="textedit:///home/mojzis/pers/noty/lilywork/score_only/pasli_ovce_valasi.ly:14:12:13">
<circle transform="translate(16.5862, 4.7680)" stroke-linejoin="round" stroke-linecap="round" fill="currentColor" stroke="currentColor" stroke-width="0" r="0.5365"/>
<g color="rgb(100.0000%, 100.0000%, 100.0000%)">
<text transform="translate(16.2247, 5.0858)" font-family="sans-serif" font-weight="bold" font-size="0.8731" text-anchor="start" fill="currentColor">
<tspan>G</tspan>
</text>
</g>
</a>
<a style="color:inherit;" xlink:href="textedit:///home/mojzis/pers/noty/lilywork/score_only/pasli_ovce_valasi.ly:14:13:14">
<path transform="translate(16.2146, 1.2315) scale(0.0022, -0.0022)" d="M150 477c-29 0 -59 -8 -59 -33c0 -22 36 -25 36 -47c0 -32 -26 -58 -58 -58s-57 26 -57 58c0 65 67 103 138 103c91 0 169 -33 169 -114c0 -43 -4 -82 -42 -100c-9 -4 -14 -12 -14 -21s5 -18 14 -22c41 -19 56 -57 56 -103c0 -92 -79 -140 -179 -140
c-79 0 -154 42 -154 113c0 36 30 66 66 66s65 -30 65 -66c0 -25 -40 -28 -40 -53c0 -27 32 -37 63 -37c49 0 63 61 63 117v16c0 54 -2 94 -50 94h-80c-10 0 -14 8 -14 15s4 14 14 14h80c49 0 50 43 50 99v8c0 54 -18 91 -67 91z" fill="currentColor"/>
</a>
<a style="color:inherit;" xlink:href="textedit:///home/mojzis/pers/noty/lilywork/score_only/pasli_ovce_valasi.ly:22:8:9">
<text transform="translate(15.6824, 9.2680)" font-family="serif" font-size="1.5557" text-anchor="start" fill="currentColor">
<tspan>sli</tspan>
</text>
</a>
<rect transform="translate(17.0753, 3.7680)" x="-0.0474" y="-2.5000" width="0.0948" height="3.3042" ry="0.0235" fill="currentColor"/>
<a style="color:inherit;" xlink:href="textedit:///home/mojzis/pers/noty/lilywork/score_only/pasli_ovce_valasi.ly:14:18:19">
<circle transform="translate(20.4100, 4.7680)" stroke-linejoin="round" stroke-linecap="round" fill="currentColor" stroke="currentColor" stroke-width="0" r="0.5365"/>
<g color="rgb(100.0000%, 100.0000%, 100.0000%)">
<text transform="translate(20.0485, 5.0858)" font-family="sans-serif" font-weight="bold" font-size="0.8731" text-anchor="start" fill="currentColor">
<tspan>G</tspan>
</text>
</g>
</a>
<a style="color:inherit;" xlink:href="textedit:///home/mojzis/pers/noty/lilywork/score_only/pasli_ovce_valasi.ly:14:19:20">
<path transform="translate(20.0385, 1.2315) scale(0.0022, -0.0022)" d="M150 477c-29 0 -59 -8 -59 -33c0 -22 36 -25 36 -47c0 -32 -26 -58 -58 -58s-57 26 -57 58c0 65 67 103 138 103c91 0 169 -33 169 -114c0 -43 -4 -82 -42 -100c-9 -4 -14 -12 -14 -21s5 -18 14 -22c41 -19 56 -57 56 -103c0 -92 -79 -140 -179 -140
c-79 0 -154 42 -154 113c0 36 30 66 66 66s65 -30 65 -66c0 -25 -40 -28 -40 -53c0 -27 32 -37 63 -37c49 0 63 61 63 117v16c0 54 -2 94 -50 94h-80c-10 0 -14 8 -14 15s4 14 14 14h80c49 0 50 43 50 99v8c0 54 -18 91 -67 91z" fill="currentColor"/>
</a>
<a style="color:inherit;" xlink:href="textedit:///home/mojzis/pers/noty/lilywork/score_only/pasli_ovce_valasi.ly:22:12:13">
<text transform="translate(19.4962, 9.2680)" font-family="serif" font-size="1.5557" text-anchor="start" fill="currentColor">
<tspan>ov</tspan>
</text>
</a>
<a style="color:inherit;" xlink:href="textedit:///home/mojzis/pers/noty/lilywork/score_only/pasli_ovce_valasi.ly:14:38:39">
<circle transform="translate(34.2813, 4.7680)" stroke-linejoin="round" stroke-linecap="round" fill="currentColor" stroke="currentColor" stroke-width="0" r="0.5365"/>
<g color="rgb(100.0000%, 100.0000%, 100.0000%)">
<circle transform="translate(34.2813, 4.7680)" stroke-linejoin="round" stroke-linecap="round" fill="currentColor" stroke="currentColor" stroke-width="0" r="0.4416"/>
</g>
<text transform="translate(33.9198, 5.0858)" font-family="sans-serif" font-weight="bold" font-size="0.8731" text-anchor="start" fill="currentColor">
<tspan>G</tspan>
</text>
</a>
<a style="color:inherit;" xlink:href="textedit:///home/mojzis/pers/noty/lilywork/score_only/pasli_ovce_valasi.ly:14:40:41">
<path transform="translate(33.9097, 1.2315) scale(0.0022, -0.0022)" d="M150 477c-29 0 -59 -8 -59 -33c0 -22 36 -25 36 -47c0 -32 -26 -58 -58 -58s-57 26 -57 58c0 65 67 103 138 103c91 0 169 -33 169 -114c0 -43 -4 -82 -42 -100c-9 -4 -14 -12 -14 -21s5 -18 14 -22c41 -19 56 -57 56 -103c0 -92 -79 -140 -179 -140
c-79 0 -154 42 -154 113c0 36 30 66 66 66s65 -30 65 -66c0 -25 -40 -28 -40 -53c0 -27 32 -37 63 -37c49 0 63 61 63 117v16c0 54 -2 94 -50 94h-80c-10 0 -14 8 -14 15s4 14 14 14h80c49 0 50 43 50 99v8c0 54 -18 91 -67 91z" fill="currentColor"/>
</a>
<rect transform="translate(34.7704, 3.7680)" x="-0.0474" y="-2.5000" width="0.0948" height="3.2328" ry="0.0235" fill="currentColor"/>
<a style="color:inherit;" xlink:href="textedit:///home/mojzis/pers/noty/lilywork/score_only/pasli_ovce_valasi.ly:22:33:34">
<text transform="translate(33.6286, 9.2680)" font-family="serif" font-size="1.5557" text-anchor="start" fill="currentColor">
<tspan>ši</tspan>
</text>
</a>
<a style="color:inherit;" xlink:href="textedit:///home/mojzis/pers/noty/lilywork/score_only/pasli_ovce_valasi.ly:14:45:46">
<circle transform="translate(39.3209, 3.2680)" stroke-linejoin="round" stroke-linecap="round" fill="currentColor" stroke="currentColor" stroke-width="0" r="0.5365"/>
<g color="rgb(100.0000%, 100.0000%, 100.0000%)">
<text transform="translate(38.9995, 3.5858)" font-family="sans-serif" font-weight="bold" font-size="0.8731" text-anchor="start" fill="currentColor">
<tspan>C</tspan>
</text>
</g>
</a>
<a style="color:inherit;" xlink:href="textedit:///home/mojzis/pers/noty/lilywork/score_only/pasli_ovce_valasi.ly:14:47:48">
<path transform="translate(38.9393, 1.2315) scale(0.0022, -0.0022)" d="M46 500c46 -8 91 -13 137 -13s92 5 138 13c15 2 23 -10 17 -16c-68 -68 -166 -93 -263 -93c-9 0 -17 -8 -17 -17v-96c28 28 66 43 105 43c116 0 186 -51 186 -161c0 -94 -87 -160 -186 -160c-82 0 -163 39 -163 113c0 36 30 66 66 66s65 -30 65 -66
c0 -25 -40 -28 -40 -53c0 -30 37 -37 72 -37c57 0 70 71 70 137c0 63 -15 132 -70 132c-42 0 -83 -12 -107 -45c-3 -4 -8 -6 -12 -6c-8 0 -15 6 -15 15v228c0 10 8 18 17 16z" fill="currentColor"/>
</a>
<a style="color:inherit;" xlink:href="textedit:///home/mojzis/pers/noty/lilywork/score_only/pasli_ovce_valasi.ly:22:36:37">
<text transform="translate(38.1962, 9.2680)" font-family="serif" font-size="1.5557" text-anchor="start" fill="currentColor">
<tspan>při</tspan>
</text>
</a>
<rect transform="translate(38.8318, 3.7680)" x="-0.0474" y="-0.3042" width="0.0948" height="3.3042" ry="0.0235" fill="currentColor"/>
<a style="color:inherit;" xlink:href="textedit:///home/mojzis/pers/noty/lilywork/score_only/pasli_ovce_valasi.ly:14:33:34">
<path transform="translate(29.0987, 1.2315) scale(0.0022, -0.0022)" d="M235 355c0 60 -18 122 -70 122c-26 0 -51 -14 -51 -37c0 -27 35 -41 35 -68c0 -38 -30 -69 -68 -69s-69 31 -69 69c0 76 72 128 153 128c96 0 187 -56 187 -145c0 -153 -151 -159 -249 -220c9 2 17 3 26 3c33 0 70 -11 105 -36c21 -15 46 -23 66 -23c21 0 39 9 44 29
c2 6 6 9 11 9c6 0 12 -5 12 -12c0 -1 -1 -2 -1 -3c-17 -65 -78 -102 -137 -102c-36 0 -71 14 -96 44c-13 16 -31 22 -48 22c-30 0 -59 -20 -62 -55c-1 -7 -6 -11 -11 -11c-6 0 -12 4 -12 11c0 175 235 165 235 344z" fill="currentColor"/>
</a>
<a style="color:inherit;" xlink:href="textedit:///home/mojzis/pers/noty/lilywork/score_only/pasli_ovce_valasi.ly:14:32:33">
<circle transform="translate(29.5104, 5.2680)" stroke-linejoin="round" stroke-linecap="round" fill="currentColor" stroke="currentColor" stroke-width="0" r="0.5365"/>
<g color="rgb(100.0000%, 100.0000%, 100.0000%)">
<text transform="translate(29.2092, 5.5862)" font-family="sans-serif" font-weight="bold" font-size="0.8731" text-anchor="start" fill="currentColor">
<tspan>F</tspan>
</text>
</g>
</a>
<rect transform="translate(29.9995, 3.7680)" x="-0.0474" y="-2.0000" width="0.0948" height="3.3042" ry="0.0235" fill="currentColor"/>
<a style="color:inherit;" xlink:href="textedit:///home/mojzis/pers/noty/lilywork/score_only/pasli_ovce_valasi.ly:22:27:28">
<text transform="translate(28.7974, 9.2680)" font-family="serif" font-size="1.5557" text-anchor="start" fill="currentColor">
<tspan>la</tspan>
</text>
</a>
<line transform="translate(0.0000, 15.9489)" stroke-linejoin="round" stroke-linecap="round" stroke-width="0.0729" stroke="currentColor" x1="0.0365" y1="-0.0000" x2="63.5638" y2="-0.0000"/>
<line transform="translate(0.0000, 14.9489)" stroke-linejoin="round" stroke-linecap="round" stroke-width="0.0729" stroke="currentColor" x1="0.0365" y1="-0.0000" x2="63.5638" y2="-0.0000"/>
<line transform="translate(0.0000, 13.9489)" stroke-linejoin="round" stroke-linecap="round" stroke-width="0.0729" stroke="currentColor" x1="0.0365" y1="-0.0000" x2="63.5638" y2="-0.0000"/>
<line transform="translate(0.0000, 12.9489)" stroke-linejoin="round" stroke-linecap="round" stroke-width="0.0729" stroke="currentColor" x1="0.0365" y1="-0.0000" x2="63.5638" y2="-0.0000"/>
<line transform="translate(0.0000, 11.9489)" stroke-linejoin="round" stroke-linecap="round" stroke-width="0.0729" stroke="currentColor" x1="0.0365" y1="-0.0000" x2="63.5638" y2="-0.0000"/>
<rect transform="translate(48.7773, 13.9489)" x="0.0000" y="-2.0000" width="0.1386" height="4.0000" ry="0.0000" fill="currentColor"/>
<rect transform="translate(19.6965, 13.9489)" x="0.0000" y="-2.0000" width="0.1386" height="4.0000" ry="0.0000" fill="currentColor"/>
<rect transform="translate(12.3213, 13.9489)" x="0.0000" y="-2.0000" width="0.1386" height="4.0000" ry="0.0000" fill="currentColor"/>
<rect transform="translate(56.1308, 13.9489)" x="0.0000" y="-2.0000" width="0.1386" height="4.0000" ry="0.0000" fill="currentColor"/>
<rect transform="translate(41.4020, 13.9489)" x="0.0000" y="-2.0000" width="0.1386" height="4.0000" ry="0.0000" fill="currentColor"/>
<rect transform="translate(63.1626, 13.9489)" x="0.0000" y="-2.0000" width="0.4376" height="4.0000" ry="0.0000" fill="currentColor"/>
<rect transform="translate(62.8052, 13.9489)" x="0.0000" y="-2.0000" width="0.1386" height="4.0000" ry="0.0000" fill="currentColor"/>
<rect transform="translate(27.0500, 13.9489)" x="0.0000" y="-2.0000" width="0.1386" height="4.0000" ry="0.0000" fill="currentColor"/>
<rect transform="translate(33.7768, 13.9489)" x="0.0000" y="-2.0000" width="0.1386" height="4.0000" ry="0.0000" fill="currentColor"/>
<rect transform="translate(0.0000, 16.9489)" x="57.9665" y="-0.0865" width="1.6094" height="0.1729" ry="0.0865" fill="currentColor"/>
<rect transform="translate(0.0000, 16.9489)" x="34.6125" y="-0.0865" width="1.6094" height="0.1729" ry="0.0865" fill="currentColor"/>
<rect transform="translate(0.0000, 16.9489)" x="5.5318" y="-0.0865" width="1.6094" height="0.1729" ry="0.0865" fill="currentColor"/>
<a style="color:inherit;" xlink:href="textedit:///home/mojzis/pers/noty/lilywork/score_only/pasli_ovce_valasi.ly:15:59:60">
<circle transform="translate(46.0601, 15.4489)" stroke-linejoin="round" stroke-linecap="round" fill="currentColor" stroke="currentColor" stroke-width="0" r="0.5365"/>
<g color="rgb(100.0000%, 100.0000%, 100.0000%)">
<text transform="translate(45.7588, 15.7671)" font-family="sans-serif" font-weight="bold" font-size="0.8731" text-anchor="start" fill="currentColor">
<tspan>F</tspan>
</text>
</g>
</a>
<a style="color:inherit;" xlink:href="textedit:///home/mojzis/pers/noty/lilywork/score_only/pasli_ovce_valasi.ly:15:60:61">
<path transform="translate(45.6082, 11.4124) scale(0.0022, -0.0022)" d="M196 117h117c0 -48 27 -94 72 -94c8 0 12 -5 12 -11s-4 -12 -12 -12c-44 0 -87 13 -131 13s-87 -13 -131 -13c-8 0 -12 6 -12 12s4 11 12 11c45 0 73 46 73 94zM204 307c22 14 44 29 60 50c11 15 19 33 27 50c2 4 5 6 9 6c6 0 13 -5 13 -14v-245h72c10 0 15 -7 15 -14
s-5 -15 -15 -15h-72v-8h-117v8h-167c-23 0 -31 14 -31 23c0 3 1 5 2 6c80 93 138 207 138 330c0 10 7 19 16 16c23 -7 47 -13 71 -13s48 6 71 13c14 4 23 -9 17 -16l-284 -330h167v131c0 8 1 17 8 22z" fill="currentColor"/>
</a>
<a style="color:inherit;" xlink:href="textedit:///home/mojzis/pers/noty/lilywork/score_only/pasli_ovce_valasi.ly:23:59:60">
<text transform="translate(44.3529, 19.4489)" font-family="serif" font-size="1.5557" text-anchor="start" fill="currentColor">
<tspan>dom</tspan>
</text>
</a>
<rect transform="translate(46.5491, 13.9489)" x="-0.0474" y="-2.0000" width="0.0948" height="3.3042" ry="0.0235" fill="currentColor"/>
<a style="color:inherit;" xlink:href="textedit:///home/mojzis/pers/noty/lilywork/score_only/pasli_ovce_valasi.ly:15:65:66">
<circle transform="translate(50.4177, 15.9489)" stroke-linejoin="round" stroke-linecap="round" fill="currentColor" stroke="currentColor" stroke-width="0" r="0.5365"/>
<g color="rgb(100.0000%, 100.0000%, 100.0000%)">
<text transform="translate(50.1164, 16.2671)" font-family="sans-serif" font-weight="bold" font-size="0.8731" text-anchor="start" fill="currentColor">
<tspan>E</tspan>
</text>
</g>
</a>
<a style="color:inherit;" xlink:href="textedit:///home/mojzis/pers/noty/lilywork/score_only/pasli_ovce_valasi.ly:15:66:67">
<path transform="translate(50.0461, 11.4124) scale(0.0022, -0.0022)" d="M150 477c-29 0 -59 -8 -59 -33c0 -22 36 -25 36 -47c0 -32 -26 -58 -58 -58s-57 26 -57 58c0 65 67 103 138 103c91 0 169 -33 169 -114c0 -43 -4 -82 -42 -100c-9 -4 -14 -12 -14 -21s5 -18 14 -22c41 -19 56 -57 56 -103c0 -92 -79 -140 -179 -140
c-79 0 -154 42 -154 113c0 36 30 66 66 66s65 -30 65 -66c0 -25 -40 -28 -40 -53c0 -27 32 -37 63 -37c49 0 63 61 63 117v16c0 54 -2 94 -50 94h-80c-10 0 -14 8 -14 15s4 14 14 14h80c49 0 50 43 50 99v8c0 54 -18 91 -67 91z" fill="currentColor"/>
</a>
<a style="color:inherit;" xlink:href="textedit:///home/mojzis/pers/noty/lilywork/score_only/pasli_ovce_valasi.ly:23:63:64">
<text transform="translate(49.6645, 19.4489)" font-family="serif" font-size="1.5557" text-anchor="start" fill="currentColor">
<tspan>ty</tspan>
</text>
</a>
<rect transform="translate(50.9067, 13.9489)" x="-0.0474" y="-1.5000" width="0.0948" height="3.3042" ry="0.0235" fill="currentColor"/>
<rect transform="translate(35.9063, 13.9489)" x="-0.0474" y="-0.5000" width="0.0948" height="3.3042" ry="0.0235" fill="currentColor"/>
<a style="color:inherit;" xlink:href="textedit:///home/mojzis/pers/noty/lilywork/score_only/pasli_ovce_valasi.ly:15:49:50">
<circle transform="translate(38.6849, 15.9489)" stroke-linejoin="round" stroke-linecap="round" fill="currentColor" stroke="currentColor" stroke-width="0" r="0.5365"/>
<g color="rgb(100.0000%, 100.0000%, 100.0000%)">
<text transform="translate(38.3836, 16.2671)" font-family="sans-serif" font-weight="bold" font-size="0.8731" text-anchor="start" fill="currentColor">
<tspan>E</tspan>
</text>
</g>
</a>
<a style="color:inherit;" xlink:href="textedit:///home/mojzis/pers/noty/lilywork/score_only/pasli_ovce_valasi.ly:15:50:51">
<path transform="translate(38.3133, 11.4124) scale(0.0022, -0.0022)" d="M150 477c-29 0 -59 -8 -59 -33c0 -22 36 -25 36 -47c0 -32 -26 -58 -58 -58s-57 26 -57 58c0 65 67 103 138 103c91 0 169 -33 169 -114c0 -43 -4 -82 -42 -100c-9 -4 -14 -12 -14 -21s5 -18 14 -22c41 -19 56 -57 56 -103c0 -92 -79 -140 -179 -140
c-79 0 -154 42 -154 113c0 36 30 66 66 66s65 -30 65 -66c0 -25 -40 -28 -40 -53c0 -27 32 -37 63 -37c49 0 63 61 63 117v16c0 54 -2 94 -50 94h-80c-10 0 -14 8 -14 15s4 14 14 14h80c49 0 50 43 50 99v8c0 54 -18 91 -67 91z" fill="currentColor"/>
</a>
<a style="color:inherit;" xlink:href="textedit:///home/mojzis/pers/noty/lilywork/score_only/pasli_ovce_valasi.ly:23:48:49">
<text transform="translate(36.9777, 19.4489)" font-family="serif" font-size="1.5557" text-anchor="start" fill="currentColor">
<tspan>dom</tspan>
</text>
</a>
<rect transform="translate(39.1739, 13.9489)" x="-0.0474" y="-1.5000" width="0.0948" height="3.3042" ry="0.0235" fill="currentColor"/>
<a style="color:inherit;" xlink:href="textedit:///home/mojzis/pers/noty/lilywork/score_only/pasli_ovce_valasi.ly:15:55:56">
<circle transform="translate(43.0425, 15.9489)" stroke-linejoin="round" stroke-linecap="round" fill="currentColor" stroke="currentColor" stroke-width="0" r="0.5365"/>
<g color="rgb(100.0000%, 100.0000%, 100.0000%)">
<text transform="translate(42.7412, 16.2671)" font-family="sans-serif" font-weight="bold" font-size="0.8731" text-anchor="start" fill="currentColor">
<tspan>E</tspan>
</text>
</g>
</a>
<a style="color:inherit;" xlink:href="textedit:///home/mojzis/pers/noty/lilywork/score_only/pasli_ovce_valasi.ly:15:56:57">
<path transform="translate(42.6709, 11.4124) scale(0.0022, -0.0022)" d="M150 477c-29 0 -59 -8 -59 -33c0 -22 36 -25 36 -47c0 -32 -26 -58 -58 -58s-57 26 -57 58c0 65 67 103 138 103c91 0 169 -33 169 -114c0 -43 -4 -82 -42 -100c-9 -4 -14 -12 -14 -21s5 -18 14 -22c41 -19 56 -57 56 -103c0 -92 -79 -140 -179 -140
c-79 0 -154 42 -154 113c0 36 30 66 66 66s65 -30 65 -66c0 -25 -40 -28 -40 -53c0 -27 32 -37 63 -37c49 0 63 61 63 117v16c0 54 -2 94 -50 94h-80c-10 0 -14 8 -14 15s4 14 14 14h80c49 0 50 43 50 99v8c0 54 -18 91 -67 91z" fill="currentColor"/>
</a>
<a style="color:inherit;" xlink:href="textedit:///home/mojzis/pers/noty/lilywork/score_only/pasli_ovce_valasi.ly:23:52:53">
<text transform="translate(41.8374, 19.4489)" font-family="serif" font-size="1.5557" text-anchor="start" fill="currentColor">
<tspan>haj</tspan>
</text>
</a>
<rect transform="translate(43.5315, 13.9489)" x="-0.0474" y="-1.5000" width="0.0948" height="3.3042" ry="0.0235" fill="currentColor"/>
<a style="color:inherit;" xlink:href="textedit:///home/mojzis/pers/noty/lilywork/score_only/pasli_ovce_valasi.ly:23:73:74">
<rect transform="translate(55.4218, 19.4489)" x="0.0000" y="-0.5148" width="0.6600" height="0.0948" ry="0.0292" fill="currentColor"/>
</a>
<a style="color:inherit;" xlink:href="textedit:///home/mojzis/pers/noty/lilywork/score_only/pasli_ovce_valasi.ly:23:66:67">
<rect transform="translate(51.4710, 19.4489)" x="0.0000" y="-0.5148" width="0.6600" height="0.0948" ry="0.0292" fill="currentColor"/>
</a>
<a style="color:inherit;" xlink:href="textedit:///home/mojzis/pers/noty/lilywork/score_only/pasli_ovce_valasi.ly:23:45:46">
<rect transform="translate(36.6500, 19.4489)" x="0.0000" y="-0.5148" width="0.3000" height="0.0948" ry="0.0292" fill="currentColor"/>
</a>
<a style="color:inherit;" xlink:href="textedit:///home/mojzis/pers/noty/lilywork/score_only/pasli_ovce_valasi.ly:23:34:35">
<rect transform="translate(26.3410, 19.4489)" x="0.0000" y="-0.5148" width="0.6600" height="0.0948" ry="0.0292" fill="currentColor"/>
</a>
<a style="color:inherit;" xlink:href="textedit:///home/mojzis/pers/noty/lilywork/score_only/pasli_ovce_valasi.ly:23:27:28">
<rect transform="translate(22.3902, 19.4489)" x="0.0000" y="-0.5148" width="0.6600" height="0.0948" ry="0.0292" fill="currentColor"/>
</a>
<a style="color:inherit;" xlink:href="textedit:///home/mojzis/pers/noty/lilywork/score_only/pasli_ovce_valasi.ly:15:69:70">
<circle transform="translate(53.4353, 16.4489)" stroke-linejoin="round" stroke-linecap="round" fill="currentColor" stroke="currentColor" stroke-width="0" r="0.5365"/>
<g color="rgb(100.0000%, 100.0000%, 100.0000%)">
<text transform="translate(53.0738, 16.7671)" font-family="sans-serif" font-weight="bold" font-size="0.8731" text-anchor="start" fill="currentColor">
<tspan>D</tspan>
</text>
</g>
</a>
<a style="color:inherit;" xlink:href="textedit:///home/mojzis/pers/noty/lilywork/score_only/pasli_ovce_valasi.ly:15:70:71">
<path transform="translate(53.0236, 11.4124) scale(0.0022, -0.0022)" d="M235 355c0 60 -18 122 -70 122c-26 0 -51 -14 -51 -37c0 -27 35 -41 35 -68c0 -38 -30 -69 -68 -69s-69 31 -69 69c0 76 72 128 153 128c96 0 187 -56 187 -145c0 -153 -151 -159 -249 -220c9 2 17 3 26 3c33 0 70 -11 105 -36c21 -15 46 -23 66 -23c21 0 39 9 44 29
c2 6 6 9 11 9c6 0 12 -5 12 -12c0 -1 -1 -2 -1 -3c-17 -65 -78 -102 -137 -102c-36 0 -71 14 -96 44c-13 16 -31 22 -48 22c-30 0 -59 -20 -62 -55c-1 -7 -6 -11 -11 -11c-6 0 -12 4 -12 11c0 175 235 165 235 344z" fill="currentColor"/>
</a>
<a style="color:inherit;" xlink:href="textedit:///home/mojzis/pers/noty/lilywork/score_only/pasli_ovce_valasi.ly:23:69:70">
<text transform="translate(52.4311, 19.4489)" font-family="serif" font-size="1.5557" text-anchor="start" fill="currentColor">
<tspan>dli</tspan>
</text>
</a>
<rect transform="translate(53.9244, 13.9489)" x="-0.0474" y="-1.0000" width="0.0948" height="3.3042" ry="0.0235" fill="currentColor"/>
<a style="color:inherit;" xlink:href="textedit:///home/mojzis/pers/noty/lilywork/score_only/pasli_ovce_valasi.ly:15:75:76">
<circle transform="translate(58.7712, 16.9489)" stroke-linejoin="round" stroke-linecap="round" fill="currentColor" stroke="currentColor" stroke-width="0" r="0.5365"/>
<g color="rgb(100.0000%, 100.0000%, 100.0000%)">
<circle transform="translate(58.7712, 16.9489)" stroke-linejoin="round" stroke-linecap="round" fill="currentColor" stroke="currentColor" stroke-width="0" r="0.4416"/>
</g>
<text transform="translate(58.4498, 17.2667)" font-family="sans-serif" font-weight="bold" font-size="0.8731" text-anchor="start" fill="currentColor">
<tspan>C</tspan>
</text>
</a>
<a style="color:inherit;" xlink:href="textedit:///home/mojzis/pers/noty/lilywork/score_only/pasli_ovce_valasi.ly:15:77:78">
<path transform="translate(58.4197, 11.4124) scale(0.0022, -0.0022)" d="M175 487c18 0 58 31 58 -3v-367c0 -48 28 -94 73 -94c8 0 12 -5 12 -11s-4 -12 -12 -12c-44 0 -87 13 -131 13s-87 -13 -131 -13c-8 0 -12 6 -12 12s4 11 12 11c45 0 73 46 73 94v245c0 12 -9 19 -17 19c-4 0 -8 -3 -10 -7l-64 -136c-3 -6 -7 -9 -12 -9
c-8 0 -16 6 -16 14c0 2 1 5 2 7l117 250c3 6 10 3 16 0c13 -6 27 -13 42 -13z" fill="currentColor"/>
</a>
<a style="color:inherit;" xlink:href="textedit:///home/mojzis/pers/noty/lilywork/score_only/pasli_ovce_valasi.ly:23:76:77">
<text transform="translate(57.0640, 19.4489)" font-family="serif" font-size="1.5557" text-anchor="start" fill="currentColor">
<tspan>dom</tspan>
</text>
</a>
<rect transform="translate(59.2602, 13.9489)" x="-0.0474" y="-0.5000" width="0.0948" height="3.2328" ry="0.0235" fill="currentColor"/>
<a style="color:inherit;" xlink:href="textedit:///home/mojzis/pers/noty/lilywork/score_only/pasli_ovce_valasi.ly:15:17:18">
<circle transform="translate(13.9617, 15.9489)" stroke-linejoin="round" stroke-linecap="round" fill="currentColor" stroke="currentColor" stroke-width="0" r="0.5365"/>
<g color="rgb(100.0000%, 100.0000%, 100.0000%)">
<text transform="translate(13.6604, 16.2671)" font-family="sans-serif" font-weight="bold" font-size="0.8731" text-anchor="start" fill="currentColor">
<tspan>E</tspan>
</text>
</g>
</a>
<a style="color:inherit;" xlink:href="textedit:///home/mojzis/pers/noty/lilywork/score_only/pasli_ovce_valasi.ly:15:18:19">
<path transform="translate(13.5901, 11.4124) scale(0.0022, -0.0022)" d="M150 477c-29 0 -59 -8 -59 -33c0 -22 36 -25 36 -47c0 -32 -26 -58 -58 -58s-57 26 -57 58c0 65 67 103 138 103c91 0 169 -33 169 -114c0 -43 -4 -82 -42 -100c-9 -4 -14 -12 -14 -21s5 -18 14 -22c41 -19 56 -57 56 -103c0 -92 -79 -140 -179 -140
c-79 0 -154 42 -154 113c0 36 30 66 66 66s65 -30 65 -66c0 -25 -40 -28 -40 -53c0 -27 32 -37 63 -37c49 0 63 61 63 117v16c0 54 -2 94 -50 94h-80c-10 0 -14 8 -14 15s4 14 14 14h80c49 0 50 43 50 99v8c0 54 -18 91 -67 91z" fill="currentColor"/>
</a>
<a style="color:inherit;" xlink:href="textedit:///home/mojzis/pers/noty/lilywork/score_only/pasli_ovce_valasi.ly:23:13:14">
<text transform="translate(12.7566, 19.4489)" font-family="serif" font-size="1.5557" text-anchor="start" fill="currentColor">
<tspan>haj</tspan>
</text>
</a>
<rect transform="translate(14.4508, 13.9489)" x="-0.0474" y="-1.5000" width="0.0948" height="3.3042" ry="0.0235" fill="currentColor"/>
<rect transform="translate(10.0932, 13.9489)" x="-0.0474" y="-1.5000" width="0.0948" height="3.3042" ry="0.0235" fill="currentColor"/>
<a style="color:inherit;" xlink:href="textedit:///home/mojzis/pers/noty/lilywork/score_only/pasli_ovce_valasi.ly:15:21:22">
<circle transform="translate(16.9793, 15.4489)" stroke-linejoin="round" stroke-linecap="round" fill="currentColor" stroke="currentColor" stroke-width="0" r="0.5365"/>
<g color="rgb(100.0000%, 100.0000%, 100.0000%)">
<text transform="translate(16.6781, 15.7671)" font-family="sans-serif" font-weight="bold" font-size="0.8731" text-anchor="start" fill="currentColor">
<tspan>F</tspan>
</text>
</g>
</a>
<a style="color:inherit;" xlink:href="textedit:///home/mojzis/pers/noty/lilywork/score_only/pasli_ovce_valasi.ly:15:22:23">
<path transform="translate(16.5274, 11.4124) scale(0.0022, -0.0022)" d="M196 117h117c0 -48 27 -94 72 -94c8 0 12 -5 12 -11s-4 -12 -12 -12c-44 0 -87 13 -131 13s-87 -13 -131 -13c-8 0 -12 6 -12 12s4 11 12 11c45 0 73 46 73 94zM204 307c22 14 44 29 60 50c11 15 19 33 27 50c2 4 5 6 9 6c6 0 13 -5 13 -14v-245h72c10 0 15 -7 15 -14
s-5 -15 -15 -15h-72v-8h-117v8h-167c-23 0 -31 14 -31 23c0 3 1 5 2 6c80 93 138 207 138 330c0 10 7 19 16 16c23 -7 47 -13 71 -13s48 6 71 13c14 4 23 -9 17 -16l-284 -330h167v131c0 8 1 17 8 22z" fill="currentColor"/>
</a>
<a style="color:inherit;" xlink:href="textedit:///home/mojzis/pers/noty/lilywork/score_only/pasli_ovce_valasi.ly:23:20:21">
<text transform="translate(15.2722, 19.4489)" font-family="serif" font-size="1.5557" text-anchor="start" fill="currentColor">
<tspan>dom</tspan>
</text>
</a>
<text transform="translate(-1.1046, 10.8876)" font-family="serif" font-size="1.7463" text-anchor="start" fill="currentColor">
<tspan>9</tspan>
</text>
<path transform="translate(0.8000, 14.9489) scale(0.0040, -0.0040)" d="M374 260c5 0 10 1 15 1c154 0 254 -127 254 -259c0 -76 -33 -153 -107 -208c-22 -17 -47 -29 -73 -37c3 -36 5 -72 5 -108c0 -19 0 -37 -1 -56c-7 -120 -88 -226 -206 -226c-108 0 -195 87 -195 195c0 58 53 104 112 104c54 0 95 -48 95 -104c0 -52 -43 -95 -95 -95
c-12 0 -24 4 -35 9c26 -41 70 -70 121 -70c1 0 2 1 3 1c93 2 154 93 160 192c1 18 2 35 2 53c0 32 -2 64 -5 96c-29 -5 -58 -8 -89 -8c-188 0 -333 171 -333 372c0 178 133 306 251 440c-18 63 -35 126 -42 191c-6 51 -7 102 -7 154c0 116 55 226 150 295c5 4 11 4 16 0
c70 -84 132 -246 132 -359c0 -144 -87 -256 -183 -365c20 -69 39 -138 55 -208zM459 -205c69 24 117 96 117 166c0 92 -69 184 -179 193c25 -117 48 -235 62 -359zM71 31c0 -136 131 -251 267 -251c28 0 55 2 82 6c-15 128 -38 247 -64 367c-79 -9 -125 -62 -125 -121
c0 -44 26 -92 82 -124c4 -4 7 -9 7 -14c0 -11 -9 -21 -20 -21c-3 0 -6 1 -9 2c-80 43 -116 114 -116 184c0 88 57 173 158 196c-14 60 -30 119 -46 178c-108 -121 -216 -242 -216 -402zM411 1050c-99 -50 -161 -151 -161 -262c0 -76 15 -137 33 -200c82 97 149 198 149 325
c0 58 -4 84 -21 137z" fill="currentColor"/>
<rect transform="translate(17.4684, 13.9489)" x="-0.0474" y="-2.0000" width="0.0948" height="3.3042" ry="0.0235" fill="currentColor"/>
<a style="color:inherit;" xlink:href="textedit:///home/mojzis/pers/noty/lilywork/score_only/pasli_ovce_valasi.ly:15:6:7">
<circle transform="translate(6.3365, 16.9489)" stroke-linejoin="round" stroke-linecap="round" fill="currentColor" stroke="currentColor" stroke-width="0" r="0.5365"/>
<g color="rgb(100.0000%, 100.0000%, 100.0000%)">
<text transform="translate(6.0151, 17.2667)" font-family="sans-serif" font-weight="bold" font-size="0.8731" text-anchor="start" fill="currentColor">
<tspan>C</tspan>
</text>
</g>
</a>
<a style="color:inherit;" xlink:href="textedit:///home/mojzis/pers/noty/lilywork/score_only/pasli_ovce_valasi.ly:15:8:9">
<path transform="translate(5.9850, 11.4124) scale(0.0022, -0.0022)" d="M175 487c18 0 58 31 58 -3v-367c0 -48 28 -94 73 -94c8 0 12 -5 12 -11s-4 -12 -12 -12c-44 0 -87 13 -131 13s-87 -13 -131 -13c-8 0 -12 6 -12 12s4 11 12 11c45 0 73 46 73 94v245c0 12 -9 19 -17 19c-4 0 -8 -3 -10 -7l-64 -136c-3 -6 -7 -9 -12 -9
c-8 0 -16 6 -16 14c0 2 1 5 2 7l117 250c3 6 10 3 16 0c13 -6 27 -13 42 -13z" fill="currentColor"/>
</a>
<a style="color:inherit;" xlink:href="textedit:///home/mojzis/pers/noty/lilywork/score_only/pasli_ovce_valasi.ly:23:2:3">
<text transform="translate(4.9507, 19.4489)" font-family="serif" font-size="1.5557" text-anchor="start" fill="currentColor">
<tspan>Haj</tspan>
</text>
</a>
<rect transform="translate(6.8255, 13.9489)" x="-0.0474" y="-0.5000" width="0.0948" height="3.3042" ry="0.0235" fill="currentColor"/>
<a style="color:inherit;" xlink:href="textedit:///home/mojzis/pers/noty/lilywork/score_only/pasli_ovce_valasi.ly:15:11:12">
<circle transform="translate(9.6041, 15.9489)" stroke-linejoin="round" stroke-linecap="round" fill="currentColor" stroke="currentColor" stroke-width="0" r="0.5365"/>
<g color="rgb(100.0000%, 100.0000%, 100.0000%)">
<text transform="translate(9.3028, 16.2671)" font-family="sans-serif" font-weight="bold" font-size="0.8731" text-anchor="start" fill="currentColor">
<tspan>E</tspan>
</text>
</g>
</a>
<a style="color:inherit;" xlink:href="textedit:///home/mojzis/pers/noty/lilywork/score_only/pasli_ovce_valasi.ly:15:12:13">
<path transform="translate(9.2325, 11.4124) scale(0.0022, -0.0022)" d="M150 477c-29 0 -59 -8 -59 -33c0 -22 36 -25 36 -47c0 -32 -26 -58 -58 -58s-57 26 -57 58c0 65 67 103 138 103c91 0 169 -33 169 -114c0 -43 -4 -82 -42 -100c-9 -4 -14 -12 -14 -21s5 -18 14 -22c41 -19 56 -57 56 -103c0 -92 -79 -140 -179 -140
c-79 0 -154 42 -154 113c0 36 30 66 66 66s65 -30 65 -66c0 -25 -40 -28 -40 -53c0 -27 32 -37 63 -37c49 0 63 61 63 117v16c0 54 -2 94 -50 94h-80c-10 0 -14 8 -14 15s4 14 14 14h80c49 0 50 43 50 99v8c0 54 -18 91 -67 91z" fill="currentColor"/>
</a>
<a style="color:inherit;" xlink:href="textedit:///home/mojzis/pers/noty/lilywork/score_only/pasli_ovce_valasi.ly:23:9:10">
<text transform="translate(7.8969, 19.4489)" font-family="serif" font-size="1.5557" text-anchor="start" fill="currentColor">
<tspan>dom</tspan>
</text>
</a>
<a style="color:inherit;" xlink:href="textedit:///home/mojzis/pers/noty/lilywork/score_only/pasli_ovce_valasi.ly:15:31:32">
<circle transform="translate(24.3546, 16.4489)" stroke-linejoin="round" stroke-linecap="round" fill="currentColor" stroke="currentColor" stroke-width="0" r="0.5365"/>
<g color="rgb(100.0000%, 100.0000%, 100.0000%)">
<text transform="translate(23.9930, 16.7671)" font-family="sans-serif" font-weight="bold" font-size="0.8731" text-anchor="start" fill="currentColor">
<tspan>D</tspan>
</text>
</g>
</a>
<a style="color:inherit;" xlink:href="textedit:///home/mojzis/pers/noty/lilywork/score_only/pasli_ovce_valasi.ly:15:32:33">
<path transform="translate(23.9428, 11.4124) scale(0.0022, -0.0022)" d="M235 355c0 60 -18 122 -70 122c-26 0 -51 -14 -51 -37c0 -27 35 -41 35 -68c0 -38 -30 -69 -68 -69s-69 31 -69 69c0 76 72 128 153 128c96 0 187 -56 187 -145c0 -153 -151 -159 -249 -220c9 2 17 3 26 3c33 0 70 -11 105 -36c21 -15 46 -23 66 -23c21 0 39 9 44 29
c2 6 6 9 11 9c6 0 12 -5 12 -12c0 -1 -1 -2 -1 -3c-17 -65 -78 -102 -137 -102c-36 0 -71 14 -96 44c-13 16 -31 22 -48 22c-30 0 -59 -20 -62 -55c-1 -7 -6 -11 -11 -11c-6 0 -12 4 -12 11c0 175 235 165 235 344z" fill="currentColor"/>
</a>
<a style="color:inherit;" xlink:href="textedit:///home/mojzis/pers/noty/lilywork/score_only/pasli_ovce_valasi.ly:23:30:31">
<text transform="translate(23.3503, 19.4489)" font-family="serif" font-size="1.5557" text-anchor="start" fill="currentColor">
<tspan>dli</tspan>
</text>
</a>
<rect transform="translate(24.8436, 13.9489)" x="-0.0474" y="-1.0000" width="0.0948" height="3.3042" ry="0.0235" fill="currentColor"/>
<a style="color:inherit;" xlink:href="textedit:///home/mojzis/pers/noty/lilywork/score_only/pasli_ovce_valasi.ly:15:37:38">
<circle transform="translate(29.6904, 15.9489)" stroke-linejoin="round" stroke-linecap="round" fill="currentColor" stroke="currentColor" stroke-width="0" r="0.5365"/>
<g color="rgb(100.0000%, 100.0000%, 100.0000%)">
<circle transform="translate(29.6904, 15.9489)" stroke-linejoin="round" stroke-linecap="round" fill="currentColor" stroke="currentColor" stroke-width="0" r="0.4416"/>
</g>
<text transform="translate(29.3892, 16.2671)" font-family="sans-serif" font-weight="bold" font-size="0.8731" text-anchor="start" fill="currentColor">
<tspan>E</tspan>
</text>
</a>
<a style="color:inherit;" xlink:href="textedit:///home/mojzis/pers/noty/lilywork/score_only/pasli_ovce_valasi.ly:15:39:40">
<path transform="translate(29.3189, 11.4124) scale(0.0022, -0.0022)" d="M150 477c-29 0 -59 -8 -59 -33c0 -22 36 -25 36 -47c0 -32 -26 -58 -58 -58s-57 26 -57 58c0 65 67 103 138 103c91 0 169 -33 169 -114c0 -43 -4 -82 -42 -100c-9 -4 -14 -12 -14 -21s5 -18 14 -22c41 -19 56 -57 56 -103c0 -92 -79 -140 -179 -140
c-79 0 -154 42 -154 113c0 36 30 66 66 66s65 -30 65 -66c0 -25 -40 -28 -40 -53c0 -27 32 -37 63 -37c49 0 63 61 63 117v16c0 54 -2 94 -50 94h-80c-10 0 -14 8 -14 15s4 14 14 14h80c49 0 50 43 50 99v8c0 54 -18 91 -67 91z" fill="currentColor"/>
</a>
<a style="color:inherit;" xlink:href="textedit:///home/mojzis/pers/noty/lilywork/score_only/pasli_ovce_valasi.ly:23:37:38">
<text transform="translate(27.9833, 19.4489)" font-family="serif" font-size="1.5557" text-anchor="start" fill="currentColor">
<tspan>dom</tspan>
</text>
</a>
<rect transform="translate(30.1795, 13.9489)" x="-0.0474" y="-1.5000" width="0.0948" height="3.2328" ry="0.0235" fill="currentColor"/>
<a style="color:inherit;" xlink:href="textedit:///home/mojzis/pers/noty/lilywork/score_only/pasli_ovce_valasi.ly:15:44:45">
<circle transform="translate(35.4172, 16.9489)" stroke-linejoin="round" stroke-linecap="round" fill="currentColor" stroke="currentColor" stroke-width="0" r="0.5365"/>
<g color="rgb(100.0000%, 100.0000%, 100.0000%)">
<text transform="translate(35.0959, 17.2667)" font-family="sans-serif" font-weight="bold" font-size="0.8731" text-anchor="start" fill="currentColor">
<tspan>C</tspan>
</text>
</g>
</a>
<a style="color:inherit;" xlink:href="textedit:///home/mojzis/pers/noty/lilywork/score_only/pasli_ovce_valasi.ly:15:46:47">
<path transform="translate(35.0658, 11.4124) scale(0.0022, -0.0022)" d="M175 487c18 0 58 31 58 -3v-367c0 -48 28 -94 73 -94c8 0 12 -5 12 -11s-4 -12 -12 -12c-44 0 -87 13 -131 13s-87 -13 -131 -13c-8 0 -12 6 -12 12s4 11 12 11c45 0 73 46 73 94v245c0 12 -9 19 -17 19c-4 0 -8 -3 -10 -7l-64 -136c-3 -6 -7 -9 -12 -9
c-8 0 -16 6 -16 14c0 2 1 5 2 7l117 250c3 6 10 3 16 0c13 -6 27 -13 42 -13z" fill="currentColor"/>
</a>
<a style="color:inherit;" xlink:href="textedit:///home/mojzis/pers/noty/lilywork/score_only/pasli_ovce_valasi.ly:23:41:42">
<text transform="translate(34.2122, 19.4489)" font-family="serif" font-size="1.5557" text-anchor="start" fill="currentColor">
<tspan>haj</tspan>
</text>
</a>
<a style="color:inherit;" xlink:href="textedit:///home/mojzis/pers/noty/lilywork/score_only/pasli_ovce_valasi.ly:15:27:28">
<circle transform="translate(21.3369, 15.9489)" stroke-linejoin="round" stroke-linecap="round" fill="currentColor" stroke="currentColor" stroke-width="0" r="0.5365"/>
<g color="rgb(100.0000%, 100.0000%, 100.0000%)">
<text transform="translate(21.0357, 16.2671)" font-family="sans-serif" font-weight="bold" font-size="0.8731" text-anchor="start" fill="currentColor">
<tspan>E</tspan>
</text>
</g>
</a>
<a style="color:inherit;" xlink:href="textedit:///home/mojzis/pers/noty/lilywork/score_only/pasli_ovce_valasi.ly:15:28:29">
<path transform="translate(20.9654, 11.4124) scale(0.0022, -0.0022)" d="M150 477c-29 0 -59 -8 -59 -33c0 -22 36 -25 36 -47c0 -32 -26 -58 -58 -58s-57 26 -57 58c0 65 67 103 138 103c91 0 169 -33 169 -114c0 -43 -4 -82 -42 -100c-9 -4 -14 -12 -14 -21s5 -18 14 -22c41 -19 56 -57 56 -103c0 -92 -79 -140 -179 -140
c-79 0 -154 42 -154 113c0 36 30 66 66 66s65 -30 65 -66c0 -25 -40 -28 -40 -53c0 -27 32 -37 63 -37c49 0 63 61 63 117v16c0 54 -2 94 -50 94h-80c-10 0 -14 8 -14 15s4 14 14 14h80c49 0 50 43 50 99v8c0 54 -18 91 -67 91z" fill="currentColor"/>
</a>
<a style="color:inherit;" xlink:href="textedit:///home/mojzis/pers/noty/lilywork/score_only/pasli_ovce_valasi.ly:23:24:25">
<text transform="translate(20.5838, 19.4489)" font-family="serif" font-size="1.5557" text-anchor="start" fill="currentColor">
<tspan>ty</tspan>
</text>
</a>
<rect transform="translate(21.8260, 13.9489)" x="-0.0474" y="-1.5000" width="0.0948" height="3.3042" ry="0.0235" fill="currentColor"/>
</svg>
