<svg xmlns="http://www.w3.org/2000/svg" xmlns:xlink="http://www.w3.org/1999/xlink" version="1.2" width="210.00mm" height="297.00mm" viewBox="0 0 70.2950 99.4173">
<style text="style/css">
<![CDATA[
tspan { white-space: pre; }
]]>
</style>
<!-- Page: 1/1 -->
<text transform="translate(3.3474, 1.6737)" font-family="serif" font-size="2.2000" text-anchor="start" fill="currentColor">
<tspan/>
</text>
<line transform="translate(8.3685, 8.4417)" stroke-linejoin="round" stroke-linecap="round" stroke-width="0.0729" stroke="currentColor" x1="0.0365" y1="-0.0000" x2="58.5427" y2="-0.0000"/>
<line transform="translate(8.3685, 7.4417)" stroke-linejoin="round" stroke-linecap="round" stroke-width="0.0729" stroke="currentColor" x1="0.0365" y1="-0.0000" x2="58.5427" y2="-0.0000"/>
<line transform="translate(8.3685, 6.4417)" stroke-linejoin="round" stroke-linecap="round" stroke-width="0.0729" stroke="currentColor" x1="0.0365" y1="-0.0000" x2="58.5427" y2="-0.0000"/>
<line transform="translate(8.3685, 5.4417)" stroke-linejoin="round" stroke-linecap="round" stroke-width="0.0729" stroke="currentColor" x1="0.0365" y1="-0.0000" x2="58.5427" y2="-0.0000"/>
<line transform="translate(8.3685, 4.4417)" stroke-linejoin="round" stroke-linecap="round" stroke-width="0.0729" stroke="currentColor" x1="0.0365" y1="-0.0000" x2="58.5427" y2="-0.0000"/>
<rect transform="translate(3.3474, 9.4417)" x="23.7284" y="-0.0865" width="1.6094" height="0.1729" ry="0.0865" fill="currentColor"/>
<rect transform="translate(3.3474, 9.4417)" x="21.4995" y="-0.0865" width="1.6094" height="0.1729" ry="0.0865" fill="currentColor"/>
<rect transform="translate(66.8091, 6.4417)" x="0.0000" y="-2.0000" width="0.1386" height="4.0000" ry="0.0000" fill="currentColor"/>
<rect transform="translate(29.4968, 6.4417)" x="0.0000" y="-2.0000" width="0.1386" height="4.0000" ry="0.0000" fill="currentColor"/>
<rect transform="translate(55.0936, 6.4417)" x="0.0000" y="-2.0000" width="0.1386" height="4.0000" ry="0.0000" fill="currentColor"/>
<rect transform="translate(39.6466, 6.4417)" x="0.0000" y="-2.0000" width="0.1386" height="4.0000" ry="0.0000" fill="currentColor"/>
<rect transform="translate(56.9256, 6.4417)" x="-0.0474" y="0.1958" width="0.0948" height="2.7984" ry="0.0235" fill="currentColor"/>
<text transform="translate(56.8782, 11.9417)" font-family="serif" font-size="1.5557" text-anchor="start" fill="currentColor">
<tspan>duj</tspan>
</text>
<circle transform="translate(57.4147, 6.4417)" stroke-linejoin="round" stroke-linecap="round" fill="currentColor" stroke="currentColor" stroke-width="0" r="0.5365"/>
<g color="rgb(100.0000%, 100.0000%, 100.0000%)">
<text transform="translate(57.0833, 6.7599)" font-family="sans-serif" font-weight="bold" font-size="0.8731" text-anchor="start" fill="currentColor">
<tspan>B</tspan>
</text>
</g>
<rect transform="translate(53.7199, 6.4417)" x="-0.0474" y="-0.3042" width="0.0948" height="3.2984" ry="0.0235" fill="currentColor"/>
<circle transform="translate(54.2089, 5.9417)" stroke-linejoin="round" stroke-linecap="round" fill="currentColor" stroke="currentColor" stroke-width="0" r="0.5365"/>
<g color="rgb(100.0000%, 100.0000%, 100.0000%)">
<text transform="translate(53.8876, 6.2595)" font-family="sans-serif" font-weight="bold" font-size="0.8731" text-anchor="start" fill="currentColor">
<tspan>C</tspan>
</text>
</g>
<circle transform="translate(59.0005, 5.9417)" stroke-linejoin="round" stroke-linecap="round" fill="currentColor" stroke="currentColor" stroke-width="0" r="0.5365"/>
<g color="rgb(100.0000%, 100.0000%, 100.0000%)">
<text transform="translate(58.6791, 6.2595)" font-family="sans-serif" font-weight="bold" font-size="0.8731" text-anchor="start" fill="currentColor">
<tspan>C</tspan>
</text>
</g>
<path transform="translate(55.8322, 6.4417) scale(0.0040, -0.0040)" d="M-7 375c7 4 16 6 24 6s16 -2 23 -6l-2 -177l109 18c1 0 2 1 3 1c9 0 17 -8 17 -17l7 -575c-7 -4 -16 -6 -24 -6s-17 2 -24 6l2 177l-109 -18c-1 0 -1 -1 -2 -1c-9 0 -17 8 -17 17zM132 114l-95 -15l-3 -213l96 15z" fill="currentColor"/>
<rect transform="translate(44.6501, 6.4417)" x="-0.0474" y="-0.8042" width="0.0948" height="3.6064" ry="0.0235" fill="currentColor"/>
<circle transform="translate(46.7249, 5.9417)" stroke-linejoin="round" stroke-linecap="round" fill="currentColor" stroke="currentColor" stroke-width="0" r="0.5365"/>
<g color="rgb(100.0000%, 100.0000%, 100.0000%)">
<text transform="translate(46.4036, 6.2595)" font-family="sans-serif" font-weight="bold" font-size="0.8731" text-anchor="start" fill="currentColor">
<tspan>C</tspan>
</text>
</g>
<rect transform="translate(46.2359, 6.4417)" x="-0.0474" y="-0.3042" width="0.0948" height="3.2984" ry="0.0235" fill="currentColor"/>
<circle transform="translate(49.4516, 6.4417)" stroke-linejoin="round" stroke-linecap="round" fill="currentColor" stroke="currentColor" stroke-width="0" r="0.5365"/>
<g color="rgb(100.0000%, 100.0000%, 100.0000%)">
<text transform="translate(49.1202, 6.7599)" font-family="sans-serif" font-weight="bold" font-size="0.8731" text-anchor="start" fill="currentColor">
<tspan>B</tspan>
</text>
</g>
<text transform="translate(48.9151, 11.9417)" font-family="serif" font-size="1.5557" text-anchor="start" fill="currentColor">
<tspan>duj</tspan>
</text>
<rect transform="translate(48.9626, 6.4417)" x="-0.0474" y="0.1958" width="0.0948" height="2.7984" ry="0.0235" fill="currentColor"/>
<path transform="translate(47.7651, 6.4417) scale(0.0040, -0.0040)" d="M25 44l-1 -69c0 -4 -1 -7 -1 -11c0 -22 2 -44 4 -66c46 38 96 80 96 139c0 34 -14 69 -44 69c-31 0 -53 -29 -54 -62zM-25 463c8 4 16 7 25 7s17 -3 25 -7l-6 -349c26 19 56 30 88 30c53 0 93 -46 93 -100c0 -82 -90 -118 -153 -169c-14 -11 -22 -32 -40 -32
c-12 0 -21 9 -21 21z" fill="currentColor"/>
<circle transform="translate(51.0374, 5.9417)" stroke-linejoin="round" stroke-linecap="round" fill="currentColor" stroke="currentColor" stroke-width="0" r="0.5365"/>
<g color="rgb(100.0000%, 100.0000%, 100.0000%)">
<text transform="translate(50.7160, 6.2595)" font-family="sans-serif" font-weight="bold" font-size="0.8731" text-anchor="start" fill="currentColor">
<tspan>C</tspan>
</text>
</g>
<rect transform="translate(50.5483, 6.4417)" x="-0.0474" y="-0.3042" width="0.0948" height="3.1064" ry="0.0235" fill="currentColor"/>
<circle transform="translate(52.6232, 5.4417)" stroke-linejoin="round" stroke-linecap="round" fill="currentColor" stroke="currentColor" stroke-width="0" r="0.5365"/>
<g color="rgb(100.0000%, 100.0000%, 100.0000%)">
<text transform="translate(52.2616, 5.7599)" font-family="sans-serif" font-weight="bold" font-size="0.8731" text-anchor="start" fill="currentColor">
<tspan>D</tspan>
</text>
</g>
<text transform="translate(52.0867, 11.9417)" font-family="serif" font-size="1.5557" text-anchor="start" fill="currentColor">
<tspan>daj</tspan>
</text>
<rect transform="translate(52.1341, 6.4417)" x="-0.0474" y="-0.8042" width="0.0948" height="3.6064" ry="0.0235" fill="currentColor"/>
<path transform="translate(48.9151, 6.4417)" stroke-width="0.0584" stroke-linejoin="round" stroke-linecap="round" stroke="currentColor" fill="currentColor" d="M0.4594 -1.1865C0.8176 -1.7128 1.4987 -1.8631 2.0452 -1.5365L2.0452 -1.5365C1.5176 -1.7777 0.8364 -1.6273 0.4594 -1.1865z"/>
<path transform="translate(60.0498, 6.4417)" stroke-width="0.0584" stroke-linejoin="round" stroke-linecap="round" stroke="currentColor" fill="currentColor" d="M0.6596 -2.1865C1.6146 -2.5857 2.9159 -2.1084 3.3863 -1.1865L3.3863 -1.1865C2.8858 -2.0263 1.5844 -2.5035 0.6596 -2.1865z"/>
<polygon transform="translate(60.0498, 8.6452)" stroke-linejoin="round" stroke-linecap="round" stroke-width="0.0471" fill="currentColor" stroke="currentColor" points="2.7980 0.2835 2.7980 0.7165 0.0235 0.2165 0.0235 -0.2165"/>
<polygon transform="translate(60.0498, 9.4417)" stroke-linejoin="round" stroke-linecap="round" stroke-width="0.0471" fill="currentColor" stroke="currentColor" points="2.7980 0.2835 2.7980 0.7165 0.0235 0.2165 0.0235 -0.2165"/>
<rect transform="translate(59.4387, 11.9417)" x="0.0000" y="-0.5148" width="0.5411" height="0.0948" ry="0.0292" fill="currentColor"/>
<path transform="translate(56.8782, 6.4417)" stroke-width="0.0584" stroke-linejoin="round" stroke-linecap="round" stroke="currentColor" fill="currentColor" d="M0.4594 -1.1865C0.8176 -1.7128 1.4987 -1.8631 2.0452 -1.5365L2.0452 -1.5365C1.5176 -1.7777 0.8364 -1.6273 0.4594 -1.1865z"/>
<polygon transform="translate(56.8782, 8.6452)" stroke-linejoin="round" stroke-linecap="round" stroke-width="0.0471" fill="currentColor" stroke="currentColor" points="1.6571 -0.4200 1.6571 0.0129 0.0235 0.2165 0.0235 -0.2165"/>
<polygon transform="translate(56.8782, 9.4417)" stroke-linejoin="round" stroke-linecap="round" stroke-width="0.0471" fill="currentColor" stroke="currentColor" points="1.6571 -0.4200 1.6571 0.0129 0.0235 0.2165 0.0235 -0.2165"/>
<path transform="translate(52.0867, 6.4417)" stroke-width="0.0584" stroke-linejoin="round" stroke-linecap="round" stroke="currentColor" fill="currentColor" d="M0.6721 -2.2088C1.2949 -2.4930 1.9818 -2.2114 2.2579 -1.5588L2.2579 -1.5588C1.9486 -2.1304 1.2617 -2.4120 0.6721 -2.2088z"/>
<polygon transform="translate(52.0867, 8.4417)" stroke-linejoin="round" stroke-linecap="round" stroke-width="0.0471" fill="currentColor" stroke="currentColor" points="1.6571 -0.0129 1.6571 0.4200 0.0235 0.2165 0.0235 -0.2165"/>
<polygon transform="translate(52.0867, 9.2382)" stroke-linejoin="round" stroke-linecap="round" stroke-width="0.0471" fill="currentColor" stroke="currentColor" points="1.6571 -0.0129 1.6571 0.4200 0.0235 0.2165 0.0235 -0.2165"/>
<rect transform="translate(51.4756, 11.9417)" x="0.0000" y="-0.5148" width="0.5411" height="0.0948" ry="0.0292" fill="currentColor"/>
<polygon transform="translate(48.9151, 8.6452)" stroke-linejoin="round" stroke-linecap="round" stroke-width="0.0471" fill="currentColor" stroke="currentColor" points="1.6571 -0.4200 1.6571 0.0129 0.0235 0.2165 0.0235 -0.2165"/>
<polygon transform="translate(48.9151, 9.4417)" stroke-linejoin="round" stroke-linecap="round" stroke-width="0.0471" fill="currentColor" stroke="currentColor" points="1.6571 -0.4200 1.6571 0.0129 0.0235 0.2165 0.0235 -0.2165"/>
<path transform="translate(44.6027, 6.4417)" stroke-width="0.0584" stroke-linejoin="round" stroke-linecap="round" stroke="currentColor" fill="currentColor" d="M0.6721 -2.2088C1.2949 -2.4930 1.9818 -2.2114 2.2579 -1.5588L2.2579 -1.5588C1.9486 -2.1304 1.2617 -2.4120 0.6721 -2.2088z"/>
<polygon transform="translate(44.6027, 8.4417)" stroke-linejoin="round" stroke-linecap="round" stroke-width="0.0471" fill="currentColor" stroke="currentColor" points="1.6571 -0.0129 1.6571 0.4200 0.0235 0.2165 0.0235 -0.2165"/>
<polygon transform="translate(44.6027, 9.2382)" stroke-linejoin="round" stroke-linecap="round" stroke-width="0.0471" fill="currentColor" stroke="currentColor" points="1.6571 -0.0129 1.6571 0.4200 0.0235 0.2165 0.0235 -0.2165"/>
<rect transform="translate(43.9916, 11.9417)" x="0.0000" y="-0.5148" width="0.5411" height="0.0948" ry="0.0292" fill="currentColor"/>
<path transform="translate(41.4311, 6.4417)" stroke-width="0.0584" stroke-linejoin="round" stroke-linecap="round" stroke="currentColor" fill="currentColor" d="M0.4594 -1.1865C0.8176 -1.7128 1.4987 -1.8631 2.0452 -1.5365L2.0452 -1.5365C1.5176 -1.7777 0.8364 -1.6273 0.4594 -1.1865z"/>
<polygon transform="translate(41.4311, 8.6452)" stroke-linejoin="round" stroke-linecap="round" stroke-width="0.0471" fill="currentColor" stroke="currentColor" points="1.6571 -0.4200 1.6571 0.0129 0.0235 0.2165 0.0235 -0.2165"/>
<polygon transform="translate(41.4311, 9.4417)" stroke-linejoin="round" stroke-linecap="round" stroke-width="0.0471" fill="currentColor" stroke="currentColor" points="1.6571 -0.4200 1.6571 0.0129 0.0235 0.2165 0.0235 -0.2165"/>
<circle transform="translate(60.5862, 5.4417)" stroke-linejoin="round" stroke-linecap="round" fill="currentColor" stroke="currentColor" stroke-width="0" r="0.5365"/>
<g color="rgb(100.0000%, 100.0000%, 100.0000%)">
<text transform="translate(60.2247, 5.7599)" font-family="sans-serif" font-weight="bold" font-size="0.8731" text-anchor="start" fill="currentColor">
<tspan>D</tspan>
</text>
</g>
<text transform="translate(60.0498, 11.9417)" font-family="serif" font-size="1.5557" text-anchor="start" fill="currentColor">
<tspan>daj</tspan>
</text>
<rect transform="translate(60.0972, 6.4417)" x="-0.0474" y="-0.8042" width="0.0948" height="3.8126" ry="0.0235" fill="currentColor"/>
<circle transform="translate(63.3129, 6.4417)" stroke-linejoin="round" stroke-linecap="round" fill="currentColor" stroke="currentColor" stroke-width="0" r="0.5365"/>
<g color="rgb(100.0000%, 100.0000%, 100.0000%)">
<text transform="translate(62.9815, 6.7599)" font-family="sans-serif" font-weight="bold" font-size="0.8731" text-anchor="start" fill="currentColor">
<tspan>B</tspan>
</text>
</g>
<rect transform="translate(62.8239, 6.4417)" x="-0.0474" y="0.1958" width="0.0948" height="3.2958" ry="0.0235" fill="currentColor"/>
<rect transform="translate(58.5114, 6.4417)" x="-0.0474" y="-0.3042" width="0.0948" height="3.1064" ry="0.0235" fill="currentColor"/>
<path transform="translate(61.6265, 6.4417) scale(0.0040, -0.0040)" d="M25 44l-1 -69c0 -4 -1 -7 -1 -11c0 -22 2 -44 4 -66c46 38 96 80 96 139c0 34 -14 69 -44 69c-31 0 -53 -29 -54 -62zM-25 463c8 4 16 7 25 7s17 -3 25 -7l-6 -349c26 19 56 30 88 30c53 0 93 -46 93 -100c0 -82 -90 -118 -153 -169c-14 -11 -22 -32 -40 -32
c-12 0 -21 9 -21 21z" fill="currentColor"/>
<circle transform="translate(64.8987, 5.9417)" stroke-linejoin="round" stroke-linecap="round" fill="currentColor" stroke="currentColor" stroke-width="0" r="0.5365"/>
<g color="rgb(100.0000%, 100.0000%, 100.0000%)">
<text transform="translate(64.5773, 6.2595)" font-family="sans-serif" font-weight="bold" font-size="0.8731" text-anchor="start" fill="currentColor">
<tspan>C</tspan>
</text>
</g>
<text transform="translate(63.6836, 11.9417)" font-family="serif" font-size="1.5557" text-anchor="start" fill="currentColor">
<tspan>dá.</tspan>
</text>
<rect transform="translate(64.4096, 6.4417)" x="-0.0474" y="-0.3042" width="0.0948" height="3.3042" ry="0.0235" fill="currentColor"/>
<text transform="translate(24.2758, 11.9417)" font-family="serif" font-size="1.5557" text-anchor="start" fill="currentColor">
<tspan>spo</tspan>
</text>
<rect transform="translate(26.1407, 6.4417)" x="-0.0474" y="-0.5000" width="0.0948" height="3.3042" ry="0.0235" fill="currentColor"/>
<path transform="translate(26.1881, 5.9652) scale(0.0040, -0.0040)" d="M0 0v-250h-14v250h14zM0 0c0 -198 207 -336 207 -534c0 -71 -16 -142 -42 -208c-4 -7 -10 -11 -17 -11c-12 0 -24 10 -21 25c26 62 41 127 41 194c0 104 -96 209 -168 284v250z" fill="currentColor"/>
<circle transform="translate(27.8805, 9.4417)" stroke-linejoin="round" stroke-linecap="round" fill="currentColor" stroke="currentColor" stroke-width="0" r="0.5365"/>
<g color="rgb(100.0000%, 100.0000%, 100.0000%)">
<text transform="translate(27.5592, 9.7595)" font-family="sans-serif" font-weight="bold" font-size="0.8731" text-anchor="start" fill="currentColor">
<tspan>C</tspan>
</text>
</g>
<text transform="translate(27.1274, 11.9417)" font-family="serif" font-size="1.5557" text-anchor="start" fill="currentColor">
<tspan>lu</tspan>
</text>
<rect transform="translate(28.3696, 6.4417)" x="-0.0474" y="-0.5000" width="0.0948" height="3.3042" ry="0.0235" fill="currentColor"/>
<path transform="translate(28.4170, 5.9652) scale(0.0040, -0.0040)" d="M0 0v-250h-14v250h14zM0 0c0 -198 207 -336 207 -534c0 -71 -16 -142 -42 -208c-4 -7 -10 -11 -17 -11c-12 0 -24 10 -21 25c26 62 41 127 41 194c0 104 -96 209 -168 284v250z" fill="currentColor"/>
<circle transform="translate(30.8428, 6.9417)" stroke-linejoin="round" stroke-linecap="round" fill="currentColor" stroke="currentColor" stroke-width="0" r="0.5365"/>
<g color="rgb(100.0000%, 100.0000%, 100.0000%)">
<text transform="translate(30.5014, 7.2599)" font-family="sans-serif" font-weight="bold" font-size="0.8731" text-anchor="start" fill="currentColor">
<tspan>A</tspan>
</text>
</g>
<text transform="translate(29.8687, 11.9417)" font-family="serif" font-size="1.5557" text-anchor="start" fill="currentColor">
<tspan>do</tspan>
</text>
<circle transform="translate(25.6516, 9.4417)" stroke-linejoin="round" stroke-linecap="round" fill="currentColor" stroke="currentColor" stroke-width="0" r="0.5365"/>
<g color="rgb(100.0000%, 100.0000%, 100.0000%)">
<text transform="translate(25.3302, 9.7595)" font-family="sans-serif" font-weight="bold" font-size="0.8731" text-anchor="start" fill="currentColor">
<tspan>C</tspan>
</text>
</g>
<rect transform="translate(31.3319, 6.4417)" x="-0.0474" y="-3.0000" width="0.0948" height="3.3042" ry="0.0235" fill="currentColor"/>
<path transform="translate(31.3793, 3.4652) scale(0.0040, -0.0040)" d="M0 0v-250h-14v250h14zM0 0c0 -198 207 -336 207 -534c0 -71 -16 -142 -42 -208c-4 -7 -10 -11 -17 -11c-12 0 -24 10 -21 25c26 62 41 127 41 194c0 104 -96 209 -168 284v250z" fill="currentColor"/>
<text transform="translate(44.6027, 11.9417)" font-family="serif" font-size="1.5557" text-anchor="start" fill="currentColor">
<tspan>daj,</tspan>
</text>
<circle transform="translate(18.8253, 7.9417)" stroke-linejoin="round" stroke-linecap="round" fill="currentColor" stroke="currentColor" stroke-width="0" r="0.5365"/>
<g color="rgb(100.0000%, 100.0000%, 100.0000%)">
<text transform="translate(18.5240, 8.2599)" font-family="sans-serif" font-weight="bold" font-size="0.8731" text-anchor="start" fill="currentColor">
<tspan>F</tspan>
</text>
</g>
<path transform="translate(9.1685, 7.4417) scale(0.0040, -0.0040)" d="M374 260c5 0 10 1 15 1c154 0 254 -127 254 -259c0 -76 -33 -153 -107 -208c-22 -17 -47 -29 -73 -37c3 -36 5 -72 5 -108c0 -19 0 -37 -1 -56c-7 -120 -88 -226 -206 -226c-108 0 -195 87 -195 195c0 58 53 104 112 104c54 0 95 -48 95 -104c0 -52 -43 -95 -95 -95
c-12 0 -24 4 -35 9c26 -41 70 -70 121 -70c1 0 2 1 3 1c93 2 154 93 160 192c1 18 2 35 2 53c0 32 -2 64 -5 96c-29 -5 -58 -8 -89 -8c-188 0 -333 171 -333 372c0 178 133 306 251 440c-18 63 -35 126 -42 191c-6 51 -7 102 -7 154c0 116 55 226 150 295c5 4 11 4 16 0
c70 -84 132 -246 132 -359c0 -144 -87 -256 -183 -365c20 -69 39 -138 55 -208zM459 -205c69 24 117 96 117 166c0 92 -69 184 -179 193c25 -117 48 -235 62 -359zM71 31c0 -136 131 -251 267 -251c28 0 55 2 82 6c-15 128 -38 247 -64 367c-79 -9 -125 -62 -125 -121
c0 -44 26 -92 82 -124c4 -4 7 -9 7 -14c0 -11 -9 -21 -20 -21c-3 0 -6 1 -9 2c-80 43 -116 114 -116 184c0 88 57 173 158 196c-14 60 -30 119 -46 178c-108 -121 -216 -242 -216 -402zM411 1050c-99 -50 -161 -151 -161 -262c0 -76 15 -137 33 -200c82 97 149 198 149 325
c0 58 -4 84 -21 137z" fill="currentColor"/>
<path transform="translate(12.7722, 6.4417) scale(0.0040, -0.0040)" d="M25 44l-1 -69c0 -4 -1 -7 -1 -11c0 -22 2 -44 4 -66c46 38 96 80 96 139c0 34 -14 69 -44 69c-31 0 -53 -29 -54 -62zM-25 463c8 4 16 7 25 7s17 -3 25 -7l-6 -349c26 19 56 30 88 30c53 0 93 -46 93 -100c0 -82 -90 -118 -153 -169c-14 -11 -22 -32 -40 -32
c-12 0 -21 9 -21 21z" fill="currentColor"/>
<path transform="translate(14.7925, 6.4417) scale(0.0040, -0.0040)" d="M236 355c0 61 -22 124 -75 124c-25 0 -48 -14 -48 -37c0 -27 35 -41 35 -68c0 -38 -31 -69 -69 -69s-68 31 -68 69c0 75 71 126 150 126c95 0 184 -57 184 -145c0 -158 -162 -160 -257 -229c12 3 24 5 37 5c32 0 67 -10 101 -33c23 -16 49 -25 70 -25c20 0 37 8 42 28
c1 6 6 8 10 8c5 0 11 -4 11 -10c0 -63 -85 -99 -132 -99c-35 0 -69 14 -94 42c-14 16 -32 23 -50 23c-30 0 -59 -21 -62 -55c-1 -7 -5 -10 -10 -10c-6 0 -12 4 -11 12c15 174 236 164 236 343z" fill="currentColor"/>
<path transform="translate(14.7222, 8.4576) scale(0.0040, -0.0040)" d="M208 319c21 13 42 27 57 47c11 15 18 32 25 49c4 9 20 7 20 -7v-256h68c9 0 13 -7 13 -14s-4 -13 -13 -13h-68v-16c0 -45 26 -88 68 -88c7 0 10 -5 10 -10s-3 -11 -10 -11c-41 0 -82 13 -123 13s-82 -13 -123 -13c-7 0 -10 6 -10 11s3 10 10 10c42 0 68 43 68 88v16h-173
c-21 0 -29 13 -29 21c0 2 1 5 2 6c81 96 146 208 146 333c0 10 7 18 15 15c22 -7 44 -13 67 -13s45 6 67 13c12 4 21 -8 15 -15l-283 -333h173v147c0 8 2 16 8 20z" fill="currentColor"/>
<text transform="translate(17.8010, 11.9417)" font-family="serif" font-size="1.5557" text-anchor="start" fill="currentColor">
<tspan>Pů</tspan>
</text>
<rect transform="translate(19.3143, 6.4417)" x="-0.0474" y="-2.0000" width="0.0948" height="3.3042" ry="0.0235" fill="currentColor"/>
<path transform="translate(19.3617, 4.4652) scale(0.0040, -0.0040)" d="M0 0v-250h-14v250h14zM0 0c0 -198 207 -336 207 -534c0 -71 -16 -142 -42 -208c-4 -7 -10 -11 -17 -11c-12 0 -24 10 -21 25c26 62 41 127 41 194c0 104 -96 209 -168 284v250z" fill="currentColor"/>
<circle transform="translate(21.8877, 7.9417)" stroke-linejoin="round" stroke-linecap="round" fill="currentColor" stroke="currentColor" stroke-width="0" r="0.5365"/>
<g color="rgb(100.0000%, 100.0000%, 100.0000%)">
<text transform="translate(21.5864, 8.2599)" font-family="sans-serif" font-weight="bold" font-size="0.8731" text-anchor="start" fill="currentColor">
<tspan>F</tspan>
</text>
</g>
<text transform="translate(19.9496, 11.9417)" font-family="serif" font-size="1.5557" text-anchor="start" fill="currentColor">
<tspan>jdem</tspan>
</text>
<rect transform="translate(22.3767, 6.4417)" x="-0.0474" y="-2.0000" width="0.0948" height="3.3042" ry="0.0235" fill="currentColor"/>
<path transform="translate(22.4242, 4.4652) scale(0.0040, -0.0040)" d="M0 0v-250h-14v250h14zM0 0c0 -198 207 -336 207 -534c0 -71 -16 -142 -42 -208c-4 -7 -10 -11 -17 -11c-12 0 -24 10 -21 25c26 62 41 127 41 194c0 104 -96 209 -168 284v250z" fill="currentColor"/>
<circle transform="translate(41.9676, 6.4417)" stroke-linejoin="round" stroke-linecap="round" fill="currentColor" stroke="currentColor" stroke-width="0" r="0.5365"/>
<g color="rgb(100.0000%, 100.0000%, 100.0000%)">
<text transform="translate(41.6362, 6.7599)" font-family="sans-serif" font-weight="bold" font-size="0.8731" text-anchor="start" fill="currentColor">
<tspan>B</tspan>
</text>
</g>
<text transform="translate(41.4311, 11.9417)" font-family="serif" font-size="1.5557" text-anchor="start" fill="currentColor">
<tspan>duj</tspan>
</text>
<rect transform="translate(41.4786, 6.4417)" x="-0.0474" y="0.1958" width="0.0948" height="2.7984" ry="0.0235" fill="currentColor"/>
<path transform="translate(40.3851, 6.4417) scale(0.0040, -0.0040)" d="M-7 375c7 4 16 6 24 6s16 -2 23 -6l-2 -177l109 18c1 0 2 1 3 1c9 0 17 -8 17 -17l7 -575c-7 -4 -16 -6 -24 -6s-17 2 -24 6l2 177l-109 -18c-1 0 -1 -1 -2 -1c-9 0 -17 8 -17 17zM132 114l-95 -15l-3 -213l96 15z" fill="currentColor"/>
<circle transform="translate(33.6126, 6.9417)" stroke-linejoin="round" stroke-linecap="round" fill="currentColor" stroke="currentColor" stroke-width="0" r="0.5365"/>
<g color="rgb(100.0000%, 100.0000%, 100.0000%)">
<text transform="translate(33.2711, 7.2599)" font-family="sans-serif" font-weight="bold" font-size="0.8731" text-anchor="start" fill="currentColor">
<tspan>A</tspan>
</text>
</g>
<circle transform="translate(43.5534, 5.9417)" stroke-linejoin="round" stroke-linecap="round" fill="currentColor" stroke="currentColor" stroke-width="0" r="0.5365"/>
<g color="rgb(100.0000%, 100.0000%, 100.0000%)">
<text transform="translate(43.2320, 6.2595)" font-family="sans-serif" font-weight="bold" font-size="0.8731" text-anchor="start" fill="currentColor">
<tspan>C</tspan>
</text>
</g>
<rect transform="translate(43.0643, 6.4417)" x="-0.0474" y="-0.3042" width="0.0948" height="3.1064" ry="0.0235" fill="currentColor"/>
<circle transform="translate(45.1392, 5.4417)" stroke-linejoin="round" stroke-linecap="round" fill="currentColor" stroke="currentColor" stroke-width="0" r="0.5365"/>
<g color="rgb(100.0000%, 100.0000%, 100.0000%)">
<text transform="translate(44.7776, 5.7599)" font-family="sans-serif" font-weight="bold" font-size="0.8731" text-anchor="start" fill="currentColor">
<tspan>D</tspan>
</text>
</g>
<text transform="translate(35.0582, 11.9417)" font-family="serif" font-size="1.5557" text-anchor="start" fill="currentColor">
<tspan>lé</tspan>
</text>
<rect transform="translate(36.2603, 6.4417)" x="-0.0474" y="-2.0000" width="0.0948" height="3.3042" ry="0.0235" fill="currentColor"/>
<path transform="translate(36.3077, 4.4652) scale(0.0040, -0.0040)" d="M0 0v-250h-14v250h14zM0 0c0 -198 207 -336 207 -534c0 -71 -16 -142 -42 -208c-4 -7 -10 -11 -17 -11c-12 0 -24 10 -21 25c26 62 41 127 41 194c0 104 -96 209 -168 284v250z" fill="currentColor"/>
<circle transform="translate(35.7712, 7.9417)" stroke-linejoin="round" stroke-linecap="round" fill="currentColor" stroke="currentColor" stroke-width="0" r="0.5365"/>
<g color="rgb(100.0000%, 100.0000%, 100.0000%)">
<text transform="translate(35.4699, 8.2599)" font-family="sans-serif" font-weight="bold" font-size="0.8731" text-anchor="start" fill="currentColor">
<tspan>F</tspan>
</text>
</g>
<path transform="translate(34.1490, 3.4652) scale(0.0040, -0.0040)" d="M0 0v-250h-14v250h14zM0 0c0 -198 207 -336 207 -534c0 -71 -16 -142 -42 -208c-4 -7 -10 -11 -17 -11c-12 0 -24 10 -21 25c26 62 41 127 41 194c0 104 -96 209 -168 284v250z" fill="currentColor"/>
<circle transform="translate(38.0303, 7.9417)" stroke-linejoin="round" stroke-linecap="round" fill="currentColor" stroke="currentColor" stroke-width="0" r="0.5365"/>
<g color="rgb(100.0000%, 100.0000%, 100.0000%)">
<text transform="translate(37.7290, 8.2599)" font-family="sans-serif" font-weight="bold" font-size="0.8731" text-anchor="start" fill="currentColor">
<tspan>F</tspan>
</text>
</g>
<text transform="translate(36.5842, 11.9417)" font-family="serif" font-size="1.5557" text-anchor="start" fill="currentColor">
<tspan>ma,</tspan>
</text>
<rect transform="translate(38.5193, 6.4417)" x="-0.0474" y="-2.0000" width="0.0948" height="3.3042" ry="0.0235" fill="currentColor"/>
<rect transform="translate(34.1016, 6.4417)" x="-0.0474" y="-3.0000" width="0.0948" height="3.3042" ry="0.0235" fill="currentColor"/>
<text transform="translate(32.2669, 11.9417)" font-family="serif" font-size="1.5557" text-anchor="start" fill="currentColor">
<tspan>Bet</tspan>
</text>
<path transform="translate(38.5667, 4.4652) scale(0.0040, -0.0040)" d="M0 0v-250h-14v250h14zM0 0c0 -198 207 -336 207 -534c0 -71 -16 -142 -42 -208c-4 -7 -10 -11 -17 -11c-12 0 -24 10 -21 25c26 62 41 127 41 194c0 104 -96 209 -168 284v250z" fill="currentColor"/>
<line transform="translate(3.3474, 20.4417)" stroke-linejoin="round" stroke-linecap="round" stroke-width="0.0729" stroke="currentColor" x1="0.0365" y1="-0.0000" x2="63.5638" y2="-0.0000"/>
<line transform="translate(3.3474, 19.4417)" stroke-linejoin="round" stroke-linecap="round" stroke-width="0.0729" stroke="currentColor" x1="0.0365" y1="-0.0000" x2="63.5638" y2="-0.0000"/>
<line transform="translate(3.3474, 18.4417)" stroke-linejoin="round" stroke-linecap="round" stroke-width="0.0729" stroke="currentColor" x1="0.0365" y1="-0.0000" x2="63.5638" y2="-0.0000"/>
<line transform="translate(3.3474, 17.4417)" stroke-linejoin="round" stroke-linecap="round" stroke-width="0.0729" stroke="currentColor" x1="0.0365" y1="-0.0000" x2="63.5638" y2="-0.0000"/>
<line transform="translate(3.3474, 16.4417)" stroke-linejoin="round" stroke-linecap="round" stroke-width="0.0729" stroke="currentColor" x1="0.0365" y1="-0.0000" x2="63.5638" y2="-0.0000"/>
<rect transform="translate(66.8091, 18.4417)" x="0.0000" y="-2.0000" width="0.1386" height="4.0000" ry="0.0000" fill="currentColor"/>
<rect transform="translate(24.3404, 18.4417)" x="0.0000" y="-2.0000" width="0.1386" height="4.0000" ry="0.0000" fill="currentColor"/>
<rect transform="translate(37.1779, 18.4417)" x="0.0000" y="-2.0000" width="0.1386" height="4.0000" ry="0.0000" fill="currentColor"/>
<path transform="translate(10.6650, 17.9417) scale(0.0040, -0.0040)" d="M0 0c0 32 25 57 57 57s57 -25 57 -57s-25 -57 -57 -57s-57 25 -57 57z" fill="currentColor"/>
<path transform="translate(10.6650, 18.9417) scale(0.0040, -0.0040)" d="M0 0c0 32 25 57 57 57s57 -25 57 -57s-25 -57 -57 -57s-57 25 -57 57z" fill="currentColor"/>
<rect transform="translate(10.3076, 18.4417)" x="0.0000" y="-2.0000" width="0.1386" height="4.0000" ry="0.0000" fill="currentColor"/>
<rect transform="translate(9.6511, 18.4417)" x="0.0000" y="-2.0000" width="0.4376" height="4.0000" ry="0.0000" fill="currentColor"/>
<rect transform="translate(53.1844, 18.4417)" x="0.0000" y="-2.0000" width="0.1386" height="4.0000" ry="0.0000" fill="currentColor"/>
<text transform="translate(53.7633, 23.9417)" font-family="serif" font-size="1.5557" text-anchor="start" fill="currentColor">
<tspan>ko</tspan>
</text>
<circle transform="translate(54.7073, 19.9417)" stroke-linejoin="round" stroke-linecap="round" fill="currentColor" stroke="currentColor" stroke-width="0" r="0.5365"/>
<g color="rgb(100.0000%, 100.0000%, 100.0000%)">
<text transform="translate(54.4060, 20.2599)" font-family="sans-serif" font-weight="bold" font-size="0.8731" text-anchor="start" fill="currentColor">
<tspan>F</tspan>
</text>
</g>
<rect transform="translate(51.8577, 18.4417)" x="-0.0474" y="-0.9956" width="0.0948" height="2.7998" ry="0.0235" fill="currentColor"/>
<circle transform="translate(51.3687, 20.4417)" stroke-linejoin="round" stroke-linecap="round" fill="currentColor" stroke="currentColor" stroke-width="0" r="0.5365"/>
<g color="rgb(100.0000%, 100.0000%, 100.0000%)">
<text transform="translate(51.0674, 20.7599)" font-family="sans-serif" font-weight="bold" font-size="0.8731" text-anchor="start" fill="currentColor">
<tspan>E</tspan>
</text>
</g>
<rect transform="translate(55.1963, 18.4417)" x="-0.0474" y="-2.0000" width="0.0948" height="3.3042" ry="0.0235" fill="currentColor"/>
<path transform="translate(55.2438, 16.4652) scale(0.0040, -0.0040)" d="M0 0v-250h-14v250h14zM0 0c0 -198 207 -336 207 -534c0 -71 -16 -142 -42 -208c-4 -7 -10 -11 -17 -11c-12 0 -24 10 -21 25c26 62 41 127 41 194c0 104 -96 209 -168 284v250z" fill="currentColor"/>
<rect transform="translate(14.4295, 23.9417)" x="0.0000" y="-0.5148" width="0.6600" height="0.0948" ry="0.0292" fill="currentColor"/>
<circle transform="translate(41.8603, 19.4417)" stroke-linejoin="round" stroke-linecap="round" fill="currentColor" stroke="currentColor" stroke-width="0" r="0.5365"/>
<g color="rgb(100.0000%, 100.0000%, 100.0000%)">
<text transform="translate(41.4988, 19.7595)" font-family="sans-serif" font-weight="bold" font-size="0.8731" text-anchor="start" fill="currentColor">
<tspan>G</tspan>
</text>
</g>
<text transform="translate(41.0871, 23.9417)" font-family="serif" font-size="1.5557" text-anchor="start" fill="currentColor">
<tspan>tě</tspan>
</text>
<rect transform="translate(42.3494, 18.4417)" x="-0.0474" y="-2.5000" width="0.0948" height="3.3042" ry="0.0235" fill="currentColor"/>
<path transform="translate(42.3968, 15.9652) scale(0.0040, -0.0040)" d="M0 0v-250h-14v250h14zM0 0c0 -198 207 -336 207 -534c0 -71 -16 -142 -42 -208c-4 -7 -10 -11 -17 -11c-12 0 -24 10 -21 25c26 62 41 127 41 194c0 104 -96 209 -168 284v250z" fill="currentColor"/>
<circle transform="translate(45.0199, 19.9417)" stroke-linejoin="round" stroke-linecap="round" fill="currentColor" stroke="currentColor" stroke-width="0" r="0.5365"/>
<g color="rgb(100.0000%, 100.0000%, 100.0000%)">
<text transform="translate(44.7186, 20.2599)" font-family="sans-serif" font-weight="bold" font-size="0.8731" text-anchor="start" fill="currentColor">
<tspan>F</tspan>
</text>
</g>
<text transform="translate(44.4834, 23.9417)" font-family="serif" font-size="1.5557" text-anchor="start" fill="currentColor">
<tspan>bu</tspan>
</text>
<rect transform="translate(45.5090, 18.4417)" x="-0.0474" y="-1.9956" width="0.0948" height="3.2998" ry="0.0235" fill="currentColor"/>
<circle transform="translate(47.1361, 20.4417)" stroke-linejoin="round" stroke-linecap="round" fill="currentColor" stroke="currentColor" stroke-width="0" r="0.5365"/>
<g color="rgb(100.0000%, 100.0000%, 100.0000%)">
<text transform="translate(46.8349, 20.7599)" font-family="sans-serif" font-weight="bold" font-size="0.8731" text-anchor="start" fill="currentColor">
<tspan>E</tspan>
</text>
</g>
<rect transform="translate(47.6252, 18.4417)" x="-0.0474" y="-1.8008" width="0.0948" height="3.6050" ry="0.0235" fill="currentColor"/>
<circle transform="translate(49.2524, 20.9417)" stroke-linejoin="round" stroke-linecap="round" fill="currentColor" stroke="currentColor" stroke-width="0" r="0.5365"/>
<g color="rgb(100.0000%, 100.0000%, 100.0000%)">
<text transform="translate(48.8909, 21.2599)" font-family="sans-serif" font-weight="bold" font-size="0.8731" text-anchor="start" fill="currentColor">
<tspan>D</tspan>
</text>
</g>
<text transform="translate(48.7159, 23.9417)" font-family="serif" font-size="1.5557" text-anchor="start" fill="currentColor">
<tspan>du</tspan>
</text>
<rect transform="translate(49.7415, 18.4417)" x="-0.0474" y="-0.8008" width="0.0948" height="3.1050" ry="0.0235" fill="currentColor"/>
<path transform="translate(44.4834, 18.4417)" stroke-width="0.0584" stroke-linejoin="round" stroke-linecap="round" stroke="currentColor" fill="currentColor" d="M0.4542 2.5365C0.9068 3.2163 1.8615 3.4419 2.5705 3.0365L2.5705 3.0365C1.8816 3.3567 0.9270 3.1311 0.4542 2.5365z"/>
<rect transform="translate(62.3515, 23.9417)" x="0.0000" y="-0.5148" width="0.6600" height="0.0948" ry="0.0292" fill="currentColor"/>
<rect transform="translate(58.9911, 23.9417)" x="0.0000" y="-0.5148" width="0.6600" height="0.0948" ry="0.0292" fill="currentColor"/>
<rect transform="translate(56.0725, 23.9417)" x="0.0000" y="-0.5148" width="0.6600" height="0.0948" ry="0.0292" fill="currentColor"/>
<path transform="translate(48.7159, 18.4417)" stroke-width="0.0584" stroke-linejoin="round" stroke-linecap="round" stroke="currentColor" fill="currentColor" d="M0.6187 3.5365C1.3277 3.9419 2.2824 3.7163 2.7350 3.0365L2.7350 3.0365C2.2622 3.6311 1.3076 3.8567 0.6187 3.5365z"/>
<polygon transform="translate(49.6940, 17.6452)" stroke-linejoin="round" stroke-linecap="round" stroke-width="0.0471" fill="currentColor" stroke="currentColor" points="2.1875 -0.4200 2.1875 0.0129 0.0235 0.2165 0.0235 -0.2165"/>
<polygon transform="translate(49.6940, 18.4417)" stroke-linejoin="round" stroke-linecap="round" stroke-width="0.0471" fill="currentColor" stroke="currentColor" points="2.1875 -0.4200 2.1875 0.0129 0.0235 0.2165 0.0235 -0.2165"/>
<rect transform="translate(47.2739, 23.9417)" x="0.0000" y="-0.5148" width="0.6600" height="0.0948" ry="0.0292" fill="currentColor"/>
<polygon transform="translate(45.4615, 16.4417)" stroke-linejoin="round" stroke-linecap="round" stroke-width="0.0471" fill="currentColor" stroke="currentColor" points="2.1875 -0.0129 2.1875 0.4200 0.0235 0.2165 0.0235 -0.2165"/>
<polygon transform="translate(45.4615, 17.2382)" stroke-linejoin="round" stroke-linecap="round" stroke-width="0.0471" fill="currentColor" stroke="currentColor" points="2.1875 -0.0129 2.1875 0.4200 0.0235 0.2165 0.0235 -0.2165"/>
<rect transform="translate(31.3480, 23.9417)" x="0.0000" y="-0.5148" width="0.6324" height="0.0948" ry="0.0292" fill="currentColor"/>
<path transform="translate(28.4863, 18.4417)" stroke-width="0.0584" stroke-linejoin="round" stroke-linecap="round" stroke="currentColor" fill="currentColor" d="M0.3972 -0.5365C0.7810 -1.3919 1.8826 -1.8575 2.7635 -1.5365L2.7635 -1.5365C1.9167 -1.7768 0.8151 -1.3113 0.3972 -0.5365z"/>
<polygon transform="translate(28.4863, 21.1452)" stroke-linejoin="round" stroke-linecap="round" stroke-width="0.0471" fill="currentColor" stroke="currentColor" points="2.4375 -0.7165 2.4375 -0.2835 0.0235 0.2165 0.0235 -0.2165"/>
<polygon transform="translate(28.4863, 21.9417)" stroke-linejoin="round" stroke-linecap="round" stroke-width="0.0471" fill="currentColor" stroke="currentColor" points="2.4375 -0.7165 2.4375 -0.2835 0.0235 0.2165 0.0235 -0.2165"/>
<rect transform="translate(27.3268, 23.9417)" x="0.0000" y="-0.5148" width="0.6600" height="0.0948" ry="0.0292" fill="currentColor"/>
<path transform="translate(15.6844, 18.4417)" stroke-width="0.0584" stroke-linejoin="round" stroke-linecap="round" stroke="currentColor" fill="currentColor" d="M0.3972 -1.1997C0.7810 -2.0805 1.8826 -2.5460 2.7635 -2.1997L2.7635 -2.1997C1.9167 -2.4654 0.8151 -1.9998 0.3972 -1.1997z"/>
<polygon transform="translate(15.6844, 21.1452)" stroke-linejoin="round" stroke-linecap="round" stroke-width="0.0471" fill="currentColor" stroke="currentColor" points="2.4375 -0.7165 2.4375 -0.2835 0.0235 0.2165 0.0235 -0.2165"/>
<polygon transform="translate(15.6844, 21.9417)" stroke-linejoin="round" stroke-linecap="round" stroke-width="0.0471" fill="currentColor" stroke="currentColor" points="2.4375 -0.7165 2.4375 -0.2835 0.0235 0.2165 0.0235 -0.2165"/>
<path transform="translate(61.5629, 16.4652) scale(0.0040, -0.0040)" d="M0 0v-250h-14v250h14zM0 0c0 -198 207 -336 207 -534c0 -71 -16 -142 -42 -208c-4 -7 -10 -11 -17 -11c-12 0 -24 10 -21 25c26 62 41 127 41 194c0 104 -96 209 -168 284v250z" fill="currentColor"/>
<circle transform="translate(57.8668, 18.9417)" stroke-linejoin="round" stroke-linecap="round" fill="currentColor" stroke="currentColor" stroke-width="0" r="0.5365"/>
<g color="rgb(100.0000%, 100.0000%, 100.0000%)">
<text transform="translate(57.5254, 19.2599)" font-family="sans-serif" font-weight="bold" font-size="0.8731" text-anchor="start" fill="currentColor">
<tspan>A</tspan>
</text>
</g>
<text transform="translate(57.1539, 23.9417)" font-family="serif" font-size="1.5557" text-anchor="start" fill="currentColor">
<tspan>lé</tspan>
</text>
<rect transform="translate(58.3559, 18.4417)" x="-0.0474" y="-3.0000" width="0.0948" height="3.3042" ry="0.0235" fill="currentColor"/>
<path transform="translate(58.4033, 15.4652) scale(0.0040, -0.0040)" d="M0 0v-250h-14v250h14zM0 0c0 -198 207 -336 207 -534c0 -71 -16 -142 -42 -208c-4 -7 -10 -11 -17 -11c-12 0 -24 10 -21 25c26 62 41 127 41 194c0 104 -96 209 -168 284v250z" fill="currentColor"/>
<circle transform="translate(61.0264, 19.9417)" stroke-linejoin="round" stroke-linecap="round" fill="currentColor" stroke="currentColor" stroke-width="0" r="0.5365"/>
<g color="rgb(100.0000%, 100.0000%, 100.0000%)">
<text transform="translate(60.7251, 20.2599)" font-family="sans-serif" font-weight="bold" font-size="0.8731" text-anchor="start" fill="currentColor">
<tspan>F</tspan>
</text>
</g>
<text transform="translate(60.0624, 23.9417)" font-family="serif" font-size="1.5557" text-anchor="start" fill="currentColor">
<tspan>ba</tspan>
</text>
<rect transform="translate(61.5155, 18.4417)" x="-0.0474" y="-2.0000" width="0.0948" height="3.3042" ry="0.0235" fill="currentColor"/>
<circle transform="translate(64.1860, 18.9417)" stroke-linejoin="round" stroke-linecap="round" fill="currentColor" stroke="currentColor" stroke-width="0" r="0.5365"/>
<g color="rgb(100.0000%, 100.0000%, 100.0000%)">
<text transform="translate(63.8445, 19.2599)" font-family="sans-serif" font-weight="bold" font-size="0.8731" text-anchor="start" fill="currentColor">
<tspan>A</tspan>
</text>
</g>
<text transform="translate(63.3726, 23.9417)" font-family="serif" font-size="1.5557" text-anchor="start" fill="currentColor">
<tspan>ti,</tspan>
</text>
<rect transform="translate(64.6750, 18.4417)" x="-0.0474" y="-3.0000" width="0.0948" height="3.3042" ry="0.0235" fill="currentColor"/>
<path transform="translate(64.7224, 15.4652) scale(0.0040, -0.0040)" d="M0 0v-250h-14v250h14zM0 0c0 -198 207 -336 207 -534c0 -71 -16 -142 -42 -208c-4 -7 -10 -11 -17 -11c-12 0 -24 10 -21 25c26 62 41 127 41 194c0 104 -96 209 -168 284v250z" fill="currentColor"/>
<rect transform="translate(20.9627, 18.4417)" x="-0.0474" y="-2.5000" width="0.0948" height="3.3042" ry="0.0235" fill="currentColor"/>
<rect transform="translate(15.7319, 18.4417)" x="-0.0474" y="0.1958" width="0.0948" height="3.2945" ry="0.0235" fill="currentColor"/>
<circle transform="translate(18.5872, 17.4417)" stroke-linejoin="round" stroke-linecap="round" fill="currentColor" stroke="currentColor" stroke-width="0" r="0.5365"/>
<g color="rgb(100.0000%, 100.0000%, 100.0000%)">
<text transform="translate(18.2257, 17.7599)" font-family="sans-serif" font-weight="bold" font-size="0.8731" text-anchor="start" fill="currentColor">
<tspan>D</tspan>
</text>
</g>
<rect transform="translate(18.0981, 18.4417)" x="-0.0474" y="-0.8042" width="0.0948" height="3.8138" ry="0.0235" fill="currentColor"/>
<circle transform="translate(20.4737, 19.4417)" stroke-linejoin="round" stroke-linecap="round" fill="currentColor" stroke="currentColor" stroke-width="0" r="0.5365"/>
<g color="rgb(100.0000%, 100.0000%, 100.0000%)">
<text transform="translate(20.1121, 19.7595)" font-family="sans-serif" font-weight="bold" font-size="0.8731" text-anchor="start" fill="currentColor">
<tspan>G</tspan>
</text>
</g>
<text transform="translate(19.2485, 23.9417)" font-family="serif" font-size="1.5557" text-anchor="start" fill="currentColor">
<tspan>ku,</tspan>
</text>
<text transform="translate(15.6844, 23.9417)" font-family="serif" font-size="1.5557" text-anchor="start" fill="currentColor">
<tspan>žíš</tspan>
</text>
<circle transform="translate(25.8632, 18.9417)" stroke-linejoin="round" stroke-linecap="round" fill="currentColor" stroke="currentColor" stroke-width="0" r="0.5365"/>
<g color="rgb(100.0000%, 100.0000%, 100.0000%)">
<text transform="translate(25.5218, 19.2599)" font-family="sans-serif" font-weight="bold" font-size="0.8731" text-anchor="start" fill="currentColor">
<tspan>A</tspan>
</text>
</g>
<text transform="translate(24.8992, 23.9417)" font-family="serif" font-size="1.5557" text-anchor="start" fill="currentColor">
<tspan>pa</tspan>
</text>
<rect transform="translate(26.3523, 18.4417)" x="-0.0474" y="-3.0000" width="0.0948" height="3.3042" ry="0.0235" fill="currentColor"/>
<path transform="translate(26.3997, 15.4652) scale(0.0040, -0.0040)" d="M0 0v-250h-14v250h14zM0 0c0 -198 207 -336 207 -534c0 -71 -16 -142 -42 -208c-4 -7 -10 -11 -17 -11c-12 0 -24 10 -21 25c26 62 41 127 41 194c0 104 -96 209 -168 284v250z" fill="currentColor"/>
<text transform="translate(2.2427, 15.3805)" font-family="serif" font-size="1.7463" text-anchor="start" fill="currentColor">
<tspan>5</tspan>
</text>
<path transform="translate(4.1474, 19.4417) scale(0.0040, -0.0040)" d="M374 260c5 0 10 1 15 1c154 0 254 -127 254 -259c0 -76 -33 -153 -107 -208c-22 -17 -47 -29 -73 -37c3 -36 5 -72 5 -108c0 -19 0 -37 -1 -56c-7 -120 -88 -226 -206 -226c-108 0 -195 87 -195 195c0 58 53 104 112 104c54 0 95 -48 95 -104c0 -52 -43 -95 -95 -95
c-12 0 -24 4 -35 9c26 -41 70 -70 121 -70c1 0 2 1 3 1c93 2 154 93 160 192c1 18 2 35 2 53c0 32 -2 64 -5 96c-29 -5 -58 -8 -89 -8c-188 0 -333 171 -333 372c0 178 133 306 251 440c-18 63 -35 126 -42 191c-6 51 -7 102 -7 154c0 116 55 226 150 295c5 4 11 4 16 0
c70 -84 132 -246 132 -359c0 -144 -87 -256 -183 -365c20 -69 39 -138 55 -208zM459 -205c69 24 117 96 117 166c0 92 -69 184 -179 193c25 -117 48 -235 62 -359zM71 31c0 -136 131 -251 267 -251c28 0 55 2 82 6c-15 128 -38 247 -64 367c-79 -9 -125 -62 -125 -121
c0 -44 26 -92 82 -124c4 -4 7 -9 7 -14c0 -11 -9 -21 -20 -21c-3 0 -6 1 -9 2c-80 43 -116 114 -116 184c0 88 57 173 158 196c-14 60 -30 119 -46 178c-108 -121 -216 -242 -216 -402zM411 1050c-99 -50 -161 -151 -161 -262c0 -76 15 -137 33 -200c82 97 149 198 149 325
c0 58 -4 84 -21 137z" fill="currentColor"/>
<path transform="translate(7.7511, 18.4417) scale(0.0040, -0.0040)" d="M25 44l-1 -69c0 -4 -1 -7 -1 -11c0 -22 2 -44 4 -66c46 38 96 80 96 139c0 34 -14 69 -44 69c-31 0 -53 -29 -54 -62zM-25 463c8 4 16 7 25 7s17 -3 25 -7l-6 -349c26 19 56 30 88 30c53 0 93 -46 93 -100c0 -82 -90 -118 -153 -169c-14 -11 -22 -32 -40 -32
c-12 0 -21 9 -21 21z" fill="currentColor"/>
<circle transform="translate(13.0614, 18.4417)" stroke-linejoin="round" stroke-linecap="round" fill="currentColor" stroke="currentColor" stroke-width="0" r="0.5365"/>
<g color="rgb(100.0000%, 100.0000%, 100.0000%)">
<text transform="translate(12.7300, 18.7599)" font-family="sans-serif" font-weight="bold" font-size="0.8731" text-anchor="start" fill="currentColor">
<tspan>B</tspan>
</text>
</g>
<text transform="translate(12.2881, 23.9417)" font-family="serif" font-size="1.5557" text-anchor="start" fill="currentColor">
<tspan>Je</tspan>
</text>
<rect transform="translate(12.5723, 18.4417)" x="-0.0474" y="0.1958" width="0.0948" height="3.1792" ry="0.0235" fill="currentColor"/>
<path transform="translate(12.6197, 21.7932) scale(0.0040, -0.0040)" d="M0 0h-14v250h14v-250zM0 0v250c98 58 228 147 228 259c0 57 -15 112 -40 164c-3 15 9 25 21 25c7 0 14 -3 18 -10c25 -56 40 -117 40 -179c0 -203 -267 -306 -267 -509z" fill="currentColor"/>
<circle transform="translate(16.2209, 18.4417)" stroke-linejoin="round" stroke-linecap="round" fill="currentColor" stroke="currentColor" stroke-width="0" r="0.5365"/>
<g color="rgb(100.0000%, 100.0000%, 100.0000%)">
<text transform="translate(15.8895, 18.7599)" font-family="sans-serif" font-weight="bold" font-size="0.8731" text-anchor="start" fill="currentColor">
<tspan>B</tspan>
</text>
</g>
<text transform="translate(37.9978, 23.9417)" font-family="serif" font-size="1.5557" text-anchor="start" fill="currentColor">
<tspan>já</tspan>
</text>
<rect transform="translate(30.9000, 18.4417)" x="-0.0474" y="-0.3042" width="0.0948" height="3.3138" ry="0.0235" fill="currentColor"/>
<circle transform="translate(33.2755, 19.9417)" stroke-linejoin="round" stroke-linecap="round" fill="currentColor" stroke="currentColor" stroke-width="0" r="0.5365"/>
<g color="rgb(100.0000%, 100.0000%, 100.0000%)">
<text transform="translate(32.9742, 20.2599)" font-family="sans-serif" font-weight="bold" font-size="0.8731" text-anchor="start" fill="currentColor">
<tspan>F</tspan>
</text>
</g>
<text transform="translate(32.0504, 23.9417)" font-family="serif" font-size="1.5557" text-anchor="start" fill="currentColor">
<tspan>ku,</tspan>
</text>
<rect transform="translate(33.7646, 18.4417)" x="-0.0474" y="-2.0000" width="0.0948" height="3.3042" ry="0.0235" fill="currentColor"/>
<circle transform="translate(38.7008, 19.4417)" stroke-linejoin="round" stroke-linecap="round" fill="currentColor" stroke="currentColor" stroke-width="0" r="0.5365"/>
<g color="rgb(100.0000%, 100.0000%, 100.0000%)">
<text transform="translate(38.3392, 19.7595)" font-family="sans-serif" font-weight="bold" font-size="0.8731" text-anchor="start" fill="currentColor">
<tspan>G</tspan>
</text>
</g>
<rect transform="translate(39.1898, 18.4417)" x="-0.0474" y="-2.5000" width="0.0948" height="3.3042" ry="0.0235" fill="currentColor"/>
<path transform="translate(39.2372, 15.9652) scale(0.0040, -0.0040)" d="M0 0v-250h-14v250h14zM0 0c0 -198 207 -336 207 -534c0 -71 -16 -142 -42 -208c-4 -7 -10 -11 -17 -11c-12 0 -24 10 -21 25c26 62 41 127 41 194c0 104 -96 209 -168 284v250z" fill="currentColor"/>
<circle transform="translate(31.3890, 17.9417)" stroke-linejoin="round" stroke-linecap="round" fill="currentColor" stroke="currentColor" stroke-width="0" r="0.5365"/>
<g color="rgb(100.0000%, 100.0000%, 100.0000%)">
<text transform="translate(31.0677, 18.2595)" font-family="sans-serif" font-weight="bold" font-size="0.8731" text-anchor="start" fill="currentColor">
<tspan>C</tspan>
</text>
</g>
<circle transform="translate(29.0228, 18.9417)" stroke-linejoin="round" stroke-linecap="round" fill="currentColor" stroke="currentColor" stroke-width="0" r="0.5365"/>
<g color="rgb(100.0000%, 100.0000%, 100.0000%)">
<text transform="translate(28.6813, 19.2599)" font-family="sans-serif" font-weight="bold" font-size="0.8731" text-anchor="start" fill="currentColor">
<tspan>A</tspan>
</text>
</g>
<text transform="translate(28.4863, 23.9417)" font-family="serif" font-size="1.5557" text-anchor="start" fill="currentColor">
<tspan>náč</tspan>
</text>
<rect transform="translate(28.5337, 18.4417)" x="-0.0474" y="0.6958" width="0.0948" height="2.7945" ry="0.0235" fill="currentColor"/>
<line transform="translate(3.3474, 32.4417)" stroke-linejoin="round" stroke-linecap="round" stroke-width="0.0729" stroke="currentColor" x1="0.0365" y1="-0.0000" x2="63.5638" y2="-0.0000"/>
<line transform="translate(3.3474, 31.4417)" stroke-linejoin="round" stroke-linecap="round" stroke-width="0.0729" stroke="currentColor" x1="0.0365" y1="-0.0000" x2="63.5638" y2="-0.0000"/>
<line transform="translate(3.3474, 30.4417)" stroke-linejoin="round" stroke-linecap="round" stroke-width="0.0729" stroke="currentColor" x1="0.0365" y1="-0.0000" x2="63.5638" y2="-0.0000"/>
<line transform="translate(3.3474, 29.4417)" stroke-linejoin="round" stroke-linecap="round" stroke-width="0.0729" stroke="currentColor" x1="0.0365" y1="-0.0000" x2="63.5638" y2="-0.0000"/>
<line transform="translate(3.3474, 28.4417)" stroke-linejoin="round" stroke-linecap="round" stroke-width="0.0729" stroke="currentColor" x1="0.0365" y1="-0.0000" x2="63.5638" y2="-0.0000"/>
<rect transform="translate(53.7488, 30.4417)" x="0.0000" y="-2.0000" width="0.1386" height="4.0000" ry="0.0000" fill="currentColor"/>
<rect transform="translate(23.4960, 30.4417)" x="0.0000" y="-2.0000" width="0.1386" height="4.0000" ry="0.0000" fill="currentColor"/>
<rect transform="translate(66.5100, 30.4417)" x="0.0000" y="-2.0000" width="0.4376" height="4.0000" ry="0.0000" fill="currentColor"/>
<rect transform="translate(66.1526, 30.4417)" x="0.0000" y="-2.0000" width="0.1386" height="4.0000" ry="0.0000" fill="currentColor"/>
<rect transform="translate(36.9930, 30.4417)" x="0.0000" y="-2.0000" width="0.1386" height="4.0000" ry="0.0000" fill="currentColor"/>
<circle transform="translate(49.6369, 32.9417)" stroke-linejoin="round" stroke-linecap="round" fill="currentColor" stroke="currentColor" stroke-width="0" r="0.5365"/>
<g color="rgb(100.0000%, 100.0000%, 100.0000%)">
<text transform="translate(49.2754, 33.2599)" font-family="sans-serif" font-weight="bold" font-size="0.8731" text-anchor="start" fill="currentColor">
<tspan>D</tspan>
</text>
</g>
<rect transform="translate(13.0457, 35.9417)" x="0.0000" y="-0.5148" width="0.6600" height="0.0948" ry="0.0292" fill="currentColor"/>
<text transform="translate(49.1005, 35.9417)" font-family="serif" font-size="1.5557" text-anchor="start" fill="currentColor">
<tspan>du</tspan>
</text>
<rect transform="translate(50.1260, 30.4417)" x="-0.0474" y="-0.8007" width="0.0948" height="3.1048" ry="0.0235" fill="currentColor"/>
<circle transform="translate(51.8431, 32.4417)" stroke-linejoin="round" stroke-linecap="round" fill="currentColor" stroke="currentColor" stroke-width="0" r="0.5365"/>
<g color="rgb(100.0000%, 100.0000%, 100.0000%)">
<text transform="translate(51.5419, 32.7599)" font-family="sans-serif" font-weight="bold" font-size="0.8731" text-anchor="start" fill="currentColor">
<tspan>E</tspan>
</text>
</g>
<rect transform="translate(52.3322, 30.4417)" x="-0.0474" y="-0.9958" width="0.0948" height="2.8000" ry="0.0235" fill="currentColor"/>
<circle transform="translate(55.3016, 31.9417)" stroke-linejoin="round" stroke-linecap="round" fill="currentColor" stroke="currentColor" stroke-width="0" r="0.5365"/>
<g color="rgb(100.0000%, 100.0000%, 100.0000%)">
<text transform="translate(55.0004, 32.2599)" font-family="sans-serif" font-weight="bold" font-size="0.8731" text-anchor="start" fill="currentColor">
<tspan>F</tspan>
</text>
</g>
<text transform="translate(54.3577, 35.9417)" font-family="serif" font-size="1.5557" text-anchor="start" fill="currentColor">
<tspan>ko</tspan>
</text>
<rect transform="translate(55.7907, 30.4417)" x="-0.0474" y="-2.0000" width="0.0948" height="3.3042" ry="0.0235" fill="currentColor"/>
<path transform="translate(55.8381, 28.4652) scale(0.0040, -0.0040)" d="M0 0v-250h-14v250h14zM0 0c0 -198 207 -336 207 -534c0 -71 -16 -142 -42 -208c-4 -7 -10 -11 -17 -11c-12 0 -24 10 -21 25c26 62 41 127 41 194c0 104 -96 209 -168 284v250z" fill="currentColor"/>
<circle transform="translate(45.2246, 31.9417)" stroke-linejoin="round" stroke-linecap="round" fill="currentColor" stroke="currentColor" stroke-width="0" r="0.5365"/>
<g color="rgb(100.0000%, 100.0000%, 100.0000%)">
<text transform="translate(44.9233, 32.2599)" font-family="sans-serif" font-weight="bold" font-size="0.8731" text-anchor="start" fill="currentColor">
<tspan>F</tspan>
</text>
</g>
<circle transform="translate(41.8852, 31.4417)" stroke-linejoin="round" stroke-linecap="round" fill="currentColor" stroke="currentColor" stroke-width="0" r="0.5365"/>
<g color="rgb(100.0000%, 100.0000%, 100.0000%)">
<text transform="translate(41.5237, 31.7595)" font-family="sans-serif" font-weight="bold" font-size="0.8731" text-anchor="start" fill="currentColor">
<tspan>G</tspan>
</text>
</g>
<text transform="translate(41.1120, 35.9417)" font-family="serif" font-size="1.5557" text-anchor="start" fill="currentColor">
<tspan>tě</tspan>
</text>
<rect transform="translate(42.3743, 30.4417)" x="-0.0474" y="-2.5000" width="0.0948" height="3.3042" ry="0.0235" fill="currentColor"/>
<path transform="translate(42.4217, 27.9652) scale(0.0040, -0.0040)" d="M0 0v-250h-14v250h14zM0 0c0 -198 207 -336 207 -534c0 -71 -16 -142 -42 -208c-4 -7 -10 -11 -17 -11c-12 0 -24 10 -21 25c26 62 41 127 41 194c0 104 -96 209 -168 284v250z" fill="currentColor"/>
<text transform="translate(44.6881, 35.9417)" font-family="serif" font-size="1.5557" text-anchor="start" fill="currentColor">
<tspan>bu</tspan>
</text>
<rect transform="translate(45.7137, 30.4417)" x="-0.0474" y="-1.9958" width="0.0948" height="3.3000" ry="0.0235" fill="currentColor"/>
<circle transform="translate(47.4308, 32.4417)" stroke-linejoin="round" stroke-linecap="round" fill="currentColor" stroke="currentColor" stroke-width="0" r="0.5365"/>
<g color="rgb(100.0000%, 100.0000%, 100.0000%)">
<text transform="translate(47.1295, 32.7599)" font-family="sans-serif" font-weight="bold" font-size="0.8731" text-anchor="start" fill="currentColor">
<tspan>E</tspan>
</text>
</g>
<rect transform="translate(47.9198, 30.4417)" x="-0.0474" y="-1.8007" width="0.0948" height="3.6048" ry="0.0235" fill="currentColor"/>
<path transform="translate(44.6881, 30.4417)" stroke-width="0.0584" stroke-linejoin="round" stroke-linecap="round" stroke="currentColor" fill="currentColor" d="M0.4574 2.5365C0.9320 3.2346 1.9344 3.4618 2.6636 3.0365L2.6636 3.0365C1.9538 3.3764 0.9513 3.1492 0.4574 2.5365z"/>
<rect transform="translate(59.5740, 35.9417)" x="0.0000" y="-0.5148" width="0.6600" height="0.0948" ry="0.0292" fill="currentColor"/>
<rect transform="translate(56.7568, 35.9417)" x="0.0000" y="-0.5148" width="0.6600" height="0.0948" ry="0.0292" fill="currentColor"/>
<path transform="translate(49.1005, 30.4417)" stroke-width="0.0584" stroke-linejoin="round" stroke-linecap="round" stroke="currentColor" fill="currentColor" d="M0.6155 3.5365C1.3447 3.9618 2.3471 3.7346 2.8217 3.0365L2.8217 3.0365C2.3278 3.6492 1.3254 3.8764 0.6155 3.5365z"/>
<polygon transform="translate(50.0786, 29.6452)" stroke-linejoin="round" stroke-linecap="round" stroke-width="0.0471" fill="currentColor" stroke="currentColor" points="2.2775 -0.4200 2.2775 0.0129 0.0235 0.2165 0.0235 -0.2165"/>
<polygon transform="translate(50.0786, 30.4417)" stroke-linejoin="round" stroke-linecap="round" stroke-width="0.0471" fill="currentColor" stroke="currentColor" points="2.2775 -0.4200 2.2775 0.0129 0.0235 0.2165 0.0235 -0.2165"/>
<rect transform="translate(47.5685, 35.9417)" x="0.0000" y="-0.5148" width="0.6600" height="0.0948" ry="0.0292" fill="currentColor"/>
<polygon transform="translate(45.6662, 28.4417)" stroke-linejoin="round" stroke-linecap="round" stroke-width="0.0471" fill="currentColor" stroke="currentColor" points="2.2775 -0.0129 2.2775 0.4200 0.0235 0.2165 0.0235 -0.2165"/>
<polygon transform="translate(45.6662, 29.2382)" stroke-linejoin="round" stroke-linecap="round" stroke-width="0.0471" fill="currentColor" stroke="currentColor" points="2.2775 -0.0129 2.2775 0.4200 0.0235 0.2165 0.0235 -0.2165"/>
<rect transform="translate(30.7896, 35.9417)" x="0.0000" y="-0.5148" width="0.6600" height="0.0948" ry="0.0292" fill="currentColor"/>
<path transform="translate(27.8518, 30.4417)" stroke-width="0.0584" stroke-linejoin="round" stroke-linecap="round" stroke="currentColor" fill="currentColor" d="M0.4016 -0.5365C0.8073 -1.4089 1.9581 -1.8774 2.8578 -1.5365L2.8578 -1.5365C1.9911 -1.7963 0.8403 -1.3278 0.4016 -0.5365z"/>
<polygon transform="translate(27.8518, 33.1452)" stroke-linejoin="round" stroke-linecap="round" stroke-width="0.0471" fill="currentColor" stroke="currentColor" points="2.5275 -0.7165 2.5275 -0.2835 0.0235 0.2165 0.0235 -0.2165"/>
<polygon transform="translate(27.8518, 33.9417)" stroke-linejoin="round" stroke-linecap="round" stroke-width="0.0471" fill="currentColor" stroke="currentColor" points="2.5275 -0.7165 2.5275 -0.2835 0.0235 0.2165 0.0235 -0.2165"/>
<rect transform="translate(26.6023, 35.9417)" x="0.0000" y="-0.5148" width="0.6600" height="0.0948" ry="0.0292" fill="currentColor"/>
<path transform="translate(14.3905, 30.4417)" stroke-width="0.0584" stroke-linejoin="round" stroke-linecap="round" stroke="currentColor" fill="currentColor" d="M0.4016 -1.1950C0.8073 -2.0841 1.9581 -2.5526 2.8578 -2.1950L2.8578 -2.1950C1.9911 -2.4715 0.8403 -2.0030 0.4016 -1.1950z"/>
<polygon transform="translate(14.3905, 33.1452)" stroke-linejoin="round" stroke-linecap="round" stroke-width="0.0471" fill="currentColor" stroke="currentColor" points="2.5275 -0.7165 2.5275 -0.2835 0.0235 0.2165 0.0235 -0.2165"/>
<polygon transform="translate(14.3905, 33.9417)" stroke-linejoin="round" stroke-linecap="round" stroke-width="0.0471" fill="currentColor" stroke="currentColor" points="2.5275 -0.7165 2.5275 -0.2835 0.0235 0.2165 0.0235 -0.2165"/>
<path transform="translate(59.1775, 27.4652) scale(0.0040, -0.0040)" d="M0 0v-250h-14v250h14zM0 0c0 -198 207 -336 207 -534c0 -71 -16 -142 -42 -208c-4 -7 -10 -11 -17 -11c-12 0 -24 10 -21 25c26 62 41 127 41 194c0 104 -96 209 -168 284v250z" fill="currentColor"/>
<circle transform="translate(58.6410, 30.9417)" stroke-linejoin="round" stroke-linecap="round" fill="currentColor" stroke="currentColor" stroke-width="0" r="0.5365"/>
<g color="rgb(100.0000%, 100.0000%, 100.0000%)">
<text transform="translate(58.2996, 31.2599)" font-family="sans-serif" font-weight="bold" font-size="0.8731" text-anchor="start" fill="currentColor">
<tspan>A</tspan>
</text>
</g>
<text transform="translate(57.9280, 35.9417)" font-family="serif" font-size="1.5557" text-anchor="start" fill="currentColor">
<tspan>lé</tspan>
</text>
<rect transform="translate(59.1301, 30.4417)" x="-0.0474" y="-3.0000" width="0.0948" height="3.3042" ry="0.0235" fill="currentColor"/>
<circle transform="translate(61.9804, 31.9417)" stroke-linejoin="round" stroke-linecap="round" fill="currentColor" stroke="currentColor" stroke-width="0" r="0.5365"/>
<g color="rgb(100.0000%, 100.0000%, 100.0000%)">
<text transform="translate(61.6792, 32.2599)" font-family="sans-serif" font-weight="bold" font-size="0.8731" text-anchor="start" fill="currentColor">
<tspan>F</tspan>
</text>
</g>
<text transform="translate(60.4540, 35.9417)" font-family="serif" font-size="1.5557" text-anchor="start" fill="currentColor">
<tspan>bat.</tspan>
</text>
<rect transform="translate(62.4695, 30.4417)" x="-0.0474" y="-2.0000" width="0.0948" height="3.3042" ry="0.0235" fill="currentColor"/>
<circle transform="translate(19.3596, 31.4417)" stroke-linejoin="round" stroke-linecap="round" fill="currentColor" stroke="currentColor" stroke-width="0" r="0.5365"/>
<g color="rgb(100.0000%, 100.0000%, 100.0000%)">
<text transform="translate(18.9981, 31.7595)" font-family="sans-serif" font-weight="bold" font-size="0.8731" text-anchor="start" fill="currentColor">
<tspan>G</tspan>
</text>
</g>
<text transform="translate(14.3905, 35.9417)" font-family="serif" font-size="1.5557" text-anchor="start" fill="currentColor">
<tspan>žíš</tspan>
</text>
<rect transform="translate(14.4379, 30.4417)" x="-0.0474" y="0.1958" width="0.0948" height="3.2949" ry="0.0235" fill="currentColor"/>
<circle transform="translate(17.3832, 29.4417)" stroke-linejoin="round" stroke-linecap="round" fill="currentColor" stroke="currentColor" stroke-width="0" r="0.5365"/>
<g color="rgb(100.0000%, 100.0000%, 100.0000%)">
<text transform="translate(17.0217, 29.7599)" font-family="sans-serif" font-weight="bold" font-size="0.8731" text-anchor="start" fill="currentColor">
<tspan>D</tspan>
</text>
</g>
<rect transform="translate(16.8941, 30.4417)" x="-0.0474" y="-0.8042" width="0.0948" height="3.8135" ry="0.0235" fill="currentColor"/>
<circle transform="translate(14.9270, 30.4417)" stroke-linejoin="round" stroke-linecap="round" fill="currentColor" stroke="currentColor" stroke-width="0" r="0.5365"/>
<g color="rgb(100.0000%, 100.0000%, 100.0000%)">
<text transform="translate(14.5956, 30.7599)" font-family="sans-serif" font-weight="bold" font-size="0.8731" text-anchor="start" fill="currentColor">
<tspan>B</tspan>
</text>
</g>
<text transform="translate(18.1344, 35.9417)" font-family="serif" font-size="1.5557" text-anchor="start" fill="currentColor">
<tspan>ku,</tspan>
</text>
<rect transform="translate(19.8486, 30.4417)" x="-0.0474" y="-2.5000" width="0.0948" height="3.3042" ry="0.0235" fill="currentColor"/>
<circle transform="translate(25.0488, 30.9417)" stroke-linejoin="round" stroke-linecap="round" fill="currentColor" stroke="currentColor" stroke-width="0" r="0.5365"/>
<g color="rgb(100.0000%, 100.0000%, 100.0000%)">
<text transform="translate(24.7074, 31.2599)" font-family="sans-serif" font-weight="bold" font-size="0.8731" text-anchor="start" fill="currentColor">
<tspan>A</tspan>
</text>
</g>
<text transform="translate(24.0848, 35.9417)" font-family="serif" font-size="1.5557" text-anchor="start" fill="currentColor">
<tspan>pa</tspan>
</text>
<rect transform="translate(25.5379, 30.4417)" x="-0.0474" y="-3.0000" width="0.0948" height="3.3042" ry="0.0235" fill="currentColor"/>
<path transform="translate(25.5853, 27.4652) scale(0.0040, -0.0040)" d="M0 0v-250h-14v250h14zM0 0c0 -198 207 -336 207 -534c0 -71 -16 -142 -42 -208c-4 -7 -10 -11 -17 -11c-12 0 -24 10 -21 25c26 62 41 127 41 194c0 104 -96 209 -168 284v250z" fill="currentColor"/>
<text transform="translate(2.2427, 27.3805)" font-family="serif" font-size="1.7463" text-anchor="start" fill="currentColor">
<tspan>9</tspan>
</text>
<path transform="translate(4.1474, 31.4417) scale(0.0040, -0.0040)" d="M374 260c5 0 10 1 15 1c154 0 254 -127 254 -259c0 -76 -33 -153 -107 -208c-22 -17 -47 -29 -73 -37c3 -36 5 -72 5 -108c0 -19 0 -37 -1 -56c-7 -120 -88 -226 -206 -226c-108 0 -195 87 -195 195c0 58 53 104 112 104c54 0 95 -48 95 -104c0 -52 -43 -95 -95 -95
c-12 0 -24 4 -35 9c26 -41 70 -70 121 -70c1 0 2 1 3 1c93 2 154 93 160 192c1 18 2 35 2 53c0 32 -2 64 -5 96c-29 -5 -58 -8 -89 -8c-188 0 -333 171 -333 372c0 178 133 306 251 440c-18 63 -35 126 -42 191c-6 51 -7 102 -7 154c0 116 55 226 150 295c5 4 11 4 16 0
c70 -84 132 -246 132 -359c0 -144 -87 -256 -183 -365c20 -69 39 -138 55 -208zM459 -205c69 24 117 96 117 166c0 92 -69 184 -179 193c25 -117 48 -235 62 -359zM71 31c0 -136 131 -251 267 -251c28 0 55 2 82 6c-15 128 -38 247 -64 367c-79 -9 -125 -62 -125 -121
c0 -44 26 -92 82 -124c4 -4 7 -9 7 -14c0 -11 -9 -21 -20 -21c-3 0 -6 1 -9 2c-80 43 -116 114 -116 184c0 88 57 173 158 196c-14 60 -30 119 -46 178c-108 -121 -216 -242 -216 -402zM411 1050c-99 -50 -161 -151 -161 -262c0 -76 15 -137 33 -200c82 97 149 198 149 325
c0 58 -4 84 -21 137z" fill="currentColor"/>
<path transform="translate(7.7511, 30.4417) scale(0.0040, -0.0040)" d="M25 44l-1 -69c0 -4 -1 -7 -1 -11c0 -22 2 -44 4 -66c46 38 96 80 96 139c0 34 -14 69 -44 69c-31 0 -53 -29 -54 -62zM-25 463c8 4 16 7 25 7s17 -3 25 -7l-6 -349c26 19 56 30 88 30c53 0 93 -46 93 -100c0 -82 -90 -118 -153 -169c-14 -11 -22 -32 -40 -32
c-12 0 -21 9 -21 21z" fill="currentColor"/>
<circle transform="translate(11.5876, 30.4417)" stroke-linejoin="round" stroke-linecap="round" fill="currentColor" stroke="currentColor" stroke-width="0" r="0.5365"/>
<g color="rgb(100.0000%, 100.0000%, 100.0000%)">
<text transform="translate(11.2562, 30.7599)" font-family="sans-serif" font-weight="bold" font-size="0.8731" text-anchor="start" fill="currentColor">
<tspan>B</tspan>
</text>
</g>
<text transform="translate(10.8144, 35.9417)" font-family="serif" font-size="1.5557" text-anchor="start" fill="currentColor">
<tspan>Je</tspan>
</text>
<rect transform="translate(11.0985, 30.4417)" x="-0.0474" y="0.1958" width="0.0948" height="3.1792" ry="0.0235" fill="currentColor"/>
<path transform="translate(11.1460, 33.7932) scale(0.0040, -0.0040)" d="M0 0h-14v250h14v-250zM0 0v250c98 58 228 147 228 259c0 57 -15 112 -40 164c-3 15 9 25 21 25c7 0 14 -3 18 -10c25 -56 40 -117 40 -179c0 -203 -267 -306 -267 -509z" fill="currentColor"/>
<rect transform="translate(30.3554, 30.4417)" x="-0.0474" y="-0.3042" width="0.0948" height="3.3135" ry="0.0235" fill="currentColor"/>
<circle transform="translate(32.8208, 31.9417)" stroke-linejoin="round" stroke-linecap="round" fill="currentColor" stroke="currentColor" stroke-width="0" r="0.5365"/>
<g color="rgb(100.0000%, 100.0000%, 100.0000%)">
<text transform="translate(32.5196, 32.2599)" font-family="sans-serif" font-weight="bold" font-size="0.8731" text-anchor="start" fill="currentColor">
<tspan>F</tspan>
</text>
</g>
<text transform="translate(31.5957, 35.9417)" font-family="serif" font-size="1.5557" text-anchor="start" fill="currentColor">
<tspan>ku,</tspan>
</text>
<rect transform="translate(33.3099, 30.4417)" x="-0.0474" y="-2.0000" width="0.0948" height="3.3042" ry="0.0235" fill="currentColor"/>
<circle transform="translate(30.8444, 29.9417)" stroke-linejoin="round" stroke-linecap="round" fill="currentColor" stroke="currentColor" stroke-width="0" r="0.5365"/>
<g color="rgb(100.0000%, 100.0000%, 100.0000%)">
<text transform="translate(30.5231, 30.2595)" font-family="sans-serif" font-weight="bold" font-size="0.8731" text-anchor="start" fill="currentColor">
<tspan>C</tspan>
</text>
</g>
<circle transform="translate(38.5458, 31.4417)" stroke-linejoin="round" stroke-linecap="round" fill="currentColor" stroke="currentColor" stroke-width="0" r="0.5365"/>
<g color="rgb(100.0000%, 100.0000%, 100.0000%)">
<text transform="translate(38.1843, 31.7595)" font-family="sans-serif" font-weight="bold" font-size="0.8731" text-anchor="start" fill="currentColor">
<tspan>G</tspan>
</text>
</g>
<text transform="translate(37.8429, 35.9417)" font-family="serif" font-size="1.5557" text-anchor="start" fill="currentColor">
<tspan>já</tspan>
</text>
<rect transform="translate(39.0349, 30.4417)" x="-0.0474" y="-2.5000" width="0.0948" height="3.3042" ry="0.0235" fill="currentColor"/>
<path transform="translate(39.0823, 27.9652) scale(0.0040, -0.0040)" d="M0 0v-250h-14v250h14zM0 0c0 -198 207 -336 207 -534c0 -71 -16 -142 -42 -208c-4 -7 -10 -11 -17 -11c-12 0 -24 10 -21 25c26 62 41 127 41 194c0 104 -96 209 -168 284v250z" fill="currentColor"/>
<circle transform="translate(28.3882, 30.9417)" stroke-linejoin="round" stroke-linecap="round" fill="currentColor" stroke="currentColor" stroke-width="0" r="0.5365"/>
<g color="rgb(100.0000%, 100.0000%, 100.0000%)">
<text transform="translate(28.0468, 31.2599)" font-family="sans-serif" font-weight="bold" font-size="0.8731" text-anchor="start" fill="currentColor">
<tspan>A</tspan>
</text>
</g>
<text transform="translate(27.8518, 35.9417)" font-family="serif" font-size="1.5557" text-anchor="start" fill="currentColor">
<tspan>náč</tspan>
</text>
<rect transform="translate(27.8992, 30.4417)" x="-0.0474" y="0.6958" width="0.0948" height="2.7949" ry="0.0235" fill="currentColor"/>
<a transform="translate(4.2177, 96.9201)" xlink:href="http://lilypond.org/">
<rect x="0.0000" y="-0.4888" width="61.8596" height="2.1603" fill="none" stroke="none" stroke-width="0.0"/>
</a>
<text transform="translate(4.2177, 96.9201)" font-family="serif" font-size="2.2000" text-anchor="start" fill="currentColor">
<tspan>Music engraving by LilyPond 2.20.0—www.lilypond.org</tspan>
</text>
</svg>
