<svg xmlns="http://www.w3.org/2000/svg" xmlns:xlink="http://www.w3.org/1999/xlink" version="1.2" width="210.00mm" height="297.00mm" viewBox="0 0 70.2950 99.4173">
<style text="style/css">
<![CDATA[
tspan { white-space: pre; }
]]>
</style>
<!-- Page: 1/1 -->
<text transform="translate(3.3474, 1.6737)" font-family="serif" font-size="2.2000" text-anchor="start" fill="currentColor">
<tspan/>
</text>
<line transform="translate(8.3685, 8.4417)" stroke-linejoin="round" stroke-linecap="round" stroke-width="0.0729" stroke="currentColor" x1="0.0365" y1="-0.0000" x2="58.5427" y2="-0.0000"/>
<line transform="translate(8.3685, 7.4417)" stroke-linejoin="round" stroke-linecap="round" stroke-width="0.0729" stroke="currentColor" x1="0.0365" y1="-0.0000" x2="58.5427" y2="-0.0000"/>
<line transform="translate(8.3685, 6.4417)" stroke-linejoin="round" stroke-linecap="round" stroke-width="0.0729" stroke="currentColor" x1="0.0365" y1="-0.0000" x2="58.5427" y2="-0.0000"/>
<line transform="translate(8.3685, 5.4417)" stroke-linejoin="round" stroke-linecap="round" stroke-width="0.0729" stroke="currentColor" x1="0.0365" y1="-0.0000" x2="58.5427" y2="-0.0000"/>
<line transform="translate(8.3685, 4.4417)" stroke-linejoin="round" stroke-linecap="round" stroke-width="0.0729" stroke="currentColor" x1="0.0365" y1="-0.0000" x2="58.5427" y2="-0.0000"/>
<rect transform="translate(66.8091, 6.4417)" x="0.0000" y="-2.0000" width="0.1386" height="4.0000" ry="0.0000" fill="currentColor"/>
<rect transform="translate(55.6747, 6.4417)" x="0.0000" y="-2.0000" width="0.1386" height="4.0000" ry="0.0000" fill="currentColor"/>
<rect transform="translate(41.1223, 6.4417)" x="0.0000" y="-2.0000" width="0.1386" height="4.0000" ry="0.0000" fill="currentColor"/>
<rect transform="translate(28.5136, 6.4417)" x="0.0000" y="-2.0000" width="0.1386" height="4.0000" ry="0.0000" fill="currentColor"/>
<a style="color:inherit;" xlink:href="textedit:///home/mojzis/pers/noty/lilywork/score_only/skakal_pes.ly:7:33:34">
<circle transform="translate(52.7171, 7.4417)" stroke-linejoin="round" stroke-linecap="round" fill="currentColor" stroke="currentColor" stroke-width="0" r="0.5365"/>
<g color="rgb(100.0000%, 100.0000%, 100.0000%)">
<text transform="translate(52.3556, 7.7595)" font-family="sans-serif" font-weight="bold" font-size="0.8731" text-anchor="start" fill="currentColor">
<tspan>G</tspan>
</text>
</g>
</a>
<a style="color:inherit;" xlink:href="textedit:///home/mojzis/pers/noty/lilywork/score_only/skakal_pes.ly:16:48:49">
<text transform="translate(51.2409, 11.9417)" font-family="serif" font-size="1.5557" text-anchor="start" fill="currentColor">
<tspan>nou</tspan>
</text>
</a>
<rect transform="translate(53.2062, 6.4417)" x="-0.0474" y="-2.5000" width="0.0948" height="3.3042" ry="0.0235" fill="currentColor"/>
<rect transform="translate(49.9124, 6.4417)" x="-0.0474" y="-3.0000" width="0.0948" height="3.3042" ry="0.0235" fill="currentColor"/>
<a style="color:inherit;" xlink:href="textedit:///home/mojzis/pers/noty/lilywork/score_only/skakal_pes.ly:7:37:38">
<circle transform="translate(57.3883, 7.4417)" stroke-linejoin="round" stroke-linecap="round" fill="currentColor" stroke="currentColor" stroke-width="0" r="0.5365"/>
<g color="rgb(100.0000%, 100.0000%, 100.0000%)">
<circle transform="translate(57.3883, 7.4417)" stroke-linejoin="round" stroke-linecap="round" fill="currentColor" stroke="currentColor" stroke-width="0" r="0.4416"/>
</g>
<text transform="translate(57.0268, 7.7595)" font-family="sans-serif" font-weight="bold" font-size="0.8731" text-anchor="start" fill="currentColor">
<tspan>G</tspan>
</text>
</a>
<a style="color:inherit;" xlink:href="textedit:///home/mojzis/pers/noty/lilywork/score_only/skakal_pes.ly:16:52:53">
<text transform="translate(56.1631, 11.9417)" font-family="serif" font-size="1.5557" text-anchor="start" fill="currentColor">
<tspan>lou</tspan>
</text>
</a>
<rect transform="translate(57.8773, 6.4417)" x="-0.0474" y="-2.5000" width="0.0948" height="3.2328" ry="0.0235" fill="currentColor"/>
<a style="color:inherit;" xlink:href="textedit:///home/mojzis/pers/noty/lilywork/score_only/skakal_pes.ly:7:29:30">
<circle transform="translate(46.1296, 7.4417)" stroke-linejoin="round" stroke-linecap="round" fill="currentColor" stroke="currentColor" stroke-width="0" r="0.5365"/>
<g color="rgb(100.0000%, 100.0000%, 100.0000%)">
<text transform="translate(45.7681, 7.7595)" font-family="sans-serif" font-weight="bold" font-size="0.8731" text-anchor="start" fill="currentColor">
<tspan>G</tspan>
</text>
</g>
</a>
<a style="color:inherit;" xlink:href="textedit:///home/mojzis/pers/noty/lilywork/score_only/skakal_pes.ly:16:36:37">
<text transform="translate(45.2560, 11.9417)" font-family="serif" font-size="1.5557" text-anchor="start" fill="currentColor">
<tspan>ze</tspan>
</text>
</a>
<rect transform="translate(46.6187, 6.4417)" x="-0.0474" y="-2.5000" width="0.0948" height="3.3042" ry="0.0235" fill="currentColor"/>
<a style="color:inherit;" xlink:href="textedit:///home/mojzis/pers/noty/lilywork/score_only/skakal_pes.ly:7:31:32">
<circle transform="translate(49.4234, 6.9417)" stroke-linejoin="round" stroke-linecap="round" fill="currentColor" stroke="currentColor" stroke-width="0" r="0.5365"/>
<g color="rgb(100.0000%, 100.0000%, 100.0000%)">
<text transform="translate(49.0819, 7.2599)" font-family="sans-serif" font-weight="bold" font-size="0.8731" text-anchor="start" fill="currentColor">
<tspan>A</tspan>
</text>
</g>
</a>
<a style="color:inherit;" xlink:href="textedit:///home/mojzis/pers/noty/lilywork/score_only/skakal_pes.ly:16:42:43">
<text transform="translate(48.7104, 11.9417)" font-family="serif" font-size="1.5557" text-anchor="start" fill="currentColor">
<tspan>le</tspan>
</text>
</a>
<a style="color:inherit;" xlink:href="textedit:///home/mojzis/pers/noty/lilywork/score_only/skakal_pes.ly:16:45:46">
<rect transform="translate(50.3586, 11.9417)" x="0.0000" y="-0.5148" width="0.6600" height="0.0948" ry="0.0292" fill="currentColor"/>
</a>
<a style="color:inherit;" xlink:href="textedit:///home/mojzis/pers/noty/lilywork/score_only/skakal_pes.ly:16:56:57">
<rect transform="translate(59.6154, 11.9417)" x="0.0000" y="-0.5148" width="0.6600" height="0.0948" ry="0.0292" fill="currentColor"/>
</a>
<a style="color:inherit;" xlink:href="textedit:///home/mojzis/pers/noty/lilywork/score_only/skakal_pes.ly:16:39:40">
<rect transform="translate(47.5268, 11.9417)" x="0.0000" y="-0.5148" width="0.6600" height="0.0948" ry="0.0292" fill="currentColor"/>
</a>
<a style="color:inherit;" xlink:href="textedit:///home/mojzis/pers/noty/lilywork/score_only/skakal_pes.ly:16:24:25">
<rect transform="translate(34.2960, 11.9417)" x="0.0000" y="-0.5148" width="0.6600" height="0.0948" ry="0.0292" fill="currentColor"/>
</a>
<a style="color:inherit;" xlink:href="textedit:///home/mojzis/pers/noty/lilywork/score_only/skakal_pes.ly:16:6:7">
<rect transform="translate(19.1546, 11.9417)" x="0.0000" y="-0.5148" width="0.5026" height="0.0948" ry="0.0292" fill="currentColor"/>
</a>
<a style="color:inherit;" xlink:href="textedit:///home/mojzis/pers/noty/lilywork/score_only/skakal_pes.ly:7:40:41">
<circle transform="translate(62.2515, 7.9417)" stroke-linejoin="round" stroke-linecap="round" fill="currentColor" stroke="currentColor" stroke-width="0" r="0.5365"/>
<g color="rgb(100.0000%, 100.0000%, 100.0000%)">
<circle transform="translate(62.2515, 7.9417)" stroke-linejoin="round" stroke-linecap="round" fill="currentColor" stroke="currentColor" stroke-width="0" r="0.4416"/>
</g>
<text transform="translate(61.9502, 8.2599)" font-family="sans-serif" font-weight="bold" font-size="0.8731" text-anchor="start" fill="currentColor">
<tspan>F</tspan>
</text>
</a>
<a style="color:inherit;" xlink:href="textedit:///home/mojzis/pers/noty/lilywork/score_only/skakal_pes.ly:16:59:60">
<text transform="translate(61.2774, 11.9417)" font-family="serif" font-size="1.5557" text-anchor="start" fill="currentColor">
<tspan>ku</tspan>
</text>
</a>
<rect transform="translate(62.7405, 6.4417)" x="-0.0474" y="-2.0000" width="0.0948" height="3.2328" ry="0.0235" fill="currentColor"/>
<rect transform="translate(21.4013, 6.4417)" x="-0.0474" y="-2.5000" width="0.0948" height="3.3042" ry="0.0235" fill="currentColor"/>
<a style="color:inherit;" xlink:href="textedit:///home/mojzis/pers/noty/lilywork/score_only/skakal_pes.ly:7:11:12">
<circle transform="translate(23.9560, 8.4417)" stroke-linejoin="round" stroke-linecap="round" fill="currentColor" stroke="currentColor" stroke-width="0" r="0.5365"/>
<g color="rgb(100.0000%, 100.0000%, 100.0000%)">
<circle transform="translate(23.9560, 8.4417)" stroke-linejoin="round" stroke-linecap="round" fill="currentColor" stroke="currentColor" stroke-width="0" r="0.4416"/>
</g>
<text transform="translate(23.6547, 8.7599)" font-family="sans-serif" font-weight="bold" font-size="0.8731" text-anchor="start" fill="currentColor">
<tspan>E</tspan>
</text>
</a>
<a style="color:inherit;" xlink:href="textedit:///home/mojzis/pers/noty/lilywork/score_only/skakal_pes.ly:16:13:14">
<text transform="translate(22.5902, 11.9417)" font-family="serif" font-size="1.5557" text-anchor="start" fill="currentColor">
<tspan>pes</tspan>
</text>
</a>
<rect transform="translate(24.4450, 6.4417)" x="-0.0474" y="-1.5000" width="0.0948" height="3.2328" ry="0.0235" fill="currentColor"/>
<a style="color:inherit;" xlink:href="textedit:///home/mojzis/pers/noty/lilywork/score_only/skakal_pes.ly:16:9:10">
<text transform="translate(19.7272, 11.9417)" font-family="serif" font-size="1.5557" text-anchor="start" fill="currentColor">
<tspan>kal</tspan>
</text>
</a>
<a style="color:inherit;" xlink:href="textedit:///home/mojzis/pers/noty/lilywork/score_only/skakal_pes.ly:7:16:17">
<circle transform="translate(30.2272, 7.4417)" stroke-linejoin="round" stroke-linecap="round" fill="currentColor" stroke="currentColor" stroke-width="0" r="0.5365"/>
<g color="rgb(100.0000%, 100.0000%, 100.0000%)">
<text transform="translate(29.8657, 7.7595)" font-family="sans-serif" font-weight="bold" font-size="0.8731" text-anchor="start" fill="currentColor">
<tspan>G</tspan>
</text>
</g>
</a>
<a style="color:inherit;" xlink:href="textedit:///home/mojzis/pers/noty/lilywork/score_only/skakal_pes.ly:16:17:18">
<text transform="translate(28.4899, 11.9417)" font-family="serif" font-size="1.5557" text-anchor="start" fill="currentColor">
<tspan>přes</tspan>
</text>
</a>
<rect transform="translate(30.7162, 6.4417)" x="-0.0474" y="-2.5000" width="0.0948" height="3.3042" ry="0.0235" fill="currentColor"/>
<a style="color:inherit;" xlink:href="textedit:///home/mojzis/pers/noty/lilywork/score_only/skakal_pes.ly:7:6:7">
<circle transform="translate(17.6185, 7.4417)" stroke-linejoin="round" stroke-linecap="round" fill="currentColor" stroke="currentColor" stroke-width="0" r="0.5365"/>
<g color="rgb(100.0000%, 100.0000%, 100.0000%)">
<text transform="translate(17.2570, 7.7595)" font-family="sans-serif" font-weight="bold" font-size="0.8731" text-anchor="start" fill="currentColor">
<tspan>G</tspan>
</text>
</g>
</a>
<path transform="translate(9.1685, 7.4417) scale(0.0040, -0.0040)" d="M374 260c5 0 10 1 15 1c154 0 254 -127 254 -259c0 -76 -33 -153 -107 -208c-22 -17 -47 -29 -73 -37c3 -36 5 -72 5 -108c0 -19 0 -37 -1 -56c-7 -120 -88 -226 -206 -226c-108 0 -195 87 -195 195c0 58 53 104 112 104c54 0 95 -48 95 -104c0 -52 -43 -95 -95 -95
c-12 0 -24 4 -35 9c26 -41 70 -70 121 -70c1 0 2 1 3 1c93 2 154 93 160 192c1 18 2 35 2 53c0 32 -2 64 -5 96c-29 -5 -58 -8 -89 -8c-188 0 -333 171 -333 372c0 178 133 306 251 440c-18 63 -35 126 -42 191c-6 51 -7 102 -7 154c0 116 55 226 150 295c5 4 11 4 16 0
c70 -84 132 -246 132 -359c0 -144 -87 -256 -183 -365c20 -69 39 -138 55 -208zM459 -205c69 24 117 96 117 166c0 92 -69 184 -179 193c25 -117 48 -235 62 -359zM71 31c0 -136 131 -251 267 -251c28 0 55 2 82 6c-15 128 -38 247 -64 367c-79 -9 -125 -62 -125 -121
c0 -44 26 -92 82 -124c4 -4 7 -9 7 -14c0 -11 -9 -21 -20 -21c-3 0 -6 1 -9 2c-80 43 -116 114 -116 184c0 88 57 173 158 196c-14 60 -30 119 -46 178c-108 -121 -216 -242 -216 -402zM411 1050c-99 -50 -161 -151 -161 -262c0 -76 15 -137 33 -200c82 97 149 198 149 325
c0 58 -4 84 -21 137z" fill="currentColor"/>
<path transform="translate(13.3685, 6.4417) scale(0.0040, -0.0040)" d="M360 25c-51 0 -76 43 -76 77c0 39 28 78 74 78c6 0 13 0 18 -1c-29 37 -76 60 -126 60c-106 0 -113 -73 -113 -185c0 -17 1 -35 1 -54s-1 -37 -1 -54c0 -112 7 -185 113 -185c82 0 145 68 164 151c1 6 6 9 10 9c6 0 11 -4 11 -11c0 -94 -107 -171 -185 -171
c-68 0 -137 20 -184 69c-49 51 -66 122 -66 192s17 141 66 192c47 49 116 69 184 69c88 0 163 -62 178 -148c1 -5 2 -9 2 -14c0 -40 -32 -74 -70 -74z" fill="currentColor"/>
<a style="color:inherit;" xlink:href="textedit:///home/mojzis/pers/noty/lilywork/score_only/skakal_pes.ly:16:2:3">
<text transform="translate(16.1523, 11.9417)" font-family="serif" font-size="1.5557" text-anchor="start" fill="currentColor">
<tspan>Ská</tspan>
</text>
</a>
<rect transform="translate(18.1075, 6.4417)" x="-0.0474" y="-2.5000" width="0.0948" height="3.3042" ry="0.0235" fill="currentColor"/>
<a style="color:inherit;" xlink:href="textedit:///home/mojzis/pers/noty/lilywork/score_only/skakal_pes.ly:7:9:10">
<circle transform="translate(20.9122, 7.4417)" stroke-linejoin="round" stroke-linecap="round" fill="currentColor" stroke="currentColor" stroke-width="0" r="0.5365"/>
<g color="rgb(100.0000%, 100.0000%, 100.0000%)">
<text transform="translate(20.5507, 7.7595)" font-family="sans-serif" font-weight="bold" font-size="0.8731" text-anchor="start" fill="currentColor">
<tspan>G</tspan>
</text>
</g>
</a>
<a style="color:inherit;" xlink:href="textedit:///home/mojzis/pers/noty/lilywork/score_only/skakal_pes.ly:16:22:23">
<text transform="translate(33.0489, 11.9417)" font-family="serif" font-size="1.5557" text-anchor="start" fill="currentColor">
<tspan>o</tspan>
</text>
</a>
<rect transform="translate(34.0100, 6.4417)" x="-0.0474" y="-2.5000" width="0.0948" height="3.3042" ry="0.0235" fill="currentColor"/>
<a style="color:inherit;" xlink:href="textedit:///home/mojzis/pers/noty/lilywork/score_only/skakal_pes.ly:7:21:22">
<circle transform="translate(36.5647, 8.4417)" stroke-linejoin="round" stroke-linecap="round" fill="currentColor" stroke="currentColor" stroke-width="0" r="0.5365"/>
<g color="rgb(100.0000%, 100.0000%, 100.0000%)">
<circle transform="translate(36.5647, 8.4417)" stroke-linejoin="round" stroke-linecap="round" fill="currentColor" stroke="currentColor" stroke-width="0" r="0.4416"/>
</g>
<text transform="translate(36.2634, 8.7599)" font-family="sans-serif" font-weight="bold" font-size="0.8731" text-anchor="start" fill="currentColor">
<tspan>E</tspan>
</text>
</a>
<a style="color:inherit;" xlink:href="textedit:///home/mojzis/pers/noty/lilywork/score_only/skakal_pes.ly:16:27:28">
<text transform="translate(35.2592, 11.9417)" font-family="serif" font-size="1.5557" text-anchor="start" fill="currentColor">
<tspan>ves</tspan>
</text>
</a>
<rect transform="translate(37.0537, 6.4417)" x="-0.0474" y="-1.5000" width="0.0948" height="3.2328" ry="0.0235" fill="currentColor"/>
<a style="color:inherit;" xlink:href="textedit:///home/mojzis/pers/noty/lilywork/score_only/skakal_pes.ly:7:26:27">
<circle transform="translate(42.8359, 7.4417)" stroke-linejoin="round" stroke-linecap="round" fill="currentColor" stroke="currentColor" stroke-width="0" r="0.5365"/>
<g color="rgb(100.0000%, 100.0000%, 100.0000%)">
<text transform="translate(42.4744, 7.7595)" font-family="sans-serif" font-weight="bold" font-size="0.8731" text-anchor="start" fill="currentColor">
<tspan>G</tspan>
</text>
</g>
</a>
<a style="color:inherit;" xlink:href="textedit:///home/mojzis/pers/noty/lilywork/score_only/skakal_pes.ly:16:31:32">
<text transform="translate(41.0986, 11.9417)" font-family="serif" font-size="1.5557" text-anchor="start" fill="currentColor">
<tspan>přes</tspan>
</text>
</a>
<rect transform="translate(43.3249, 6.4417)" x="-0.0474" y="-2.5000" width="0.0948" height="3.3042" ry="0.0235" fill="currentColor"/>
<a style="color:inherit;" xlink:href="textedit:///home/mojzis/pers/noty/lilywork/score_only/skakal_pes.ly:7:19:20">
<circle transform="translate(33.5209, 7.4417)" stroke-linejoin="round" stroke-linecap="round" fill="currentColor" stroke="currentColor" stroke-width="0" r="0.5365"/>
<g color="rgb(100.0000%, 100.0000%, 100.0000%)">
<text transform="translate(33.1594, 7.7595)" font-family="sans-serif" font-weight="bold" font-size="0.8731" text-anchor="start" fill="currentColor">
<tspan>G</tspan>
</text>
</g>
</a>
<line transform="translate(3.3474, 20.4417)" stroke-linejoin="round" stroke-linecap="round" stroke-width="0.0729" stroke="currentColor" x1="0.0365" y1="-0.0000" x2="63.5638" y2="-0.0000"/>
<line transform="translate(3.3474, 19.4417)" stroke-linejoin="round" stroke-linecap="round" stroke-width="0.0729" stroke="currentColor" x1="0.0365" y1="-0.0000" x2="63.5638" y2="-0.0000"/>
<line transform="translate(3.3474, 18.4417)" stroke-linejoin="round" stroke-linecap="round" stroke-width="0.0729" stroke="currentColor" x1="0.0365" y1="-0.0000" x2="63.5638" y2="-0.0000"/>
<line transform="translate(3.3474, 17.4417)" stroke-linejoin="round" stroke-linecap="round" stroke-width="0.0729" stroke="currentColor" x1="0.0365" y1="-0.0000" x2="63.5638" y2="-0.0000"/>
<line transform="translate(3.3474, 16.4417)" stroke-linejoin="round" stroke-linecap="round" stroke-width="0.0729" stroke="currentColor" x1="0.0365" y1="-0.0000" x2="63.5638" y2="-0.0000"/>
<rect transform="translate(36.7305, 18.4417)" x="0.0000" y="-2.0000" width="0.1386" height="4.0000" ry="0.0000" fill="currentColor"/>
<rect transform="translate(22.2887, 18.4417)" x="0.0000" y="-2.0000" width="0.1386" height="4.0000" ry="0.0000" fill="currentColor"/>
<rect transform="translate(53.3050, 18.4417)" x="0.0000" y="-2.0000" width="0.1386" height="4.0000" ry="0.0000" fill="currentColor"/>
<rect transform="translate(66.5100, 18.4417)" x="0.0000" y="-2.0000" width="0.4376" height="4.0000" ry="0.0000" fill="currentColor"/>
<rect transform="translate(66.1526, 18.4417)" x="0.0000" y="-2.0000" width="0.1386" height="4.0000" ry="0.0000" fill="currentColor"/>
<rect transform="translate(50.3351, 18.4417)" x="-0.0474" y="-2.0000" width="0.0948" height="3.3042" ry="0.0235" fill="currentColor"/>
<a style="color:inherit;" xlink:href="textedit:///home/mojzis/pers/noty/lilywork/score_only/skakal_pes.ly:8:31:32">
<circle transform="translate(46.0865, 19.4417)" stroke-linejoin="round" stroke-linecap="round" fill="currentColor" stroke="currentColor" stroke-width="0" r="0.5365"/>
<g color="rgb(100.0000%, 100.0000%, 100.0000%)">
<text transform="translate(45.7250, 19.7595)" font-family="sans-serif" font-weight="bold" font-size="0.8731" text-anchor="start" fill="currentColor">
<tspan>G</tspan>
</text>
</g>
</a>
<a style="color:inherit;" xlink:href="textedit:///home/mojzis/pers/noty/lilywork/score_only/skakal_pes.ly:17:39:40">
<text transform="translate(45.1225, 23.9417)" font-family="serif" font-size="1.5557" text-anchor="start" fill="currentColor">
<tspan>na</tspan>
</text>
</a>
<rect transform="translate(46.5756, 18.4417)" x="-0.0474" y="-2.5000" width="0.0948" height="3.3042" ry="0.0235" fill="currentColor"/>
<a style="color:inherit;" xlink:href="textedit:///home/mojzis/pers/noty/lilywork/score_only/skakal_pes.ly:8:33:34">
<circle transform="translate(49.8460, 19.9417)" stroke-linejoin="round" stroke-linecap="round" fill="currentColor" stroke="currentColor" stroke-width="0" r="0.5365"/>
<g color="rgb(100.0000%, 100.0000%, 100.0000%)">
<text transform="translate(49.5447, 20.2599)" font-family="sans-serif" font-weight="bold" font-size="0.8731" text-anchor="start" fill="currentColor">
<tspan>F</tspan>
</text>
</g>
</a>
<a style="color:inherit;" xlink:href="textedit:///home/mojzis/pers/noty/lilywork/score_only/skakal_pes.ly:17:42:43">
<text transform="translate(48.6510, 23.9417)" font-family="serif" font-size="1.5557" text-anchor="start" fill="currentColor">
<tspan>klo</tspan>
</text>
</a>
<a style="color:inherit;" xlink:href="textedit:///home/mojzis/pers/noty/lilywork/score_only/skakal_pes.ly:8:37:38">
<circle transform="translate(55.1421, 19.9417)" stroke-linejoin="round" stroke-linecap="round" fill="currentColor" stroke="currentColor" stroke-width="0" r="0.5365"/>
<g color="rgb(100.0000%, 100.0000%, 100.0000%)">
<circle transform="translate(55.1421, 19.9417)" stroke-linejoin="round" stroke-linecap="round" fill="currentColor" stroke="currentColor" stroke-width="0" r="0.4416"/>
</g>
<text transform="translate(54.8408, 20.2599)" font-family="sans-serif" font-weight="bold" font-size="0.8731" text-anchor="start" fill="currentColor">
<tspan>F</tspan>
</text>
</a>
<a style="color:inherit;" xlink:href="textedit:///home/mojzis/pers/noty/lilywork/score_only/skakal_pes.ly:17:49:50">
<text transform="translate(53.6659, 23.9417)" font-family="serif" font-size="1.5557" text-anchor="start" fill="currentColor">
<tspan>bou</tspan>
</text>
</a>
<rect transform="translate(55.6311, 18.4417)" x="-0.0474" y="-2.0000" width="0.0948" height="3.2328" ry="0.0235" fill="currentColor"/>
<a style="color:inherit;" xlink:href="textedit:///home/mojzis/pers/noty/lilywork/score_only/skakal_pes.ly:8:29:30">
<circle transform="translate(42.3270, 19.9417)" stroke-linejoin="round" stroke-linecap="round" fill="currentColor" stroke="currentColor" stroke-width="0" r="0.5365"/>
<g color="rgb(100.0000%, 100.0000%, 100.0000%)">
<text transform="translate(42.0258, 20.2599)" font-family="sans-serif" font-weight="bold" font-size="0.8731" text-anchor="start" fill="currentColor">
<tspan>F</tspan>
</text>
</g>
</a>
<a style="color:inherit;" xlink:href="textedit:///home/mojzis/pers/noty/lilywork/score_only/skakal_pes.ly:17:36:37">
<text transform="translate(41.4835, 23.9417)" font-family="serif" font-size="1.5557" text-anchor="start" fill="currentColor">
<tspan>ro</tspan>
</text>
</a>
<rect transform="translate(42.8161, 18.4417)" x="-0.0474" y="-2.0000" width="0.0948" height="3.3042" ry="0.0235" fill="currentColor"/>
<a style="color:inherit;" xlink:href="textedit:///home/mojzis/pers/noty/lilywork/score_only/skakal_pes.ly:17:53:54">
<rect transform="translate(57.8921, 23.9417)" x="0.0000" y="-0.5148" width="0.6600" height="0.0948" ry="0.0292" fill="currentColor"/>
</a>
<a style="color:inherit;" xlink:href="textedit:///home/mojzis/pers/noty/lilywork/score_only/skakal_pes.ly:17:46:47">
<rect transform="translate(52.0234, 23.9417)" x="0.0000" y="-0.5148" width="0.6600" height="0.0948" ry="0.0292" fill="currentColor"/>
</a>
<a style="color:inherit;" xlink:href="textedit:///home/mojzis/pers/noty/lilywork/score_only/skakal_pes.ly:17:33:34">
<rect transform="translate(40.1776, 23.9417)" x="0.0000" y="-0.5148" width="0.6600" height="0.0948" ry="0.0292" fill="currentColor"/>
</a>
<a style="color:inherit;" xlink:href="textedit:///home/mojzis/pers/noty/lilywork/score_only/skakal_pes.ly:17:23:24">
<rect transform="translate(29.0940, 23.9417)" x="0.0000" y="-0.5148" width="0.6600" height="0.0948" ry="0.0292" fill="currentColor"/>
</a>
<a style="color:inherit;" xlink:href="textedit:///home/mojzis/pers/noty/lilywork/score_only/skakal_pes.ly:17:16:17">
<rect transform="translate(25.8110, 23.9417)" x="0.0000" y="-0.5148" width="0.6600" height="0.0948" ry="0.0292" fill="currentColor"/>
</a>
<a style="color:inherit;" xlink:href="textedit:///home/mojzis/pers/noty/lilywork/score_only/skakal_pes.ly:8:40:41">
<circle transform="translate(60.8001, 20.4417)" stroke-linejoin="round" stroke-linecap="round" fill="currentColor" stroke="currentColor" stroke-width="0" r="0.5365"/>
<g color="rgb(100.0000%, 100.0000%, 100.0000%)">
<circle transform="translate(60.8001, 20.4417)" stroke-linejoin="round" stroke-linecap="round" fill="currentColor" stroke="currentColor" stroke-width="0" r="0.4416"/>
</g>
<text transform="translate(60.4988, 20.7599)" font-family="sans-serif" font-weight="bold" font-size="0.8731" text-anchor="start" fill="currentColor">
<tspan>E</tspan>
</text>
</a>
<a style="color:inherit;" xlink:href="textedit:///home/mojzis/pers/noty/lilywork/score_only/skakal_pes.ly:17:56:57">
<text transform="translate(59.8260, 23.9417)" font-family="serif" font-size="1.5557" text-anchor="start" fill="currentColor">
<tspan>ku</tspan>
</text>
</a>
<rect transform="translate(61.2892, 18.4417)" x="-0.0474" y="-1.5000" width="0.0948" height="3.2328" ry="0.0235" fill="currentColor"/>
<rect transform="translate(10.1729, 18.4417)" x="-0.0474" y="-2.0000" width="0.0948" height="3.3042" ry="0.0235" fill="currentColor"/>
<a style="color:inherit;" xlink:href="textedit:///home/mojzis/pers/noty/lilywork/score_only/skakal_pes.ly:8:9:10">
<circle transform="translate(13.4433, 19.9417)" stroke-linejoin="round" stroke-linecap="round" fill="currentColor" stroke="currentColor" stroke-width="0" r="0.5365"/>
<g color="rgb(100.0000%, 100.0000%, 100.0000%)">
<text transform="translate(13.1421, 20.2599)" font-family="sans-serif" font-weight="bold" font-size="0.8731" text-anchor="start" fill="currentColor">
<tspan>F</tspan>
</text>
</g>
</a>
<a style="color:inherit;" xlink:href="textedit:///home/mojzis/pers/noty/lilywork/score_only/skakal_pes.ly:17:6:7">
<text transform="translate(12.5697, 23.9417)" font-family="serif" font-size="1.5557" text-anchor="start" fill="currentColor">
<tspan>za</tspan>
</text>
</a>
<rect transform="translate(13.9324, 18.4417)" x="-0.0474" y="-2.0000" width="0.0948" height="3.3042" ry="0.0235" fill="currentColor"/>
<a style="color:inherit;" xlink:href="textedit:///home/mojzis/pers/noty/lilywork/score_only/skakal_pes.ly:17:2:3">
<text transform="translate(8.4386, 23.9417)" font-family="serif" font-size="1.5557" text-anchor="start" fill="currentColor">
<tspan>Šel</tspan>
</text>
</a>
<a style="color:inherit;" xlink:href="textedit:///home/mojzis/pers/noty/lilywork/score_only/skakal_pes.ly:8:11:12">
<circle transform="translate(16.9528, 20.9417)" stroke-linejoin="round" stroke-linecap="round" fill="currentColor" stroke="currentColor" stroke-width="0" r="0.5365"/>
<g color="rgb(100.0000%, 100.0000%, 100.0000%)">
<circle transform="translate(16.9528, 20.9417)" stroke-linejoin="round" stroke-linecap="round" fill="currentColor" stroke="currentColor" stroke-width="0" r="0.4416"/>
</g>
<text transform="translate(16.5913, 21.2599)" font-family="sans-serif" font-weight="bold" font-size="0.8731" text-anchor="start" fill="currentColor">
<tspan>D</tspan>
</text>
</a>
<a style="color:inherit;" xlink:href="textedit:///home/mojzis/pers/noty/lilywork/score_only/skakal_pes.ly:17:9:10">
<text transform="translate(15.4666, 23.9417)" font-family="serif" font-size="1.5557" text-anchor="start" fill="currentColor">
<tspan>ním</tspan>
</text>
</a>
<rect transform="translate(17.4419, 18.4417)" x="-0.0474" y="-1.0000" width="0.0948" height="3.2328" ry="0.0235" fill="currentColor"/>
<a style="color:inherit;" xlink:href="textedit:///home/mojzis/pers/noty/lilywork/score_only/skakal_pes.ly:8:16:17">
<circle transform="translate(24.1257, 19.9417)" stroke-linejoin="round" stroke-linecap="round" fill="currentColor" stroke="currentColor" stroke-width="0" r="0.5365"/>
<g color="rgb(100.0000%, 100.0000%, 100.0000%)">
<text transform="translate(23.8244, 20.2599)" font-family="sans-serif" font-weight="bold" font-size="0.8731" text-anchor="start" fill="currentColor">
<tspan>F</tspan>
</text>
</g>
</a>
<a style="color:inherit;" xlink:href="textedit:///home/mojzis/pers/noty/lilywork/score_only/skakal_pes.ly:17:13:14">
<text transform="translate(22.9508, 23.9417)" font-family="serif" font-size="1.5557" text-anchor="start" fill="currentColor">
<tspan>my</tspan>
</text>
</a>
<path transform="translate(4.1474, 19.4417) scale(0.0040, -0.0040)" d="M374 260c5 0 10 1 15 1c154 0 254 -127 254 -259c0 -76 -33 -153 -107 -208c-22 -17 -47 -29 -73 -37c3 -36 5 -72 5 -108c0 -19 0 -37 -1 -56c-7 -120 -88 -226 -206 -226c-108 0 -195 87 -195 195c0 58 53 104 112 104c54 0 95 -48 95 -104c0 -52 -43 -95 -95 -95
c-12 0 -24 4 -35 9c26 -41 70 -70 121 -70c1 0 2 1 3 1c93 2 154 93 160 192c1 18 2 35 2 53c0 32 -2 64 -5 96c-29 -5 -58 -8 -89 -8c-188 0 -333 171 -333 372c0 178 133 306 251 440c-18 63 -35 126 -42 191c-6 51 -7 102 -7 154c0 116 55 226 150 295c5 4 11 4 16 0
c70 -84 132 -246 132 -359c0 -144 -87 -256 -183 -365c20 -69 39 -138 55 -208zM459 -205c69 24 117 96 117 166c0 92 -69 184 -179 193c25 -117 48 -235 62 -359zM71 31c0 -136 131 -251 267 -251c28 0 55 2 82 6c-15 128 -38 247 -64 367c-79 -9 -125 -62 -125 -121
c0 -44 26 -92 82 -124c4 -4 7 -9 7 -14c0 -11 -9 -21 -20 -21c-3 0 -6 1 -9 2c-80 43 -116 114 -116 184c0 88 57 173 158 196c-14 60 -30 119 -46 178c-108 -121 -216 -242 -216 -402zM411 1050c-99 -50 -161 -151 -161 -262c0 -76 15 -137 33 -200c82 97 149 198 149 325
c0 58 -4 84 -21 137z" fill="currentColor"/>
<text transform="translate(2.2427, 15.3805)" font-family="serif" font-size="1.7463" text-anchor="start" fill="currentColor">
<tspan>5</tspan>
</text>
<a style="color:inherit;" xlink:href="textedit:///home/mojzis/pers/noty/lilywork/score_only/skakal_pes.ly:8:6:7">
<circle transform="translate(9.6839, 19.9417)" stroke-linejoin="round" stroke-linecap="round" fill="currentColor" stroke="currentColor" stroke-width="0" r="0.5365"/>
<g color="rgb(100.0000%, 100.0000%, 100.0000%)">
<text transform="translate(9.3826, 20.2599)" font-family="sans-serif" font-weight="bold" font-size="0.8731" text-anchor="start" fill="currentColor">
<tspan>F</tspan>
</text>
</g>
</a>
<a style="color:inherit;" xlink:href="textedit:///home/mojzis/pers/noty/lilywork/score_only/skakal_pes.ly:8:21:22">
<circle transform="translate(31.3947, 20.9417)" stroke-linejoin="round" stroke-linecap="round" fill="currentColor" stroke="currentColor" stroke-width="0" r="0.5365"/>
<g color="rgb(100.0000%, 100.0000%, 100.0000%)">
<circle transform="translate(31.3947, 20.9417)" stroke-linejoin="round" stroke-linecap="round" fill="currentColor" stroke="currentColor" stroke-width="0" r="0.4416"/>
</g>
<text transform="translate(31.0332, 21.2599)" font-family="sans-serif" font-weight="bold" font-size="0.8731" text-anchor="start" fill="currentColor">
<tspan>D</tspan>
</text>
</a>
<a style="color:inherit;" xlink:href="textedit:///home/mojzis/pers/noty/lilywork/score_only/skakal_pes.ly:8:19:20">
<circle transform="translate(27.8852, 19.9417)" stroke-linejoin="round" stroke-linecap="round" fill="currentColor" stroke="currentColor" stroke-width="0" r="0.5365"/>
<g color="rgb(100.0000%, 100.0000%, 100.0000%)">
<text transform="translate(27.5839, 20.2599)" font-family="sans-serif" font-weight="bold" font-size="0.8731" text-anchor="start" fill="currentColor">
<tspan>F</tspan>
</text>
</g>
</a>
<a style="color:inherit;" xlink:href="textedit:///home/mojzis/pers/noty/lilywork/score_only/skakal_pes.ly:17:19:20">
<text transform="translate(26.9814, 23.9417)" font-family="serif" font-size="1.5557" text-anchor="start" fill="currentColor">
<tspan>sli</tspan>
</text>
</a>
<rect transform="translate(28.3742, 18.4417)" x="-0.0474" y="-2.0000" width="0.0948" height="3.3042" ry="0.0235" fill="currentColor"/>
<rect transform="translate(24.6148, 18.4417)" x="-0.0474" y="-2.0000" width="0.0948" height="3.3042" ry="0.0235" fill="currentColor"/>
<a style="color:inherit;" xlink:href="textedit:///home/mojzis/pers/noty/lilywork/score_only/skakal_pes.ly:17:26:27">
<text transform="translate(30.0591, 23.9417)" font-family="serif" font-size="1.5557" text-anchor="start" fill="currentColor">
<tspan>vec</tspan>
</text>
</a>
<rect transform="translate(31.8837, 18.4417)" x="-0.0474" y="-1.0000" width="0.0948" height="3.2328" ry="0.0235" fill="currentColor"/>
<a style="color:inherit;" xlink:href="textedit:///home/mojzis/pers/noty/lilywork/score_only/skakal_pes.ly:8:26:27">
<circle transform="translate(38.5676, 19.9417)" stroke-linejoin="round" stroke-linecap="round" fill="currentColor" stroke="currentColor" stroke-width="0" r="0.5365"/>
<g color="rgb(100.0000%, 100.0000%, 100.0000%)">
<text transform="translate(38.2663, 20.2599)" font-family="sans-serif" font-weight="bold" font-size="0.8731" text-anchor="start" fill="currentColor">
<tspan>F</tspan>
</text>
</g>
</a>
<a style="color:inherit;" xlink:href="textedit:///home/mojzis/pers/noty/lilywork/score_only/skakal_pes.ly:17:30:31">
<text transform="translate(37.6035, 23.9417)" font-family="serif" font-size="1.5557" text-anchor="start" fill="currentColor">
<tspan>pé</tspan>
</text>
</a>
<rect transform="translate(39.0566, 18.4417)" x="-0.0474" y="-2.0000" width="0.0948" height="3.3042" ry="0.0235" fill="currentColor"/>
<a transform="translate(4.2177, 96.9201)" xlink:href="http://lilypond.org/">
<rect x="0.0000" y="-0.4888" width="61.8596" height="2.1603" fill="none" stroke="none" stroke-width="0.0"/>
</a>
<text transform="translate(4.2177, 96.9201)" font-family="serif" font-size="2.2000" text-anchor="start" fill="currentColor">
<tspan>Music engraving by LilyPond 2.20.0—www.lilypond.org</tspan>
</text>
</svg>
