<svg xmlns="http://www.w3.org/2000/svg" xmlns:xlink="http://www.w3.org/1999/xlink" version="1.2" width="210.00mm" height="297.00mm" viewBox="0 0 70.2950 99.4173">
<style text="style/css">
<![CDATA[
tspan { white-space: pre; }
]]>
</style>
<!-- Page: 1/1 -->
<text transform="translate(3.3474, 1.6737)" font-family="serif" font-size="2.2000" text-anchor="start" fill="currentColor">
<tspan/>
</text>
<line transform="translate(8.3685, 8.4417)" stroke-linejoin="round" stroke-linecap="round" stroke-width="0.0729" stroke="currentColor" x1="0.0365" y1="-0.0000" x2="58.5427" y2="-0.0000"/>
<line transform="translate(8.3685, 7.4417)" stroke-linejoin="round" stroke-linecap="round" stroke-width="0.0729" stroke="currentColor" x1="0.0365" y1="-0.0000" x2="58.5427" y2="-0.0000"/>
<line transform="translate(8.3685, 6.4417)" stroke-linejoin="round" stroke-linecap="round" stroke-width="0.0729" stroke="currentColor" x1="0.0365" y1="-0.0000" x2="58.5427" y2="-0.0000"/>
<line transform="translate(8.3685, 5.4417)" stroke-linejoin="round" stroke-linecap="round" stroke-width="0.0729" stroke="currentColor" x1="0.0365" y1="-0.0000" x2="58.5427" y2="-0.0000"/>
<line transform="translate(8.3685, 4.4417)" stroke-linejoin="round" stroke-linecap="round" stroke-width="0.0729" stroke="currentColor" x1="0.0365" y1="-0.0000" x2="58.5427" y2="-0.0000"/>
<rect transform="translate(41.4773, 6.4417)" x="0.0000" y="-2.0000" width="0.1386" height="4.0000" ry="0.0000" fill="currentColor"/>
<rect transform="translate(36.4849, 6.4417)" x="0.0000" y="-2.0000" width="0.1386" height="4.0000" ry="0.0000" fill="currentColor"/>
<rect transform="translate(50.3225, 6.4417)" x="0.0000" y="-2.0000" width="0.1386" height="4.0000" ry="0.0000" fill="currentColor"/>
<rect transform="translate(31.1050, 6.4417)" x="0.0000" y="-2.0000" width="0.1386" height="4.0000" ry="0.0000" fill="currentColor"/>
<rect transform="translate(56.4652, 6.4417)" x="0.0000" y="-2.0000" width="0.1386" height="4.0000" ry="0.0000" fill="currentColor"/>
<rect transform="translate(24.9623, 6.4417)" x="0.0000" y="-2.0000" width="0.1386" height="4.0000" ry="0.0000" fill="currentColor"/>
<rect transform="translate(61.8166, 6.4417)" x="0.0000" y="-2.0000" width="0.1386" height="4.0000" ry="0.0000" fill="currentColor"/>
<rect transform="translate(66.8091, 6.4417)" x="0.0000" y="-2.0000" width="0.1386" height="4.0000" ry="0.0000" fill="currentColor"/>
<rect transform="translate(3.3474, 9.4417)" x="38.6796" y="-0.0865" width="1.6094" height="0.1729" ry="0.0865" fill="currentColor"/>
<rect transform="translate(3.3474, 9.4417)" x="13.3194" y="-0.0865" width="1.6094" height="0.1729" ry="0.0865" fill="currentColor"/>
<text transform="translate(53.4475, 12.2539)" font-family="serif" font-size="1.5557" text-anchor="start" fill="currentColor">
<tspan>ky</tspan>
</text>
<circle transform="translate(53.9839, 5.9417)" stroke-linejoin="round" stroke-linecap="round" fill="currentColor" stroke="currentColor" stroke-width="0" r="0.5365"/>
<g color="rgb(100.0000%, 100.0000%, 100.0000%)">
<text transform="translate(53.6626, 6.2595)" font-family="sans-serif" font-weight="bold" font-size="0.8731" text-anchor="start" fill="currentColor">
<tspan>C</tspan>
</text>
</g>
<rect transform="translate(19.2563, 12.2539)" x="0.0000" y="-0.5148" width="0.6600" height="0.0948" ry="0.0292" fill="currentColor"/>
<path transform="translate(16.9350, 6.4417)" stroke-width="0.0584" stroke-linejoin="round" stroke-linecap="round" stroke="currentColor" fill="currentColor" d="M0.7058 4.0365C1.4764 4.2404 2.3114 3.7916 2.5666 3.0365L2.5666 3.0365C2.2700 3.7145 1.4349 4.1633 0.7058 4.0365z"/>
<rect transform="translate(52.1659, 6.4417)" x="-0.0474" y="-2.5000" width="0.0948" height="3.3042" ry="0.0235" fill="currentColor"/>
<rect transform="translate(58.3086, 6.4417)" x="-0.0474" y="-2.5000" width="0.0948" height="3.3042" ry="0.0235" fill="currentColor"/>
<text transform="translate(56.8756, 12.2539)" font-family="serif" font-size="1.5557" text-anchor="start" fill="currentColor">
<tspan>ko</tspan>
</text>
<circle transform="translate(57.8195, 7.4417)" stroke-linejoin="round" stroke-linecap="round" fill="currentColor" stroke="currentColor" stroke-width="0" r="0.5365"/>
<g color="rgb(100.0000%, 100.0000%, 100.0000%)">
<text transform="translate(57.4580, 7.7595)" font-family="sans-serif" font-weight="bold" font-size="0.8731" text-anchor="start" fill="currentColor">
<tspan>G</tspan>
</text>
</g>
<rect transform="translate(54.9949, 6.4417)" x="-0.0474" y="0.6958" width="0.0948" height="2.0830" ry="0.0235" fill="currentColor"/>
<circle transform="translate(55.4839, 6.9417)" stroke-linejoin="round" stroke-linecap="round" fill="currentColor" stroke="currentColor" stroke-width="0" r="0.5365"/>
<g color="rgb(100.0000%, 100.0000%, 100.0000%)">
<text transform="translate(55.1425, 7.2599)" font-family="sans-serif" font-weight="bold" font-size="0.8731" text-anchor="start" fill="currentColor">
<tspan>A</tspan>
</text>
</g>
<rect transform="translate(53.4949, 6.4417)" x="-0.0474" y="-0.3042" width="0.0948" height="2.5253" ry="0.0235" fill="currentColor"/>
<rect transform="translate(45.1816, 6.4417)" x="-0.0474" y="-0.7821" width="0.0948" height="2.5863" ry="0.0235" fill="currentColor"/>
<circle transform="translate(44.6926, 8.4417)" stroke-linejoin="round" stroke-linecap="round" fill="currentColor" stroke="currentColor" stroke-width="0" r="0.5365"/>
<g color="rgb(100.0000%, 100.0000%, 100.0000%)">
<text transform="translate(44.3913, 8.7599)" font-family="sans-serif" font-weight="bold" font-size="0.8731" text-anchor="start" fill="currentColor">
<tspan>E</tspan>
</text>
</g>
<circle transform="translate(46.5534, 7.4417)" stroke-linejoin="round" stroke-linecap="round" fill="currentColor" stroke="currentColor" stroke-width="0" r="0.5365"/>
<g color="rgb(100.0000%, 100.0000%, 100.0000%)">
<text transform="translate(46.1919, 7.7595)" font-family="sans-serif" font-weight="bold" font-size="0.8731" text-anchor="start" fill="currentColor">
<tspan>G</tspan>
</text>
</g>
<polygon transform="translate(17.9132, 6.2382)" stroke-linejoin="round" stroke-linecap="round" stroke-width="0.0471" fill="currentColor" stroke="currentColor" points="1.9321 -0.8094 1.9321 -0.3765 0.0235 0.2165 0.0235 -0.2165"/>
<text transform="translate(45.4086, 12.2539)" font-family="serif" font-size="1.5557" text-anchor="start" fill="currentColor">
<tspan>vej</tspan>
</text>
<rect transform="translate(47.0425, 6.4417)" x="-0.0474" y="-2.5000" width="0.0948" height="3.3042" ry="0.0235" fill="currentColor"/>
<path transform="translate(47.0899, 3.9652) scale(0.0040, -0.0040)" d="M0 0v-250h-14v250h14zM0 0c0 -198 207 -336 207 -534c0 -71 -16 -142 -42 -208c-4 -7 -10 -11 -17 -11c-12 0 -24 10 -21 25c26 62 41 127 41 194c0 104 -96 209 -168 284v250z" fill="currentColor"/>
<circle transform="translate(48.7062, 7.4417)" stroke-linejoin="round" stroke-linecap="round" fill="currentColor" stroke="currentColor" stroke-width="0" r="0.5365"/>
<g color="rgb(100.0000%, 100.0000%, 100.0000%)">
<text transform="translate(48.3447, 7.7595)" font-family="sans-serif" font-weight="bold" font-size="0.8731" text-anchor="start" fill="currentColor">
<tspan>G</tspan>
</text>
</g>
<text transform="translate(47.9329, 12.2539)" font-family="serif" font-size="1.5557" text-anchor="start" fill="currentColor">
<tspan>te</tspan>
</text>
<rect transform="translate(49.1952, 6.4417)" x="-0.0474" y="-2.5000" width="0.0948" height="3.3042" ry="0.0235" fill="currentColor"/>
<path transform="translate(49.2427, 3.9652) scale(0.0040, -0.0040)" d="M0 0v-250h-14v250h14zM0 0c0 -198 207 -336 207 -534c0 -71 -16 -142 -42 -208c-4 -7 -10 -11 -17 -11c-12 0 -24 10 -21 25c26 62 41 127 41 194c0 104 -96 209 -168 284v250z" fill="currentColor"/>
<circle transform="translate(51.6768, 7.4417)" stroke-linejoin="round" stroke-linecap="round" fill="currentColor" stroke="currentColor" stroke-width="0" r="0.5365"/>
<g color="rgb(100.0000%, 100.0000%, 100.0000%)">
<text transform="translate(51.3153, 7.7595)" font-family="sans-serif" font-weight="bold" font-size="0.8731" text-anchor="start" fill="currentColor">
<tspan>G</tspan>
</text>
</g>
<text transform="translate(50.6124, 12.2539)" font-family="serif" font-size="1.5557" text-anchor="start" fill="currentColor">
<tspan>dít</tspan>
</text>
<path transform="translate(28.0873, 6.4417)" stroke-width="0.0584" stroke-linejoin="round" stroke-linecap="round" stroke="currentColor" fill="currentColor" d="M0.7349 -1.5365C1.4219 -1.6517 2.0770 -1.2149 2.2349 -0.5365L2.2349 -0.5365C2.0284 -1.1421 1.3733 -1.5788 0.7349 -1.5365z"/>
<path transform="translate(64.7833, 6.4417) scale(0.0040, -0.0040)" d="M-23 -113c0 26 10 40 36 40c34 0 85 -15 130 -37l-137 164c-7 8 -10 17 -10 25c0 33 49 64 86 96c26 22 39 54 39 85c0 24 -8 47 -24 67l-39 46c-2 3 -3 6 -3 9c0 7 7 14 14 14c3 0 7 -1 10 -5l152 -182c7 -8 10 -17 10 -25c0 -33 -49 -64 -86 -96
c-26 -22 -39 -54 -39 -85c0 -24 8 -47 24 -67l87 -104c2 -3 3 -5 3 -8c0 -7 -7 -14 -14 -14c-3 0 -7 1 -10 5c-19 22 -66 43 -102 43c-40 0 -52 -29 -52 -70c0 -35 11 -75 28 -96c6 -7 -4 -16 -10 -9c-46 55 -93 150 -93 204z" fill="currentColor"/>
<polygon transform="translate(28.0873, 8.6452)" stroke-linejoin="round" stroke-linecap="round" stroke-width="0.0471" fill="currentColor" stroke="currentColor" points="1.5713 0.3765 1.5713 0.8094 0.0235 0.2165 0.0235 -0.2165"/>
<rect transform="translate(35.8527, 12.2539)" x="0.0000" y="-0.5148" width="0.6600" height="0.0948" ry="0.0292" fill="currentColor"/>
<polygon transform="translate(43.2734, 6.2382)" stroke-linejoin="round" stroke-linecap="round" stroke-width="0.0471" fill="currentColor" stroke="currentColor" points="1.9321 -0.8094 1.9321 -0.3765 0.0235 0.2165 0.0235 -0.2165"/>
<path transform="translate(42.2952, 6.4417)" stroke-width="0.0584" stroke-linejoin="round" stroke-linecap="round" stroke="currentColor" fill="currentColor" d="M0.7058 4.0365C1.4764 4.2404 2.3114 3.7916 2.5666 3.0365L2.5666 3.0365C2.2700 3.7145 1.4349 4.1633 0.7058 4.0365z"/>
<rect transform="translate(44.6950, 12.2539)" x="0.0000" y="-0.5148" width="0.6436" height="0.0948" ry="0.0292" fill="currentColor"/>
<rect transform="translate(52.8113, 12.2539)" x="0.0000" y="-0.5148" width="0.5662" height="0.0948" ry="0.0292" fill="currentColor"/>
<path transform="translate(53.4475, 6.4417)" stroke-width="0.0584" stroke-linejoin="round" stroke-linecap="round" stroke="currentColor" fill="currentColor" d="M0.7349 -1.5365C1.4219 -1.6517 2.0770 -1.2149 2.2349 -0.5365L2.2349 -0.5365C2.0284 -1.1421 1.3733 -1.5788 0.7349 -1.5365z"/>
<polygon transform="translate(53.4475, 8.6452)" stroke-linejoin="round" stroke-linecap="round" stroke-width="0.0471" fill="currentColor" stroke="currentColor" points="1.5713 0.3765 1.5713 0.8094 0.0235 0.2165 0.0235 -0.2165"/>
<rect transform="translate(58.8335, 12.2539)" x="0.0000" y="-0.5148" width="0.3518" height="0.0948" ry="0.0292" fill="currentColor"/>
<rect transform="translate(61.0538, 12.2539)" x="0.0000" y="-0.5148" width="0.6600" height="0.0948" ry="0.0292" fill="currentColor"/>
<rect transform="translate(60.4573, 6.4417)" x="-0.0474" y="-2.0000" width="0.0948" height="3.3042" ry="0.0235" fill="currentColor"/>
<text transform="translate(59.2553, 12.2539)" font-family="serif" font-size="1.5557" text-anchor="start" fill="currentColor">
<tspan>le</tspan>
</text>
<circle transform="translate(59.9683, 7.9417)" stroke-linejoin="round" stroke-linecap="round" fill="currentColor" stroke="currentColor" stroke-width="0" r="0.5365"/>
<g color="rgb(100.0000%, 100.0000%, 100.0000%)">
<text transform="translate(59.6670, 8.2599)" font-family="sans-serif" font-weight="bold" font-size="0.8731" text-anchor="start" fill="currentColor">
<tspan>F</tspan>
</text>
</g>
<rect transform="translate(22.1268, 12.2539)" x="0.0000" y="-0.5148" width="0.4361" height="0.0948" ry="0.0292" fill="currentColor"/>
<rect transform="translate(30.9726, 12.2539)" x="0.0000" y="-0.5148" width="0.6600" height="0.0948" ry="0.0292" fill="currentColor"/>
<circle transform="translate(63.1710, 8.4417)" stroke-linejoin="round" stroke-linecap="round" fill="currentColor" stroke="currentColor" stroke-width="0" r="0.5365"/>
<g color="rgb(100.0000%, 100.0000%, 100.0000%)">
<text transform="translate(62.8697, 8.7599)" font-family="sans-serif" font-weight="bold" font-size="0.8731" text-anchor="start" fill="currentColor">
<tspan>E</tspan>
</text>
</g>
<text transform="translate(62.0864, 12.2539)" font-family="serif" font-size="1.5557" text-anchor="start" fill="currentColor">
<tspan>dy,</tspan>
</text>
<rect transform="translate(63.6600, 6.4417)" x="-0.0474" y="-1.5000" width="0.0948" height="3.3042" ry="0.0235" fill="currentColor"/>
<rect transform="translate(27.3238, 12.2539)" x="0.0000" y="-0.5148" width="0.6600" height="0.0948" ry="0.0292" fill="currentColor"/>
<circle transform="translate(26.3166, 7.4417)" stroke-linejoin="round" stroke-linecap="round" fill="currentColor" stroke="currentColor" stroke-width="0" r="0.5365"/>
<g color="rgb(100.0000%, 100.0000%, 100.0000%)">
<text transform="translate(25.9551, 7.7595)" font-family="sans-serif" font-weight="bold" font-size="0.8731" text-anchor="start" fill="currentColor">
<tspan>G</tspan>
</text>
</g>
<rect transform="translate(26.8057, 6.4417)" x="-0.0474" y="-2.5000" width="0.0948" height="3.3042" ry="0.0235" fill="currentColor"/>
<text transform="translate(25.4128, 12.2539)" font-family="serif" font-size="1.5557" text-anchor="start" fill="currentColor">
<tspan>vá</tspan>
</text>
<path transform="translate(23.8824, 3.9652) scale(0.0040, -0.0040)" d="M0 0v-250h-14v250h14zM0 0c0 -198 207 -336 207 -534c0 -71 -16 -142 -42 -208c-4 -7 -10 -11 -17 -11c-12 0 -24 10 -21 25c26 62 41 127 41 194c0 104 -96 209 -168 284v250z" fill="currentColor"/>
<rect transform="translate(23.8350, 6.4417)" x="-0.0474" y="-2.5000" width="0.0948" height="3.3042" ry="0.0235" fill="currentColor"/>
<text transform="translate(22.6330, 12.2539)" font-family="serif" font-size="1.5557" text-anchor="start" fill="currentColor">
<tspan>lé</tspan>
</text>
<circle transform="translate(23.3460, 7.4417)" stroke-linejoin="round" stroke-linecap="round" fill="currentColor" stroke="currentColor" stroke-width="0" r="0.5365"/>
<g color="rgb(100.0000%, 100.0000%, 100.0000%)">
<text transform="translate(22.9845, 7.7595)" font-family="sans-serif" font-weight="bold" font-size="0.8731" text-anchor="start" fill="currentColor">
<tspan>G</tspan>
</text>
</g>
<text transform="translate(28.0873, 12.2539)" font-family="serif" font-size="1.5557" text-anchor="start" fill="currentColor">
<tspan>noč</tspan>
</text>
<rect transform="translate(29.6347, 6.4417)" x="-0.0474" y="0.6958" width="0.0948" height="2.0830" ry="0.0235" fill="currentColor"/>
<circle transform="translate(30.1237, 6.9417)" stroke-linejoin="round" stroke-linecap="round" fill="currentColor" stroke="currentColor" stroke-width="0" r="0.5365"/>
<g color="rgb(100.0000%, 100.0000%, 100.0000%)">
<text transform="translate(29.7823, 7.2599)" font-family="sans-serif" font-weight="bold" font-size="0.8731" text-anchor="start" fill="currentColor">
<tspan>A</tspan>
</text>
</g>
<rect transform="translate(28.1347, 6.4417)" x="-0.0474" y="-0.3042" width="0.0948" height="2.5253" ry="0.0235" fill="currentColor"/>
<circle transform="translate(28.6237, 5.9417)" stroke-linejoin="round" stroke-linecap="round" fill="currentColor" stroke="currentColor" stroke-width="0" r="0.5365"/>
<g color="rgb(100.0000%, 100.0000%, 100.0000%)">
<text transform="translate(28.3024, 6.2595)" font-family="sans-serif" font-weight="bold" font-size="0.8731" text-anchor="start" fill="currentColor">
<tspan>C</tspan>
</text>
</g>
<rect transform="translate(17.9606, 6.4417)" x="-0.0474" y="-0.2179" width="0.0948" height="3.0221" ry="0.0235" fill="currentColor"/>
<text transform="translate(16.9350, 12.2539)" font-family="serif" font-size="1.5557" text-anchor="start" fill="currentColor">
<tspan>Ve</tspan>
</text>
<path transform="translate(13.4388, 6.4417) scale(0.0040, -0.0040)" d="M236 355c0 61 -22 124 -75 124c-25 0 -48 -14 -48 -37c0 -27 35 -41 35 -68c0 -38 -31 -69 -69 -69s-68 31 -68 69c0 75 71 126 150 126c95 0 184 -57 184 -145c0 -158 -162 -160 -257 -229c12 3 24 5 37 5c32 0 67 -10 101 -33c23 -16 49 -25 70 -25c20 0 37 8 42 28
c1 6 6 8 10 8c5 0 11 -4 11 -10c0 -63 -85 -99 -132 -99c-35 0 -69 14 -94 42c-14 16 -32 23 -50 23c-30 0 -59 -21 -62 -55c-1 -7 -5 -10 -10 -10c-6 0 -12 4 -11 12c15 174 236 164 236 343z" fill="currentColor"/>
<path transform="translate(13.3685, 8.4576) scale(0.0040, -0.0040)" d="M208 319c21 13 42 27 57 47c11 15 18 32 25 49c4 9 20 7 20 -7v-256h68c9 0 13 -7 13 -14s-4 -13 -13 -13h-68v-16c0 -45 26 -88 68 -88c7 0 10 -5 10 -10s-3 -11 -10 -11c-41 0 -82 13 -123 13s-82 -13 -123 -13c-7 0 -10 6 -10 11s3 10 10 10c42 0 68 43 68 88v16h-173
c-21 0 -29 13 -29 21c0 2 1 5 2 6c81 96 146 208 146 333c0 10 7 18 15 15c22 -7 44 -13 67 -13s45 6 67 13c12 4 21 -8 15 -15l-283 -333h173v147c0 8 2 16 8 20z" fill="currentColor"/>
<path transform="translate(9.1685, 7.4417) scale(0.0040, -0.0040)" d="M374 260c5 0 10 1 15 1c154 0 254 -127 254 -259c0 -76 -33 -153 -107 -208c-22 -17 -47 -29 -73 -37c3 -36 5 -72 5 -108c0 -19 0 -37 -1 -56c-7 -120 -88 -226 -206 -226c-108 0 -195 87 -195 195c0 58 53 104 112 104c54 0 95 -48 95 -104c0 -52 -43 -95 -95 -95
c-12 0 -24 4 -35 9c26 -41 70 -70 121 -70c1 0 2 1 3 1c93 2 154 93 160 192c1 18 2 35 2 53c0 32 -2 64 -5 96c-29 -5 -58 -8 -89 -8c-188 0 -333 171 -333 372c0 178 133 306 251 440c-18 63 -35 126 -42 191c-6 51 -7 102 -7 154c0 116 55 226 150 295c5 4 11 4 16 0
c70 -84 132 -246 132 -359c0 -144 -87 -256 -183 -365c20 -69 39 -138 55 -208zM459 -205c69 24 117 96 117 166c0 92 -69 184 -179 193c25 -117 48 -235 62 -359zM71 31c0 -136 131 -251 267 -251c28 0 55 2 82 6c-15 128 -38 247 -64 367c-79 -9 -125 -62 -125 -121
c0 -44 26 -92 82 -124c4 -4 7 -9 7 -14c0 -11 -9 -21 -20 -21c-3 0 -6 1 -9 2c-80 43 -116 114 -116 184c0 88 57 173 158 196c-14 60 -30 119 -46 178c-108 -121 -216 -242 -216 -402zM411 1050c-99 -50 -161 -151 -161 -262c0 -76 15 -137 33 -200c82 97 149 198 149 325
c0 58 -4 84 -21 137z" fill="currentColor"/>
<circle transform="translate(17.4715, 9.4417)" stroke-linejoin="round" stroke-linecap="round" fill="currentColor" stroke="currentColor" stroke-width="0" r="0.5365"/>
<g color="rgb(100.0000%, 100.0000%, 100.0000%)">
<text transform="translate(17.1502, 9.7595)" font-family="sans-serif" font-weight="bold" font-size="0.8731" text-anchor="start" fill="currentColor">
<tspan>C</tspan>
</text>
</g>
<path transform="translate(21.7297, 3.9652) scale(0.0040, -0.0040)" d="M0 0v-250h-14v250h14zM0 0c0 -198 207 -336 207 -534c0 -71 -16 -142 -42 -208c-4 -7 -10 -11 -17 -11c-12 0 -24 10 -21 25c26 62 41 127 41 194c0 104 -96 209 -168 284v250z" fill="currentColor"/>
<rect transform="translate(21.6823, 6.4417)" x="-0.0474" y="-2.5000" width="0.0948" height="3.3042" ry="0.0235" fill="currentColor"/>
<text transform="translate(20.3296, 12.2539)" font-family="serif" font-size="1.5557" text-anchor="start" fill="currentColor">
<tspan>se</tspan>
</text>
<circle transform="translate(21.1932, 7.4417)" stroke-linejoin="round" stroke-linecap="round" fill="currentColor" stroke="currentColor" stroke-width="0" r="0.5365"/>
<g color="rgb(100.0000%, 100.0000%, 100.0000%)">
<text transform="translate(20.8317, 7.7595)" font-family="sans-serif" font-weight="bold" font-size="0.8731" text-anchor="start" fill="currentColor">
<tspan>G</tspan>
</text>
</g>
<rect transform="translate(19.8214, 6.4417)" x="-0.0474" y="-0.7821" width="0.0948" height="2.5863" ry="0.0235" fill="currentColor"/>
<circle transform="translate(19.3324, 8.4417)" stroke-linejoin="round" stroke-linecap="round" fill="currentColor" stroke="currentColor" stroke-width="0" r="0.5365"/>
<g color="rgb(100.0000%, 100.0000%, 100.0000%)">
<text transform="translate(19.0311, 8.7599)" font-family="sans-serif" font-weight="bold" font-size="0.8731" text-anchor="start" fill="currentColor">
<tspan>E</tspan>
</text>
</g>
<rect transform="translate(38.3283, 6.4417)" x="-0.0474" y="-1.5000" width="0.0948" height="3.3042" ry="0.0235" fill="currentColor"/>
<text transform="translate(36.7547, 12.2539)" font-family="serif" font-size="1.5557" text-anchor="start" fill="currentColor">
<tspan>dy,</tspan>
</text>
<rect transform="translate(35.1256, 6.4417)" x="-0.0474" y="-2.0000" width="0.0948" height="3.3042" ry="0.0235" fill="currentColor"/>
<text transform="translate(33.6625, 12.2539)" font-family="serif" font-size="1.5557" text-anchor="start" fill="currentColor">
<tspan>ho</tspan>
</text>
<rect transform="translate(43.3208, 6.4417)" x="-0.0474" y="-0.2179" width="0.0948" height="3.0221" ry="0.0235" fill="currentColor"/>
<text transform="translate(42.2952, 12.2539)" font-family="serif" font-size="1.5557" text-anchor="start" fill="currentColor">
<tspan>zpí</tspan>
</text>
<circle transform="translate(42.8317, 9.4417)" stroke-linejoin="round" stroke-linecap="round" fill="currentColor" stroke="currentColor" stroke-width="0" r="0.5365"/>
<g color="rgb(100.0000%, 100.0000%, 100.0000%)">
<text transform="translate(42.5104, 9.7595)" font-family="sans-serif" font-weight="bold" font-size="0.8731" text-anchor="start" fill="currentColor">
<tspan>C</tspan>
</text>
</g>
<circle transform="translate(37.8392, 8.4417)" stroke-linejoin="round" stroke-linecap="round" fill="currentColor" stroke="currentColor" stroke-width="0" r="0.5365"/>
<g color="rgb(100.0000%, 100.0000%, 100.0000%)">
<text transform="translate(37.5380, 8.7599)" font-family="sans-serif" font-weight="bold" font-size="0.8731" text-anchor="start" fill="currentColor">
<tspan>E</tspan>
</text>
</g>
<path transform="translate(39.4515, 6.4417) scale(0.0040, -0.0040)" d="M-23 -113c0 26 10 40 36 40c34 0 85 -15 130 -37l-137 164c-7 8 -10 17 -10 25c0 33 49 64 86 96c26 22 39 54 39 85c0 24 -8 47 -24 67l-39 46c-2 3 -3 6 -3 9c0 7 7 14 14 14c3 0 7 -1 10 -5l152 -182c7 -8 10 -17 10 -25c0 -33 -49 -64 -86 -96
c-26 -22 -39 -54 -39 -85c0 -24 8 -47 24 -67l87 -104c2 -3 3 -5 3 -8c0 -7 -7 -14 -14 -14c-3 0 -7 1 -10 5c-19 22 -66 43 -102 43c-40 0 -52 -29 -52 -70c0 -35 11 -75 28 -96c6 -7 -4 -16 -10 -9c-46 55 -93 150 -93 204z" fill="currentColor"/>
<text transform="translate(31.7062, 12.2539)" font-family="serif" font-size="1.5557" text-anchor="start" fill="currentColor">
<tspan>ní</tspan>
</text>
<circle transform="translate(32.4593, 7.4417)" stroke-linejoin="round" stroke-linecap="round" fill="currentColor" stroke="currentColor" stroke-width="0" r="0.5365"/>
<g color="rgb(100.0000%, 100.0000%, 100.0000%)">
<text transform="translate(32.0978, 7.7595)" font-family="sans-serif" font-weight="bold" font-size="0.8731" text-anchor="start" fill="currentColor">
<tspan>G</tspan>
</text>
</g>
<circle transform="translate(34.6366, 7.9417)" stroke-linejoin="round" stroke-linecap="round" fill="currentColor" stroke="currentColor" stroke-width="0" r="0.5365"/>
<g color="rgb(100.0000%, 100.0000%, 100.0000%)">
<text transform="translate(34.3353, 8.2599)" font-family="sans-serif" font-weight="bold" font-size="0.8731" text-anchor="start" fill="currentColor">
<tspan>F</tspan>
</text>
</g>
<rect transform="translate(32.9484, 6.4417)" x="-0.0474" y="-2.5000" width="0.0948" height="3.3042" ry="0.0235" fill="currentColor"/>
<path transform="translate(8.4263, 17.9417) scale(0.0040, -0.0040)" d="M0 0c0 32 25 57 57 57s57 -25 57 -57s-25 -57 -57 -57s-57 25 -57 57z" fill="currentColor"/>
<path transform="translate(8.4263, 18.9417) scale(0.0040, -0.0040)" d="M0 0c0 32 25 57 57 57s57 -25 57 -57s-25 -57 -57 -57s-57 25 -57 57z" fill="currentColor"/>
<rect transform="translate(8.0689, 18.4417)" x="0.0000" y="-2.0000" width="0.1386" height="4.0000" ry="0.0000" fill="currentColor"/>
<rect transform="translate(7.4124, 18.4417)" x="0.0000" y="-2.0000" width="0.4376" height="4.0000" ry="0.0000" fill="currentColor"/>
<rect transform="translate(42.0577, 18.4417)" x="0.0000" y="-2.0000" width="0.1386" height="4.0000" ry="0.0000" fill="currentColor"/>
<rect transform="translate(32.3596, 18.4417)" x="0.0000" y="-2.0000" width="0.1386" height="4.0000" ry="0.0000" fill="currentColor"/>
<rect transform="translate(58.6648, 18.4417)" x="0.0000" y="-2.0000" width="0.1386" height="4.0000" ry="0.0000" fill="currentColor"/>
<path transform="translate(65.4770, 17.9417) scale(0.0040, -0.0040)" d="M0 0c0 32 25 57 57 57s57 -25 57 -57s-25 -57 -57 -57s-57 25 -57 57z" fill="currentColor"/>
<path transform="translate(65.4770, 18.9417) scale(0.0040, -0.0040)" d="M0 0c0 32 25 57 57 57s57 -25 57 -57s-25 -57 -57 -57s-57 25 -57 57z" fill="currentColor"/>
<rect transform="translate(66.5100, 18.4417)" x="0.0000" y="-2.0000" width="0.4376" height="4.0000" ry="0.0000" fill="currentColor"/>
<rect transform="translate(66.1526, 18.4417)" x="0.0000" y="-2.0000" width="0.1386" height="4.0000" ry="0.0000" fill="currentColor"/>
<rect transform="translate(20.7837, 18.4417)" x="0.0000" y="-2.0000" width="0.1386" height="4.0000" ry="0.0000" fill="currentColor"/>
<rect transform="translate(51.5154, 18.4417)" x="0.0000" y="-2.0000" width="0.1386" height="4.0000" ry="0.0000" fill="currentColor"/>
<rect transform="translate(3.3474, 21.4417)" x="56.0070" y="-0.0865" width="1.6094" height="0.1729" ry="0.0865" fill="currentColor"/>
<line transform="translate(3.3474, 20.4417)" stroke-linejoin="round" stroke-linecap="round" stroke-width="0.0729" stroke="currentColor" x1="0.0365" y1="-0.0000" x2="63.5638" y2="-0.0000"/>
<line transform="translate(3.3474, 19.4417)" stroke-linejoin="round" stroke-linecap="round" stroke-width="0.0729" stroke="currentColor" x1="0.0365" y1="-0.0000" x2="63.5638" y2="-0.0000"/>
<line transform="translate(3.3474, 18.4417)" stroke-linejoin="round" stroke-linecap="round" stroke-width="0.0729" stroke="currentColor" x1="0.0365" y1="-0.0000" x2="63.5638" y2="-0.0000"/>
<line transform="translate(3.3474, 17.4417)" stroke-linejoin="round" stroke-linecap="round" stroke-width="0.0729" stroke="currentColor" x1="0.0365" y1="-0.0000" x2="63.5638" y2="-0.0000"/>
<line transform="translate(3.3474, 16.4417)" stroke-linejoin="round" stroke-linecap="round" stroke-width="0.0729" stroke="currentColor" x1="0.0365" y1="-0.0000" x2="63.5638" y2="-0.0000"/>
<circle transform="translate(47.8683, 19.9417)" stroke-linejoin="round" stroke-linecap="round" fill="currentColor" stroke="currentColor" stroke-width="0" r="0.5365"/>
<g color="rgb(100.0000%, 100.0000%, 100.0000%)">
<text transform="translate(47.5670, 20.2599)" font-family="sans-serif" font-weight="bold" font-size="0.8731" text-anchor="start" fill="currentColor">
<tspan>F</tspan>
</text>
</g>
<text transform="translate(47.1151, 23.9417)" font-family="serif" font-size="1.5557" text-anchor="start" fill="currentColor">
<tspan>di</tspan>
</text>
<path transform="translate(46.2520, 16.9652) scale(0.0040, -0.0040)" d="M0 0v-250h-14v250h14zM0 0c0 -198 207 -336 207 -534c0 -71 -16 -142 -42 -208c-4 -7 -10 -11 -17 -11c-12 0 -24 10 -21 25c26 62 41 127 41 194c0 104 -96 209 -168 284v250z" fill="currentColor"/>
<rect transform="translate(48.3573, 18.4417)" x="-0.0474" y="-2.0000" width="0.0948" height="3.3042" ry="0.0235" fill="currentColor"/>
<path transform="translate(48.4047, 16.4652) scale(0.0040, -0.0040)" d="M0 0v-250h-14v250h14zM0 0c0 -198 207 -336 207 -534c0 -71 -16 -142 -42 -208c-4 -7 -10 -11 -17 -11c-12 0 -24 10 -21 25c26 62 41 127 41 194c0 104 -96 209 -168 284v250z" fill="currentColor"/>
<circle transform="translate(49.8991, 20.9417)" stroke-linejoin="round" stroke-linecap="round" fill="currentColor" stroke="currentColor" stroke-width="0" r="0.5365"/>
<g color="rgb(100.0000%, 100.0000%, 100.0000%)">
<text transform="translate(49.5375, 21.2599)" font-family="sans-serif" font-weight="bold" font-size="0.8731" text-anchor="start" fill="currentColor">
<tspan>D</tspan>
</text>
</g>
<text transform="translate(49.1760, 23.9417)" font-family="serif" font-size="1.5557" text-anchor="start" fill="currentColor">
<tspan>lo</tspan>
</text>
<rect transform="translate(50.3881, 18.4417)" x="-0.0474" y="-1.0000" width="0.0948" height="3.3042" ry="0.0235" fill="currentColor"/>
<path transform="translate(50.4355, 17.4652) scale(0.0040, -0.0040)" d="M0 0v-250h-14v250h14zM0 0c0 -198 207 -336 207 -534c0 -71 -16 -142 -42 -208c-4 -7 -10 -11 -17 -11c-12 0 -24 10 -21 25c26 62 41 127 41 194c0 104 -96 209 -168 284v250z" fill="currentColor"/>
<circle transform="translate(53.0097, 20.4417)" stroke-linejoin="round" stroke-linecap="round" fill="currentColor" stroke="currentColor" stroke-width="0" r="0.5365"/>
<g color="rgb(100.0000%, 100.0000%, 100.0000%)">
<text transform="translate(52.7084, 20.7599)" font-family="sans-serif" font-weight="bold" font-size="0.8731" text-anchor="start" fill="currentColor">
<tspan>E</tspan>
</text>
</g>
<text transform="translate(52.0456, 23.9417)" font-family="serif" font-size="1.5557" text-anchor="start" fill="currentColor">
<tspan>dě</tspan>
</text>
<rect transform="translate(53.4988, 18.4417)" x="-0.0474" y="-1.5000" width="0.0948" height="3.3042" ry="0.0235" fill="currentColor"/>
<path transform="translate(38.6787, 16.4652) scale(0.0040, -0.0040)" d="M0 0v-250h-14v250h14zM0 0c0 -198 207 -336 207 -534c0 -71 -16 -142 -42 -208c-4 -7 -10 -11 -17 -11c-12 0 -24 10 -21 25c26 62 41 127 41 194c0 104 -96 209 -168 284v250z" fill="currentColor"/>
<circle transform="translate(40.4414, 20.4417)" stroke-linejoin="round" stroke-linecap="round" fill="currentColor" stroke="currentColor" stroke-width="0" r="0.5365"/>
<g color="rgb(100.0000%, 100.0000%, 100.0000%)">
<text transform="translate(40.1402, 20.7599)" font-family="sans-serif" font-weight="bold" font-size="0.8731" text-anchor="start" fill="currentColor">
<tspan>E</tspan>
</text>
</g>
<text transform="translate(38.7443, 23.9417)" font-family="serif" font-size="1.5557" text-anchor="start" fill="currentColor">
<tspan>dem</tspan>
</text>
<rect transform="translate(40.9305, 18.4417)" x="-0.0474" y="-1.5000" width="0.0948" height="3.3042" ry="0.0235" fill="currentColor"/>
<path transform="translate(40.9779, 16.9652) scale(0.0040, -0.0040)" d="M0 0v-250h-14v250h14zM0 0c0 -198 207 -336 207 -534c0 -71 -16 -142 -42 -208c-4 -7 -10 -11 -17 -11c-12 0 -24 10 -21 25c26 62 41 127 41 194c0 104 -96 209 -168 284v250z" fill="currentColor"/>
<circle transform="translate(43.5627, 20.9417)" stroke-linejoin="round" stroke-linecap="round" fill="currentColor" stroke="currentColor" stroke-width="0" r="0.5365"/>
<g color="rgb(100.0000%, 100.0000%, 100.0000%)">
<text transform="translate(43.2012, 21.2599)" font-family="sans-serif" font-weight="bold" font-size="0.8731" text-anchor="start" fill="currentColor">
<tspan>D</tspan>
</text>
</g>
<text transform="translate(42.5987, 23.9417)" font-family="serif" font-size="1.5557" text-anchor="start" fill="currentColor">
<tspan>na</tspan>
</text>
<rect transform="translate(44.0518, 18.4417)" x="-0.0474" y="-1.0000" width="0.0948" height="3.3042" ry="0.0235" fill="currentColor"/>
<rect transform="translate(46.2046, 18.4417)" x="-0.0474" y="-1.5000" width="0.0948" height="3.3042" ry="0.0235" fill="currentColor"/>
<path transform="translate(44.0992, 17.4652) scale(0.0040, -0.0040)" d="M0 0v-250h-14v250h14zM0 0c0 -198 207 -336 207 -534c0 -71 -16 -142 -42 -208c-4 -7 -10 -11 -17 -11c-12 0 -24 10 -21 25c26 62 41 127 41 194c0 104 -96 209 -168 284v250z" fill="currentColor"/>
<circle transform="translate(45.7155, 20.4417)" stroke-linejoin="round" stroke-linecap="round" fill="currentColor" stroke="currentColor" stroke-width="0" r="0.5365"/>
<g color="rgb(100.0000%, 100.0000%, 100.0000%)">
<text transform="translate(45.4142, 20.7599)" font-family="sans-serif" font-weight="bold" font-size="0.8731" text-anchor="start" fill="currentColor">
<tspan>E</tspan>
</text>
</g>
<text transform="translate(44.8720, 23.9417)" font-family="serif" font-size="1.5557" text-anchor="start" fill="currentColor">
<tspan>ro</tspan>
</text>
<rect transform="translate(57.7035, 23.9417)" x="0.0000" y="-0.5148" width="0.6600" height="0.0948" ry="0.0292" fill="currentColor"/>
<rect transform="translate(54.1138, 23.9417)" x="0.0000" y="-0.5148" width="0.6600" height="0.0948" ry="0.0292" fill="currentColor"/>
<rect transform="translate(48.6914, 23.9417)" x="0.0000" y="-0.5148" width="0.4146" height="0.0948" ry="0.0292" fill="currentColor"/>
<rect transform="translate(46.6290, 23.9417)" x="0.0000" y="-0.5148" width="0.4161" height="0.0948" ry="0.0292" fill="currentColor"/>
<rect transform="translate(44.5494, 23.9417)" x="0.0000" y="-0.5148" width="0.3000" height="0.0948" ry="0.0292" fill="currentColor"/>
<circle transform="translate(55.9983, 20.9417)" stroke-linejoin="round" stroke-linecap="round" fill="currentColor" stroke="currentColor" stroke-width="0" r="0.5365"/>
<g color="rgb(100.0000%, 100.0000%, 100.0000%)">
<text transform="translate(55.6368, 21.2599)" font-family="sans-serif" font-weight="bold" font-size="0.8731" text-anchor="start" fill="currentColor">
<tspan>D</tspan>
</text>
</g>
<text transform="translate(54.9138, 23.9417)" font-family="serif" font-size="1.5557" text-anchor="start" fill="currentColor">
<tspan>ťát</tspan>
</text>
<rect transform="translate(56.4874, 18.4417)" x="-0.0474" y="-1.0000" width="0.0948" height="3.3042" ry="0.0235" fill="currentColor"/>
<circle transform="translate(60.1591, 21.4417)" stroke-linejoin="round" stroke-linecap="round" fill="currentColor" stroke="currentColor" stroke-width="0" r="0.5365"/>
<g color="rgb(100.0000%, 100.0000%, 100.0000%)">
<text transform="translate(59.8378, 21.7595)" font-family="sans-serif" font-weight="bold" font-size="0.8731" text-anchor="start" fill="currentColor">
<tspan>C</tspan>
</text>
</g>
<text transform="translate(58.9842, 23.9417)" font-family="serif" font-size="1.5557" text-anchor="start" fill="currentColor">
<tspan>ko.</tspan>
</text>
<rect transform="translate(60.6482, 18.4417)" x="-0.0474" y="-0.5000" width="0.0948" height="3.3042" ry="0.0235" fill="currentColor"/>
<path transform="translate(62.6113, 18.4417) scale(0.0040, -0.0040)" d="M-23 -113c0 26 10 40 36 40c34 0 85 -15 130 -37l-137 164c-7 8 -10 17 -10 25c0 33 49 64 86 96c26 22 39 54 39 85c0 24 -8 47 -24 67l-39 46c-2 3 -3 6 -3 9c0 7 7 14 14 14c3 0 7 -1 10 -5l152 -182c7 -8 10 -17 10 -25c0 -33 -49 -64 -86 -96
c-26 -22 -39 -54 -39 -85c0 -24 8 -47 24 -67l87 -104c2 -3 3 -5 3 -8c0 -7 -7 -14 -14 -14c-3 0 -7 1 -10 5c-19 22 -66 43 -102 43c-40 0 -52 -29 -52 -70c0 -35 11 -75 28 -96c6 -7 -4 -16 -10 -9c-46 55 -93 150 -93 204z" fill="currentColor"/>
<text transform="translate(15.6263, 23.9417)" font-family="serif" font-size="1.5557" text-anchor="start" fill="currentColor">
<tspan>co</tspan>
</text>
<rect transform="translate(17.0192, 18.4417)" x="-0.0474" y="-2.0000" width="0.0948" height="3.3042" ry="0.0235" fill="currentColor"/>
<path transform="translate(17.0666, 16.4652) scale(0.0040, -0.0040)" d="M0 0v-250h-14v250h14zM0 0c0 -198 207 -336 207 -534c0 -71 -16 -142 -42 -208c-4 -7 -10 -11 -17 -11c-12 0 -24 10 -21 25c26 62 41 127 41 194c0 104 -96 209 -168 284v250z" fill="currentColor"/>
<circle transform="translate(18.7476, 20.4417)" stroke-linejoin="round" stroke-linecap="round" fill="currentColor" stroke="currentColor" stroke-width="0" r="0.5365"/>
<g color="rgb(100.0000%, 100.0000%, 100.0000%)">
<text transform="translate(18.4463, 20.7599)" font-family="sans-serif" font-weight="bold" font-size="0.8731" text-anchor="start" fill="currentColor">
<tspan>E</tspan>
</text>
</g>
<text transform="translate(17.8839, 23.9417)" font-family="serif" font-size="1.5557" text-anchor="start" fill="currentColor">
<tspan>se</tspan>
</text>
<rect transform="translate(19.2366, 18.4417)" x="-0.0474" y="-1.5000" width="0.0948" height="3.3042" ry="0.0235" fill="currentColor"/>
<path transform="translate(19.2840, 16.9652) scale(0.0040, -0.0040)" d="M0 0v-250h-14v250h14zM0 0c0 -198 207 -336 207 -534c0 -71 -16 -142 -42 -208c-4 -7 -10 -11 -17 -11c-12 0 -24 10 -21 25c26 62 41 127 41 194c0 104 -96 209 -168 284v250z" fill="currentColor"/>
<circle transform="translate(22.4412, 20.9417)" stroke-linejoin="round" stroke-linecap="round" fill="currentColor" stroke="currentColor" stroke-width="0" r="0.5365"/>
<g color="rgb(100.0000%, 100.0000%, 100.0000%)">
<text transform="translate(22.0797, 21.2599)" font-family="sans-serif" font-weight="bold" font-size="0.8731" text-anchor="start" fill="currentColor">
<tspan>D</tspan>
</text>
</g>
<text transform="translate(20.0612, 23.9417)" font-family="serif" font-size="1.5557" text-anchor="start" fill="currentColor">
<tspan>v skut</tspan>
</text>
<circle transform="translate(16.5301, 19.9417)" stroke-linejoin="round" stroke-linecap="round" fill="currentColor" stroke="currentColor" stroke-width="0" r="0.5365"/>
<g color="rgb(100.0000%, 100.0000%, 100.0000%)">
<text transform="translate(16.2289, 20.2599)" font-family="sans-serif" font-weight="bold" font-size="0.8731" text-anchor="start" fill="currentColor">
<tspan>F</tspan>
</text>
</g>
<rect transform="translate(22.9302, 18.4417)" x="-0.0474" y="-1.0000" width="0.0948" height="3.3042" ry="0.0235" fill="currentColor"/>
<path transform="translate(22.9776, 17.4652) scale(0.0040, -0.0040)" d="M0 0v-250h-14v250h14zM0 0c0 -198 207 -336 207 -534c0 -71 -16 -142 -42 -208c-4 -7 -10 -11 -17 -11c-12 0 -24 10 -21 25c26 62 41 127 41 194c0 104 -96 209 -168 284v250z" fill="currentColor"/>
<text transform="translate(2.2427, 15.3805)" font-family="serif" font-size="1.7463" text-anchor="start" fill="currentColor">
<tspan>9</tspan>
</text>
<path transform="translate(4.1474, 19.4417) scale(0.0040, -0.0040)" d="M374 260c5 0 10 1 15 1c154 0 254 -127 254 -259c0 -76 -33 -153 -107 -208c-22 -17 -47 -29 -73 -37c3 -36 5 -72 5 -108c0 -19 0 -37 -1 -56c-7 -120 -88 -226 -206 -226c-108 0 -195 87 -195 195c0 58 53 104 112 104c54 0 95 -48 95 -104c0 -52 -43 -95 -95 -95
c-12 0 -24 4 -35 9c26 -41 70 -70 121 -70c1 0 2 1 3 1c93 2 154 93 160 192c1 18 2 35 2 53c0 32 -2 64 -5 96c-29 -5 -58 -8 -89 -8c-188 0 -333 171 -333 372c0 178 133 306 251 440c-18 63 -35 126 -42 191c-6 51 -7 102 -7 154c0 116 55 226 150 295c5 4 11 4 16 0
c70 -84 132 -246 132 -359c0 -144 -87 -256 -183 -365c20 -69 39 -138 55 -208zM459 -205c69 24 117 96 117 166c0 92 -69 184 -179 193c25 -117 48 -235 62 -359zM71 31c0 -136 131 -251 267 -251c28 0 55 2 82 6c-15 128 -38 247 -64 367c-79 -9 -125 -62 -125 -121
c0 -44 26 -92 82 -124c4 -4 7 -9 7 -14c0 -11 -9 -21 -20 -21c-3 0 -6 1 -9 2c-80 43 -116 114 -116 184c0 88 57 173 158 196c-14 60 -30 119 -46 178c-108 -121 -216 -242 -216 -402zM411 1050c-99 -50 -161 -151 -161 -262c0 -76 15 -137 33 -200c82 97 149 198 149 325
c0 58 -4 84 -21 137z" fill="currentColor"/>
<circle transform="translate(10.7195, 19.4417)" stroke-linejoin="round" stroke-linecap="round" fill="currentColor" stroke="currentColor" stroke-width="0" r="0.5365"/>
<g color="rgb(100.0000%, 100.0000%, 100.0000%)">
<text transform="translate(10.3580, 19.7595)" font-family="sans-serif" font-weight="bold" font-size="0.8731" text-anchor="start" fill="currentColor">
<tspan>G</tspan>
</text>
</g>
<text transform="translate(10.2475, 23.9417)" font-family="serif" font-size="1.5557" text-anchor="start" fill="currentColor">
<tspan>o</tspan>
</text>
<rect transform="translate(11.2086, 18.4417)" x="-0.0474" y="-2.5000" width="0.0948" height="3.3042" ry="0.0235" fill="currentColor"/>
<path transform="translate(11.2560, 15.9652) scale(0.0040, -0.0040)" d="M0 0v-250h-14v250h14zM0 0c0 -198 207 -336 207 -534c0 -71 -16 -142 -42 -208c-4 -7 -10 -11 -17 -11c-12 0 -24 10 -21 25c26 62 41 127 41 194c0 104 -96 209 -168 284v250z" fill="currentColor"/>
<circle transform="translate(13.4089, 19.4417)" stroke-linejoin="round" stroke-linecap="round" fill="currentColor" stroke="currentColor" stroke-width="0" r="0.5365"/>
<g color="rgb(100.0000%, 100.0000%, 100.0000%)">
<text transform="translate(13.0474, 19.7595)" font-family="sans-serif" font-weight="bold" font-size="0.8731" text-anchor="start" fill="currentColor">
<tspan>G</tspan>
</text>
</g>
<text transform="translate(11.6415, 23.9417)" font-family="serif" font-size="1.5557" text-anchor="start" fill="currentColor">
<tspan>tom,</tspan>
</text>
<rect transform="translate(13.8980, 18.4417)" x="-0.0474" y="-2.5000" width="0.0948" height="3.3042" ry="0.0235" fill="currentColor"/>
<path transform="translate(13.9454, 15.9652) scale(0.0040, -0.0040)" d="M0 0v-250h-14v250h14zM0 0c0 -198 207 -336 207 -534c0 -71 -16 -142 -42 -208c-4 -7 -10 -11 -17 -11c-12 0 -24 10 -21 25c26 62 41 127 41 194c0 104 -96 209 -168 284v250z" fill="currentColor"/>
<rect transform="translate(34.3430, 18.4417)" x="-0.0474" y="-2.5000" width="0.0948" height="3.3042" ry="0.0235" fill="currentColor"/>
<text transform="translate(29.7692, 23.9417)" font-family="serif" font-size="1.5557" text-anchor="start" fill="currentColor">
<tspan>lo,</tspan>
</text>
<rect transform="translate(31.2323, 18.4417)" x="-0.0474" y="-1.0000" width="0.0948" height="3.3042" ry="0.0235" fill="currentColor"/>
<path transform="translate(31.2798, 17.4652) scale(0.0040, -0.0040)" d="M0 0v-250h-14v250h14zM0 0c0 -198 207 -336 207 -534c0 -71 -16 -142 -42 -208c-4 -7 -10 -11 -17 -11c-12 0 -24 10 -21 25c26 62 41 127 41 194c0 104 -96 209 -168 284v250z" fill="currentColor"/>
<circle transform="translate(36.0412, 19.4417)" stroke-linejoin="round" stroke-linecap="round" fill="currentColor" stroke="currentColor" stroke-width="0" r="0.5365"/>
<g color="rgb(100.0000%, 100.0000%, 100.0000%)">
<text transform="translate(35.6797, 19.7595)" font-family="sans-serif" font-weight="bold" font-size="0.8731" text-anchor="start" fill="currentColor">
<tspan>G</tspan>
</text>
</g>
<circle transform="translate(33.8539, 19.4417)" stroke-linejoin="round" stroke-linecap="round" fill="currentColor" stroke="currentColor" stroke-width="0" r="0.5365"/>
<g color="rgb(100.0000%, 100.0000%, 100.0000%)">
<text transform="translate(33.4924, 19.7595)" font-family="sans-serif" font-weight="bold" font-size="0.8731" text-anchor="start" fill="currentColor">
<tspan>G</tspan>
</text>
</g>
<circle transform="translate(25.8952, 20.4417)" stroke-linejoin="round" stroke-linecap="round" fill="currentColor" stroke="currentColor" stroke-width="0" r="0.5365"/>
<g color="rgb(100.0000%, 100.0000%, 100.0000%)">
<text transform="translate(25.5940, 20.7599)" font-family="sans-serif" font-weight="bold" font-size="0.8731" text-anchor="start" fill="currentColor">
<tspan>E</tspan>
</text>
</g>
<text transform="translate(32.9803, 23.9417)" font-family="serif" font-size="1.5557" text-anchor="start" fill="currentColor">
<tspan>že</tspan>
</text>
<text transform="translate(35.1776, 23.9417)" font-family="serif" font-size="1.5557" text-anchor="start" fill="currentColor">
<tspan>se</tspan>
</text>
<path transform="translate(34.3904, 15.9652) scale(0.0040, -0.0040)" d="M0 0v-250h-14v250h14zM0 0c0 -198 207 -336 207 -534c0 -71 -16 -142 -42 -208c-4 -7 -10 -11 -17 -11c-12 0 -24 10 -21 25c26 62 41 127 41 194c0 104 -96 209 -168 284v250z" fill="currentColor"/>
<rect transform="translate(28.9833, 18.4417)" x="-0.0474" y="-2.0000" width="0.0948" height="3.3042" ry="0.0235" fill="currentColor"/>
<rect transform="translate(38.6313, 18.4417)" x="-0.0474" y="-2.0000" width="0.0948" height="3.3042" ry="0.0235" fill="currentColor"/>
<text transform="translate(24.9212, 23.9417)" font-family="serif" font-size="1.5557" text-anchor="start" fill="currentColor">
<tspan>ku</tspan>
</text>
<rect transform="translate(26.3843, 18.4417)" x="-0.0474" y="-1.5000" width="0.0948" height="3.3042" ry="0.0235" fill="currentColor"/>
<path transform="translate(26.4317, 16.9652) scale(0.0040, -0.0040)" d="M0 0v-250h-14v250h14zM0 0c0 -198 207 -336 207 -534c0 -71 -16 -142 -42 -208c-4 -7 -10 -11 -17 -11c-12 0 -24 10 -21 25c26 62 41 127 41 194c0 104 -96 209 -168 284v250z" fill="currentColor"/>
<text transform="translate(37.6401, 23.9417)" font-family="serif" font-size="1.5557" text-anchor="start" fill="currentColor">
<tspan>li</tspan>
</text>
<circle transform="translate(38.1422, 19.9417)" stroke-linejoin="round" stroke-linecap="round" fill="currentColor" stroke="currentColor" stroke-width="0" r="0.5365"/>
<g color="rgb(100.0000%, 100.0000%, 100.0000%)">
<text transform="translate(37.8409, 20.2599)" font-family="sans-serif" font-weight="bold" font-size="0.8731" text-anchor="start" fill="currentColor">
<tspan>F</tspan>
</text>
</g>
<circle transform="translate(28.4943, 19.9417)" stroke-linejoin="round" stroke-linecap="round" fill="currentColor" stroke="currentColor" stroke-width="0" r="0.5365"/>
<g color="rgb(100.0000%, 100.0000%, 100.0000%)">
<text transform="translate(28.1930, 20.2599)" font-family="sans-serif" font-weight="bold" font-size="0.8731" text-anchor="start" fill="currentColor">
<tspan>F</tspan>
</text>
</g>
<text transform="translate(27.3193, 23.9417)" font-family="serif" font-size="1.5557" text-anchor="start" fill="currentColor">
<tspan>sta</tspan>
</text>
<circle transform="translate(30.7433, 20.9417)" stroke-linejoin="round" stroke-linecap="round" fill="currentColor" stroke="currentColor" stroke-width="0" r="0.5365"/>
<g color="rgb(100.0000%, 100.0000%, 100.0000%)">
<text transform="translate(30.3818, 21.2599)" font-family="sans-serif" font-weight="bold" font-size="0.8731" text-anchor="start" fill="currentColor">
<tspan>D</tspan>
</text>
</g>
<path transform="translate(29.0307, 16.4652) scale(0.0040, -0.0040)" d="M0 0v-250h-14v250h14zM0 0c0 -198 207 -336 207 -534c0 -71 -16 -142 -42 -208c-4 -7 -10 -11 -17 -11c-12 0 -24 10 -21 25c26 62 41 127 41 194c0 104 -96 209 -168 284v250z" fill="currentColor"/>
<path transform="translate(36.5777, 15.9652) scale(0.0040, -0.0040)" d="M0 0v-250h-14v250h14zM0 0c0 -198 207 -336 207 -534c0 -71 -16 -142 -42 -208c-4 -7 -10 -11 -17 -11c-12 0 -24 10 -21 25c26 62 41 127 41 194c0 104 -96 209 -168 284v250z" fill="currentColor"/>
<rect transform="translate(36.5303, 18.4417)" x="-0.0474" y="-2.5000" width="0.0948" height="3.3042" ry="0.0235" fill="currentColor"/>
<a transform="translate(4.2177, 96.9201)" xlink:href="http://lilypond.org/">
<rect x="0.0000" y="-0.4888" width="61.8596" height="2.1603" fill="none" stroke="none" stroke-width="0.0"/>
</a>
<text transform="translate(4.2177, 96.9201)" font-family="serif" font-size="2.2000" text-anchor="start" fill="currentColor">
<tspan>Music engraving by LilyPond 2.20.0—www.lilypond.org</tspan>
</text>
</svg>
