<svg xmlns="http://www.w3.org/2000/svg" xmlns:xlink="http://www.w3.org/1999/xlink" version="1.2" width="193.30mm" height="59.83mm" viewBox="-1.1046 -0.0320 64.7049 20.0271">
<style text="style/css">
<![CDATA[
tspan { white-space: pre; }
]]>
</style>
<line transform="translate(5.0211, 5.7680)" stroke-linejoin="round" stroke-linecap="round" stroke-width="0.0729" stroke="currentColor" x1="0.0365" y1="-0.0000" x2="58.5427" y2="-0.0000"/>
<line transform="translate(5.0211, 4.7680)" stroke-linejoin="round" stroke-linecap="round" stroke-width="0.0729" stroke="currentColor" x1="0.0365" y1="-0.0000" x2="58.5427" y2="-0.0000"/>
<line transform="translate(5.0211, 3.7680)" stroke-linejoin="round" stroke-linecap="round" stroke-width="0.0729" stroke="currentColor" x1="0.0365" y1="-0.0000" x2="58.5427" y2="-0.0000"/>
<line transform="translate(5.0211, 2.7680)" stroke-linejoin="round" stroke-linecap="round" stroke-width="0.0729" stroke="currentColor" x1="0.0365" y1="-0.0000" x2="58.5427" y2="-0.0000"/>
<line transform="translate(5.0211, 1.7680)" stroke-linejoin="round" stroke-linecap="round" stroke-width="0.0729" stroke="currentColor" x1="0.0365" y1="-0.0000" x2="58.5427" y2="-0.0000"/>
<rect transform="translate(38.1300, 3.7680)" x="0.0000" y="-2.0000" width="0.1386" height="4.0000" ry="0.0000" fill="currentColor"/>
<rect transform="translate(33.1375, 3.7680)" x="0.0000" y="-2.0000" width="0.1386" height="4.0000" ry="0.0000" fill="currentColor"/>
<rect transform="translate(46.9751, 3.7680)" x="0.0000" y="-2.0000" width="0.1386" height="4.0000" ry="0.0000" fill="currentColor"/>
<rect transform="translate(27.7576, 3.7680)" x="0.0000" y="-2.0000" width="0.1386" height="4.0000" ry="0.0000" fill="currentColor"/>
<rect transform="translate(53.1178, 3.7680)" x="0.0000" y="-2.0000" width="0.1386" height="4.0000" ry="0.0000" fill="currentColor"/>
<rect transform="translate(21.6149, 3.7680)" x="0.0000" y="-2.0000" width="0.1386" height="4.0000" ry="0.0000" fill="currentColor"/>
<rect transform="translate(58.4692, 3.7680)" x="0.0000" y="-2.0000" width="0.1386" height="4.0000" ry="0.0000" fill="currentColor"/>
<rect transform="translate(63.4617, 3.7680)" x="0.0000" y="-2.0000" width="0.1386" height="4.0000" ry="0.0000" fill="currentColor"/>
<rect transform="translate(0.0000, 6.7680)" x="38.6796" y="-0.0865" width="1.6094" height="0.1729" ry="0.0865" fill="currentColor"/>
<rect transform="translate(0.0000, 6.7680)" x="13.3194" y="-0.0865" width="1.6094" height="0.1729" ry="0.0865" fill="currentColor"/>
<text transform="translate(50.1001, 9.5802)" font-family="serif" font-size="1.5557" text-anchor="start" fill="currentColor">
<tspan>ky</tspan>
</text>
<circle transform="translate(50.6366, 3.2680)" stroke-linejoin="round" stroke-linecap="round" fill="currentColor" stroke="currentColor" stroke-width="0" r="0.5365"/>
<g color="rgb(100.0000%, 100.0000%, 100.0000%)">
<text transform="translate(50.3152, 3.5858)" font-family="sans-serif" font-weight="bold" font-size="0.8731" text-anchor="start" fill="currentColor">
<tspan>C</tspan>
</text>
</g>
<rect transform="translate(15.9089, 9.5802)" x="0.0000" y="-0.5148" width="0.6600" height="0.0948" ry="0.0292" fill="currentColor"/>
<path transform="translate(13.5876, 3.7680)" stroke-width="0.0584" stroke-linejoin="round" stroke-linecap="round" stroke="currentColor" fill="currentColor" d="M0.7058 4.0365C1.4764 4.2404 2.3114 3.7916 2.5666 3.0365L2.5666 3.0365C2.2700 3.7145 1.4349 4.1633 0.7058 4.0365z"/>
<rect transform="translate(48.8185, 3.7680)" x="-0.0474" y="-2.5000" width="0.0948" height="3.3042" ry="0.0235" fill="currentColor"/>
<rect transform="translate(54.9612, 3.7680)" x="-0.0474" y="-2.5000" width="0.0948" height="3.3042" ry="0.0235" fill="currentColor"/>
<text transform="translate(53.5282, 9.5802)" font-family="serif" font-size="1.5557" text-anchor="start" fill="currentColor">
<tspan>ko</tspan>
</text>
<circle transform="translate(54.4721, 4.7680)" stroke-linejoin="round" stroke-linecap="round" fill="currentColor" stroke="currentColor" stroke-width="0" r="0.5365"/>
<g color="rgb(100.0000%, 100.0000%, 100.0000%)">
<text transform="translate(54.1106, 5.0858)" font-family="sans-serif" font-weight="bold" font-size="0.8731" text-anchor="start" fill="currentColor">
<tspan>G</tspan>
</text>
</g>
<rect transform="translate(51.6475, 3.7680)" x="-0.0474" y="0.6958" width="0.0948" height="2.0830" ry="0.0235" fill="currentColor"/>
<circle transform="translate(52.1366, 4.2680)" stroke-linejoin="round" stroke-linecap="round" fill="currentColor" stroke="currentColor" stroke-width="0" r="0.5365"/>
<g color="rgb(100.0000%, 100.0000%, 100.0000%)">
<text transform="translate(51.7951, 4.5862)" font-family="sans-serif" font-weight="bold" font-size="0.8731" text-anchor="start" fill="currentColor">
<tspan>A</tspan>
</text>
</g>
<rect transform="translate(50.1475, 3.7680)" x="-0.0474" y="-0.3042" width="0.0948" height="2.5253" ry="0.0235" fill="currentColor"/>
<rect transform="translate(41.8342, 3.7680)" x="-0.0474" y="-0.7821" width="0.0948" height="2.5863" ry="0.0235" fill="currentColor"/>
<circle transform="translate(41.3452, 5.7680)" stroke-linejoin="round" stroke-linecap="round" fill="currentColor" stroke="currentColor" stroke-width="0" r="0.5365"/>
<g color="rgb(100.0000%, 100.0000%, 100.0000%)">
<text transform="translate(41.0439, 6.0862)" font-family="sans-serif" font-weight="bold" font-size="0.8731" text-anchor="start" fill="currentColor">
<tspan>E</tspan>
</text>
</g>
<circle transform="translate(43.2060, 4.7680)" stroke-linejoin="round" stroke-linecap="round" fill="currentColor" stroke="currentColor" stroke-width="0" r="0.5365"/>
<g color="rgb(100.0000%, 100.0000%, 100.0000%)">
<text transform="translate(42.8445, 5.0858)" font-family="sans-serif" font-weight="bold" font-size="0.8731" text-anchor="start" fill="currentColor">
<tspan>G</tspan>
</text>
</g>
<polygon transform="translate(14.5658, 3.5645)" stroke-linejoin="round" stroke-linecap="round" stroke-width="0.0471" fill="currentColor" stroke="currentColor" points="1.9321 -0.8094 1.9321 -0.3765 0.0235 0.2165 0.0235 -0.2165"/>
<text transform="translate(42.0612, 9.5802)" font-family="serif" font-size="1.5557" text-anchor="start" fill="currentColor">
<tspan>vej</tspan>
</text>
<rect transform="translate(43.6951, 3.7680)" x="-0.0474" y="-2.5000" width="0.0948" height="3.3042" ry="0.0235" fill="currentColor"/>
<path transform="translate(43.7425, 1.2915) scale(0.0040, -0.0040)" d="M0 0v-250h-14v250h14zM0 0c0 -198 207 -336 207 -534c0 -71 -16 -142 -42 -208c-4 -7 -10 -11 -17 -11c-12 0 -24 10 -21 25c26 62 41 127 41 194c0 104 -96 209 -168 284v250z" fill="currentColor"/>
<circle transform="translate(45.3588, 4.7680)" stroke-linejoin="round" stroke-linecap="round" fill="currentColor" stroke="currentColor" stroke-width="0" r="0.5365"/>
<g color="rgb(100.0000%, 100.0000%, 100.0000%)">
<text transform="translate(44.9973, 5.0858)" font-family="sans-serif" font-weight="bold" font-size="0.8731" text-anchor="start" fill="currentColor">
<tspan>G</tspan>
</text>
</g>
<text transform="translate(44.5856, 9.5802)" font-family="serif" font-size="1.5557" text-anchor="start" fill="currentColor">
<tspan>te</tspan>
</text>
<rect transform="translate(45.8479, 3.7680)" x="-0.0474" y="-2.5000" width="0.0948" height="3.3042" ry="0.0235" fill="currentColor"/>
<path transform="translate(45.8953, 1.2915) scale(0.0040, -0.0040)" d="M0 0v-250h-14v250h14zM0 0c0 -198 207 -336 207 -534c0 -71 -16 -142 -42 -208c-4 -7 -10 -11 -17 -11c-12 0 -24 10 -21 25c26 62 41 127 41 194c0 104 -96 209 -168 284v250z" fill="currentColor"/>
<circle transform="translate(48.3295, 4.7680)" stroke-linejoin="round" stroke-linecap="round" fill="currentColor" stroke="currentColor" stroke-width="0" r="0.5365"/>
<g color="rgb(100.0000%, 100.0000%, 100.0000%)">
<text transform="translate(47.9679, 5.0858)" font-family="sans-serif" font-weight="bold" font-size="0.8731" text-anchor="start" fill="currentColor">
<tspan>G</tspan>
</text>
</g>
<text transform="translate(47.2650, 9.5802)" font-family="serif" font-size="1.5557" text-anchor="start" fill="currentColor">
<tspan>dít</tspan>
</text>
<path transform="translate(24.7399, 3.7680)" stroke-width="0.0584" stroke-linejoin="round" stroke-linecap="round" stroke="currentColor" fill="currentColor" d="M0.7349 -1.5365C1.4219 -1.6517 2.0770 -1.2149 2.2349 -0.5365L2.2349 -0.5365C2.0284 -1.1421 1.3733 -1.5788 0.7349 -1.5365z"/>
<path transform="translate(61.4359, 3.7680) scale(0.0040, -0.0040)" d="M-23 -113c0 26 10 40 36 40c34 0 85 -15 130 -37l-137 164c-7 8 -10 17 -10 25c0 33 49 64 86 96c26 22 39 54 39 85c0 24 -8 47 -24 67l-39 46c-2 3 -3 6 -3 9c0 7 7 14 14 14c3 0 7 -1 10 -5l152 -182c7 -8 10 -17 10 -25c0 -33 -49 -64 -86 -96
c-26 -22 -39 -54 -39 -85c0 -24 8 -47 24 -67l87 -104c2 -3 3 -5 3 -8c0 -7 -7 -14 -14 -14c-3 0 -7 1 -10 5c-19 22 -66 43 -102 43c-40 0 -52 -29 -52 -70c0 -35 11 -75 28 -96c6 -7 -4 -16 -10 -9c-46 55 -93 150 -93 204z" fill="currentColor"/>
<polygon transform="translate(24.7399, 5.9715)" stroke-linejoin="round" stroke-linecap="round" stroke-width="0.0471" fill="currentColor" stroke="currentColor" points="1.5713 0.3765 1.5713 0.8094 0.0235 0.2165 0.0235 -0.2165"/>
<rect transform="translate(32.5053, 9.5802)" x="0.0000" y="-0.5148" width="0.6600" height="0.0948" ry="0.0292" fill="currentColor"/>
<polygon transform="translate(39.9260, 3.5645)" stroke-linejoin="round" stroke-linecap="round" stroke-width="0.0471" fill="currentColor" stroke="currentColor" points="1.9321 -0.8094 1.9321 -0.3765 0.0235 0.2165 0.0235 -0.2165"/>
<path transform="translate(38.9479, 3.7680)" stroke-width="0.0584" stroke-linejoin="round" stroke-linecap="round" stroke="currentColor" fill="currentColor" d="M0.7058 4.0365C1.4764 4.2404 2.3114 3.7916 2.5666 3.0365L2.5666 3.0365C2.2700 3.7145 1.4349 4.1633 0.7058 4.0365z"/>
<rect transform="translate(41.3476, 9.5802)" x="0.0000" y="-0.5148" width="0.6436" height="0.0948" ry="0.0292" fill="currentColor"/>
<rect transform="translate(49.4639, 9.5802)" x="0.0000" y="-0.5148" width="0.5662" height="0.0948" ry="0.0292" fill="currentColor"/>
<path transform="translate(50.1001, 3.7680)" stroke-width="0.0584" stroke-linejoin="round" stroke-linecap="round" stroke="currentColor" fill="currentColor" d="M0.7349 -1.5365C1.4219 -1.6517 2.0770 -1.2149 2.2349 -0.5365L2.2349 -0.5365C2.0284 -1.1421 1.3733 -1.5788 0.7349 -1.5365z"/>
<polygon transform="translate(50.1001, 5.9715)" stroke-linejoin="round" stroke-linecap="round" stroke-width="0.0471" fill="currentColor" stroke="currentColor" points="1.5713 0.3765 1.5713 0.8094 0.0235 0.2165 0.0235 -0.2165"/>
<rect transform="translate(55.4861, 9.5802)" x="0.0000" y="-0.5148" width="0.3518" height="0.0948" ry="0.0292" fill="currentColor"/>
<rect transform="translate(57.7065, 9.5802)" x="0.0000" y="-0.5148" width="0.6600" height="0.0948" ry="0.0292" fill="currentColor"/>
<rect transform="translate(57.1100, 3.7680)" x="-0.0474" y="-2.0000" width="0.0948" height="3.3042" ry="0.0235" fill="currentColor"/>
<text transform="translate(55.9079, 9.5802)" font-family="serif" font-size="1.5557" text-anchor="start" fill="currentColor">
<tspan>le</tspan>
</text>
<circle transform="translate(56.6209, 5.2680)" stroke-linejoin="round" stroke-linecap="round" fill="currentColor" stroke="currentColor" stroke-width="0" r="0.5365"/>
<g color="rgb(100.0000%, 100.0000%, 100.0000%)">
<text transform="translate(56.3196, 5.5862)" font-family="sans-serif" font-weight="bold" font-size="0.8731" text-anchor="start" fill="currentColor">
<tspan>F</tspan>
</text>
</g>
<rect transform="translate(18.7795, 9.5802)" x="0.0000" y="-0.5148" width="0.4361" height="0.0948" ry="0.0292" fill="currentColor"/>
<rect transform="translate(27.6252, 9.5802)" x="0.0000" y="-0.5148" width="0.6600" height="0.0948" ry="0.0292" fill="currentColor"/>
<circle transform="translate(59.8236, 5.7680)" stroke-linejoin="round" stroke-linecap="round" fill="currentColor" stroke="currentColor" stroke-width="0" r="0.5365"/>
<g color="rgb(100.0000%, 100.0000%, 100.0000%)">
<text transform="translate(59.5223, 6.0862)" font-family="sans-serif" font-weight="bold" font-size="0.8731" text-anchor="start" fill="currentColor">
<tspan>E</tspan>
</text>
</g>
<text transform="translate(58.7390, 9.5802)" font-family="serif" font-size="1.5557" text-anchor="start" fill="currentColor">
<tspan>dy,</tspan>
</text>
<rect transform="translate(60.3126, 3.7680)" x="-0.0474" y="-1.5000" width="0.0948" height="3.3042" ry="0.0235" fill="currentColor"/>
<rect transform="translate(23.9765, 9.5802)" x="0.0000" y="-0.5148" width="0.6600" height="0.0948" ry="0.0292" fill="currentColor"/>
<circle transform="translate(22.9692, 4.7680)" stroke-linejoin="round" stroke-linecap="round" fill="currentColor" stroke="currentColor" stroke-width="0" r="0.5365"/>
<g color="rgb(100.0000%, 100.0000%, 100.0000%)">
<text transform="translate(22.6077, 5.0858)" font-family="sans-serif" font-weight="bold" font-size="0.8731" text-anchor="start" fill="currentColor">
<tspan>G</tspan>
</text>
</g>
<rect transform="translate(23.4583, 3.7680)" x="-0.0474" y="-2.5000" width="0.0948" height="3.3042" ry="0.0235" fill="currentColor"/>
<text transform="translate(22.0655, 9.5802)" font-family="serif" font-size="1.5557" text-anchor="start" fill="currentColor">
<tspan>vá</tspan>
</text>
<path transform="translate(20.5351, 1.2915) scale(0.0040, -0.0040)" d="M0 0v-250h-14v250h14zM0 0c0 -198 207 -336 207 -534c0 -71 -16 -142 -42 -208c-4 -7 -10 -11 -17 -11c-12 0 -24 10 -21 25c26 62 41 127 41 194c0 104 -96 209 -168 284v250z" fill="currentColor"/>
<rect transform="translate(20.4876, 3.7680)" x="-0.0474" y="-2.5000" width="0.0948" height="3.3042" ry="0.0235" fill="currentColor"/>
<text transform="translate(19.2856, 9.5802)" font-family="serif" font-size="1.5557" text-anchor="start" fill="currentColor">
<tspan>lé</tspan>
</text>
<circle transform="translate(19.9986, 4.7680)" stroke-linejoin="round" stroke-linecap="round" fill="currentColor" stroke="currentColor" stroke-width="0" r="0.5365"/>
<g color="rgb(100.0000%, 100.0000%, 100.0000%)">
<text transform="translate(19.6371, 5.0858)" font-family="sans-serif" font-weight="bold" font-size="0.8731" text-anchor="start" fill="currentColor">
<tspan>G</tspan>
</text>
</g>
<text transform="translate(24.7399, 9.5802)" font-family="serif" font-size="1.5557" text-anchor="start" fill="currentColor">
<tspan>noč</tspan>
</text>
<rect transform="translate(26.2873, 3.7680)" x="-0.0474" y="0.6958" width="0.0948" height="2.0830" ry="0.0235" fill="currentColor"/>
<circle transform="translate(26.7763, 4.2680)" stroke-linejoin="round" stroke-linecap="round" fill="currentColor" stroke="currentColor" stroke-width="0" r="0.5365"/>
<g color="rgb(100.0000%, 100.0000%, 100.0000%)">
<text transform="translate(26.4349, 4.5862)" font-family="sans-serif" font-weight="bold" font-size="0.8731" text-anchor="start" fill="currentColor">
<tspan>A</tspan>
</text>
</g>
<rect transform="translate(24.7873, 3.7680)" x="-0.0474" y="-0.3042" width="0.0948" height="2.5253" ry="0.0235" fill="currentColor"/>
<circle transform="translate(25.2763, 3.2680)" stroke-linejoin="round" stroke-linecap="round" fill="currentColor" stroke="currentColor" stroke-width="0" r="0.5365"/>
<g color="rgb(100.0000%, 100.0000%, 100.0000%)">
<text transform="translate(24.9550, 3.5858)" font-family="sans-serif" font-weight="bold" font-size="0.8731" text-anchor="start" fill="currentColor">
<tspan>C</tspan>
</text>
</g>
<rect transform="translate(14.6132, 3.7680)" x="-0.0474" y="-0.2179" width="0.0948" height="3.0221" ry="0.0235" fill="currentColor"/>
<text transform="translate(13.5876, 9.5802)" font-family="serif" font-size="1.5557" text-anchor="start" fill="currentColor">
<tspan>Ve</tspan>
</text>
<path transform="translate(10.0914, 3.7680) scale(0.0040, -0.0040)" d="M236 355c0 61 -22 124 -75 124c-25 0 -48 -14 -48 -37c0 -27 35 -41 35 -68c0 -38 -31 -69 -69 -69s-68 31 -68 69c0 75 71 126 150 126c95 0 184 -57 184 -145c0 -158 -162 -160 -257 -229c12 3 24 5 37 5c32 0 67 -10 101 -33c23 -16 49 -25 70 -25c20 0 37 8 42 28
c1 6 6 8 10 8c5 0 11 -4 11 -10c0 -63 -85 -99 -132 -99c-35 0 -69 14 -94 42c-14 16 -32 23 -50 23c-30 0 -59 -21 -62 -55c-1 -7 -5 -10 -10 -10c-6 0 -12 4 -11 12c15 174 236 164 236 343z" fill="currentColor"/>
<path transform="translate(10.0211, 5.7839) scale(0.0040, -0.0040)" d="M208 319c21 13 42 27 57 47c11 15 18 32 25 49c4 9 20 7 20 -7v-256h68c9 0 13 -7 13 -14s-4 -13 -13 -13h-68v-16c0 -45 26 -88 68 -88c7 0 10 -5 10 -10s-3 -11 -10 -11c-41 0 -82 13 -123 13s-82 -13 -123 -13c-7 0 -10 6 -10 11s3 10 10 10c42 0 68 43 68 88v16h-173
c-21 0 -29 13 -29 21c0 2 1 5 2 6c81 96 146 208 146 333c0 10 7 18 15 15c22 -7 44 -13 67 -13s45 6 67 13c12 4 21 -8 15 -15l-283 -333h173v147c0 8 2 16 8 20z" fill="currentColor"/>
<path transform="translate(5.8211, 4.7680) scale(0.0040, -0.0040)" d="M374 260c5 0 10 1 15 1c154 0 254 -127 254 -259c0 -76 -33 -153 -107 -208c-22 -17 -47 -29 -73 -37c3 -36 5 -72 5 -108c0 -19 0 -37 -1 -56c-7 -120 -88 -226 -206 -226c-108 0 -195 87 -195 195c0 58 53 104 112 104c54 0 95 -48 95 -104c0 -52 -43 -95 -95 -95
c-12 0 -24 4 -35 9c26 -41 70 -70 121 -70c1 0 2 1 3 1c93 2 154 93 160 192c1 18 2 35 2 53c0 32 -2 64 -5 96c-29 -5 -58 -8 -89 -8c-188 0 -333 171 -333 372c0 178 133 306 251 440c-18 63 -35 126 -42 191c-6 51 -7 102 -7 154c0 116 55 226 150 295c5 4 11 4 16 0
c70 -84 132 -246 132 -359c0 -144 -87 -256 -183 -365c20 -69 39 -138 55 -208zM459 -205c69 24 117 96 117 166c0 92 -69 184 -179 193c25 -117 48 -235 62 -359zM71 31c0 -136 131 -251 267 -251c28 0 55 2 82 6c-15 128 -38 247 -64 367c-79 -9 -125 -62 -125 -121
c0 -44 26 -92 82 -124c4 -4 7 -9 7 -14c0 -11 -9 -21 -20 -21c-3 0 -6 1 -9 2c-80 43 -116 114 -116 184c0 88 57 173 158 196c-14 60 -30 119 -46 178c-108 -121 -216 -242 -216 -402zM411 1050c-99 -50 -161 -151 -161 -262c0 -76 15 -137 33 -200c82 97 149 198 149 325
c0 58 -4 84 -21 137z" fill="currentColor"/>
<circle transform="translate(14.1241, 6.7680)" stroke-linejoin="round" stroke-linecap="round" fill="currentColor" stroke="currentColor" stroke-width="0" r="0.5365"/>
<g color="rgb(100.0000%, 100.0000%, 100.0000%)">
<text transform="translate(13.8028, 7.0858)" font-family="sans-serif" font-weight="bold" font-size="0.8731" text-anchor="start" fill="currentColor">
<tspan>C</tspan>
</text>
</g>
<path transform="translate(18.3823, 1.2915) scale(0.0040, -0.0040)" d="M0 0v-250h-14v250h14zM0 0c0 -198 207 -336 207 -534c0 -71 -16 -142 -42 -208c-4 -7 -10 -11 -17 -11c-12 0 -24 10 -21 25c26 62 41 127 41 194c0 104 -96 209 -168 284v250z" fill="currentColor"/>
<rect transform="translate(18.3349, 3.7680)" x="-0.0474" y="-2.5000" width="0.0948" height="3.3042" ry="0.0235" fill="currentColor"/>
<text transform="translate(16.9822, 9.5802)" font-family="serif" font-size="1.5557" text-anchor="start" fill="currentColor">
<tspan>se</tspan>
</text>
<circle transform="translate(17.8458, 4.7680)" stroke-linejoin="round" stroke-linecap="round" fill="currentColor" stroke="currentColor" stroke-width="0" r="0.5365"/>
<g color="rgb(100.0000%, 100.0000%, 100.0000%)">
<text transform="translate(17.4843, 5.0858)" font-family="sans-serif" font-weight="bold" font-size="0.8731" text-anchor="start" fill="currentColor">
<tspan>G</tspan>
</text>
</g>
<rect transform="translate(16.4740, 3.7680)" x="-0.0474" y="-0.7821" width="0.0948" height="2.5863" ry="0.0235" fill="currentColor"/>
<circle transform="translate(15.9850, 5.7680)" stroke-linejoin="round" stroke-linecap="round" fill="currentColor" stroke="currentColor" stroke-width="0" r="0.5365"/>
<g color="rgb(100.0000%, 100.0000%, 100.0000%)">
<text transform="translate(15.6837, 6.0862)" font-family="sans-serif" font-weight="bold" font-size="0.8731" text-anchor="start" fill="currentColor">
<tspan>E</tspan>
</text>
</g>
<rect transform="translate(34.9809, 3.7680)" x="-0.0474" y="-1.5000" width="0.0948" height="3.3042" ry="0.0235" fill="currentColor"/>
<text transform="translate(33.4073, 9.5802)" font-family="serif" font-size="1.5557" text-anchor="start" fill="currentColor">
<tspan>dy,</tspan>
</text>
<rect transform="translate(31.7782, 3.7680)" x="-0.0474" y="-2.0000" width="0.0948" height="3.3042" ry="0.0235" fill="currentColor"/>
<text transform="translate(30.3151, 9.5802)" font-family="serif" font-size="1.5557" text-anchor="start" fill="currentColor">
<tspan>ho</tspan>
</text>
<rect transform="translate(39.9734, 3.7680)" x="-0.0474" y="-0.2179" width="0.0948" height="3.0221" ry="0.0235" fill="currentColor"/>
<text transform="translate(38.9479, 9.5802)" font-family="serif" font-size="1.5557" text-anchor="start" fill="currentColor">
<tspan>zpí</tspan>
</text>
<circle transform="translate(39.4843, 6.7680)" stroke-linejoin="round" stroke-linecap="round" fill="currentColor" stroke="currentColor" stroke-width="0" r="0.5365"/>
<g color="rgb(100.0000%, 100.0000%, 100.0000%)">
<text transform="translate(39.1630, 7.0858)" font-family="sans-serif" font-weight="bold" font-size="0.8731" text-anchor="start" fill="currentColor">
<tspan>C</tspan>
</text>
</g>
<circle transform="translate(34.4919, 5.7680)" stroke-linejoin="round" stroke-linecap="round" fill="currentColor" stroke="currentColor" stroke-width="0" r="0.5365"/>
<g color="rgb(100.0000%, 100.0000%, 100.0000%)">
<text transform="translate(34.1906, 6.0862)" font-family="sans-serif" font-weight="bold" font-size="0.8731" text-anchor="start" fill="currentColor">
<tspan>E</tspan>
</text>
</g>
<path transform="translate(36.1041, 3.7680) scale(0.0040, -0.0040)" d="M-23 -113c0 26 10 40 36 40c34 0 85 -15 130 -37l-137 164c-7 8 -10 17 -10 25c0 33 49 64 86 96c26 22 39 54 39 85c0 24 -8 47 -24 67l-39 46c-2 3 -3 6 -3 9c0 7 7 14 14 14c3 0 7 -1 10 -5l152 -182c7 -8 10 -17 10 -25c0 -33 -49 -64 -86 -96
c-26 -22 -39 -54 -39 -85c0 -24 8 -47 24 -67l87 -104c2 -3 3 -5 3 -8c0 -7 -7 -14 -14 -14c-3 0 -7 1 -10 5c-19 22 -66 43 -102 43c-40 0 -52 -29 -52 -70c0 -35 11 -75 28 -96c6 -7 -4 -16 -10 -9c-46 55 -93 150 -93 204z" fill="currentColor"/>
<text transform="translate(28.3588, 9.5802)" font-family="serif" font-size="1.5557" text-anchor="start" fill="currentColor">
<tspan>ní</tspan>
</text>
<circle transform="translate(29.1119, 4.7680)" stroke-linejoin="round" stroke-linecap="round" fill="currentColor" stroke="currentColor" stroke-width="0" r="0.5365"/>
<g color="rgb(100.0000%, 100.0000%, 100.0000%)">
<text transform="translate(28.7504, 5.0858)" font-family="sans-serif" font-weight="bold" font-size="0.8731" text-anchor="start" fill="currentColor">
<tspan>G</tspan>
</text>
</g>
<circle transform="translate(31.2892, 5.2680)" stroke-linejoin="round" stroke-linecap="round" fill="currentColor" stroke="currentColor" stroke-width="0" r="0.5365"/>
<g color="rgb(100.0000%, 100.0000%, 100.0000%)">
<text transform="translate(30.9879, 5.5862)" font-family="sans-serif" font-weight="bold" font-size="0.8731" text-anchor="start" fill="currentColor">
<tspan>F</tspan>
</text>
</g>
<rect transform="translate(29.6010, 3.7680)" x="-0.0474" y="-2.5000" width="0.0948" height="3.3042" ry="0.0235" fill="currentColor"/>
<path transform="translate(5.0789, 13.7831) scale(0.0040, -0.0040)" d="M0 0c0 32 25 57 57 57s57 -25 57 -57s-25 -57 -57 -57s-57 25 -57 57z" fill="currentColor"/>
<path transform="translate(5.0789, 14.7831) scale(0.0040, -0.0040)" d="M0 0c0 32 25 57 57 57s57 -25 57 -57s-25 -57 -57 -57s-57 25 -57 57z" fill="currentColor"/>
<rect transform="translate(4.7215, 14.2831)" x="0.0000" y="-2.0000" width="0.1386" height="4.0000" ry="0.0000" fill="currentColor"/>
<rect transform="translate(4.0650, 14.2831)" x="0.0000" y="-2.0000" width="0.4376" height="4.0000" ry="0.0000" fill="currentColor"/>
<rect transform="translate(38.7103, 14.2831)" x="0.0000" y="-2.0000" width="0.1386" height="4.0000" ry="0.0000" fill="currentColor"/>
<rect transform="translate(29.0122, 14.2831)" x="0.0000" y="-2.0000" width="0.1386" height="4.0000" ry="0.0000" fill="currentColor"/>
<rect transform="translate(55.3174, 14.2831)" x="0.0000" y="-2.0000" width="0.1386" height="4.0000" ry="0.0000" fill="currentColor"/>
<path transform="translate(62.1296, 13.7831) scale(0.0040, -0.0040)" d="M0 0c0 32 25 57 57 57s57 -25 57 -57s-25 -57 -57 -57s-57 25 -57 57z" fill="currentColor"/>
<path transform="translate(62.1296, 14.7831) scale(0.0040, -0.0040)" d="M0 0c0 32 25 57 57 57s57 -25 57 -57s-25 -57 -57 -57s-57 25 -57 57z" fill="currentColor"/>
<rect transform="translate(63.1626, 14.2831)" x="0.0000" y="-2.0000" width="0.4376" height="4.0000" ry="0.0000" fill="currentColor"/>
<rect transform="translate(62.8052, 14.2831)" x="0.0000" y="-2.0000" width="0.1386" height="4.0000" ry="0.0000" fill="currentColor"/>
<rect transform="translate(17.4363, 14.2831)" x="0.0000" y="-2.0000" width="0.1386" height="4.0000" ry="0.0000" fill="currentColor"/>
<rect transform="translate(48.1680, 14.2831)" x="0.0000" y="-2.0000" width="0.1386" height="4.0000" ry="0.0000" fill="currentColor"/>
<rect transform="translate(0.0000, 17.2831)" x="56.0070" y="-0.0865" width="1.6094" height="0.1729" ry="0.0865" fill="currentColor"/>
<line transform="translate(0.0000, 16.2831)" stroke-linejoin="round" stroke-linecap="round" stroke-width="0.0729" stroke="currentColor" x1="0.0365" y1="-0.0000" x2="63.5638" y2="-0.0000"/>
<line transform="translate(0.0000, 15.2831)" stroke-linejoin="round" stroke-linecap="round" stroke-width="0.0729" stroke="currentColor" x1="0.0365" y1="-0.0000" x2="63.5638" y2="-0.0000"/>
<line transform="translate(0.0000, 14.2831)" stroke-linejoin="round" stroke-linecap="round" stroke-width="0.0729" stroke="currentColor" x1="0.0365" y1="-0.0000" x2="63.5638" y2="-0.0000"/>
<line transform="translate(0.0000, 13.2831)" stroke-linejoin="round" stroke-linecap="round" stroke-width="0.0729" stroke="currentColor" x1="0.0365" y1="-0.0000" x2="63.5638" y2="-0.0000"/>
<line transform="translate(0.0000, 12.2831)" stroke-linejoin="round" stroke-linecap="round" stroke-width="0.0729" stroke="currentColor" x1="0.0365" y1="-0.0000" x2="63.5638" y2="-0.0000"/>
<circle transform="translate(44.5209, 15.7831)" stroke-linejoin="round" stroke-linecap="round" fill="currentColor" stroke="currentColor" stroke-width="0" r="0.5365"/>
<g color="rgb(100.0000%, 100.0000%, 100.0000%)">
<text transform="translate(44.2196, 16.1014)" font-family="sans-serif" font-weight="bold" font-size="0.8731" text-anchor="start" fill="currentColor">
<tspan>F</tspan>
</text>
</g>
<text transform="translate(43.7677, 19.7831)" font-family="serif" font-size="1.5557" text-anchor="start" fill="currentColor">
<tspan>di</tspan>
</text>
<path transform="translate(42.9046, 12.8067) scale(0.0040, -0.0040)" d="M0 0v-250h-14v250h14zM0 0c0 -198 207 -336 207 -534c0 -71 -16 -142 -42 -208c-4 -7 -10 -11 -17 -11c-12 0 -24 10 -21 25c26 62 41 127 41 194c0 104 -96 209 -168 284v250z" fill="currentColor"/>
<rect transform="translate(45.0099, 14.2831)" x="-0.0474" y="-2.0000" width="0.0948" height="3.3042" ry="0.0235" fill="currentColor"/>
<path transform="translate(45.0574, 12.3067) scale(0.0040, -0.0040)" d="M0 0v-250h-14v250h14zM0 0c0 -198 207 -336 207 -534c0 -71 -16 -142 -42 -208c-4 -7 -10 -11 -17 -11c-12 0 -24 10 -21 25c26 62 41 127 41 194c0 104 -96 209 -168 284v250z" fill="currentColor"/>
<circle transform="translate(46.5517, 16.7831)" stroke-linejoin="round" stroke-linecap="round" fill="currentColor" stroke="currentColor" stroke-width="0" r="0.5365"/>
<g color="rgb(100.0000%, 100.0000%, 100.0000%)">
<text transform="translate(46.1902, 17.1014)" font-family="sans-serif" font-weight="bold" font-size="0.8731" text-anchor="start" fill="currentColor">
<tspan>D</tspan>
</text>
</g>
<text transform="translate(45.8286, 19.7831)" font-family="serif" font-size="1.5557" text-anchor="start" fill="currentColor">
<tspan>lo</tspan>
</text>
<rect transform="translate(47.0407, 14.2831)" x="-0.0474" y="-1.0000" width="0.0948" height="3.3042" ry="0.0235" fill="currentColor"/>
<path transform="translate(47.0881, 13.3067) scale(0.0040, -0.0040)" d="M0 0v-250h-14v250h14zM0 0c0 -198 207 -336 207 -534c0 -71 -16 -142 -42 -208c-4 -7 -10 -11 -17 -11c-12 0 -24 10 -21 25c26 62 41 127 41 194c0 104 -96 209 -168 284v250z" fill="currentColor"/>
<circle transform="translate(49.6623, 16.2831)" stroke-linejoin="round" stroke-linecap="round" fill="currentColor" stroke="currentColor" stroke-width="0" r="0.5365"/>
<g color="rgb(100.0000%, 100.0000%, 100.0000%)">
<text transform="translate(49.3610, 16.6014)" font-family="sans-serif" font-weight="bold" font-size="0.8731" text-anchor="start" fill="currentColor">
<tspan>E</tspan>
</text>
</g>
<text transform="translate(48.6983, 19.7831)" font-family="serif" font-size="1.5557" text-anchor="start" fill="currentColor">
<tspan>dě</tspan>
</text>
<rect transform="translate(50.1514, 14.2831)" x="-0.0474" y="-1.5000" width="0.0948" height="3.3042" ry="0.0235" fill="currentColor"/>
<path transform="translate(35.3313, 12.3067) scale(0.0040, -0.0040)" d="M0 0v-250h-14v250h14zM0 0c0 -198 207 -336 207 -534c0 -71 -16 -142 -42 -208c-4 -7 -10 -11 -17 -11c-12 0 -24 10 -21 25c26 62 41 127 41 194c0 104 -96 209 -168 284v250z" fill="currentColor"/>
<circle transform="translate(37.0940, 16.2831)" stroke-linejoin="round" stroke-linecap="round" fill="currentColor" stroke="currentColor" stroke-width="0" r="0.5365"/>
<g color="rgb(100.0000%, 100.0000%, 100.0000%)">
<text transform="translate(36.7928, 16.6014)" font-family="sans-serif" font-weight="bold" font-size="0.8731" text-anchor="start" fill="currentColor">
<tspan>E</tspan>
</text>
</g>
<text transform="translate(35.3969, 19.7831)" font-family="serif" font-size="1.5557" text-anchor="start" fill="currentColor">
<tspan>dem</tspan>
</text>
<rect transform="translate(37.5831, 14.2831)" x="-0.0474" y="-1.5000" width="0.0948" height="3.3042" ry="0.0235" fill="currentColor"/>
<path transform="translate(37.6305, 12.8067) scale(0.0040, -0.0040)" d="M0 0v-250h-14v250h14zM0 0c0 -198 207 -336 207 -534c0 -71 -16 -142 -42 -208c-4 -7 -10 -11 -17 -11c-12 0 -24 10 -21 25c26 62 41 127 41 194c0 104 -96 209 -168 284v250z" fill="currentColor"/>
<circle transform="translate(40.2154, 16.7831)" stroke-linejoin="round" stroke-linecap="round" fill="currentColor" stroke="currentColor" stroke-width="0" r="0.5365"/>
<g color="rgb(100.0000%, 100.0000%, 100.0000%)">
<text transform="translate(39.8538, 17.1014)" font-family="sans-serif" font-weight="bold" font-size="0.8731" text-anchor="start" fill="currentColor">
<tspan>D</tspan>
</text>
</g>
<text transform="translate(39.2513, 19.7831)" font-family="serif" font-size="1.5557" text-anchor="start" fill="currentColor">
<tspan>na</tspan>
</text>
<rect transform="translate(40.7044, 14.2831)" x="-0.0474" y="-1.0000" width="0.0948" height="3.3042" ry="0.0235" fill="currentColor"/>
<rect transform="translate(42.8572, 14.2831)" x="-0.0474" y="-1.5000" width="0.0948" height="3.3042" ry="0.0235" fill="currentColor"/>
<path transform="translate(40.7518, 13.3067) scale(0.0040, -0.0040)" d="M0 0v-250h-14v250h14zM0 0c0 -198 207 -336 207 -534c0 -71 -16 -142 -42 -208c-4 -7 -10 -11 -17 -11c-12 0 -24 10 -21 25c26 62 41 127 41 194c0 104 -96 209 -168 284v250z" fill="currentColor"/>
<circle transform="translate(42.3681, 16.2831)" stroke-linejoin="round" stroke-linecap="round" fill="currentColor" stroke="currentColor" stroke-width="0" r="0.5365"/>
<g color="rgb(100.0000%, 100.0000%, 100.0000%)">
<text transform="translate(42.0669, 16.6014)" font-family="sans-serif" font-weight="bold" font-size="0.8731" text-anchor="start" fill="currentColor">
<tspan>E</tspan>
</text>
</g>
<text transform="translate(41.5246, 19.7831)" font-family="serif" font-size="1.5557" text-anchor="start" fill="currentColor">
<tspan>ro</tspan>
</text>
<rect transform="translate(54.3562, 19.7831)" x="0.0000" y="-0.5148" width="0.6600" height="0.0948" ry="0.0292" fill="currentColor"/>
<rect transform="translate(50.7664, 19.7831)" x="0.0000" y="-0.5148" width="0.6600" height="0.0948" ry="0.0292" fill="currentColor"/>
<rect transform="translate(45.3440, 19.7831)" x="0.0000" y="-0.5148" width="0.4146" height="0.0948" ry="0.0292" fill="currentColor"/>
<rect transform="translate(43.2817, 19.7831)" x="0.0000" y="-0.5148" width="0.4161" height="0.0948" ry="0.0292" fill="currentColor"/>
<rect transform="translate(41.2020, 19.7831)" x="0.0000" y="-0.5148" width="0.3000" height="0.0948" ry="0.0292" fill="currentColor"/>
<circle transform="translate(52.6510, 16.7831)" stroke-linejoin="round" stroke-linecap="round" fill="currentColor" stroke="currentColor" stroke-width="0" r="0.5365"/>
<g color="rgb(100.0000%, 100.0000%, 100.0000%)">
<text transform="translate(52.2894, 17.1014)" font-family="sans-serif" font-weight="bold" font-size="0.8731" text-anchor="start" fill="currentColor">
<tspan>D</tspan>
</text>
</g>
<text transform="translate(51.5664, 19.7831)" font-family="serif" font-size="1.5557" text-anchor="start" fill="currentColor">
<tspan>ťát</tspan>
</text>
<rect transform="translate(53.1400, 14.2831)" x="-0.0474" y="-1.0000" width="0.0948" height="3.3042" ry="0.0235" fill="currentColor"/>
<circle transform="translate(56.8118, 17.2831)" stroke-linejoin="round" stroke-linecap="round" fill="currentColor" stroke="currentColor" stroke-width="0" r="0.5365"/>
<g color="rgb(100.0000%, 100.0000%, 100.0000%)">
<text transform="translate(56.4904, 17.6010)" font-family="sans-serif" font-weight="bold" font-size="0.8731" text-anchor="start" fill="currentColor">
<tspan>C</tspan>
</text>
</g>
<text transform="translate(55.6368, 19.7831)" font-family="serif" font-size="1.5557" text-anchor="start" fill="currentColor">
<tspan>ko.</tspan>
</text>
<rect transform="translate(57.3008, 14.2831)" x="-0.0474" y="-0.5000" width="0.0948" height="3.3042" ry="0.0235" fill="currentColor"/>
<path transform="translate(59.2639, 14.2831) scale(0.0040, -0.0040)" d="M-23 -113c0 26 10 40 36 40c34 0 85 -15 130 -37l-137 164c-7 8 -10 17 -10 25c0 33 49 64 86 96c26 22 39 54 39 85c0 24 -8 47 -24 67l-39 46c-2 3 -3 6 -3 9c0 7 7 14 14 14c3 0 7 -1 10 -5l152 -182c7 -8 10 -17 10 -25c0 -33 -49 -64 -86 -96
c-26 -22 -39 -54 -39 -85c0 -24 8 -47 24 -67l87 -104c2 -3 3 -5 3 -8c0 -7 -7 -14 -14 -14c-3 0 -7 1 -10 5c-19 22 -66 43 -102 43c-40 0 -52 -29 -52 -70c0 -35 11 -75 28 -96c6 -7 -4 -16 -10 -9c-46 55 -93 150 -93 204z" fill="currentColor"/>
<text transform="translate(12.2790, 19.7831)" font-family="serif" font-size="1.5557" text-anchor="start" fill="currentColor">
<tspan>co</tspan>
</text>
<rect transform="translate(13.6718, 14.2831)" x="-0.0474" y="-2.0000" width="0.0948" height="3.3042" ry="0.0235" fill="currentColor"/>
<path transform="translate(13.7192, 12.3067) scale(0.0040, -0.0040)" d="M0 0v-250h-14v250h14zM0 0c0 -198 207 -336 207 -534c0 -71 -16 -142 -42 -208c-4 -7 -10 -11 -17 -11c-12 0 -24 10 -21 25c26 62 41 127 41 194c0 104 -96 209 -168 284v250z" fill="currentColor"/>
<circle transform="translate(15.4002, 16.2831)" stroke-linejoin="round" stroke-linecap="round" fill="currentColor" stroke="currentColor" stroke-width="0" r="0.5365"/>
<g color="rgb(100.0000%, 100.0000%, 100.0000%)">
<text transform="translate(15.0989, 16.6014)" font-family="sans-serif" font-weight="bold" font-size="0.8731" text-anchor="start" fill="currentColor">
<tspan>E</tspan>
</text>
</g>
<text transform="translate(14.5365, 19.7831)" font-family="serif" font-size="1.5557" text-anchor="start" fill="currentColor">
<tspan>se</tspan>
</text>
<rect transform="translate(15.8892, 14.2831)" x="-0.0474" y="-1.5000" width="0.0948" height="3.3042" ry="0.0235" fill="currentColor"/>
<path transform="translate(15.9366, 12.8067) scale(0.0040, -0.0040)" d="M0 0v-250h-14v250h14zM0 0c0 -198 207 -336 207 -534c0 -71 -16 -142 -42 -208c-4 -7 -10 -11 -17 -11c-12 0 -24 10 -21 25c26 62 41 127 41 194c0 104 -96 209 -168 284v250z" fill="currentColor"/>
<circle transform="translate(19.0938, 16.7831)" stroke-linejoin="round" stroke-linecap="round" fill="currentColor" stroke="currentColor" stroke-width="0" r="0.5365"/>
<g color="rgb(100.0000%, 100.0000%, 100.0000%)">
<text transform="translate(18.7323, 17.1014)" font-family="sans-serif" font-weight="bold" font-size="0.8731" text-anchor="start" fill="currentColor">
<tspan>D</tspan>
</text>
</g>
<text transform="translate(16.7138, 19.7831)" font-family="serif" font-size="1.5557" text-anchor="start" fill="currentColor">
<tspan>v skut</tspan>
</text>
<circle transform="translate(13.1828, 15.7831)" stroke-linejoin="round" stroke-linecap="round" fill="currentColor" stroke="currentColor" stroke-width="0" r="0.5365"/>
<g color="rgb(100.0000%, 100.0000%, 100.0000%)">
<text transform="translate(12.8815, 16.1014)" font-family="sans-serif" font-weight="bold" font-size="0.8731" text-anchor="start" fill="currentColor">
<tspan>F</tspan>
</text>
</g>
<rect transform="translate(19.5828, 14.2831)" x="-0.0474" y="-1.0000" width="0.0948" height="3.3042" ry="0.0235" fill="currentColor"/>
<path transform="translate(19.6303, 13.3067) scale(0.0040, -0.0040)" d="M0 0v-250h-14v250h14zM0 0c0 -198 207 -336 207 -534c0 -71 -16 -142 -42 -208c-4 -7 -10 -11 -17 -11c-12 0 -24 10 -21 25c26 62 41 127 41 194c0 104 -96 209 -168 284v250z" fill="currentColor"/>
<text transform="translate(-1.1046, 11.2219)" font-family="serif" font-size="1.7463" text-anchor="start" fill="currentColor">
<tspan>9</tspan>
</text>
<path transform="translate(0.8000, 15.2831) scale(0.0040, -0.0040)" d="M374 260c5 0 10 1 15 1c154 0 254 -127 254 -259c0 -76 -33 -153 -107 -208c-22 -17 -47 -29 -73 -37c3 -36 5 -72 5 -108c0 -19 0 -37 -1 -56c-7 -120 -88 -226 -206 -226c-108 0 -195 87 -195 195c0 58 53 104 112 104c54 0 95 -48 95 -104c0 -52 -43 -95 -95 -95
c-12 0 -24 4 -35 9c26 -41 70 -70 121 -70c1 0 2 1 3 1c93 2 154 93 160 192c1 18 2 35 2 53c0 32 -2 64 -5 96c-29 -5 -58 -8 -89 -8c-188 0 -333 171 -333 372c0 178 133 306 251 440c-18 63 -35 126 -42 191c-6 51 -7 102 -7 154c0 116 55 226 150 295c5 4 11 4 16 0
c70 -84 132 -246 132 -359c0 -144 -87 -256 -183 -365c20 -69 39 -138 55 -208zM459 -205c69 24 117 96 117 166c0 92 -69 184 -179 193c25 -117 48 -235 62 -359zM71 31c0 -136 131 -251 267 -251c28 0 55 2 82 6c-15 128 -38 247 -64 367c-79 -9 -125 -62 -125 -121
c0 -44 26 -92 82 -124c4 -4 7 -9 7 -14c0 -11 -9 -21 -20 -21c-3 0 -6 1 -9 2c-80 43 -116 114 -116 184c0 88 57 173 158 196c-14 60 -30 119 -46 178c-108 -121 -216 -242 -216 -402zM411 1050c-99 -50 -161 -151 -161 -262c0 -76 15 -137 33 -200c82 97 149 198 149 325
c0 58 -4 84 -21 137z" fill="currentColor"/>
<circle transform="translate(7.3721, 15.2831)" stroke-linejoin="round" stroke-linecap="round" fill="currentColor" stroke="currentColor" stroke-width="0" r="0.5365"/>
<g color="rgb(100.0000%, 100.0000%, 100.0000%)">
<text transform="translate(7.0106, 15.6010)" font-family="sans-serif" font-weight="bold" font-size="0.8731" text-anchor="start" fill="currentColor">
<tspan>G</tspan>
</text>
</g>
<text transform="translate(6.9002, 19.7831)" font-family="serif" font-size="1.5557" text-anchor="start" fill="currentColor">
<tspan>o</tspan>
</text>
<rect transform="translate(7.8612, 14.2831)" x="-0.0474" y="-2.5000" width="0.0948" height="3.3042" ry="0.0235" fill="currentColor"/>
<path transform="translate(7.9086, 11.8067) scale(0.0040, -0.0040)" d="M0 0v-250h-14v250h14zM0 0c0 -198 207 -336 207 -534c0 -71 -16 -142 -42 -208c-4 -7 -10 -11 -17 -11c-12 0 -24 10 -21 25c26 62 41 127 41 194c0 104 -96 209 -168 284v250z" fill="currentColor"/>
<circle transform="translate(10.0615, 15.2831)" stroke-linejoin="round" stroke-linecap="round" fill="currentColor" stroke="currentColor" stroke-width="0" r="0.5365"/>
<g color="rgb(100.0000%, 100.0000%, 100.0000%)">
<text transform="translate(9.7000, 15.6010)" font-family="sans-serif" font-weight="bold" font-size="0.8731" text-anchor="start" fill="currentColor">
<tspan>G</tspan>
</text>
</g>
<text transform="translate(8.2941, 19.7831)" font-family="serif" font-size="1.5557" text-anchor="start" fill="currentColor">
<tspan>tom,</tspan>
</text>
<rect transform="translate(10.5506, 14.2831)" x="-0.0474" y="-2.5000" width="0.0948" height="3.3042" ry="0.0235" fill="currentColor"/>
<path transform="translate(10.5980, 11.8067) scale(0.0040, -0.0040)" d="M0 0v-250h-14v250h14zM0 0c0 -198 207 -336 207 -534c0 -71 -16 -142 -42 -208c-4 -7 -10 -11 -17 -11c-12 0 -24 10 -21 25c26 62 41 127 41 194c0 104 -96 209 -168 284v250z" fill="currentColor"/>
<rect transform="translate(30.9956, 14.2831)" x="-0.0474" y="-2.5000" width="0.0948" height="3.3042" ry="0.0235" fill="currentColor"/>
<text transform="translate(26.4218, 19.7831)" font-family="serif" font-size="1.5557" text-anchor="start" fill="currentColor">
<tspan>lo,</tspan>
</text>
<rect transform="translate(27.8850, 14.2831)" x="-0.0474" y="-1.0000" width="0.0948" height="3.3042" ry="0.0235" fill="currentColor"/>
<path transform="translate(27.9324, 13.3067) scale(0.0040, -0.0040)" d="M0 0v-250h-14v250h14zM0 0c0 -198 207 -336 207 -534c0 -71 -16 -142 -42 -208c-4 -7 -10 -11 -17 -11c-12 0 -24 10 -21 25c26 62 41 127 41 194c0 104 -96 209 -168 284v250z" fill="currentColor"/>
<circle transform="translate(32.6938, 15.2831)" stroke-linejoin="round" stroke-linecap="round" fill="currentColor" stroke="currentColor" stroke-width="0" r="0.5365"/>
<g color="rgb(100.0000%, 100.0000%, 100.0000%)">
<text transform="translate(32.3323, 15.6010)" font-family="sans-serif" font-weight="bold" font-size="0.8731" text-anchor="start" fill="currentColor">
<tspan>G</tspan>
</text>
</g>
<circle transform="translate(30.5065, 15.2831)" stroke-linejoin="round" stroke-linecap="round" fill="currentColor" stroke="currentColor" stroke-width="0" r="0.5365"/>
<g color="rgb(100.0000%, 100.0000%, 100.0000%)">
<text transform="translate(30.1450, 15.6010)" font-family="sans-serif" font-weight="bold" font-size="0.8731" text-anchor="start" fill="currentColor">
<tspan>G</tspan>
</text>
</g>
<circle transform="translate(22.5479, 16.2831)" stroke-linejoin="round" stroke-linecap="round" fill="currentColor" stroke="currentColor" stroke-width="0" r="0.5365"/>
<g color="rgb(100.0000%, 100.0000%, 100.0000%)">
<text transform="translate(22.2466, 16.6014)" font-family="sans-serif" font-weight="bold" font-size="0.8731" text-anchor="start" fill="currentColor">
<tspan>E</tspan>
</text>
</g>
<text transform="translate(29.6329, 19.7831)" font-family="serif" font-size="1.5557" text-anchor="start" fill="currentColor">
<tspan>že</tspan>
</text>
<text transform="translate(31.8302, 19.7831)" font-family="serif" font-size="1.5557" text-anchor="start" fill="currentColor">
<tspan>se</tspan>
</text>
<path transform="translate(31.0430, 11.8067) scale(0.0040, -0.0040)" d="M0 0v-250h-14v250h14zM0 0c0 -198 207 -336 207 -534c0 -71 -16 -142 -42 -208c-4 -7 -10 -11 -17 -11c-12 0 -24 10 -21 25c26 62 41 127 41 194c0 104 -96 209 -168 284v250z" fill="currentColor"/>
<rect transform="translate(25.6359, 14.2831)" x="-0.0474" y="-2.0000" width="0.0948" height="3.3042" ry="0.0235" fill="currentColor"/>
<rect transform="translate(35.2839, 14.2831)" x="-0.0474" y="-2.0000" width="0.0948" height="3.3042" ry="0.0235" fill="currentColor"/>
<text transform="translate(21.5738, 19.7831)" font-family="serif" font-size="1.5557" text-anchor="start" fill="currentColor">
<tspan>ku</tspan>
</text>
<rect transform="translate(23.0369, 14.2831)" x="-0.0474" y="-1.5000" width="0.0948" height="3.3042" ry="0.0235" fill="currentColor"/>
<path transform="translate(23.0843, 12.8067) scale(0.0040, -0.0040)" d="M0 0v-250h-14v250h14zM0 0c0 -198 207 -336 207 -534c0 -71 -16 -142 -42 -208c-4 -7 -10 -11 -17 -11c-12 0 -24 10 -21 25c26 62 41 127 41 194c0 104 -96 209 -168 284v250z" fill="currentColor"/>
<text transform="translate(34.2927, 19.7831)" font-family="serif" font-size="1.5557" text-anchor="start" fill="currentColor">
<tspan>li</tspan>
</text>
<circle transform="translate(34.7948, 15.7831)" stroke-linejoin="round" stroke-linecap="round" fill="currentColor" stroke="currentColor" stroke-width="0" r="0.5365"/>
<g color="rgb(100.0000%, 100.0000%, 100.0000%)">
<text transform="translate(34.4936, 16.1014)" font-family="sans-serif" font-weight="bold" font-size="0.8731" text-anchor="start" fill="currentColor">
<tspan>F</tspan>
</text>
</g>
<circle transform="translate(25.1469, 15.7831)" stroke-linejoin="round" stroke-linecap="round" fill="currentColor" stroke="currentColor" stroke-width="0" r="0.5365"/>
<g color="rgb(100.0000%, 100.0000%, 100.0000%)">
<text transform="translate(24.8456, 16.1014)" font-family="sans-serif" font-weight="bold" font-size="0.8731" text-anchor="start" fill="currentColor">
<tspan>F</tspan>
</text>
</g>
<text transform="translate(23.9720, 19.7831)" font-family="serif" font-size="1.5557" text-anchor="start" fill="currentColor">
<tspan>sta</tspan>
</text>
<circle transform="translate(27.3959, 16.7831)" stroke-linejoin="round" stroke-linecap="round" fill="currentColor" stroke="currentColor" stroke-width="0" r="0.5365"/>
<g color="rgb(100.0000%, 100.0000%, 100.0000%)">
<text transform="translate(27.0344, 17.1014)" font-family="sans-serif" font-weight="bold" font-size="0.8731" text-anchor="start" fill="currentColor">
<tspan>D</tspan>
</text>
</g>
<path transform="translate(25.6834, 12.3067) scale(0.0040, -0.0040)" d="M0 0v-250h-14v250h14zM0 0c0 -198 207 -336 207 -534c0 -71 -16 -142 -42 -208c-4 -7 -10 -11 -17 -11c-12 0 -24 10 -21 25c26 62 41 127 41 194c0 104 -96 209 -168 284v250z" fill="currentColor"/>
<path transform="translate(33.2303, 11.8067) scale(0.0040, -0.0040)" d="M0 0v-250h-14v250h14zM0 0c0 -198 207 -336 207 -534c0 -71 -16 -142 -42 -208c-4 -7 -10 -11 -17 -11c-12 0 -24 10 -21 25c26 62 41 127 41 194c0 104 -96 209 -168 284v250z" fill="currentColor"/>
<rect transform="translate(33.1829, 14.2831)" x="-0.0474" y="-2.5000" width="0.0948" height="3.3042" ry="0.0235" fill="currentColor"/>
</svg>
