<?xml version="1.0" encoding="UTF-8" standalone="no"?>
<svg
   xmlns:dc="http://purl.org/dc/elements/1.1/"
   xmlns:cc="http://creativecommons.org/ns#"
   xmlns:rdf="http://www.w3.org/1999/02/22-rdf-syntax-ns#"
   xmlns:svg="http://www.w3.org/2000/svg"
   xmlns="http://www.w3.org/2000/svg"
   xmlns:xlink="http://www.w3.org/1999/xlink"
   xmlns:sodipodi="http://sodipodi.sourceforge.net/DTD/sodipodi-0.dtd"
   xmlns:inkscape="http://www.inkscape.org/namespaces/inkscape"
   width="210mm"
   height="297mm"
   viewBox="0 0 210 297"
   version="1.1"
   id="svg2943"
   inkscape:version="1.0.1 (3bc2e813f5, 2020-09-07)"
   sodipodi:docname="pause.svg">
  <defs
     id="defs2937" />
  <sodipodi:namedview
     id="base"
     pagecolor="#ffffff"
     bordercolor="#666666"
     borderopacity="1.0"
     inkscape:pageopacity="0.0"
     inkscape:pageshadow="2"
     inkscape:zoom="7.9195959"
     inkscape:cx="445.8923"
     inkscape:cy="177.96492"
     inkscape:document-units="mm"
     inkscape:current-layer="layer1"
     inkscape:document-rotation="0"
     showgrid="false"
     inkscape:window-width="1600"
     inkscape:window-height="1163"
     inkscape:window-x="408"
     inkscape:window-y="0"
     inkscape:window-maximized="1" />
  <metadata
     id="metadata2940">
    <rdf:RDF>
      <cc:Work
         rdf:about="">
        <dc:format>image/svg+xml</dc:format>
        <dc:type
           rdf:resource="http://purl.org/dc/dcmitype/StillImage" />
        <dc:title></dc:title>
      </cc:Work>
    </rdf:RDF>
  </metadata>
  <g
     inkscape:label="Layer 1"
     inkscape:groupmode="layer"
     id="layer1">
    <a
       style="color:inherit"
       xlink:href="textedit:///home/mojzis/pers/noty/lilywork/score_only/byla_cesta_byla_uslapana.ly:12:47:48"
       id="a2767"
       transform="matrix(2.9871665,0,0,2.9871665,-58.544012,-1.157542)"
       inkscape:export-filename="/home/mojzis/pause.png"
       inkscape:export-xdpi="2898.77"
       inkscape:export-ydpi="2898.77">
      <path
         transform="matrix(0.004,0,0,-0.004,58.4685,13.9885)"
         d="m -23,-113 c 0,26 10,40 36,40 34,0 85,-15 130,-37 L 6,54 c -7,8 -10,17 -10,25 0,33 49,64 86,96 26,22 39,54 39,85 0,24 -8,47 -24,67 l -39,46 c -2,3 -3,6 -3,9 0,7 7,14 14,14 3,0 7,-1 10,-5 L 231,209 c 7,-8 10,-17 10,-25 0,-33 -49,-64 -86,-96 -26,-22 -39,-54 -39,-85 0,-24 8,-47 24,-67 l 87,-104 c 2,-3 3,-5 3,-8 0,-7 -7,-14 -14,-14 -3,0 -7,1 -10,5 -19,22 -66,43 -102,43 -40,0 -52,-29 -52,-70 0,-35 11,-75 28,-96 6,-7 -4,-16 -10,-9 -46,55 -93,150 -93,204 z"
         fill="currentColor"
         id="path2765" />
    </a>
    <rect
       style="fill:none;fill-opacity:1;stroke:none;stroke-width:1.03737;stroke-miterlimit:4;stroke-dasharray:none;stroke-opacity:1"
       id="rect3524"
       width="8.8194447"
       height="8.8194447"
       x="113.12222"
       y="35.713158"
       inkscape:export-xdpi="1440"
       inkscape:export-ydpi="1440" />
  </g>
</svg>
