<?xml version="1.0" standalone="no"?>
<!DOCTYPE svg PUBLIC "-//W3C//DTD SVG 20010904//EN"
 "http://www.w3.org/TR/2001/REC-SVG-20010904/DTD/svg10.dtd">
<svg version="1.0" xmlns="http://www.w3.org/2000/svg"
 width="500.000000pt" height="500.000000pt" viewBox="0 0 500.000000 500.000000"
 preserveAspectRatio="xMidYMid meet">
<metadata>
Created by potrace 1.11, written by Peter Selinger 2001-2013
</metadata>
<g transform="translate(0.000000,500.000000) scale(0.100000,-0.100000)"
fill="#000000" stroke="none">
<path d="M2132 4889 c-37 -14 -61 -50 -62 -90 0 -30 13 -51 86 -140 47 -57 89
-106 93 -109 3 -3 26 -30 51 -60 25 -30 47 -57 51 -60 18 -16 75 -110 101
-167 77 -171 79 -387 6 -573 -12 -30 -45 -91 -74 -136 -62 -94 -102 -133 -329
-316 -283 -228 -385 -358 -385 -491 0 -97 -41 -42 594 -802 197 -237 368 -441
380 -454 20 -23 20 -23 1 -14 -18 9 -88 41 -140 64 -119 52 -396 138 -503 155
-15 2 -38 7 -52 10 -48 11 -219 13 -257 2 -53 -14 -99 -52 -125 -101 -31 -59
-34 -216 -7 -347 62 -297 262 -721 487 -1035 111 -155 131 -176 160 -173 39 4
53 50 25 80 -65 73 -146 282 -168 433 -3 23 -8 52 -11 65 -3 14 -5 77 -5 141
0 248 63 392 194 450 194 85 618 -36 820 -235 25 -25 57 -50 70 -55 47 -18
117 34 117 87 0 22 -16 61 -29 72 -13 10 -557 663 -595 713 -54 73 -112 199
-129 285 -19 90 -15 252 7 337 24 91 99 233 158 300 54 62 70 76 282 248 383
310 460 476 309 664 -26 32 -50 60 -53 63 -3 3 -48 57 -100 120 -52 63 -105
126 -117 140 -12 14 -186 223 -388 465 -201 242 -374 445 -383 451 -27 19 -55
23 -80 13z"/>
</g>
</svg>
